M48
;Layer_Color=9474304
;FILE_FORMAT=2:5
INCH,LZ
;TYPE=PLATED
T1F00S00C0.01968
T2F00S00C0.02756
T3F00S00C0.03937
T4F00S00C0.04331
T5F00S00C0.13780
%
T01
X0646331Y001
X0275Y00295
X0274158Y0041501
X0278158
X0193658Y0036501
X0124Y0036
Y004
X012
Y0036
X0116
Y004
X0086
X0082
Y0036
X0086
X0078
Y004
X0042646Y001
X001Y0042646
X001Y017389
X00925Y018
X00965
X01005
X0099Y01545
X0095
X0103
X0107
X0127Y0141
Y0137
X0131
Y0141
X01335Y01275
X0151Y0142
Y0146
X0155
X0159
Y0142
X0155
X01795Y01345
X01865Y0153
X01905
X01945
Y0157
X01905
X01865
X02345Y0156
Y0152
Y0148
X0230658Y0073001
X0214658
X0222658Y0062001
Y0058001
X0180658Y0070501
X0165658Y0053001
X0161658
Y0049001
X0157658
Y0053001
X0165658Y0049001
X00975Y01005
Y01045
Y01085
X00935
Y01045
Y01005
X0238158Y0073001
X0242158
X0246158
X02535Y0046
X0274158Y0045501
Y0049501
X0278158
Y0045501
X0299Y0052
X02985Y0089
X03025
X03065
X0319Y0151
X03225
X02715
Y01475
X02385Y0148
Y0152
Y0156
X0453Y01775
X046Y01825
X04685Y0173
X0483Y0171
X05045Y01835
X05225Y01715
X0534
X05805Y01685
Y01645
X0584Y01665
X06055Y00935
X06155
X0646331Y0206535
X05285Y0198
X0489Y01985
X04145Y0198
X04105
X04065
X017
X0166
X0162
X0042646Y0206535
T02
X0637Y0041035
X0643
X0649
X0655
X0661
X0667
X0673
X0679
X01658Y0064535
X01603
X01548
X015755Y0070035
X016305
X016855
X01658Y0075535
X01603
X01548
X015755Y0081035
X016305
X016855
X01658Y0086535
X01603
X01548
X015205Y0081035
Y0070035
X0637Y0053035
X0643
X0649
X0655
X0661
X0667
X0673
X0679
X0676Y0059035
X067
X0673Y0065035
X0679
X0676Y0071035
X067
X0673Y0077035
X0679
X0676Y0083035
X067
X0673Y0089035
X0679
X0676Y0095035
X067
X0664
X0658
X0652
X0655Y0101035
X0661
X0667
X0673
X0679
X0676Y0107035
X067
X0664
X0658
X0661Y0113035
X0667
X0673
X0679
X0676Y0119035
X067
X0664
X0658
X0652
X0655Y0125035
X0661
X0667
X0673
X0679
X0676Y0131035
X067
X0673Y0137035
X0679
X0676Y0143035
X067
X0673Y0149035
X0679
X0676Y0155035
X067
X0673Y0161035
X0679
X0676Y0167035
X067
X0664
X0658
X0652
X0655Y0161035
X0661
X0667
X0649
X0643
X0637
X064Y0167035
X0643Y0125035
X0649
X0637
X064Y0119035
X0637Y0113035
Y0101035
X064Y0095035
X0643Y0089035
X0649
X0655
X0661
X0667
X0637
X0655Y0113035
X0658Y0047035
X0664
X067
X0676
X0652
X0646
X064
T03
X007559Y0190846
X0083464
X0091338
X0099212
X0138583
X0146457
X0154331
X0162205
X0170079
X0414174
X0422048
X0429922
X0437796
X044567
X0453544
X0461418
X0469292
X0477166
X048504
X0492914
X0500788
X0508662
X0516536
X052441
X0532284
X0540158
X0548032
X0587402
X0595276
X060315
X0611024
T04
X002Y0073
Y0083
Y0093
Y0103
Y0113
Y0123
Y0133
Y0143
X003
Y0133
Y0123
Y0113
Y0103
Y0093
Y0083
Y0073
T05
X0669291Y0019685
X0019685
Y019685
X0669291
M30
