G04*
G04 #@! TF.GenerationSoftware,Altium Limited,Altium Designer,22.1.2 (22)*
G04*
G04 Layer_Physical_Order=1*
G04 Layer_Color=39423*
%FSLAX25Y25*%
%MOIN*%
G70*
G04*
G04 #@! TF.SameCoordinates,59E48C8D-FAF2-4F44-849B-A05F376D2ADF*
G04*
G04*
G04 #@! TF.FilePolarity,Positive*
G04*
G01*
G75*
%ADD10C,0.01000*%
%ADD21C,0.04000*%
%ADD22C,0.02000*%
%ADD23O,0.19685X0.03937*%
%ADD24O,0.13780X0.11811*%
%ADD25O,0.03937X0.19685*%
%ADD26O,0.05866X0.07874*%
%ADD27C,0.11811*%
%ADD28C,0.09843*%
%ADD29C,0.27559*%
%ADD30C,0.06693*%
%ADD31R,0.06693X0.06693*%
%ADD32C,0.03543*%
%ADD33C,0.04724*%
G36*
X7874Y214035D02*
X681102D01*
X681122Y214035D01*
X681303Y214032D01*
X681504Y214020D01*
X681704Y214002D01*
X681903Y213975D01*
X682101Y213942D01*
X682298Y213901D01*
X682493Y213852D01*
X682686Y213797D01*
X682877Y213734D01*
X683066Y213664D01*
X683251Y213587D01*
X683434Y213503D01*
X683613Y213413D01*
X683789Y213315D01*
X683961Y213212D01*
X684130Y213102D01*
X684294Y212985D01*
X684453Y212863D01*
X684608Y212735D01*
X684758Y212601D01*
X684902Y212461D01*
X685042Y212317D01*
X685176Y212167D01*
X685304Y212012D01*
X685426Y211853D01*
X685542Y211689D01*
X685653Y211521D01*
X685756Y211348D01*
X685853Y211173D01*
X685944Y210993D01*
X686028Y210810D01*
X686105Y210625D01*
X686175Y210436D01*
X686238Y210245D01*
X686293Y210052D01*
X686342Y209857D01*
X686383Y209661D01*
X686416Y209462D01*
X686443Y209263D01*
X686444Y209248D01*
X686475Y208661D01*
X686475Y208061D01*
X686475Y7874D01*
X686476Y7854D01*
X686473Y7673D01*
X686461Y7472D01*
X686443Y7272D01*
X686416Y7073D01*
X686383Y6875D01*
X686342Y6678D01*
X686293Y6483D01*
X686238Y6290D01*
X686175Y6099D01*
X686105Y5911D01*
X686028Y5725D01*
X685944Y5542D01*
X685854Y5363D01*
X685756Y5187D01*
X685653Y5015D01*
X685542Y4847D01*
X685426Y4683D01*
X685304Y4523D01*
X685176Y4369D01*
X685042Y4219D01*
X684902Y4074D01*
X684758Y3935D01*
X684608Y3801D01*
X684453Y3672D01*
X684294Y3550D01*
X684130Y3434D01*
X683961Y3324D01*
X683789Y3220D01*
X683613Y3123D01*
X683434Y3032D01*
X683251Y2949D01*
X683066Y2871D01*
X682877Y2802D01*
X682686Y2739D01*
X682493Y2683D01*
X682298Y2635D01*
X682101Y2594D01*
X681903Y2560D01*
X681704Y2534D01*
X681504Y2515D01*
X681303Y2504D01*
X681122Y2500D01*
X681102Y2501D01*
X7874D01*
X7854Y2500D01*
X7673Y2504D01*
X7472Y2515D01*
X7272Y2534D01*
X7073Y2560D01*
X6875Y2594D01*
X6678Y2635D01*
X6483Y2683D01*
X6290Y2739D01*
X6099Y2802D01*
X5911Y2871D01*
X5725Y2949D01*
X5542Y3032D01*
X5363Y3123D01*
X5187Y3220D01*
X5015Y3324D01*
X4847Y3434D01*
X4683Y3550D01*
X4523Y3672D01*
X4369Y3801D01*
X4219Y3935D01*
X4074Y4074D01*
X3935Y4219D01*
X3801Y4369D01*
X3672Y4523D01*
X3550Y4683D01*
X3434Y4847D01*
X3324Y5015D01*
X3220Y5187D01*
X3123Y5363D01*
X3032Y5542D01*
X2949Y5725D01*
X2871Y5911D01*
X2802Y6099D01*
X2739Y6290D01*
X2683Y6483D01*
X2635Y6678D01*
X2594Y6875D01*
X2560Y7073D01*
X2534Y7272D01*
X2515Y7472D01*
X2504Y7673D01*
X2500Y7854D01*
X2501Y7874D01*
X2501Y208661D01*
X2500Y208681D01*
X2504Y208862D01*
X2515Y209063D01*
X2534Y209263D01*
X2560Y209462D01*
X2594Y209661D01*
X2635Y209857D01*
X2683Y210052D01*
X2739Y210245D01*
X2802Y210436D01*
X2871Y210625D01*
X2948Y210810D01*
X3032Y210993D01*
X3123Y211173D01*
X3220Y211348D01*
X3324Y211521D01*
X3434Y211689D01*
X3550Y211853D01*
X3672Y212012D01*
X3801Y212167D01*
X3935Y212317D01*
X4074Y212461D01*
X4219Y212601D01*
X4369Y212735D01*
X4523Y212863D01*
X4683Y212985D01*
X4847Y213102D01*
X5015Y213212D01*
X5187Y213315D01*
X5363Y213413D01*
X5542Y213503D01*
X5725Y213587D01*
X5911Y213664D01*
X6099Y213734D01*
X6290Y213797D01*
X6483Y213852D01*
X6678Y213901D01*
X6875Y213942D01*
X7073Y213975D01*
X7272Y214002D01*
X7472Y214020D01*
X7673Y214032D01*
X7854Y214035D01*
X7874Y214035D01*
D02*
G37*
%LPC*%
G36*
X573819Y204249D02*
X558071D01*
X557925Y204245D01*
X557780Y204235D01*
X557635Y204217D01*
X557492Y204192D01*
X557349Y204160D01*
X557209Y204121D01*
X557071Y204075D01*
X556935Y204023D01*
X556801Y203964D01*
X556671Y203898D01*
X556544Y203826D01*
X556421Y203748D01*
X556302Y203664D01*
X556187Y203575D01*
X556077Y203480D01*
X555971Y203379D01*
X555871Y203274D01*
X555776Y203163D01*
X555686Y203048D01*
X555602Y202929D01*
X555524Y202806D01*
X555452Y202679D01*
X555387Y202549D01*
X555328Y202416D01*
X555275Y202280D01*
X555229Y202141D01*
X555191Y202001D01*
X555159Y201859D01*
X555134Y201715D01*
X555116Y201571D01*
X555105Y201425D01*
X555101Y201279D01*
X555105Y201134D01*
X555116Y200988D01*
X555134Y200844D01*
X555159Y200700D01*
X555191Y200558D01*
X555229Y200417D01*
X555275Y200279D01*
X555328Y200143D01*
X555387Y200010D01*
X555452Y199880D01*
X555524Y199753D01*
X555602Y199630D01*
X555686Y199511D01*
X555776Y199396D01*
X555871Y199285D01*
X555971Y199180D01*
X556077Y199079D01*
X556187Y198984D01*
X556302Y198895D01*
X556421Y198811D01*
X556544Y198733D01*
X556671Y198661D01*
X556801Y198595D01*
X556935Y198536D01*
X557071Y198484D01*
X557209Y198438D01*
X557349Y198399D01*
X557492Y198367D01*
X557635Y198342D01*
X557780Y198324D01*
X557925Y198314D01*
X558071Y198310D01*
X573819D01*
X573965Y198314D01*
X574110Y198324D01*
X574255Y198342D01*
X574398Y198367D01*
X574541Y198399D01*
X574681Y198438D01*
X574819Y198484D01*
X574955Y198536D01*
X575089Y198595D01*
X575219Y198661D01*
X575346Y198733D01*
X575469Y198811D01*
X575588Y198895D01*
X575703Y198984D01*
X575813Y199079D01*
X575919Y199180D01*
X576019Y199285D01*
X576114Y199396D01*
X576204Y199511D01*
X576288Y199630D01*
X576366Y199753D01*
X576438Y199880D01*
X576503Y200010D01*
X576562Y200143D01*
X576615Y200279D01*
X576660Y200417D01*
X576699Y200558D01*
X576731Y200700D01*
X576756Y200844D01*
X576774Y200988D01*
X576785Y201134D01*
X576788Y201279D01*
X576785Y201425D01*
X576774Y201571D01*
X576756Y201715D01*
X576731Y201859D01*
X576699Y202001D01*
X576660Y202141D01*
X576615Y202280D01*
X576562Y202416D01*
X576503Y202549D01*
X576438Y202679D01*
X576366Y202806D01*
X576288Y202929D01*
X576204Y203048D01*
X576114Y203163D01*
X576019Y203274D01*
X575919Y203379D01*
X575813Y203480D01*
X575703Y203575D01*
X575588Y203664D01*
X575469Y203748D01*
X575346Y203826D01*
X575219Y203898D01*
X575089Y203964D01*
X574955Y204023D01*
X574819Y204075D01*
X574681Y204121D01*
X574541Y204160D01*
X574398Y204192D01*
X574255Y204217D01*
X574110Y204235D01*
X573965Y204245D01*
X573819Y204249D01*
D02*
G37*
G36*
X124803D02*
X109055D01*
X108909Y204245D01*
X108764Y204235D01*
X108619Y204217D01*
X108476Y204192D01*
X108334Y204160D01*
X108193Y204121D01*
X108055Y204075D01*
X107919Y204023D01*
X107785Y203964D01*
X107655Y203898D01*
X107528Y203826D01*
X107405Y203748D01*
X107286Y203664D01*
X107171Y203575D01*
X107061Y203480D01*
X106955Y203379D01*
X106855Y203274D01*
X106760Y203163D01*
X106670Y203048D01*
X106586Y202929D01*
X106508Y202806D01*
X106436Y202679D01*
X106371Y202549D01*
X106312Y202416D01*
X106259Y202280D01*
X106213Y202141D01*
X106175Y202001D01*
X106143Y201859D01*
X106118Y201715D01*
X106100Y201571D01*
X106089Y201425D01*
X106086Y201279D01*
X106089Y201134D01*
X106100Y200988D01*
X106118Y200844D01*
X106143Y200700D01*
X106175Y200558D01*
X106213Y200417D01*
X106259Y200279D01*
X106312Y200143D01*
X106371Y200010D01*
X106436Y199880D01*
X106508Y199753D01*
X106586Y199630D01*
X106670Y199511D01*
X106760Y199396D01*
X106855Y199285D01*
X106955Y199180D01*
X107061Y199079D01*
X107171Y198984D01*
X107286Y198895D01*
X107405Y198811D01*
X107528Y198733D01*
X107655Y198661D01*
X107785Y198595D01*
X107919Y198536D01*
X108055Y198484D01*
X108193Y198438D01*
X108334Y198399D01*
X108476Y198367D01*
X108619Y198342D01*
X108764Y198324D01*
X108909Y198314D01*
X109055Y198310D01*
X124803D01*
X124949Y198314D01*
X125094Y198324D01*
X125239Y198342D01*
X125382Y198367D01*
X125525Y198399D01*
X125665Y198438D01*
X125803Y198484D01*
X125940Y198536D01*
X126073Y198595D01*
X126203Y198661D01*
X126330Y198733D01*
X126453Y198811D01*
X126572Y198895D01*
X126687Y198984D01*
X126797Y199079D01*
X126903Y199180D01*
X127003Y199285D01*
X127099Y199396D01*
X127188Y199511D01*
X127272Y199630D01*
X127350Y199753D01*
X127422Y199880D01*
X127487Y200010D01*
X127547Y200143D01*
X127599Y200279D01*
X127645Y200417D01*
X127683Y200558D01*
X127715Y200700D01*
X127740Y200844D01*
X127758Y200988D01*
X127769Y201134D01*
X127772Y201279D01*
X127769Y201425D01*
X127758Y201571D01*
X127740Y201715D01*
X127715Y201859D01*
X127683Y202001D01*
X127645Y202141D01*
X127599Y202280D01*
X127547Y202416D01*
X127487Y202549D01*
X127422Y202679D01*
X127350Y202806D01*
X127272Y202929D01*
X127188Y203048D01*
X127099Y203163D01*
X127003Y203274D01*
X126903Y203379D01*
X126797Y203480D01*
X126687Y203575D01*
X126572Y203664D01*
X126453Y203748D01*
X126330Y203826D01*
X126203Y203898D01*
X126073Y203964D01*
X125940Y204023D01*
X125803Y204075D01*
X125665Y204121D01*
X125525Y204160D01*
X125382Y204192D01*
X125239Y204217D01*
X125094Y204235D01*
X124949Y204245D01*
X124803Y204249D01*
D02*
G37*
G36*
X425500Y196000D02*
X418500D01*
X417500Y195000D01*
Y194931D01*
X417104Y194714D01*
X416900Y194685D01*
X416831Y194751D01*
X416702Y194864D01*
X416568Y194972D01*
X416430Y195073D01*
X416287Y195168D01*
X416140Y195257D01*
X415990Y195340D01*
X415836Y195416D01*
X415679Y195485D01*
X415519Y195547D01*
X415356Y195602D01*
X415192Y195650D01*
X415025Y195691D01*
X414857Y195725D01*
X414687Y195751D01*
X414516Y195769D01*
X414345Y195781D01*
X414174Y195784D01*
X414002Y195781D01*
X413831Y195769D01*
X413660Y195751D01*
X413490Y195725D01*
X413322Y195691D01*
X413155Y195650D01*
X412991Y195602D01*
X412828Y195547D01*
X412668Y195485D01*
X412511Y195416D01*
X412357Y195340D01*
X412207Y195257D01*
X412060Y195168D01*
X411917Y195073D01*
X411779Y194972D01*
X411645Y194864D01*
X411516Y194751D01*
X411392Y194632D01*
X411273Y194508D01*
X411160Y194379D01*
X411053Y194245D01*
X410951Y194107D01*
X410856Y193964D01*
X410767Y193817D01*
X410684Y193667D01*
X410608Y193513D01*
X410539Y193356D01*
X410477Y193196D01*
X410422Y193034D01*
X410374Y192869D01*
X410333Y192702D01*
X410300Y192534D01*
X410274Y192364D01*
X410255Y192193D01*
X410244Y192022D01*
X410240Y191851D01*
Y189842D01*
X410244Y189671D01*
X410255Y189499D01*
X410274Y189329D01*
X410300Y189159D01*
X410333Y188991D01*
X410374Y188824D01*
X410422Y188659D01*
X410477Y188497D01*
X410539Y188337D01*
X410608Y188180D01*
X410684Y188026D01*
X410767Y187875D01*
X410856Y187729D01*
X410951Y187586D01*
X411053Y187448D01*
X411160Y187314D01*
X411273Y187185D01*
X411392Y187061D01*
X411516Y186942D01*
X411645Y186829D01*
X411779Y186721D01*
X411917Y186620D01*
X412060Y186524D01*
X412207Y186435D01*
X412357Y186353D01*
X412511Y186277D01*
X412668Y186208D01*
X412828Y186146D01*
X412991Y186091D01*
X413155Y186042D01*
X413322Y186002D01*
X413490Y185968D01*
X413660Y185942D01*
X413831Y185924D01*
X414002Y185912D01*
X414174Y185908D01*
X414345Y185912D01*
X414516Y185924D01*
X414687Y185942D01*
X414857Y185968D01*
X415025Y186002D01*
X415192Y186042D01*
X415356Y186091D01*
X415519Y186146D01*
X415679Y186208D01*
X415836Y186277D01*
X415990Y186353D01*
X416140Y186435D01*
X416287Y186524D01*
X416430Y186620D01*
X416568Y186721D01*
X416702Y186829D01*
X416831Y186942D01*
X416900Y187008D01*
X417104Y186979D01*
X417500Y186762D01*
Y186500D01*
X418500Y185500D01*
X425500D01*
X426500Y186500D01*
Y186869D01*
X426796Y187048D01*
X427100Y187102D01*
X427140Y187061D01*
X427264Y186942D01*
X427393Y186829D01*
X427527Y186721D01*
X427665Y186620D01*
X427808Y186524D01*
X427955Y186435D01*
X428105Y186353D01*
X428259Y186277D01*
X428416Y186208D01*
X428576Y186146D01*
X428739Y186091D01*
X428903Y186042D01*
X429070Y186002D01*
X429239Y185968D01*
X429408Y185942D01*
X429579Y185924D01*
X429750Y185912D01*
X429922Y185908D01*
X430093Y185912D01*
X430264Y185924D01*
X430435Y185942D01*
X430605Y185968D01*
X430773Y186002D01*
X430940Y186042D01*
X431104Y186091D01*
X431267Y186146D01*
X431427Y186208D01*
X431584Y186277D01*
X431738Y186353D01*
X431888Y186435D01*
X432035Y186524D01*
X432178Y186620D01*
X432316Y186721D01*
X432450Y186829D01*
X432579Y186942D01*
X432703Y187061D01*
X432822Y187185D01*
X432935Y187314D01*
X433042Y187448D01*
X433144Y187586D01*
X433239Y187729D01*
X433328Y187875D01*
X433411Y188026D01*
X433487Y188180D01*
X433538Y188296D01*
X433601Y188319D01*
X433667Y188337D01*
X434051D01*
X434116Y188319D01*
X434179Y188296D01*
X434230Y188180D01*
X434306Y188026D01*
X434389Y187875D01*
X434478Y187729D01*
X434573Y187586D01*
X434675Y187448D01*
X434782Y187314D01*
X434895Y187185D01*
X435014Y187061D01*
X435138Y186942D01*
X435267Y186829D01*
X435401Y186721D01*
X435539Y186620D01*
X435682Y186524D01*
X435829Y186435D01*
X435979Y186353D01*
X436133Y186277D01*
X436290Y186208D01*
X436450Y186146D01*
X436613Y186091D01*
X436777Y186042D01*
X436944Y186002D01*
X437113Y185968D01*
X437282Y185942D01*
X437296Y185941D01*
Y190846D01*
Y195752D01*
X437282Y195751D01*
X437113Y195725D01*
X436944Y195691D01*
X436777Y195650D01*
X436613Y195602D01*
X436450Y195547D01*
X436290Y195485D01*
X436133Y195416D01*
X435979Y195340D01*
X435829Y195257D01*
X435682Y195168D01*
X435539Y195073D01*
X435401Y194972D01*
X435267Y194864D01*
X435138Y194751D01*
X435014Y194632D01*
X434895Y194508D01*
X434782Y194379D01*
X434675Y194245D01*
X434573Y194107D01*
X434478Y193964D01*
X434389Y193817D01*
X434306Y193667D01*
X434230Y193513D01*
X434179Y193397D01*
X434116Y193374D01*
X434051Y193356D01*
X433667D01*
X433601Y193374D01*
X433538Y193397D01*
X433487Y193513D01*
X433411Y193667D01*
X433328Y193817D01*
X433239Y193964D01*
X433144Y194107D01*
X433042Y194245D01*
X432935Y194379D01*
X432822Y194508D01*
X432703Y194632D01*
X432579Y194751D01*
X432450Y194864D01*
X432316Y194972D01*
X432178Y195073D01*
X432035Y195168D01*
X431888Y195257D01*
X431738Y195340D01*
X431584Y195416D01*
X431427Y195485D01*
X431267Y195547D01*
X431104Y195602D01*
X430940Y195650D01*
X430773Y195691D01*
X430605Y195725D01*
X430435Y195751D01*
X430264Y195769D01*
X430093Y195781D01*
X429922Y195784D01*
X429750Y195781D01*
X429579Y195769D01*
X429408Y195751D01*
X429239Y195725D01*
X429070Y195691D01*
X428903Y195650D01*
X428739Y195602D01*
X428576Y195547D01*
X428416Y195485D01*
X428259Y195416D01*
X428105Y195340D01*
X427955Y195257D01*
X427808Y195168D01*
X427665Y195073D01*
X427527Y194972D01*
X427393Y194864D01*
X427264Y194751D01*
X427140Y194632D01*
X427100Y194590D01*
X426796Y194644D01*
X426500Y194824D01*
Y195000D01*
X425500Y196000D01*
D02*
G37*
G36*
X157500D02*
X151000D01*
X150000Y195000D01*
Y194677D01*
X149681Y194498D01*
X149400Y194459D01*
X149357Y194508D01*
X149238Y194632D01*
X149114Y194751D01*
X148985Y194864D01*
X148851Y194972D01*
X148713Y195073D01*
X148570Y195168D01*
X148423Y195257D01*
X148273Y195340D01*
X148119Y195416D01*
X147962Y195485D01*
X147802Y195547D01*
X147639Y195602D01*
X147475Y195650D01*
X147308Y195691D01*
X147140Y195725D01*
X146970Y195751D01*
X146957Y195752D01*
Y190846D01*
Y185941D01*
X146970Y185942D01*
X147140Y185968D01*
X147308Y186002D01*
X147475Y186042D01*
X147639Y186091D01*
X147802Y186146D01*
X147962Y186208D01*
X148119Y186277D01*
X148273Y186353D01*
X148423Y186435D01*
X148570Y186524D01*
X148713Y186620D01*
X148851Y186721D01*
X148985Y186829D01*
X149114Y186942D01*
X149238Y187061D01*
X149357Y187185D01*
X149400Y187234D01*
X149681Y187195D01*
X150000Y187015D01*
Y186500D01*
X151000Y185500D01*
X157500D01*
X158500Y186500D01*
Y187229D01*
X159041Y187431D01*
X159100Y187427D01*
X159191Y187314D01*
X159304Y187185D01*
X159423Y187061D01*
X159547Y186942D01*
X159676Y186829D01*
X159810Y186721D01*
X159948Y186620D01*
X160070Y186539D01*
X160075Y186522D01*
X160124Y186283D01*
X160195Y185534D01*
X160204Y185082D01*
Y181119D01*
X159585Y180501D01*
X135000D01*
X134853Y180497D01*
X134706Y180486D01*
X134560Y180468D01*
X134415Y180443D01*
X134271Y180411D01*
X134129Y180372D01*
X133989Y180325D01*
X133852Y180272D01*
X133717Y180213D01*
X133585Y180147D01*
X133457Y180074D01*
X133333Y179995D01*
X133212Y179910D01*
X133096Y179820D01*
X132985Y179724D01*
X132878Y179622D01*
X110757Y157501D01*
X13000D01*
X13000Y157501D01*
X12853Y157497D01*
X12706Y157486D01*
X12560Y157468D01*
X12415Y157443D01*
X12271Y157411D01*
X12129Y157372D01*
X11989Y157325D01*
X11852Y157273D01*
X11717Y157213D01*
X11585Y157147D01*
X11457Y157074D01*
X11333Y156995D01*
X11212Y156910D01*
X11096Y156820D01*
X10985Y156723D01*
X10878Y156622D01*
X5878Y151622D01*
X5776Y151515D01*
X5680Y151404D01*
X5590Y151288D01*
X5505Y151167D01*
X5426Y151043D01*
X5353Y150915D01*
X5287Y150783D01*
X5227Y150648D01*
X5175Y150511D01*
X5128Y150371D01*
X5089Y150229D01*
X5057Y150085D01*
X5032Y149940D01*
X5014Y149794D01*
X5003Y149647D01*
X4999Y149500D01*
Y63500D01*
X5003Y63353D01*
X5014Y63206D01*
X5032Y63060D01*
X5057Y62915D01*
X5089Y62771D01*
X5128Y62629D01*
X5175Y62489D01*
X5227Y62352D01*
X5287Y62217D01*
X5353Y62085D01*
X5426Y61957D01*
X5505Y61833D01*
X5590Y61712D01*
X5680Y61596D01*
X5776Y61485D01*
X5878Y61378D01*
X10878Y56378D01*
X10985Y56277D01*
X11096Y56180D01*
X11212Y56090D01*
X11333Y56005D01*
X11457Y55926D01*
X11585Y55853D01*
X11717Y55787D01*
X11852Y55727D01*
X11989Y55674D01*
X12129Y55628D01*
X12271Y55589D01*
X12415Y55557D01*
X12560Y55532D01*
X12706Y55514D01*
X12853Y55503D01*
X13000Y55499D01*
X13000Y55499D01*
X25000D01*
X25147Y55503D01*
X25294Y55514D01*
X25440Y55532D01*
X25585Y55557D01*
X25729Y55589D01*
X25871Y55628D01*
X26011Y55674D01*
X26148Y55727D01*
X26283Y55787D01*
X26415Y55853D01*
X26543Y55926D01*
X26667Y56005D01*
X26788Y56090D01*
X26904Y56180D01*
X27015Y56277D01*
X27122Y56378D01*
X32122Y61378D01*
X32223Y61485D01*
X32320Y61596D01*
X32410Y61712D01*
X32495Y61833D01*
X32574Y61957D01*
X32647Y62085D01*
X32713Y62217D01*
X32772Y62352D01*
X32825Y62489D01*
X32872Y62629D01*
X32911Y62771D01*
X32943Y62915D01*
X32968Y63060D01*
X32987Y63206D01*
X32997Y63353D01*
X33001Y63500D01*
X33001Y63500D01*
Y68300D01*
X33001Y68300D01*
X33004Y68660D01*
X33030Y69269D01*
X33077Y69728D01*
X33103Y69874D01*
X33129Y69979D01*
X33131Y69984D01*
X33137Y69990D01*
X33259Y70122D01*
X33375Y70259D01*
X33485Y70401D01*
X33590Y70547D01*
X33688Y70698D01*
X33780Y70852D01*
X33865Y71010D01*
X33944Y71172D01*
X34016Y71336D01*
X34082Y71504D01*
X34140Y71674D01*
X34191Y71846D01*
X34236Y72020D01*
X34272Y72196D01*
X34302Y72373D01*
X34324Y72552D01*
X34339Y72731D01*
X34346Y72910D01*
Y73090D01*
X34339Y73269D01*
X34324Y73448D01*
X34302Y73627D01*
X34272Y73804D01*
X34236Y73980D01*
X34191Y74154D01*
X34140Y74326D01*
X34082Y74496D01*
X34016Y74664D01*
X33944Y74828D01*
X33865Y74990D01*
X33780Y75148D01*
X33688Y75302D01*
X33590Y75453D01*
X33485Y75599D01*
X33375Y75740D01*
X33259Y75878D01*
X33137Y76010D01*
X33010Y76137D01*
X32878Y76259D01*
X32741Y76375D01*
X32599Y76485D01*
X32452Y76590D01*
X32302Y76688D01*
X32148Y76780D01*
X31990Y76865D01*
X31828Y76944D01*
X31664Y77017D01*
X31496Y77082D01*
X31326Y77140D01*
X31154Y77191D01*
X30980Y77236D01*
X30804Y77272D01*
X30627Y77302D01*
X30448Y77324D01*
X30269Y77339D01*
X30090Y77346D01*
X29910D01*
X29731Y77339D01*
X29552Y77324D01*
X29373Y77302D01*
X29196Y77272D01*
X29020Y77236D01*
X28846Y77191D01*
X28674Y77140D01*
X28504Y77082D01*
X28336Y77017D01*
X28172Y76944D01*
X28010Y76865D01*
X27852Y76780D01*
X27698Y76688D01*
X27547Y76590D01*
X27401Y76485D01*
X27259Y76375D01*
X27122Y76259D01*
X26990Y76137D01*
X26863Y76010D01*
X26741Y75878D01*
X26625Y75740D01*
X26515Y75599D01*
X26410Y75453D01*
X26312Y75302D01*
X26220Y75148D01*
X26135Y74990D01*
X26056Y74828D01*
X25984Y74664D01*
X25918Y74496D01*
X25860Y74326D01*
X25809Y74154D01*
X25765Y73980D01*
X25728Y73804D01*
X25698Y73627D01*
X25676Y73448D01*
X25661Y73269D01*
X25654Y73090D01*
Y72910D01*
X25661Y72731D01*
X25676Y72552D01*
X25698Y72373D01*
X25728Y72196D01*
X25765Y72020D01*
X25809Y71846D01*
X25860Y71674D01*
X25918Y71504D01*
X25984Y71336D01*
X26056Y71172D01*
X26135Y71010D01*
X26220Y70852D01*
X26312Y70698D01*
X26410Y70547D01*
X26515Y70401D01*
X26625Y70259D01*
X26741Y70122D01*
X26863Y69990D01*
X26869Y69984D01*
X26871Y69979D01*
X26897Y69874D01*
X26919Y69745D01*
X26996Y68647D01*
X26999Y68300D01*
X26999Y68300D01*
Y64743D01*
X23757Y61501D01*
X14243D01*
X11001Y64743D01*
Y148257D01*
X14243Y151499D01*
X112000D01*
X112147Y151503D01*
X112294Y151514D01*
X112440Y151532D01*
X112585Y151557D01*
X112729Y151589D01*
X112871Y151628D01*
X113011Y151674D01*
X113148Y151727D01*
X113283Y151787D01*
X113415Y151853D01*
X113543Y151926D01*
X113667Y152005D01*
X113788Y152090D01*
X113904Y152180D01*
X114015Y152277D01*
X114122Y152378D01*
X136243Y174499D01*
X453000D01*
X453147Y174503D01*
X453294Y174514D01*
X453440Y174532D01*
X453585Y174557D01*
X453729Y174589D01*
X453871Y174628D01*
X454011Y174674D01*
X454148Y174727D01*
X454283Y174787D01*
X454415Y174853D01*
X454543Y174926D01*
X454667Y175005D01*
X454788Y175090D01*
X454904Y175180D01*
X455015Y175277D01*
X455122Y175378D01*
X455224Y175485D01*
X455320Y175596D01*
X455410Y175712D01*
X455495Y175833D01*
X455574Y175957D01*
X455647Y176085D01*
X455713Y176217D01*
X455772Y176352D01*
X455826Y176489D01*
X455872Y176629D01*
X455911Y176771D01*
X455943Y176915D01*
X455968Y177060D01*
X455986Y177206D01*
X455997Y177353D01*
X456001Y177500D01*
X455997Y177647D01*
X455986Y177794D01*
X455968Y177940D01*
X455943Y178085D01*
X455911Y178229D01*
X455872Y178371D01*
X455826Y178511D01*
X455772Y178648D01*
X455713Y178783D01*
X455647Y178915D01*
X455574Y179043D01*
X455495Y179167D01*
X455410Y179288D01*
X455320Y179404D01*
X455224Y179515D01*
X455122Y179622D01*
X455015Y179724D01*
X454904Y179820D01*
X454788Y179910D01*
X454667Y179995D01*
X454543Y180074D01*
X454415Y180147D01*
X454283Y180213D01*
X454148Y180272D01*
X454011Y180325D01*
X453871Y180372D01*
X453729Y180411D01*
X453585Y180443D01*
X453440Y180468D01*
X453294Y180486D01*
X453147Y180497D01*
X453000Y180501D01*
X164915D01*
X164206Y181210D01*
Y185081D01*
X164215Y185548D01*
X164241Y185941D01*
X164282Y186267D01*
X164334Y186522D01*
X164339Y186539D01*
X164461Y186620D01*
X164599Y186721D01*
X164733Y186829D01*
X164862Y186942D01*
X164986Y187061D01*
X165105Y187185D01*
X165218Y187314D01*
X165325Y187448D01*
X165427Y187586D01*
X165522Y187729D01*
X165611Y187875D01*
X165694Y188026D01*
X165770Y188180D01*
X165821Y188296D01*
X165884Y188319D01*
X165949Y188337D01*
X166334D01*
X166399Y188319D01*
X166462Y188296D01*
X166513Y188180D01*
X166589Y188026D01*
X166672Y187875D01*
X166761Y187729D01*
X166856Y187586D01*
X166958Y187448D01*
X167065Y187314D01*
X167178Y187185D01*
X167297Y187061D01*
X167421Y186942D01*
X167550Y186829D01*
X167684Y186721D01*
X167822Y186620D01*
X167965Y186524D01*
X168112Y186435D01*
X168262Y186353D01*
X168416Y186277D01*
X168573Y186208D01*
X168733Y186146D01*
X168896Y186091D01*
X169060Y186042D01*
X169227Y186002D01*
X169395Y185968D01*
X169565Y185942D01*
X169736Y185924D01*
X169907Y185912D01*
X170079Y185908D01*
X170250Y185912D01*
X170421Y185924D01*
X170592Y185942D01*
X170762Y185968D01*
X170930Y186002D01*
X171097Y186042D01*
X171261Y186091D01*
X171424Y186146D01*
X171584Y186208D01*
X171741Y186277D01*
X171895Y186353D01*
X172045Y186435D01*
X172192Y186524D01*
X172335Y186620D01*
X172473Y186721D01*
X172607Y186829D01*
X172736Y186942D01*
X172860Y187061D01*
X172979Y187185D01*
X173092Y187314D01*
X173199Y187448D01*
X173301Y187586D01*
X173396Y187729D01*
X173485Y187875D01*
X173568Y188026D01*
X173644Y188180D01*
X173713Y188337D01*
X173775Y188497D01*
X173830Y188659D01*
X173878Y188824D01*
X173919Y188991D01*
X173952Y189159D01*
X173979Y189329D01*
X173997Y189499D01*
X174009Y189671D01*
X174012Y189842D01*
Y191851D01*
X174009Y192022D01*
X173997Y192193D01*
X173979Y192364D01*
X173952Y192534D01*
X173919Y192702D01*
X173878Y192869D01*
X173830Y193034D01*
X173775Y193196D01*
X173713Y193356D01*
X173644Y193513D01*
X173568Y193667D01*
X173485Y193817D01*
X173396Y193964D01*
X173301Y194107D01*
X173199Y194245D01*
X173092Y194379D01*
X172979Y194508D01*
X172860Y194632D01*
X172736Y194751D01*
X172607Y194864D01*
X172473Y194972D01*
X172335Y195073D01*
X172192Y195168D01*
X172045Y195257D01*
X171895Y195340D01*
X171741Y195416D01*
X171584Y195485D01*
X171424Y195547D01*
X171261Y195602D01*
X171097Y195650D01*
X170930Y195691D01*
X170762Y195725D01*
X170592Y195751D01*
X170421Y195769D01*
X170250Y195781D01*
X170079Y195784D01*
X169907Y195781D01*
X169736Y195769D01*
X169565Y195751D01*
X169395Y195725D01*
X169227Y195691D01*
X169060Y195650D01*
X168896Y195602D01*
X168733Y195547D01*
X168573Y195485D01*
X168416Y195416D01*
X168262Y195340D01*
X168112Y195257D01*
X167965Y195168D01*
X167822Y195073D01*
X167684Y194972D01*
X167550Y194864D01*
X167421Y194751D01*
X167297Y194632D01*
X167178Y194508D01*
X167065Y194379D01*
X166958Y194245D01*
X166856Y194107D01*
X166761Y193964D01*
X166672Y193817D01*
X166589Y193667D01*
X166513Y193513D01*
X166462Y193397D01*
X166399Y193374D01*
X166334Y193356D01*
X165949D01*
X165884Y193374D01*
X165821Y193397D01*
X165770Y193513D01*
X165694Y193667D01*
X165611Y193817D01*
X165522Y193964D01*
X165427Y194107D01*
X165325Y194245D01*
X165218Y194379D01*
X165105Y194508D01*
X164986Y194632D01*
X164862Y194751D01*
X164733Y194864D01*
X164599Y194972D01*
X164461Y195073D01*
X164318Y195168D01*
X164171Y195257D01*
X164021Y195340D01*
X163867Y195416D01*
X163710Y195485D01*
X163550Y195547D01*
X163387Y195602D01*
X163223Y195650D01*
X163056Y195691D01*
X162888Y195725D01*
X162718Y195751D01*
X162547Y195769D01*
X162376Y195781D01*
X162205Y195784D01*
X162033Y195781D01*
X161862Y195769D01*
X161691Y195751D01*
X161521Y195725D01*
X161353Y195691D01*
X161186Y195650D01*
X161022Y195602D01*
X160859Y195547D01*
X160699Y195485D01*
X160542Y195416D01*
X160388Y195340D01*
X160238Y195257D01*
X160091Y195168D01*
X159948Y195073D01*
X159810Y194972D01*
X159676Y194864D01*
X159547Y194751D01*
X159423Y194632D01*
X159304Y194508D01*
X159191Y194379D01*
X159100Y194266D01*
X159041Y194262D01*
X158500Y194464D01*
Y195000D01*
X157500Y196000D01*
D02*
G37*
G36*
X611024Y195784D02*
X610852Y195781D01*
X610681Y195769D01*
X610510Y195751D01*
X610340Y195725D01*
X610172Y195691D01*
X610005Y195650D01*
X609841Y195602D01*
X609678Y195547D01*
X609518Y195485D01*
X609361Y195416D01*
X609207Y195340D01*
X609057Y195257D01*
X608910Y195168D01*
X608767Y195073D01*
X608629Y194972D01*
X608495Y194864D01*
X608366Y194751D01*
X608242Y194632D01*
X608123Y194508D01*
X608010Y194379D01*
X607903Y194245D01*
X607801Y194107D01*
X607706Y193964D01*
X607617Y193817D01*
X607534Y193667D01*
X607458Y193513D01*
X607407Y193397D01*
X607344Y193374D01*
X607279Y193356D01*
X606894D01*
X606829Y193374D01*
X606766Y193397D01*
X606715Y193513D01*
X606639Y193667D01*
X606556Y193817D01*
X606467Y193964D01*
X606372Y194107D01*
X606270Y194245D01*
X606163Y194379D01*
X606050Y194508D01*
X605931Y194632D01*
X605807Y194751D01*
X605678Y194864D01*
X605544Y194972D01*
X605406Y195073D01*
X605263Y195168D01*
X605116Y195257D01*
X604966Y195340D01*
X604812Y195416D01*
X604655Y195485D01*
X604495Y195547D01*
X604332Y195602D01*
X604168Y195650D01*
X604001Y195691D01*
X603833Y195725D01*
X603663Y195751D01*
X603492Y195769D01*
X603321Y195781D01*
X603150Y195784D01*
X602978Y195781D01*
X602807Y195769D01*
X602636Y195751D01*
X602466Y195725D01*
X602298Y195691D01*
X602131Y195650D01*
X601967Y195602D01*
X601804Y195547D01*
X601644Y195485D01*
X601487Y195416D01*
X601333Y195340D01*
X601183Y195257D01*
X601036Y195168D01*
X600893Y195073D01*
X600755Y194972D01*
X600621Y194864D01*
X600492Y194751D01*
X600368Y194632D01*
X600249Y194508D01*
X600136Y194379D01*
X600029Y194245D01*
X599927Y194107D01*
X599832Y193964D01*
X599743Y193817D01*
X599660Y193667D01*
X599584Y193513D01*
X599533Y193397D01*
X599470Y193374D01*
X599405Y193356D01*
X599020D01*
X598955Y193374D01*
X598892Y193397D01*
X598841Y193513D01*
X598765Y193667D01*
X598682Y193817D01*
X598593Y193964D01*
X598498Y194107D01*
X598396Y194245D01*
X598289Y194379D01*
X598176Y194508D01*
X598057Y194632D01*
X597933Y194751D01*
X597804Y194864D01*
X597670Y194972D01*
X597532Y195073D01*
X597389Y195168D01*
X597242Y195257D01*
X597092Y195340D01*
X596938Y195416D01*
X596781Y195485D01*
X596621Y195547D01*
X596458Y195602D01*
X596294Y195650D01*
X596127Y195691D01*
X595959Y195725D01*
X595789Y195751D01*
X595618Y195769D01*
X595447Y195781D01*
X595276Y195784D01*
X595104Y195781D01*
X594933Y195769D01*
X594762Y195751D01*
X594593Y195725D01*
X594424Y195691D01*
X594257Y195650D01*
X594093Y195602D01*
X593930Y195547D01*
X593770Y195485D01*
X593613Y195416D01*
X593459Y195340D01*
X593309Y195257D01*
X593162Y195168D01*
X593019Y195073D01*
X592881Y194972D01*
X592747Y194864D01*
X592618Y194751D01*
X592494Y194632D01*
X592375Y194508D01*
X592262Y194379D01*
X592155Y194245D01*
X592053Y194107D01*
X591958Y193964D01*
X591869Y193817D01*
X591786Y193667D01*
X591710Y193513D01*
X591659Y193397D01*
X591596Y193374D01*
X591531Y193356D01*
X591147D01*
X591081Y193374D01*
X591018Y193397D01*
X590967Y193513D01*
X590891Y193667D01*
X590808Y193817D01*
X590719Y193964D01*
X590624Y194107D01*
X590522Y194245D01*
X590415Y194379D01*
X590302Y194508D01*
X590183Y194632D01*
X590059Y194751D01*
X589930Y194864D01*
X589796Y194972D01*
X589658Y195073D01*
X589515Y195168D01*
X589368Y195257D01*
X589218Y195340D01*
X589064Y195416D01*
X588907Y195485D01*
X588747Y195547D01*
X588584Y195602D01*
X588420Y195650D01*
X588253Y195691D01*
X588085Y195725D01*
X587915Y195751D01*
X587744Y195769D01*
X587573Y195781D01*
X587402Y195784D01*
X587230Y195781D01*
X587059Y195769D01*
X586888Y195751D01*
X586719Y195725D01*
X586550Y195691D01*
X586383Y195650D01*
X586219Y195602D01*
X586056Y195547D01*
X585896Y195485D01*
X585739Y195416D01*
X585585Y195340D01*
X585435Y195257D01*
X585288Y195168D01*
X585145Y195073D01*
X585007Y194972D01*
X584873Y194864D01*
X584744Y194751D01*
X584620Y194632D01*
X584501Y194508D01*
X584388Y194379D01*
X584281Y194245D01*
X584179Y194107D01*
X584084Y193964D01*
X583995Y193817D01*
X583912Y193667D01*
X583836Y193513D01*
X583767Y193356D01*
X583705Y193196D01*
X583650Y193034D01*
X583602Y192869D01*
X583561Y192702D01*
X583528Y192534D01*
X583501Y192364D01*
X583483Y192193D01*
X583472Y192022D01*
X583468Y191851D01*
Y189842D01*
X583472Y189671D01*
X583483Y189499D01*
X583501Y189329D01*
X583528Y189159D01*
X583561Y188991D01*
X583602Y188824D01*
X583650Y188659D01*
X583705Y188497D01*
X583767Y188337D01*
X583836Y188180D01*
X583912Y188026D01*
X583995Y187875D01*
X584084Y187729D01*
X584179Y187586D01*
X584281Y187448D01*
X584388Y187314D01*
X584501Y187185D01*
X584620Y187061D01*
X584744Y186942D01*
X584873Y186829D01*
X585007Y186721D01*
X585145Y186620D01*
X585288Y186524D01*
X585435Y186435D01*
X585585Y186353D01*
X585739Y186277D01*
X585896Y186208D01*
X586056Y186146D01*
X586219Y186091D01*
X586383Y186042D01*
X586550Y186002D01*
X586719Y185968D01*
X586888Y185942D01*
X587059Y185924D01*
X587230Y185912D01*
X587402Y185908D01*
X587573Y185912D01*
X587744Y185924D01*
X587915Y185942D01*
X588085Y185968D01*
X588253Y186002D01*
X588420Y186042D01*
X588584Y186091D01*
X588747Y186146D01*
X588907Y186208D01*
X589064Y186277D01*
X589218Y186353D01*
X589368Y186435D01*
X589515Y186524D01*
X589658Y186620D01*
X589796Y186721D01*
X589930Y186829D01*
X590059Y186942D01*
X590183Y187061D01*
X590302Y187185D01*
X590415Y187314D01*
X590522Y187448D01*
X590624Y187586D01*
X590719Y187729D01*
X590808Y187875D01*
X590891Y188026D01*
X590967Y188180D01*
X591018Y188296D01*
X591081Y188319D01*
X591147Y188337D01*
X591531D01*
X591596Y188319D01*
X591659Y188296D01*
X591710Y188180D01*
X591786Y188026D01*
X591869Y187875D01*
X591958Y187729D01*
X592053Y187586D01*
X592155Y187448D01*
X592262Y187314D01*
X592375Y187185D01*
X592494Y187061D01*
X592618Y186942D01*
X592747Y186829D01*
X592881Y186721D01*
X593019Y186620D01*
X593162Y186524D01*
X593309Y186435D01*
X593459Y186353D01*
X593613Y186277D01*
X593770Y186208D01*
X593930Y186146D01*
X594093Y186091D01*
X594257Y186042D01*
X594424Y186002D01*
X594593Y185968D01*
X594762Y185942D01*
X594933Y185924D01*
X595104Y185912D01*
X595276Y185908D01*
X595447Y185912D01*
X595618Y185924D01*
X595789Y185942D01*
X595959Y185968D01*
X596127Y186002D01*
X596294Y186042D01*
X596458Y186091D01*
X596621Y186146D01*
X596781Y186208D01*
X596938Y186277D01*
X597092Y186353D01*
X597242Y186435D01*
X597389Y186524D01*
X597532Y186620D01*
X597670Y186721D01*
X597804Y186829D01*
X597933Y186942D01*
X598057Y187061D01*
X598176Y187185D01*
X598289Y187314D01*
X598396Y187448D01*
X598498Y187586D01*
X598593Y187729D01*
X598682Y187875D01*
X598765Y188026D01*
X598841Y188180D01*
X598892Y188296D01*
X598955Y188319D01*
X599020Y188337D01*
X599405D01*
X599470Y188319D01*
X599533Y188296D01*
X599584Y188180D01*
X599660Y188026D01*
X599743Y187875D01*
X599832Y187729D01*
X599927Y187586D01*
X600029Y187448D01*
X600136Y187314D01*
X600249Y187185D01*
X600368Y187061D01*
X600492Y186942D01*
X600621Y186829D01*
X600755Y186721D01*
X600893Y186620D01*
X601036Y186524D01*
X601183Y186435D01*
X601333Y186353D01*
X601487Y186277D01*
X601644Y186208D01*
X601804Y186146D01*
X601967Y186091D01*
X602131Y186042D01*
X602298Y186002D01*
X602466Y185968D01*
X602636Y185942D01*
X602807Y185924D01*
X602978Y185912D01*
X603150Y185908D01*
X603321Y185912D01*
X603492Y185924D01*
X603663Y185942D01*
X603833Y185968D01*
X604001Y186002D01*
X604168Y186042D01*
X604332Y186091D01*
X604495Y186146D01*
X604655Y186208D01*
X604812Y186277D01*
X604966Y186353D01*
X605116Y186435D01*
X605263Y186524D01*
X605406Y186620D01*
X605544Y186721D01*
X605678Y186829D01*
X605807Y186942D01*
X605931Y187061D01*
X606050Y187185D01*
X606163Y187314D01*
X606270Y187448D01*
X606372Y187586D01*
X606467Y187729D01*
X606556Y187875D01*
X606639Y188026D01*
X606715Y188180D01*
X606766Y188296D01*
X606829Y188319D01*
X606894Y188337D01*
X607279D01*
X607344Y188319D01*
X607407Y188296D01*
X607458Y188180D01*
X607534Y188026D01*
X607617Y187875D01*
X607706Y187729D01*
X607801Y187586D01*
X607903Y187448D01*
X608010Y187314D01*
X608123Y187185D01*
X608242Y187061D01*
X608366Y186942D01*
X608495Y186829D01*
X608629Y186721D01*
X608767Y186620D01*
X608910Y186524D01*
X609057Y186435D01*
X609207Y186353D01*
X609361Y186277D01*
X609518Y186208D01*
X609678Y186146D01*
X609841Y186091D01*
X610005Y186042D01*
X610172Y186002D01*
X610340Y185968D01*
X610510Y185942D01*
X610681Y185924D01*
X610852Y185912D01*
X611024Y185908D01*
X611195Y185912D01*
X611366Y185924D01*
X611537Y185942D01*
X611707Y185968D01*
X611875Y186002D01*
X612042Y186042D01*
X612206Y186091D01*
X612369Y186146D01*
X612529Y186208D01*
X612686Y186277D01*
X612840Y186353D01*
X612990Y186435D01*
X613137Y186524D01*
X613280Y186620D01*
X613418Y186721D01*
X613552Y186829D01*
X613681Y186942D01*
X613805Y187061D01*
X613924Y187185D01*
X614037Y187314D01*
X614144Y187448D01*
X614246Y187586D01*
X614341Y187729D01*
X614430Y187875D01*
X614513Y188026D01*
X614589Y188180D01*
X614658Y188337D01*
X614720Y188497D01*
X614775Y188659D01*
X614823Y188824D01*
X614864Y188991D01*
X614897Y189159D01*
X614924Y189329D01*
X614942Y189499D01*
X614954Y189671D01*
X614957Y189842D01*
Y191851D01*
X614954Y192022D01*
X614942Y192193D01*
X614924Y192364D01*
X614897Y192534D01*
X614864Y192702D01*
X614823Y192869D01*
X614775Y193034D01*
X614720Y193196D01*
X614658Y193356D01*
X614589Y193513D01*
X614513Y193667D01*
X614430Y193817D01*
X614341Y193964D01*
X614246Y194107D01*
X614144Y194245D01*
X614037Y194379D01*
X613924Y194508D01*
X613805Y194632D01*
X613681Y194751D01*
X613552Y194864D01*
X613418Y194972D01*
X613280Y195073D01*
X613137Y195168D01*
X612990Y195257D01*
X612840Y195340D01*
X612686Y195416D01*
X612529Y195485D01*
X612369Y195547D01*
X612206Y195602D01*
X612042Y195650D01*
X611875Y195691D01*
X611707Y195725D01*
X611537Y195751D01*
X611366Y195769D01*
X611195Y195781D01*
X611024Y195784D01*
D02*
G37*
G36*
X540158D02*
X539986Y195781D01*
X539815Y195769D01*
X539644Y195751D01*
X539474Y195725D01*
X539306Y195691D01*
X539139Y195650D01*
X538975Y195602D01*
X538812Y195547D01*
X538652Y195485D01*
X538495Y195416D01*
X538341Y195340D01*
X538191Y195257D01*
X538044Y195168D01*
X537901Y195073D01*
X537763Y194972D01*
X537629Y194864D01*
X537500Y194751D01*
X537376Y194632D01*
X537257Y194508D01*
X537144Y194379D01*
X537037Y194245D01*
X536935Y194107D01*
X536840Y193964D01*
X536751Y193817D01*
X536668Y193667D01*
X536592Y193513D01*
X536541Y193397D01*
X536478Y193374D01*
X536413Y193356D01*
X536028D01*
X535963Y193374D01*
X535900Y193397D01*
X535849Y193513D01*
X535773Y193667D01*
X535690Y193817D01*
X535601Y193964D01*
X535506Y194107D01*
X535404Y194245D01*
X535297Y194379D01*
X535184Y194508D01*
X535065Y194632D01*
X534941Y194751D01*
X534812Y194864D01*
X534678Y194972D01*
X534540Y195073D01*
X534397Y195168D01*
X534250Y195257D01*
X534100Y195340D01*
X533946Y195416D01*
X533789Y195485D01*
X533629Y195547D01*
X533466Y195602D01*
X533302Y195650D01*
X533135Y195691D01*
X532967Y195725D01*
X532797Y195751D01*
X532626Y195769D01*
X532455Y195781D01*
X532284Y195784D01*
X532112Y195781D01*
X531941Y195769D01*
X531770Y195751D01*
X531601Y195725D01*
X531432Y195691D01*
X531265Y195650D01*
X531101Y195602D01*
X530938Y195547D01*
X530778Y195485D01*
X530621Y195416D01*
X530467Y195340D01*
X530317Y195257D01*
X530170Y195168D01*
X530027Y195073D01*
X529889Y194972D01*
X529755Y194864D01*
X529626Y194751D01*
X529502Y194632D01*
X529383Y194508D01*
X529270Y194379D01*
X529163Y194245D01*
X529061Y194107D01*
X528966Y193964D01*
X528877Y193817D01*
X528794Y193667D01*
X528718Y193513D01*
X528667Y193397D01*
X528604Y193374D01*
X528539Y193356D01*
X528155D01*
X528089Y193374D01*
X528026Y193397D01*
X527975Y193513D01*
X527899Y193667D01*
X527816Y193817D01*
X527727Y193964D01*
X527632Y194107D01*
X527530Y194245D01*
X527423Y194379D01*
X527310Y194508D01*
X527191Y194632D01*
X527067Y194751D01*
X526938Y194864D01*
X526804Y194972D01*
X526666Y195073D01*
X526523Y195168D01*
X526376Y195257D01*
X526226Y195340D01*
X526072Y195416D01*
X525915Y195485D01*
X525755Y195547D01*
X525592Y195602D01*
X525428Y195650D01*
X525261Y195691D01*
X525093Y195725D01*
X524923Y195751D01*
X524752Y195769D01*
X524581Y195781D01*
X524410Y195784D01*
X524238Y195781D01*
X524067Y195769D01*
X523896Y195751D01*
X523727Y195725D01*
X523558Y195691D01*
X523391Y195650D01*
X523227Y195602D01*
X523064Y195547D01*
X522904Y195485D01*
X522747Y195416D01*
X522593Y195340D01*
X522443Y195257D01*
X522296Y195168D01*
X522153Y195073D01*
X522015Y194972D01*
X521881Y194864D01*
X521752Y194751D01*
X521628Y194632D01*
X521509Y194508D01*
X521396Y194379D01*
X521289Y194245D01*
X521187Y194107D01*
X521092Y193964D01*
X521003Y193817D01*
X520920Y193667D01*
X520844Y193513D01*
X520793Y193397D01*
X520730Y193374D01*
X520665Y193356D01*
X520281D01*
X520215Y193374D01*
X520152Y193397D01*
X520101Y193513D01*
X520025Y193667D01*
X519942Y193817D01*
X519853Y193964D01*
X519758Y194107D01*
X519656Y194245D01*
X519549Y194379D01*
X519436Y194508D01*
X519317Y194632D01*
X519193Y194751D01*
X519064Y194864D01*
X518930Y194972D01*
X518792Y195073D01*
X518649Y195168D01*
X518502Y195257D01*
X518352Y195340D01*
X518198Y195416D01*
X518041Y195485D01*
X517881Y195547D01*
X517718Y195602D01*
X517554Y195650D01*
X517387Y195691D01*
X517219Y195725D01*
X517049Y195751D01*
X516878Y195769D01*
X516707Y195781D01*
X516536Y195784D01*
X516364Y195781D01*
X516193Y195769D01*
X516022Y195751D01*
X515852Y195725D01*
X515684Y195691D01*
X515517Y195650D01*
X515353Y195602D01*
X515190Y195547D01*
X515030Y195485D01*
X514873Y195416D01*
X514719Y195340D01*
X514569Y195257D01*
X514422Y195168D01*
X514279Y195073D01*
X514141Y194972D01*
X514007Y194864D01*
X513878Y194751D01*
X513754Y194632D01*
X513635Y194508D01*
X513522Y194379D01*
X513415Y194245D01*
X513313Y194107D01*
X513218Y193964D01*
X513129Y193817D01*
X513046Y193667D01*
X512970Y193513D01*
X512919Y193397D01*
X512856Y193374D01*
X512791Y193356D01*
X512406D01*
X512341Y193374D01*
X512278Y193397D01*
X512227Y193513D01*
X512151Y193667D01*
X512068Y193817D01*
X511979Y193964D01*
X511884Y194107D01*
X511782Y194245D01*
X511675Y194379D01*
X511562Y194508D01*
X511443Y194632D01*
X511319Y194751D01*
X511190Y194864D01*
X511056Y194972D01*
X510918Y195073D01*
X510775Y195168D01*
X510628Y195257D01*
X510478Y195340D01*
X510324Y195416D01*
X510167Y195485D01*
X510007Y195547D01*
X509844Y195602D01*
X509680Y195650D01*
X509513Y195691D01*
X509345Y195725D01*
X509175Y195751D01*
X509004Y195769D01*
X508833Y195781D01*
X508662Y195784D01*
X508490Y195781D01*
X508319Y195769D01*
X508148Y195751D01*
X507978Y195725D01*
X507810Y195691D01*
X507643Y195650D01*
X507479Y195602D01*
X507316Y195547D01*
X507156Y195485D01*
X506999Y195416D01*
X506845Y195340D01*
X506695Y195257D01*
X506548Y195168D01*
X506405Y195073D01*
X506267Y194972D01*
X506133Y194864D01*
X506004Y194751D01*
X505880Y194632D01*
X505761Y194508D01*
X505648Y194379D01*
X505541Y194245D01*
X505439Y194107D01*
X505344Y193964D01*
X505255Y193817D01*
X505172Y193667D01*
X505096Y193513D01*
X505045Y193397D01*
X504982Y193374D01*
X504917Y193356D01*
X504532D01*
X504467Y193374D01*
X504404Y193397D01*
X504353Y193513D01*
X504277Y193667D01*
X504194Y193817D01*
X504105Y193964D01*
X504010Y194107D01*
X503908Y194245D01*
X503801Y194379D01*
X503688Y194508D01*
X503569Y194632D01*
X503445Y194751D01*
X503316Y194864D01*
X503182Y194972D01*
X503044Y195073D01*
X502901Y195168D01*
X502754Y195257D01*
X502604Y195340D01*
X502450Y195416D01*
X502293Y195485D01*
X502133Y195547D01*
X501970Y195602D01*
X501806Y195650D01*
X501639Y195691D01*
X501471Y195725D01*
X501301Y195751D01*
X501130Y195769D01*
X500959Y195781D01*
X500788Y195784D01*
X500616Y195781D01*
X500445Y195769D01*
X500274Y195751D01*
X500105Y195725D01*
X499936Y195691D01*
X499769Y195650D01*
X499605Y195602D01*
X499442Y195547D01*
X499282Y195485D01*
X499125Y195416D01*
X498971Y195340D01*
X498821Y195257D01*
X498674Y195168D01*
X498531Y195073D01*
X498393Y194972D01*
X498259Y194864D01*
X498130Y194751D01*
X498006Y194632D01*
X497887Y194508D01*
X497774Y194379D01*
X497667Y194245D01*
X497565Y194107D01*
X497470Y193964D01*
X497381Y193817D01*
X497298Y193667D01*
X497222Y193513D01*
X497171Y193397D01*
X497108Y193374D01*
X497043Y193356D01*
X496659D01*
X496593Y193374D01*
X496530Y193397D01*
X496479Y193513D01*
X496403Y193667D01*
X496320Y193817D01*
X496231Y193964D01*
X496136Y194107D01*
X496034Y194245D01*
X495927Y194379D01*
X495814Y194508D01*
X495695Y194632D01*
X495571Y194751D01*
X495442Y194864D01*
X495308Y194972D01*
X495170Y195073D01*
X495027Y195168D01*
X494880Y195257D01*
X494730Y195340D01*
X494576Y195416D01*
X494419Y195485D01*
X494259Y195547D01*
X494096Y195602D01*
X493932Y195650D01*
X493765Y195691D01*
X493597Y195725D01*
X493427Y195751D01*
X493256Y195769D01*
X493085Y195781D01*
X492914Y195784D01*
X492742Y195781D01*
X492571Y195769D01*
X492400Y195751D01*
X492231Y195725D01*
X492062Y195691D01*
X491895Y195650D01*
X491731Y195602D01*
X491568Y195547D01*
X491408Y195485D01*
X491251Y195416D01*
X491097Y195340D01*
X490947Y195257D01*
X490800Y195168D01*
X490657Y195073D01*
X490519Y194972D01*
X490385Y194864D01*
X490256Y194751D01*
X490132Y194632D01*
X490013Y194508D01*
X489900Y194379D01*
X489793Y194245D01*
X489691Y194107D01*
X489596Y193964D01*
X489507Y193817D01*
X489424Y193667D01*
X489348Y193513D01*
X489297Y193397D01*
X489234Y193374D01*
X489169Y193356D01*
X488785D01*
X488719Y193374D01*
X488656Y193397D01*
X488605Y193513D01*
X488529Y193667D01*
X488446Y193817D01*
X488357Y193964D01*
X488262Y194107D01*
X488160Y194245D01*
X488053Y194379D01*
X487940Y194508D01*
X487821Y194632D01*
X487697Y194751D01*
X487568Y194864D01*
X487434Y194972D01*
X487296Y195073D01*
X487153Y195168D01*
X487006Y195257D01*
X486856Y195340D01*
X486702Y195416D01*
X486545Y195485D01*
X486385Y195547D01*
X486222Y195602D01*
X486058Y195650D01*
X485891Y195691D01*
X485723Y195725D01*
X485553Y195751D01*
X485382Y195769D01*
X485211Y195781D01*
X485040Y195784D01*
X484868Y195781D01*
X484697Y195769D01*
X484526Y195751D01*
X484356Y195725D01*
X484188Y195691D01*
X484021Y195650D01*
X483857Y195602D01*
X483694Y195547D01*
X483534Y195485D01*
X483377Y195416D01*
X483223Y195340D01*
X483073Y195257D01*
X482926Y195168D01*
X482783Y195073D01*
X482645Y194972D01*
X482511Y194864D01*
X482382Y194751D01*
X482258Y194632D01*
X482139Y194508D01*
X482026Y194379D01*
X481919Y194245D01*
X481817Y194107D01*
X481722Y193964D01*
X481633Y193817D01*
X481550Y193667D01*
X481474Y193513D01*
X481423Y193397D01*
X481360Y193374D01*
X481295Y193356D01*
X480910D01*
X480845Y193374D01*
X480782Y193397D01*
X480731Y193513D01*
X480655Y193667D01*
X480572Y193817D01*
X480483Y193964D01*
X480388Y194107D01*
X480286Y194245D01*
X480179Y194379D01*
X480066Y194508D01*
X479947Y194632D01*
X479823Y194751D01*
X479694Y194864D01*
X479560Y194972D01*
X479422Y195073D01*
X479279Y195168D01*
X479132Y195257D01*
X478982Y195340D01*
X478828Y195416D01*
X478671Y195485D01*
X478511Y195547D01*
X478348Y195602D01*
X478184Y195650D01*
X478017Y195691D01*
X477849Y195725D01*
X477679Y195751D01*
X477508Y195769D01*
X477337Y195781D01*
X477166Y195784D01*
X476994Y195781D01*
X476823Y195769D01*
X476652Y195751D01*
X476482Y195725D01*
X476314Y195691D01*
X476147Y195650D01*
X475983Y195602D01*
X475820Y195547D01*
X475660Y195485D01*
X475503Y195416D01*
X475349Y195340D01*
X475199Y195257D01*
X475052Y195168D01*
X474909Y195073D01*
X474771Y194972D01*
X474637Y194864D01*
X474508Y194751D01*
X474384Y194632D01*
X474265Y194508D01*
X474152Y194379D01*
X474045Y194245D01*
X473943Y194107D01*
X473848Y193964D01*
X473759Y193817D01*
X473676Y193667D01*
X473600Y193513D01*
X473549Y193397D01*
X473486Y193374D01*
X473421Y193356D01*
X473036D01*
X472971Y193374D01*
X472908Y193397D01*
X472857Y193513D01*
X472781Y193667D01*
X472698Y193817D01*
X472609Y193964D01*
X472514Y194107D01*
X472412Y194245D01*
X472305Y194379D01*
X472192Y194508D01*
X472073Y194632D01*
X471949Y194751D01*
X471820Y194864D01*
X471686Y194972D01*
X471548Y195073D01*
X471405Y195168D01*
X471258Y195257D01*
X471108Y195340D01*
X470954Y195416D01*
X470797Y195485D01*
X470637Y195547D01*
X470474Y195602D01*
X470310Y195650D01*
X470143Y195691D01*
X469975Y195725D01*
X469805Y195751D01*
X469634Y195769D01*
X469463Y195781D01*
X469292Y195784D01*
X469120Y195781D01*
X468949Y195769D01*
X468778Y195751D01*
X468609Y195725D01*
X468440Y195691D01*
X468273Y195650D01*
X468109Y195602D01*
X467946Y195547D01*
X467786Y195485D01*
X467629Y195416D01*
X467475Y195340D01*
X467325Y195257D01*
X467178Y195168D01*
X467035Y195073D01*
X466897Y194972D01*
X466763Y194864D01*
X466634Y194751D01*
X466510Y194632D01*
X466391Y194508D01*
X466278Y194379D01*
X466171Y194245D01*
X466069Y194107D01*
X465974Y193964D01*
X465885Y193817D01*
X465802Y193667D01*
X465726Y193513D01*
X465675Y193397D01*
X465612Y193374D01*
X465547Y193356D01*
X465163D01*
X465097Y193374D01*
X465034Y193397D01*
X464983Y193513D01*
X464907Y193667D01*
X464824Y193817D01*
X464735Y193964D01*
X464640Y194107D01*
X464538Y194245D01*
X464431Y194379D01*
X464318Y194508D01*
X464199Y194632D01*
X464075Y194751D01*
X463946Y194864D01*
X463812Y194972D01*
X463674Y195073D01*
X463531Y195168D01*
X463384Y195257D01*
X463234Y195340D01*
X463080Y195416D01*
X462923Y195485D01*
X462763Y195547D01*
X462600Y195602D01*
X462436Y195650D01*
X462269Y195691D01*
X462101Y195725D01*
X461931Y195751D01*
X461760Y195769D01*
X461589Y195781D01*
X461418Y195784D01*
X461246Y195781D01*
X461075Y195769D01*
X460904Y195751D01*
X460735Y195725D01*
X460566Y195691D01*
X460399Y195650D01*
X460235Y195602D01*
X460072Y195547D01*
X459912Y195485D01*
X459755Y195416D01*
X459601Y195340D01*
X459451Y195257D01*
X459304Y195168D01*
X459161Y195073D01*
X459023Y194972D01*
X458889Y194864D01*
X458760Y194751D01*
X458636Y194632D01*
X458517Y194508D01*
X458404Y194379D01*
X458297Y194245D01*
X458195Y194107D01*
X458100Y193964D01*
X458011Y193817D01*
X457928Y193667D01*
X457852Y193513D01*
X457801Y193397D01*
X457738Y193374D01*
X457673Y193356D01*
X457289D01*
X457223Y193374D01*
X457160Y193397D01*
X457109Y193513D01*
X457033Y193667D01*
X456950Y193817D01*
X456861Y193964D01*
X456766Y194107D01*
X456664Y194245D01*
X456557Y194379D01*
X456444Y194508D01*
X456325Y194632D01*
X456201Y194751D01*
X456072Y194864D01*
X455938Y194972D01*
X455800Y195073D01*
X455657Y195168D01*
X455510Y195257D01*
X455360Y195340D01*
X455206Y195416D01*
X455049Y195485D01*
X454889Y195547D01*
X454726Y195602D01*
X454562Y195650D01*
X454395Y195691D01*
X454227Y195725D01*
X454057Y195751D01*
X454043Y195752D01*
Y190846D01*
Y185941D01*
X454057Y185942D01*
X454227Y185968D01*
X454395Y186002D01*
X454562Y186042D01*
X454726Y186091D01*
X454889Y186146D01*
X455049Y186208D01*
X455206Y186277D01*
X455360Y186353D01*
X455510Y186435D01*
X455657Y186524D01*
X455800Y186620D01*
X455938Y186721D01*
X456072Y186829D01*
X456201Y186942D01*
X456325Y187061D01*
X456444Y187185D01*
X456557Y187314D01*
X456664Y187448D01*
X456766Y187586D01*
X456861Y187729D01*
X456950Y187875D01*
X457033Y188026D01*
X457109Y188180D01*
X457160Y188296D01*
X457223Y188319D01*
X457289Y188337D01*
X457673D01*
X457738Y188319D01*
X457801Y188296D01*
X457852Y188180D01*
X457928Y188026D01*
X458011Y187875D01*
X458100Y187729D01*
X458195Y187586D01*
X458297Y187448D01*
X458404Y187314D01*
X458517Y187185D01*
X458636Y187061D01*
X458760Y186942D01*
X458889Y186829D01*
X459023Y186721D01*
X459161Y186620D01*
X459304Y186524D01*
X459451Y186435D01*
X459601Y186353D01*
X459755Y186277D01*
X459912Y186208D01*
X460072Y186146D01*
X460235Y186091D01*
X460399Y186042D01*
X460566Y186002D01*
X460735Y185968D01*
X460904Y185942D01*
X461075Y185924D01*
X461246Y185912D01*
X461418Y185908D01*
X461589Y185912D01*
X461760Y185924D01*
X461931Y185942D01*
X462101Y185968D01*
X462269Y186002D01*
X462436Y186042D01*
X462600Y186091D01*
X462763Y186146D01*
X462923Y186208D01*
X463080Y186277D01*
X463234Y186353D01*
X463384Y186435D01*
X463531Y186524D01*
X463674Y186620D01*
X463812Y186721D01*
X463946Y186829D01*
X464075Y186942D01*
X464199Y187061D01*
X464318Y187185D01*
X464431Y187314D01*
X464538Y187448D01*
X464640Y187586D01*
X464735Y187729D01*
X464824Y187875D01*
X464907Y188026D01*
X464983Y188180D01*
X465034Y188296D01*
X465097Y188319D01*
X465163Y188337D01*
X465547D01*
X465612Y188319D01*
X465675Y188296D01*
X465726Y188180D01*
X465802Y188026D01*
X465885Y187875D01*
X465974Y187729D01*
X466069Y187586D01*
X466171Y187448D01*
X466278Y187314D01*
X466391Y187185D01*
X466510Y187061D01*
X466634Y186942D01*
X466763Y186829D01*
X466897Y186721D01*
X467035Y186620D01*
X467178Y186524D01*
X467325Y186435D01*
X467475Y186353D01*
X467629Y186277D01*
X467780Y186211D01*
X467787Y186125D01*
X467791Y185946D01*
Y180413D01*
X460878Y173501D01*
X137500D01*
X137393Y173497D01*
X137286Y173486D01*
X137181Y173467D01*
X137077Y173440D01*
X136976Y173406D01*
X136876Y173365D01*
X136781Y173317D01*
X136688Y173263D01*
X136600Y173202D01*
X136517Y173134D01*
X136439Y173061D01*
X102878Y139501D01*
X59000D01*
X59000Y139501D01*
X33496D01*
X33344Y139708D01*
X33239Y140101D01*
X33259Y140122D01*
X33375Y140259D01*
X33485Y140401D01*
X33590Y140548D01*
X33688Y140698D01*
X33780Y140852D01*
X33865Y141010D01*
X33944Y141172D01*
X34016Y141336D01*
X34082Y141504D01*
X34140Y141674D01*
X34191Y141846D01*
X34236Y142020D01*
X34272Y142196D01*
X34302Y142373D01*
X34324Y142552D01*
X34339Y142731D01*
X34346Y142910D01*
Y143090D01*
X34339Y143269D01*
X34324Y143448D01*
X34302Y143627D01*
X34272Y143804D01*
X34236Y143980D01*
X34191Y144154D01*
X34140Y144326D01*
X34082Y144496D01*
X34016Y144664D01*
X33944Y144828D01*
X33865Y144990D01*
X33780Y145148D01*
X33688Y145302D01*
X33590Y145452D01*
X33485Y145599D01*
X33375Y145741D01*
X33259Y145878D01*
X33137Y146010D01*
X33010Y146137D01*
X32878Y146259D01*
X32741Y146375D01*
X32599Y146485D01*
X32452Y146590D01*
X32302Y146688D01*
X32148Y146780D01*
X31990Y146865D01*
X31828Y146944D01*
X31664Y147017D01*
X31496Y147082D01*
X31326Y147140D01*
X31154Y147191D01*
X30980Y147236D01*
X30804Y147272D01*
X30627Y147302D01*
X30448Y147324D01*
X30269Y147339D01*
X30090Y147346D01*
X29910D01*
X29731Y147339D01*
X29552Y147324D01*
X29373Y147302D01*
X29196Y147272D01*
X29020Y147236D01*
X28846Y147191D01*
X28674Y147140D01*
X28504Y147082D01*
X28336Y147017D01*
X28172Y146944D01*
X28010Y146865D01*
X27852Y146780D01*
X27698Y146688D01*
X27547Y146590D01*
X27401Y146485D01*
X27259Y146375D01*
X27122Y146259D01*
X26990Y146137D01*
X26863Y146010D01*
X26741Y145878D01*
X26625Y145741D01*
X26515Y145599D01*
X26410Y145452D01*
X26312Y145302D01*
X26220Y145148D01*
X26135Y144990D01*
X26056Y144828D01*
X25984Y144664D01*
X25918Y144496D01*
X25860Y144326D01*
X25809Y144154D01*
X25765Y143980D01*
X25728Y143804D01*
X25698Y143627D01*
X25676Y143448D01*
X25661Y143269D01*
X25654Y143090D01*
Y142910D01*
X25661Y142731D01*
X25676Y142552D01*
X25698Y142373D01*
X25728Y142196D01*
X25765Y142020D01*
X25809Y141846D01*
X25860Y141674D01*
X25918Y141504D01*
X25984Y141336D01*
X26056Y141172D01*
X26135Y141010D01*
X26220Y140852D01*
X26312Y140698D01*
X26410Y140548D01*
X26515Y140401D01*
X26625Y140259D01*
X26741Y140122D01*
X26761Y140101D01*
X26656Y139708D01*
X26504Y139501D01*
X25622D01*
X24849Y140274D01*
X24771Y140365D01*
X24707Y140466D01*
X24637Y140614D01*
X24567Y140811D01*
X24501Y141057D01*
X24445Y141350D01*
X24401Y141677D01*
X24350Y142502D01*
X24347Y142973D01*
X24346Y142988D01*
Y143090D01*
X24339Y143269D01*
X24324Y143448D01*
X24302Y143627D01*
X24272Y143804D01*
X24236Y143980D01*
X24191Y144154D01*
X24140Y144326D01*
X24082Y144496D01*
X24016Y144664D01*
X23944Y144828D01*
X23865Y144990D01*
X23780Y145148D01*
X23688Y145302D01*
X23590Y145452D01*
X23485Y145599D01*
X23375Y145741D01*
X23259Y145878D01*
X23137Y146010D01*
X23010Y146137D01*
X22878Y146259D01*
X22740Y146375D01*
X22599Y146485D01*
X22453Y146590D01*
X22302Y146688D01*
X22148Y146780D01*
X21990Y146865D01*
X21828Y146944D01*
X21664Y147017D01*
X21496Y147082D01*
X21326Y147140D01*
X21154Y147191D01*
X20980Y147236D01*
X20804Y147272D01*
X20627Y147302D01*
X20448Y147324D01*
X20269Y147339D01*
X20090Y147346D01*
X19910D01*
X19731Y147339D01*
X19552Y147324D01*
X19373Y147302D01*
X19196Y147272D01*
X19020Y147236D01*
X18846Y147191D01*
X18674Y147140D01*
X18504Y147082D01*
X18336Y147017D01*
X18172Y146944D01*
X18010Y146865D01*
X17852Y146780D01*
X17698Y146688D01*
X17548Y146590D01*
X17401Y146485D01*
X17259Y146375D01*
X17122Y146259D01*
X16990Y146137D01*
X16863Y146010D01*
X16741Y145878D01*
X16625Y145741D01*
X16515Y145599D01*
X16410Y145452D01*
X16312Y145302D01*
X16220Y145148D01*
X16135Y144990D01*
X16056Y144828D01*
X15983Y144664D01*
X15918Y144496D01*
X15860Y144326D01*
X15809Y144154D01*
X15765Y143980D01*
X15728Y143804D01*
X15698Y143627D01*
X15676Y143448D01*
X15661Y143269D01*
X15654Y143090D01*
Y142910D01*
X15661Y142731D01*
X15676Y142552D01*
X15698Y142373D01*
X15728Y142196D01*
X15765Y142020D01*
X15809Y141846D01*
X15860Y141674D01*
X15918Y141504D01*
X15983Y141336D01*
X16056Y141172D01*
X16135Y141010D01*
X16220Y140852D01*
X16312Y140698D01*
X16410Y140548D01*
X16515Y140401D01*
X16625Y140259D01*
X16741Y140122D01*
X16863Y139990D01*
X16990Y139863D01*
X17122Y139741D01*
X17259Y139625D01*
X17401Y139515D01*
X17548Y139410D01*
X17698Y139312D01*
X17852Y139220D01*
X18010Y139135D01*
X18172Y139056D01*
X18336Y138984D01*
X18504Y138918D01*
X18674Y138860D01*
X18846Y138809D01*
X19020Y138765D01*
X19196Y138728D01*
X19373Y138698D01*
X19552Y138676D01*
X19731Y138661D01*
X19910Y138654D01*
X20012D01*
X20027Y138653D01*
X20497Y138650D01*
X21323Y138599D01*
X21650Y138555D01*
X21943Y138499D01*
X22189Y138433D01*
X22386Y138363D01*
X22534Y138293D01*
X22635Y138229D01*
X22726Y138151D01*
X23939Y136939D01*
X24017Y136866D01*
X24101Y136798D01*
X24189Y136737D01*
X24281Y136683D01*
X24376Y136635D01*
X24475Y136594D01*
X24577Y136560D01*
X24681Y136533D01*
X24786Y136514D01*
X24893Y136503D01*
X25000Y136499D01*
X26504D01*
X26656Y136292D01*
X26761Y135899D01*
X26741Y135878D01*
X26625Y135741D01*
X26515Y135599D01*
X26410Y135452D01*
X26312Y135302D01*
X26220Y135148D01*
X26135Y134990D01*
X26056Y134828D01*
X25984Y134664D01*
X25918Y134496D01*
X25860Y134326D01*
X25809Y134154D01*
X25765Y133980D01*
X25728Y133804D01*
X25698Y133627D01*
X25676Y133449D01*
X25661Y133269D01*
X25654Y133090D01*
Y132910D01*
X25661Y132731D01*
X25676Y132552D01*
X25698Y132373D01*
X25728Y132196D01*
X25765Y132020D01*
X25809Y131846D01*
X25860Y131674D01*
X25918Y131504D01*
X25984Y131336D01*
X26056Y131172D01*
X26135Y131010D01*
X26220Y130852D01*
X26312Y130698D01*
X26410Y130547D01*
X26515Y130401D01*
X26625Y130259D01*
X26741Y130122D01*
X26863Y129990D01*
X26990Y129863D01*
X27122Y129741D01*
X27259Y129625D01*
X27401Y129515D01*
X27547Y129410D01*
X27698Y129312D01*
X27852Y129220D01*
X28010Y129135D01*
X28172Y129056D01*
X28336Y128983D01*
X28504Y128918D01*
X28674Y128860D01*
X28846Y128809D01*
X29020Y128764D01*
X29196Y128728D01*
X29373Y128698D01*
X29552Y128676D01*
X29731Y128661D01*
X29910Y128654D01*
X30090D01*
X30269Y128661D01*
X30448Y128676D01*
X30627Y128698D01*
X30804Y128728D01*
X30980Y128764D01*
X31154Y128809D01*
X31326Y128860D01*
X31496Y128918D01*
X31664Y128983D01*
X31828Y129056D01*
X31990Y129135D01*
X32148Y129220D01*
X32302Y129312D01*
X32452Y129410D01*
X32599Y129515D01*
X32741Y129625D01*
X32878Y129741D01*
X33010Y129863D01*
X33137Y129990D01*
X33259Y130122D01*
X33375Y130259D01*
X33485Y130401D01*
X33590Y130547D01*
X33688Y130698D01*
X33780Y130852D01*
X33865Y131010D01*
X33944Y131172D01*
X34016Y131336D01*
X34082Y131504D01*
X34140Y131674D01*
X34191Y131846D01*
X34236Y132020D01*
X34272Y132196D01*
X34302Y132373D01*
X34324Y132552D01*
X34339Y132731D01*
X34346Y132910D01*
Y133090D01*
X34339Y133269D01*
X34324Y133449D01*
X34302Y133627D01*
X34272Y133804D01*
X34236Y133980D01*
X34191Y134154D01*
X34140Y134326D01*
X34082Y134496D01*
X34016Y134664D01*
X33944Y134828D01*
X33865Y134990D01*
X33780Y135148D01*
X33688Y135302D01*
X33590Y135452D01*
X33485Y135599D01*
X33375Y135741D01*
X33259Y135878D01*
X33239Y135899D01*
X33344Y136292D01*
X33496Y136499D01*
X58092D01*
X58322Y135945D01*
X36878Y114501D01*
X35357D01*
X35236Y114511D01*
X35120Y114537D01*
X34966Y114592D01*
X34777Y114681D01*
X34557Y114809D01*
X34310Y114976D01*
X34048Y115176D01*
X33428Y115724D01*
X33093Y116055D01*
X33082Y116065D01*
X33010Y116137D01*
X32878Y116259D01*
X32741Y116375D01*
X32599Y116485D01*
X32452Y116590D01*
X32302Y116688D01*
X32148Y116780D01*
X31990Y116865D01*
X31828Y116944D01*
X31664Y117016D01*
X31496Y117082D01*
X31326Y117140D01*
X31154Y117191D01*
X30980Y117236D01*
X30804Y117272D01*
X30627Y117302D01*
X30448Y117324D01*
X30269Y117339D01*
X30090Y117347D01*
X29910D01*
X29731Y117339D01*
X29552Y117324D01*
X29373Y117302D01*
X29196Y117272D01*
X29020Y117236D01*
X28846Y117191D01*
X28674Y117140D01*
X28504Y117082D01*
X28336Y117016D01*
X28172Y116944D01*
X28010Y116865D01*
X27852Y116780D01*
X27698Y116688D01*
X27547Y116590D01*
X27401Y116485D01*
X27259Y116375D01*
X27122Y116259D01*
X26990Y116137D01*
X26863Y116010D01*
X26741Y115878D01*
X26625Y115741D01*
X26515Y115599D01*
X26410Y115453D01*
X26312Y115302D01*
X26220Y115148D01*
X26135Y114990D01*
X26056Y114828D01*
X25984Y114664D01*
X25918Y114496D01*
X25860Y114326D01*
X25809Y114154D01*
X25765Y113980D01*
X25728Y113804D01*
X25698Y113627D01*
X25676Y113449D01*
X25661Y113269D01*
X25654Y113090D01*
Y112910D01*
X25661Y112731D01*
X25676Y112551D01*
X25698Y112373D01*
X25728Y112196D01*
X25765Y112020D01*
X25809Y111846D01*
X25860Y111674D01*
X25918Y111504D01*
X25984Y111336D01*
X26056Y111172D01*
X26135Y111010D01*
X26220Y110852D01*
X26312Y110698D01*
X26410Y110547D01*
X26515Y110401D01*
X26625Y110259D01*
X26741Y110122D01*
X26761Y110101D01*
X26656Y109708D01*
X26504Y109501D01*
X25622D01*
X24849Y110274D01*
X24771Y110365D01*
X24707Y110466D01*
X24637Y110614D01*
X24567Y110811D01*
X24501Y111057D01*
X24445Y111350D01*
X24401Y111677D01*
X24350Y112503D01*
X24347Y112973D01*
X24346Y112988D01*
Y113090D01*
X24339Y113269D01*
X24324Y113449D01*
X24302Y113627D01*
X24272Y113804D01*
X24236Y113980D01*
X24191Y114154D01*
X24140Y114326D01*
X24082Y114496D01*
X24016Y114664D01*
X23944Y114828D01*
X23865Y114990D01*
X23780Y115148D01*
X23688Y115302D01*
X23590Y115453D01*
X23485Y115599D01*
X23375Y115741D01*
X23259Y115878D01*
X23137Y116010D01*
X23010Y116137D01*
X22878Y116259D01*
X22740Y116375D01*
X22599Y116485D01*
X22453Y116590D01*
X22302Y116688D01*
X22148Y116780D01*
X21990Y116865D01*
X21828Y116944D01*
X21664Y117016D01*
X21496Y117082D01*
X21326Y117140D01*
X21154Y117191D01*
X20980Y117236D01*
X20804Y117272D01*
X20627Y117302D01*
X20448Y117324D01*
X20269Y117339D01*
X20090Y117347D01*
X19910D01*
X19731Y117339D01*
X19552Y117324D01*
X19373Y117302D01*
X19196Y117272D01*
X19020Y117236D01*
X18846Y117191D01*
X18674Y117140D01*
X18504Y117082D01*
X18336Y117016D01*
X18172Y116944D01*
X18010Y116865D01*
X17852Y116780D01*
X17698Y116688D01*
X17548Y116590D01*
X17401Y116485D01*
X17259Y116375D01*
X17122Y116259D01*
X16990Y116137D01*
X16863Y116010D01*
X16741Y115878D01*
X16625Y115741D01*
X16515Y115599D01*
X16410Y115453D01*
X16312Y115302D01*
X16220Y115148D01*
X16135Y114990D01*
X16056Y114828D01*
X15983Y114664D01*
X15918Y114496D01*
X15860Y114326D01*
X15809Y114154D01*
X15765Y113980D01*
X15728Y113804D01*
X15698Y113627D01*
X15676Y113449D01*
X15661Y113269D01*
X15654Y113090D01*
Y112910D01*
X15661Y112731D01*
X15676Y112551D01*
X15698Y112373D01*
X15728Y112196D01*
X15765Y112020D01*
X15809Y111846D01*
X15860Y111674D01*
X15918Y111504D01*
X15983Y111336D01*
X16056Y111172D01*
X16135Y111010D01*
X16220Y110852D01*
X16312Y110698D01*
X16410Y110547D01*
X16515Y110401D01*
X16625Y110259D01*
X16741Y110122D01*
X16863Y109990D01*
X16990Y109863D01*
X17122Y109741D01*
X17259Y109625D01*
X17401Y109515D01*
X17548Y109410D01*
X17698Y109312D01*
X17852Y109220D01*
X18010Y109135D01*
X18172Y109056D01*
X18336Y108984D01*
X18504Y108918D01*
X18674Y108860D01*
X18846Y108809D01*
X19020Y108765D01*
X19196Y108728D01*
X19373Y108698D01*
X19552Y108676D01*
X19731Y108661D01*
X19910Y108653D01*
X20012D01*
X20027Y108653D01*
X20497Y108650D01*
X21323Y108599D01*
X21650Y108555D01*
X21943Y108499D01*
X22189Y108433D01*
X22386Y108363D01*
X22534Y108293D01*
X22635Y108229D01*
X22726Y108151D01*
X23939Y106939D01*
X24017Y106866D01*
X24101Y106798D01*
X24189Y106737D01*
X24281Y106683D01*
X24376Y106635D01*
X24475Y106594D01*
X24577Y106560D01*
X24681Y106533D01*
X24786Y106514D01*
X24893Y106503D01*
X25000Y106499D01*
X26504D01*
X26656Y106292D01*
X26761Y105899D01*
X26741Y105878D01*
X26625Y105741D01*
X26515Y105599D01*
X26410Y105453D01*
X26312Y105302D01*
X26220Y105148D01*
X26135Y104990D01*
X26056Y104828D01*
X25984Y104664D01*
X25918Y104496D01*
X25860Y104326D01*
X25809Y104154D01*
X25765Y103980D01*
X25728Y103804D01*
X25698Y103627D01*
X25676Y103448D01*
X25661Y103269D01*
X25654Y103090D01*
Y102910D01*
X25661Y102731D01*
X25676Y102551D01*
X25698Y102373D01*
X25728Y102196D01*
X25765Y102020D01*
X25809Y101846D01*
X25860Y101674D01*
X25918Y101504D01*
X25984Y101336D01*
X26056Y101172D01*
X26135Y101010D01*
X26220Y100852D01*
X26312Y100698D01*
X26410Y100548D01*
X26515Y100401D01*
X26625Y100259D01*
X26741Y100122D01*
X26863Y99990D01*
X26990Y99863D01*
X27122Y99741D01*
X27259Y99625D01*
X27401Y99515D01*
X27547Y99410D01*
X27698Y99312D01*
X27852Y99220D01*
X28010Y99135D01*
X28172Y99056D01*
X28336Y98984D01*
X28504Y98918D01*
X28674Y98860D01*
X28846Y98809D01*
X29020Y98764D01*
X29196Y98728D01*
X29373Y98698D01*
X29552Y98676D01*
X29731Y98661D01*
X29910Y98654D01*
X30090D01*
X30269Y98661D01*
X30448Y98676D01*
X30627Y98698D01*
X30804Y98728D01*
X30980Y98764D01*
X31154Y98809D01*
X31326Y98860D01*
X31496Y98918D01*
X31664Y98984D01*
X31828Y99056D01*
X31990Y99135D01*
X32148Y99220D01*
X32302Y99312D01*
X32452Y99410D01*
X32599Y99515D01*
X32741Y99625D01*
X32878Y99741D01*
X33010Y99863D01*
X33137Y99990D01*
X33259Y100122D01*
X33375Y100259D01*
X33485Y100401D01*
X33590Y100548D01*
X33688Y100698D01*
X33780Y100852D01*
X33865Y101010D01*
X33944Y101172D01*
X34016Y101336D01*
X34082Y101504D01*
X34140Y101674D01*
X34191Y101846D01*
X34236Y102020D01*
X34272Y102196D01*
X34302Y102373D01*
X34324Y102551D01*
X34339Y102731D01*
X34346Y102910D01*
Y103090D01*
X34339Y103269D01*
X34324Y103448D01*
X34302Y103627D01*
X34272Y103804D01*
X34236Y103980D01*
X34191Y104154D01*
X34140Y104326D01*
X34082Y104496D01*
X34016Y104664D01*
X33944Y104828D01*
X33865Y104990D01*
X33780Y105148D01*
X33688Y105302D01*
X33590Y105453D01*
X33485Y105599D01*
X33375Y105741D01*
X33259Y105878D01*
X33239Y105899D01*
X33344Y106292D01*
X33496Y106499D01*
X36000D01*
X36107Y106503D01*
X36214Y106514D01*
X36319Y106533D01*
X36423Y106560D01*
X36525Y106594D01*
X36623Y106635D01*
X36719Y106683D01*
X36812Y106737D01*
X36900Y106798D01*
X36983Y106866D01*
X37061Y106939D01*
X43945Y113822D01*
X44499Y113592D01*
Y104122D01*
X34968Y94591D01*
X34966Y94592D01*
X34777Y94682D01*
X34557Y94809D01*
X34310Y94976D01*
X34048Y95177D01*
X33428Y95724D01*
X33093Y96055D01*
X33082Y96065D01*
X33010Y96137D01*
X32878Y96259D01*
X32741Y96375D01*
X32599Y96485D01*
X32452Y96590D01*
X32302Y96688D01*
X32148Y96780D01*
X31990Y96865D01*
X31828Y96944D01*
X31664Y97017D01*
X31496Y97082D01*
X31326Y97140D01*
X31154Y97191D01*
X30980Y97236D01*
X30804Y97272D01*
X30627Y97302D01*
X30448Y97324D01*
X30269Y97339D01*
X30090Y97347D01*
X29910D01*
X29731Y97339D01*
X29552Y97324D01*
X29373Y97302D01*
X29196Y97272D01*
X29020Y97236D01*
X28846Y97191D01*
X28674Y97140D01*
X28504Y97082D01*
X28336Y97017D01*
X28172Y96944D01*
X28010Y96865D01*
X27852Y96780D01*
X27698Y96688D01*
X27547Y96590D01*
X27401Y96485D01*
X27259Y96375D01*
X27122Y96259D01*
X26990Y96137D01*
X26863Y96010D01*
X26741Y95878D01*
X26625Y95740D01*
X26515Y95599D01*
X26410Y95452D01*
X26312Y95302D01*
X26220Y95148D01*
X26135Y94990D01*
X26056Y94828D01*
X25984Y94664D01*
X25918Y94496D01*
X25860Y94326D01*
X25809Y94154D01*
X25765Y93980D01*
X25728Y93804D01*
X25698Y93627D01*
X25676Y93449D01*
X25661Y93269D01*
X25654Y93090D01*
Y92910D01*
X25661Y92731D01*
X25676Y92551D01*
X25698Y92373D01*
X25728Y92196D01*
X25765Y92020D01*
X25809Y91846D01*
X25860Y91674D01*
X25918Y91504D01*
X25984Y91336D01*
X26056Y91172D01*
X26135Y91010D01*
X26220Y90852D01*
X26312Y90698D01*
X26410Y90548D01*
X26515Y90401D01*
X26625Y90259D01*
X26741Y90122D01*
X26761Y90101D01*
X26656Y89708D01*
X26504Y89501D01*
X25000D01*
X24893Y89497D01*
X24786Y89486D01*
X24681Y89467D01*
X24577Y89440D01*
X24475Y89406D01*
X24376Y89365D01*
X24281Y89317D01*
X24189Y89263D01*
X24101Y89202D01*
X24017Y89134D01*
X23939Y89061D01*
X22726Y87849D01*
X22635Y87771D01*
X22534Y87707D01*
X22386Y87637D01*
X22189Y87567D01*
X21943Y87501D01*
X21650Y87445D01*
X21323Y87401D01*
X20497Y87350D01*
X20027Y87347D01*
X20012Y87347D01*
X19910D01*
X19731Y87339D01*
X19552Y87324D01*
X19373Y87302D01*
X19196Y87272D01*
X19020Y87235D01*
X18846Y87191D01*
X18674Y87140D01*
X18504Y87082D01*
X18336Y87016D01*
X18172Y86944D01*
X18010Y86865D01*
X17852Y86780D01*
X17698Y86688D01*
X17548Y86590D01*
X17401Y86485D01*
X17259Y86375D01*
X17122Y86259D01*
X16990Y86137D01*
X16863Y86010D01*
X16741Y85878D01*
X16625Y85741D01*
X16515Y85599D01*
X16410Y85453D01*
X16312Y85302D01*
X16220Y85148D01*
X16135Y84990D01*
X16056Y84828D01*
X15983Y84664D01*
X15918Y84496D01*
X15860Y84326D01*
X15809Y84154D01*
X15765Y83980D01*
X15728Y83804D01*
X15698Y83627D01*
X15676Y83448D01*
X15661Y83269D01*
X15654Y83090D01*
Y82910D01*
X15661Y82731D01*
X15676Y82551D01*
X15698Y82373D01*
X15728Y82196D01*
X15765Y82020D01*
X15809Y81846D01*
X15860Y81674D01*
X15918Y81504D01*
X15983Y81336D01*
X16056Y81172D01*
X16135Y81010D01*
X16220Y80852D01*
X16312Y80698D01*
X16410Y80547D01*
X16515Y80401D01*
X16625Y80260D01*
X16741Y80122D01*
X16863Y79990D01*
X16990Y79863D01*
X17122Y79741D01*
X17259Y79625D01*
X17401Y79515D01*
X17548Y79410D01*
X17698Y79312D01*
X17852Y79220D01*
X18010Y79135D01*
X18172Y79056D01*
X18336Y78983D01*
X18504Y78918D01*
X18674Y78860D01*
X18846Y78809D01*
X19020Y78764D01*
X19196Y78728D01*
X19373Y78698D01*
X19552Y78676D01*
X19731Y78661D01*
X19910Y78654D01*
X20090D01*
X20269Y78661D01*
X20448Y78676D01*
X20627Y78698D01*
X20804Y78728D01*
X20980Y78764D01*
X21154Y78809D01*
X21326Y78860D01*
X21496Y78918D01*
X21664Y78983D01*
X21828Y79056D01*
X21990Y79135D01*
X22148Y79220D01*
X22302Y79312D01*
X22453Y79410D01*
X22599Y79515D01*
X22740Y79625D01*
X22878Y79741D01*
X23010Y79863D01*
X23137Y79990D01*
X23259Y80122D01*
X23375Y80260D01*
X23485Y80401D01*
X23590Y80547D01*
X23688Y80698D01*
X23780Y80852D01*
X23865Y81010D01*
X23944Y81172D01*
X24016Y81336D01*
X24082Y81504D01*
X24140Y81674D01*
X24191Y81846D01*
X24236Y82020D01*
X24272Y82196D01*
X24302Y82373D01*
X24324Y82551D01*
X24339Y82731D01*
X24346Y82910D01*
Y83012D01*
X24347Y83027D01*
X24350Y83498D01*
X24401Y84323D01*
X24445Y84650D01*
X24501Y84943D01*
X24567Y85189D01*
X24637Y85386D01*
X24707Y85534D01*
X24771Y85635D01*
X24849Y85726D01*
X25622Y86499D01*
X26504D01*
X26656Y86292D01*
X26761Y85899D01*
X26741Y85878D01*
X26625Y85741D01*
X26515Y85599D01*
X26410Y85453D01*
X26312Y85302D01*
X26220Y85148D01*
X26135Y84990D01*
X26056Y84828D01*
X25984Y84664D01*
X25918Y84496D01*
X25860Y84326D01*
X25809Y84154D01*
X25765Y83980D01*
X25728Y83804D01*
X25698Y83627D01*
X25682Y83500D01*
X30000D01*
X34318D01*
X34302Y83627D01*
X34272Y83804D01*
X34236Y83980D01*
X34191Y84154D01*
X34140Y84326D01*
X34082Y84496D01*
X34016Y84664D01*
X33944Y84828D01*
X33865Y84990D01*
X33780Y85148D01*
X33688Y85302D01*
X33590Y85453D01*
X33485Y85599D01*
X33375Y85741D01*
X33259Y85878D01*
X33239Y85899D01*
X33344Y86292D01*
X33496Y86499D01*
X34500D01*
X34607Y86503D01*
X34714Y86514D01*
X34819Y86533D01*
X34923Y86560D01*
X35024Y86594D01*
X35124Y86635D01*
X35219Y86683D01*
X35311Y86737D01*
X35399Y86798D01*
X35483Y86866D01*
X35561Y86939D01*
X49561Y100939D01*
X49634Y101017D01*
X49702Y101101D01*
X49763Y101189D01*
X49817Y101281D01*
X49865Y101376D01*
X49906Y101476D01*
X49940Y101577D01*
X49967Y101681D01*
X49986Y101786D01*
X49997Y101893D01*
X50001Y102000D01*
Y112878D01*
X63622Y126499D01*
X107500D01*
X107607Y126503D01*
X107714Y126514D01*
X107819Y126533D01*
X107923Y126560D01*
X108025Y126594D01*
X108124Y126635D01*
X108219Y126683D01*
X108311Y126737D01*
X108399Y126798D01*
X108483Y126866D01*
X108561Y126939D01*
X142122Y160499D01*
X490000D01*
X490107Y160503D01*
X490214Y160514D01*
X490319Y160533D01*
X490423Y160560D01*
X490524Y160594D01*
X490624Y160635D01*
X490719Y160683D01*
X490811Y160737D01*
X490900Y160798D01*
X490983Y160866D01*
X491061Y160939D01*
X509723Y179600D01*
X509796Y179679D01*
X509863Y179762D01*
X509924Y179850D01*
X509979Y179942D01*
X510027Y180038D01*
X510068Y180137D01*
X510102Y180239D01*
X510128Y180342D01*
X510147Y180448D01*
X510159Y180554D01*
X510162Y180662D01*
Y185946D01*
X510167Y186125D01*
X510173Y186211D01*
X510324Y186277D01*
X510478Y186353D01*
X510628Y186435D01*
X510775Y186524D01*
X510918Y186620D01*
X511056Y186721D01*
X511190Y186829D01*
X511319Y186942D01*
X511443Y187061D01*
X511562Y187185D01*
X511675Y187314D01*
X511782Y187448D01*
X511884Y187586D01*
X511979Y187729D01*
X512068Y187875D01*
X512151Y188026D01*
X512227Y188180D01*
X512278Y188296D01*
X512341Y188319D01*
X512406Y188337D01*
X512791D01*
X512856Y188319D01*
X512919Y188296D01*
X512970Y188180D01*
X513046Y188026D01*
X513129Y187875D01*
X513218Y187729D01*
X513313Y187586D01*
X513415Y187448D01*
X513522Y187314D01*
X513635Y187185D01*
X513754Y187061D01*
X513878Y186942D01*
X514007Y186829D01*
X514141Y186721D01*
X514279Y186620D01*
X514422Y186524D01*
X514569Y186435D01*
X514719Y186353D01*
X514873Y186277D01*
X515030Y186208D01*
X515190Y186146D01*
X515353Y186091D01*
X515517Y186042D01*
X515684Y186002D01*
X515852Y185968D01*
X516022Y185942D01*
X516193Y185924D01*
X516364Y185912D01*
X516536Y185908D01*
X516707Y185912D01*
X516878Y185924D01*
X517049Y185942D01*
X517219Y185968D01*
X517387Y186002D01*
X517554Y186042D01*
X517718Y186091D01*
X517881Y186146D01*
X518041Y186208D01*
X518198Y186277D01*
X518352Y186353D01*
X518502Y186435D01*
X518649Y186524D01*
X518792Y186620D01*
X518930Y186721D01*
X519064Y186829D01*
X519193Y186942D01*
X519317Y187061D01*
X519436Y187185D01*
X519549Y187314D01*
X519656Y187448D01*
X519758Y187586D01*
X519853Y187729D01*
X519942Y187875D01*
X520025Y188026D01*
X520101Y188180D01*
X520152Y188296D01*
X520215Y188319D01*
X520281Y188337D01*
X520665D01*
X520730Y188319D01*
X520793Y188296D01*
X520844Y188180D01*
X520920Y188026D01*
X521003Y187875D01*
X521092Y187729D01*
X521187Y187586D01*
X521289Y187448D01*
X521396Y187314D01*
X521509Y187185D01*
X521628Y187061D01*
X521752Y186942D01*
X521881Y186829D01*
X522015Y186721D01*
X522153Y186620D01*
X522296Y186524D01*
X522443Y186435D01*
X522593Y186353D01*
X522747Y186277D01*
X522904Y186208D01*
X523064Y186146D01*
X523227Y186091D01*
X523391Y186042D01*
X523558Y186002D01*
X523727Y185968D01*
X523896Y185942D01*
X524067Y185924D01*
X524238Y185912D01*
X524410Y185908D01*
X524581Y185912D01*
X524752Y185924D01*
X524923Y185942D01*
X525093Y185968D01*
X525261Y186002D01*
X525428Y186042D01*
X525592Y186091D01*
X525755Y186146D01*
X525915Y186208D01*
X526072Y186277D01*
X526226Y186353D01*
X526376Y186435D01*
X526523Y186524D01*
X526666Y186620D01*
X526804Y186721D01*
X526938Y186829D01*
X527067Y186942D01*
X527191Y187061D01*
X527310Y187185D01*
X527423Y187314D01*
X527530Y187448D01*
X527632Y187586D01*
X527727Y187729D01*
X527816Y187875D01*
X527899Y188026D01*
X527975Y188180D01*
X528026Y188296D01*
X528089Y188319D01*
X528155Y188337D01*
X528539D01*
X528604Y188319D01*
X528667Y188296D01*
X528718Y188180D01*
X528794Y188026D01*
X528877Y187875D01*
X528966Y187729D01*
X529061Y187586D01*
X529163Y187448D01*
X529270Y187314D01*
X529383Y187185D01*
X529502Y187061D01*
X529626Y186942D01*
X529755Y186829D01*
X529889Y186721D01*
X530027Y186620D01*
X530170Y186524D01*
X530317Y186435D01*
X530467Y186353D01*
X530621Y186277D01*
X530778Y186208D01*
X530938Y186146D01*
X531101Y186091D01*
X531265Y186042D01*
X531432Y186002D01*
X531601Y185968D01*
X531770Y185942D01*
X531941Y185924D01*
X532112Y185912D01*
X532284Y185908D01*
X532455Y185912D01*
X532626Y185924D01*
X532797Y185942D01*
X532967Y185968D01*
X533135Y186002D01*
X533302Y186042D01*
X533466Y186091D01*
X533629Y186146D01*
X533789Y186208D01*
X533946Y186277D01*
X534100Y186353D01*
X534250Y186435D01*
X534397Y186524D01*
X534540Y186620D01*
X534678Y186721D01*
X534812Y186829D01*
X534941Y186942D01*
X535065Y187061D01*
X535184Y187185D01*
X535297Y187314D01*
X535404Y187448D01*
X535506Y187586D01*
X535601Y187729D01*
X535690Y187875D01*
X535773Y188026D01*
X535849Y188180D01*
X535900Y188296D01*
X535963Y188319D01*
X536028Y188337D01*
X536413D01*
X536478Y188319D01*
X536541Y188296D01*
X536592Y188180D01*
X536668Y188026D01*
X536751Y187875D01*
X536840Y187729D01*
X536935Y187586D01*
X537037Y187448D01*
X537144Y187314D01*
X537257Y187185D01*
X537376Y187061D01*
X537500Y186942D01*
X537629Y186829D01*
X537763Y186721D01*
X537901Y186620D01*
X538044Y186524D01*
X538191Y186435D01*
X538341Y186353D01*
X538495Y186277D01*
X538652Y186208D01*
X538812Y186146D01*
X538975Y186091D01*
X539139Y186042D01*
X539306Y186002D01*
X539474Y185968D01*
X539644Y185942D01*
X539815Y185924D01*
X539986Y185912D01*
X540158Y185908D01*
X540329Y185912D01*
X540500Y185924D01*
X540671Y185942D01*
X540841Y185968D01*
X541009Y186002D01*
X541176Y186042D01*
X541340Y186091D01*
X541503Y186146D01*
X541663Y186208D01*
X541820Y186277D01*
X541974Y186353D01*
X542124Y186435D01*
X542271Y186524D01*
X542414Y186620D01*
X542552Y186721D01*
X542686Y186829D01*
X542815Y186942D01*
X542939Y187061D01*
X543058Y187185D01*
X543171Y187314D01*
X543278Y187448D01*
X543380Y187586D01*
X543475Y187729D01*
X543564Y187875D01*
X543647Y188026D01*
X543723Y188180D01*
X543774Y188296D01*
X543837Y188319D01*
X543902Y188337D01*
X544287D01*
X544352Y188319D01*
X544415Y188296D01*
X544466Y188180D01*
X544542Y188026D01*
X544625Y187875D01*
X544714Y187729D01*
X544809Y187586D01*
X544911Y187448D01*
X545018Y187314D01*
X545131Y187185D01*
X545250Y187061D01*
X545374Y186942D01*
X545503Y186829D01*
X545637Y186721D01*
X545775Y186620D01*
X545918Y186524D01*
X546065Y186435D01*
X546215Y186353D01*
X546369Y186277D01*
X546526Y186208D01*
X546686Y186146D01*
X546849Y186091D01*
X547013Y186042D01*
X547180Y186002D01*
X547348Y185968D01*
X547518Y185942D01*
X547532Y185941D01*
Y190846D01*
Y195752D01*
X547518Y195751D01*
X547348Y195725D01*
X547180Y195691D01*
X547013Y195650D01*
X546849Y195602D01*
X546686Y195547D01*
X546526Y195485D01*
X546369Y195416D01*
X546215Y195340D01*
X546065Y195257D01*
X545918Y195168D01*
X545775Y195073D01*
X545637Y194972D01*
X545503Y194864D01*
X545374Y194751D01*
X545250Y194632D01*
X545131Y194508D01*
X545018Y194379D01*
X544911Y194245D01*
X544809Y194107D01*
X544714Y193964D01*
X544625Y193817D01*
X544542Y193667D01*
X544466Y193513D01*
X544415Y193397D01*
X544352Y193374D01*
X544287Y193356D01*
X543902D01*
X543837Y193374D01*
X543774Y193397D01*
X543723Y193513D01*
X543647Y193667D01*
X543564Y193817D01*
X543475Y193964D01*
X543380Y194107D01*
X543278Y194245D01*
X543171Y194379D01*
X543058Y194508D01*
X542939Y194632D01*
X542815Y194751D01*
X542686Y194864D01*
X542552Y194972D01*
X542414Y195073D01*
X542271Y195168D01*
X542124Y195257D01*
X541974Y195340D01*
X541820Y195416D01*
X541663Y195485D01*
X541503Y195547D01*
X541340Y195602D01*
X541176Y195650D01*
X541009Y195691D01*
X540841Y195725D01*
X540671Y195751D01*
X540500Y195769D01*
X540329Y195781D01*
X540158Y195784D01*
D02*
G37*
G36*
X445670D02*
X445498Y195781D01*
X445327Y195769D01*
X445156Y195751D01*
X444986Y195725D01*
X444818Y195691D01*
X444651Y195650D01*
X444487Y195602D01*
X444324Y195547D01*
X444164Y195485D01*
X444007Y195416D01*
X443853Y195340D01*
X443703Y195257D01*
X443556Y195168D01*
X443413Y195073D01*
X443275Y194972D01*
X443141Y194864D01*
X443012Y194751D01*
X442888Y194632D01*
X442769Y194508D01*
X442656Y194379D01*
X442549Y194245D01*
X442447Y194107D01*
X442352Y193964D01*
X442263Y193817D01*
X442180Y193667D01*
X442104Y193513D01*
X442053Y193397D01*
X441990Y193374D01*
X441925Y193356D01*
X441540D01*
X441475Y193374D01*
X441412Y193397D01*
X441361Y193513D01*
X441285Y193667D01*
X441202Y193817D01*
X441113Y193964D01*
X441018Y194107D01*
X440916Y194245D01*
X440809Y194379D01*
X440696Y194508D01*
X440577Y194632D01*
X440453Y194751D01*
X440324Y194864D01*
X440190Y194972D01*
X440052Y195073D01*
X439909Y195168D01*
X439762Y195257D01*
X439612Y195340D01*
X439458Y195416D01*
X439301Y195485D01*
X439141Y195547D01*
X438978Y195602D01*
X438814Y195650D01*
X438647Y195691D01*
X438479Y195725D01*
X438309Y195751D01*
X438296Y195752D01*
Y190846D01*
Y185941D01*
X438309Y185942D01*
X438479Y185968D01*
X438647Y186002D01*
X438814Y186042D01*
X438978Y186091D01*
X439141Y186146D01*
X439301Y186208D01*
X439458Y186277D01*
X439612Y186353D01*
X439762Y186435D01*
X439909Y186524D01*
X440052Y186620D01*
X440190Y186721D01*
X440324Y186829D01*
X440453Y186942D01*
X440577Y187061D01*
X440696Y187185D01*
X440809Y187314D01*
X440916Y187448D01*
X441018Y187586D01*
X441113Y187729D01*
X441202Y187875D01*
X441285Y188026D01*
X441361Y188180D01*
X441412Y188296D01*
X441475Y188319D01*
X441540Y188337D01*
X441925D01*
X441990Y188319D01*
X442053Y188296D01*
X442104Y188180D01*
X442180Y188026D01*
X442263Y187875D01*
X442352Y187729D01*
X442447Y187586D01*
X442549Y187448D01*
X442656Y187314D01*
X442769Y187185D01*
X442888Y187061D01*
X443012Y186942D01*
X443141Y186829D01*
X443275Y186721D01*
X443413Y186620D01*
X443556Y186524D01*
X443703Y186435D01*
X443853Y186353D01*
X444007Y186277D01*
X444164Y186208D01*
X444324Y186146D01*
X444487Y186091D01*
X444651Y186042D01*
X444818Y186002D01*
X444986Y185968D01*
X445156Y185942D01*
X445327Y185924D01*
X445498Y185912D01*
X445670Y185908D01*
X445841Y185912D01*
X446012Y185924D01*
X446183Y185942D01*
X446353Y185968D01*
X446521Y186002D01*
X446688Y186042D01*
X446852Y186091D01*
X447015Y186146D01*
X447175Y186208D01*
X447332Y186277D01*
X447486Y186353D01*
X447636Y186435D01*
X447783Y186524D01*
X447926Y186620D01*
X448064Y186721D01*
X448198Y186829D01*
X448327Y186942D01*
X448451Y187061D01*
X448570Y187185D01*
X448683Y187314D01*
X448790Y187448D01*
X448892Y187586D01*
X448987Y187729D01*
X449076Y187875D01*
X449159Y188026D01*
X449235Y188180D01*
X449286Y188296D01*
X449349Y188319D01*
X449414Y188337D01*
X449799D01*
X449864Y188319D01*
X449927Y188296D01*
X449978Y188180D01*
X450054Y188026D01*
X450137Y187875D01*
X450226Y187729D01*
X450321Y187586D01*
X450423Y187448D01*
X450530Y187314D01*
X450643Y187185D01*
X450762Y187061D01*
X450886Y186942D01*
X451015Y186829D01*
X451149Y186721D01*
X451287Y186620D01*
X451430Y186524D01*
X451577Y186435D01*
X451727Y186353D01*
X451881Y186277D01*
X452038Y186208D01*
X452198Y186146D01*
X452361Y186091D01*
X452525Y186042D01*
X452692Y186002D01*
X452860Y185968D01*
X453030Y185942D01*
X453044Y185941D01*
Y190846D01*
Y195752D01*
X453030Y195751D01*
X452860Y195725D01*
X452692Y195691D01*
X452525Y195650D01*
X452361Y195602D01*
X452198Y195547D01*
X452038Y195485D01*
X451881Y195416D01*
X451727Y195340D01*
X451577Y195257D01*
X451430Y195168D01*
X451287Y195073D01*
X451149Y194972D01*
X451015Y194864D01*
X450886Y194751D01*
X450762Y194632D01*
X450643Y194508D01*
X450530Y194379D01*
X450423Y194245D01*
X450321Y194107D01*
X450226Y193964D01*
X450137Y193817D01*
X450054Y193667D01*
X449978Y193513D01*
X449927Y193397D01*
X449864Y193374D01*
X449799Y193356D01*
X449414D01*
X449349Y193374D01*
X449286Y193397D01*
X449235Y193513D01*
X449159Y193667D01*
X449076Y193817D01*
X448987Y193964D01*
X448892Y194107D01*
X448790Y194245D01*
X448683Y194379D01*
X448570Y194508D01*
X448451Y194632D01*
X448327Y194751D01*
X448198Y194864D01*
X448064Y194972D01*
X447926Y195073D01*
X447783Y195168D01*
X447636Y195257D01*
X447486Y195340D01*
X447332Y195416D01*
X447175Y195485D01*
X447015Y195547D01*
X446852Y195602D01*
X446688Y195650D01*
X446521Y195691D01*
X446353Y195725D01*
X446183Y195751D01*
X446012Y195769D01*
X445841Y195781D01*
X445670Y195784D01*
D02*
G37*
G36*
X145957Y195752D02*
X145943Y195751D01*
X145773Y195725D01*
X145605Y195691D01*
X145438Y195650D01*
X145274Y195602D01*
X145111Y195547D01*
X144951Y195485D01*
X144794Y195416D01*
X144640Y195340D01*
X144490Y195257D01*
X144343Y195168D01*
X144200Y195073D01*
X144062Y194972D01*
X143928Y194864D01*
X143799Y194751D01*
X143675Y194632D01*
X143556Y194508D01*
X143443Y194379D01*
X143336Y194245D01*
X143234Y194107D01*
X143139Y193964D01*
X143050Y193817D01*
X142967Y193667D01*
X142891Y193513D01*
X142840Y193397D01*
X142777Y193374D01*
X142712Y193356D01*
X142327D01*
X142262Y193374D01*
X142199Y193397D01*
X142148Y193513D01*
X142072Y193667D01*
X141989Y193817D01*
X141900Y193964D01*
X141805Y194107D01*
X141703Y194245D01*
X141596Y194379D01*
X141483Y194508D01*
X141364Y194632D01*
X141240Y194751D01*
X141111Y194864D01*
X140977Y194972D01*
X140839Y195073D01*
X140696Y195168D01*
X140549Y195257D01*
X140399Y195340D01*
X140245Y195416D01*
X140088Y195485D01*
X139928Y195547D01*
X139765Y195602D01*
X139601Y195650D01*
X139434Y195691D01*
X139266Y195725D01*
X139096Y195751D01*
X139083Y195752D01*
Y190846D01*
Y185941D01*
X139096Y185942D01*
X139266Y185968D01*
X139434Y186002D01*
X139601Y186042D01*
X139765Y186091D01*
X139928Y186146D01*
X140088Y186208D01*
X140245Y186277D01*
X140399Y186353D01*
X140549Y186435D01*
X140696Y186524D01*
X140839Y186620D01*
X140977Y186721D01*
X141111Y186829D01*
X141240Y186942D01*
X141364Y187061D01*
X141483Y187185D01*
X141596Y187314D01*
X141703Y187448D01*
X141805Y187586D01*
X141900Y187729D01*
X141989Y187875D01*
X142072Y188026D01*
X142148Y188180D01*
X142199Y188296D01*
X142262Y188319D01*
X142327Y188337D01*
X142712D01*
X142777Y188319D01*
X142840Y188296D01*
X142891Y188180D01*
X142967Y188026D01*
X143050Y187875D01*
X143139Y187729D01*
X143234Y187586D01*
X143336Y187448D01*
X143443Y187314D01*
X143556Y187185D01*
X143675Y187061D01*
X143799Y186942D01*
X143928Y186829D01*
X144062Y186721D01*
X144200Y186620D01*
X144343Y186524D01*
X144490Y186435D01*
X144640Y186353D01*
X144794Y186277D01*
X144951Y186208D01*
X145111Y186146D01*
X145274Y186091D01*
X145438Y186042D01*
X145605Y186002D01*
X145773Y185968D01*
X145943Y185942D01*
X145957Y185941D01*
Y190846D01*
Y195752D01*
D02*
G37*
G36*
X548531D02*
Y191346D01*
X551965D01*
Y191851D01*
X551962Y192022D01*
X551950Y192193D01*
X551932Y192364D01*
X551905Y192534D01*
X551872Y192702D01*
X551831Y192869D01*
X551783Y193034D01*
X551728Y193196D01*
X551666Y193356D01*
X551597Y193513D01*
X551521Y193667D01*
X551438Y193817D01*
X551349Y193964D01*
X551254Y194107D01*
X551152Y194245D01*
X551045Y194379D01*
X550932Y194508D01*
X550813Y194632D01*
X550689Y194751D01*
X550560Y194864D01*
X550426Y194972D01*
X550288Y195073D01*
X550145Y195168D01*
X549998Y195257D01*
X549848Y195340D01*
X549694Y195416D01*
X549537Y195485D01*
X549377Y195547D01*
X549214Y195602D01*
X549050Y195650D01*
X548883Y195691D01*
X548715Y195725D01*
X548545Y195751D01*
X548531Y195752D01*
D02*
G37*
G36*
X138083D02*
X138069Y195751D01*
X137899Y195725D01*
X137731Y195691D01*
X137564Y195650D01*
X137400Y195602D01*
X137237Y195547D01*
X137077Y195485D01*
X136920Y195416D01*
X136766Y195340D01*
X136616Y195257D01*
X136469Y195168D01*
X136326Y195073D01*
X136188Y194972D01*
X136054Y194864D01*
X135925Y194751D01*
X135801Y194632D01*
X135682Y194508D01*
X135569Y194379D01*
X135462Y194245D01*
X135360Y194107D01*
X135265Y193964D01*
X135176Y193817D01*
X135093Y193667D01*
X135017Y193513D01*
X134948Y193356D01*
X134886Y193196D01*
X134831Y193034D01*
X134783Y192869D01*
X134742Y192702D01*
X134709Y192534D01*
X134683Y192364D01*
X134664Y192193D01*
X134653Y192022D01*
X134649Y191851D01*
Y191346D01*
X138083D01*
Y195752D01*
D02*
G37*
G36*
X551965Y190346D02*
X548531D01*
Y185941D01*
X548545Y185942D01*
X548715Y185968D01*
X548883Y186002D01*
X549050Y186042D01*
X549214Y186091D01*
X549377Y186146D01*
X549537Y186208D01*
X549694Y186277D01*
X549848Y186353D01*
X549998Y186435D01*
X550145Y186524D01*
X550288Y186620D01*
X550426Y186721D01*
X550560Y186829D01*
X550689Y186942D01*
X550813Y187061D01*
X550932Y187185D01*
X551045Y187314D01*
X551152Y187448D01*
X551254Y187586D01*
X551349Y187729D01*
X551438Y187875D01*
X551521Y188026D01*
X551597Y188180D01*
X551666Y188337D01*
X551728Y188497D01*
X551783Y188659D01*
X551831Y188824D01*
X551872Y188991D01*
X551905Y189159D01*
X551932Y189329D01*
X551950Y189499D01*
X551962Y189671D01*
X551965Y189842D01*
Y190346D01*
D02*
G37*
G36*
X138083D02*
X134649D01*
Y189842D01*
X134653Y189671D01*
X134664Y189499D01*
X134683Y189329D01*
X134709Y189159D01*
X134742Y188991D01*
X134783Y188824D01*
X134831Y188659D01*
X134886Y188497D01*
X134948Y188337D01*
X135017Y188180D01*
X135093Y188026D01*
X135176Y187875D01*
X135265Y187729D01*
X135360Y187586D01*
X135462Y187448D01*
X135569Y187314D01*
X135682Y187185D01*
X135801Y187061D01*
X135925Y186942D01*
X136054Y186829D01*
X136188Y186721D01*
X136326Y186620D01*
X136469Y186524D01*
X136616Y186435D01*
X136766Y186353D01*
X136920Y186277D01*
X137077Y186208D01*
X137237Y186146D01*
X137400Y186091D01*
X137564Y186042D01*
X137731Y186002D01*
X137899Y185968D01*
X138069Y185942D01*
X138083Y185941D01*
Y190346D01*
D02*
G37*
G36*
X669462Y211630D02*
X669121D01*
X668779Y211622D01*
X668438Y211606D01*
X668098Y211583D01*
X667758Y211551D01*
X667418Y211512D01*
X667080Y211465D01*
X666743Y211410D01*
X666408Y211347D01*
X666074Y211276D01*
X665741Y211198D01*
X665411Y211112D01*
X665083Y211019D01*
X664756Y210918D01*
X664433Y210809D01*
X664112Y210694D01*
X663793Y210570D01*
X663478Y210440D01*
X663165Y210302D01*
X662856Y210157D01*
X662551Y210004D01*
X662249Y209845D01*
X661950Y209679D01*
X661656Y209506D01*
X661366Y209326D01*
X661080Y209140D01*
X660798Y208947D01*
X660521Y208748D01*
X660249Y208542D01*
X659981Y208330D01*
X659718Y208112D01*
X659461Y207888D01*
X659208Y207658D01*
X658961Y207422D01*
X658720Y207180D01*
X658484Y206933D01*
X658254Y206681D01*
X658030Y206424D01*
X657812Y206161D01*
X657600Y205893D01*
X657394Y205621D01*
X657195Y205344D01*
X657002Y205062D01*
X656815Y204776D01*
X656636Y204486D01*
X656463Y204191D01*
X656297Y203893D01*
X656137Y203591D01*
X655985Y203285D01*
X655840Y202976D01*
X655702Y202664D01*
X655572Y202349D01*
X655448Y202030D01*
X655332Y201709D01*
X655224Y201385D01*
X655123Y201059D01*
X655029Y200731D01*
X654944Y200400D01*
X654865Y200068D01*
X654795Y199734D01*
X654732Y199398D01*
X654677Y199061D01*
X654630Y198723D01*
X654591Y198384D01*
X654559Y198044D01*
X654535Y197704D01*
X654520Y197362D01*
X654512Y197021D01*
Y196680D01*
X654520Y196338D01*
X654535Y195997D01*
X654559Y195657D01*
X654591Y195317D01*
X654630Y194978D01*
X654677Y194639D01*
X654732Y194302D01*
X654795Y193967D01*
X654865Y193633D01*
X654944Y193300D01*
X655029Y192970D01*
X655123Y192642D01*
X655224Y192315D01*
X655332Y191992D01*
X655448Y191671D01*
X655572Y191352D01*
X655702Y191037D01*
X655840Y190725D01*
X655985Y190415D01*
X656137Y190110D01*
X656297Y189808D01*
X656463Y189509D01*
X656636Y189215D01*
X656815Y188925D01*
X657002Y188639D01*
X657195Y188357D01*
X657394Y188080D01*
X657600Y187808D01*
X657812Y187540D01*
X658030Y187277D01*
X658254Y187020D01*
X658484Y186767D01*
X658720Y186520D01*
X658961Y186279D01*
X659208Y186043D01*
X659461Y185813D01*
X659718Y185589D01*
X659981Y185371D01*
X660249Y185159D01*
X660521Y184953D01*
X660798Y184754D01*
X661080Y184561D01*
X661366Y184374D01*
X661656Y184195D01*
X661950Y184022D01*
X662249Y183856D01*
X662551Y183696D01*
X662856Y183544D01*
X663165Y183399D01*
X663478Y183261D01*
X663793Y183131D01*
X664112Y183007D01*
X664433Y182891D01*
X664756Y182783D01*
X665083Y182682D01*
X665411Y182588D01*
X665741Y182502D01*
X666074Y182424D01*
X666408Y182354D01*
X666743Y182291D01*
X667080Y182236D01*
X667418Y182189D01*
X667758Y182150D01*
X668098Y182118D01*
X668438Y182095D01*
X668779Y182079D01*
X669121Y182071D01*
X669462D01*
X669803Y182079D01*
X670144Y182095D01*
X670485Y182118D01*
X670825Y182150D01*
X671164Y182189D01*
X671502Y182236D01*
X671839Y182291D01*
X672175Y182354D01*
X672509Y182424D01*
X672841Y182502D01*
X673172Y182588D01*
X673500Y182682D01*
X673826Y182783D01*
X674150Y182891D01*
X674471Y183007D01*
X674789Y183131D01*
X675105Y183261D01*
X675417Y183399D01*
X675726Y183544D01*
X676032Y183696D01*
X676334Y183856D01*
X676632Y184022D01*
X676927Y184195D01*
X677217Y184374D01*
X677503Y184561D01*
X677785Y184754D01*
X678062Y184953D01*
X678334Y185159D01*
X678602Y185371D01*
X678864Y185589D01*
X679122Y185813D01*
X679374Y186043D01*
X679621Y186279D01*
X679863Y186520D01*
X680098Y186767D01*
X680329Y187020D01*
X680553Y187277D01*
X680771Y187540D01*
X680983Y187808D01*
X681189Y188080D01*
X681388Y188357D01*
X681581Y188639D01*
X681767Y188925D01*
X681947Y189215D01*
X682120Y189509D01*
X682286Y189808D01*
X682445Y190110D01*
X682597Y190415D01*
X682743Y190725D01*
X682880Y191037D01*
X683011Y191352D01*
X683135Y191671D01*
X683251Y191992D01*
X683359Y192315D01*
X683460Y192642D01*
X683553Y192970D01*
X683639Y193300D01*
X683717Y193633D01*
X683788Y193967D01*
X683851Y194302D01*
X683906Y194639D01*
X683953Y194978D01*
X683992Y195317D01*
X684024Y195657D01*
X684047Y195997D01*
X684063Y196338D01*
X684071Y196680D01*
Y197021D01*
X684063Y197362D01*
X684047Y197704D01*
X684024Y198044D01*
X683992Y198384D01*
X683953Y198723D01*
X683906Y199061D01*
X683851Y199398D01*
X683788Y199734D01*
X683717Y200068D01*
X683639Y200400D01*
X683553Y200731D01*
X683460Y201059D01*
X683359Y201385D01*
X683251Y201709D01*
X683135Y202030D01*
X683011Y202349D01*
X682880Y202664D01*
X682743Y202976D01*
X682597Y203285D01*
X682445Y203591D01*
X682286Y203893D01*
X682120Y204191D01*
X681947Y204486D01*
X681767Y204776D01*
X681581Y205062D01*
X681388Y205344D01*
X681189Y205621D01*
X680983Y205893D01*
X680771Y206161D01*
X680553Y206424D01*
X680329Y206681D01*
X680098Y206933D01*
X679863Y207180D01*
X679621Y207422D01*
X679374Y207658D01*
X679122Y207888D01*
X678864Y208112D01*
X678602Y208330D01*
X678334Y208542D01*
X678062Y208748D01*
X677785Y208947D01*
X677503Y209140D01*
X677217Y209326D01*
X676927Y209506D01*
X676632Y209679D01*
X676334Y209845D01*
X676032Y210004D01*
X675726Y210157D01*
X675417Y210302D01*
X675105Y210440D01*
X674789Y210570D01*
X674471Y210694D01*
X674150Y210809D01*
X673826Y210918D01*
X673500Y211019D01*
X673172Y211112D01*
X672841Y211198D01*
X672509Y211276D01*
X672175Y211347D01*
X671839Y211410D01*
X671502Y211465D01*
X671164Y211512D01*
X670825Y211551D01*
X670485Y211583D01*
X670144Y211606D01*
X669803Y211622D01*
X669462Y211630D01*
D02*
G37*
G36*
X19856D02*
X19514D01*
X19173Y211622D01*
X18832Y211606D01*
X18491Y211583D01*
X18151Y211551D01*
X17812Y211512D01*
X17474Y211465D01*
X17137Y211410D01*
X16802Y211347D01*
X16467Y211276D01*
X16135Y211198D01*
X15805Y211112D01*
X15476Y211019D01*
X15150Y210918D01*
X14826Y210809D01*
X14505Y210694D01*
X14187Y210570D01*
X13871Y210440D01*
X13559Y210302D01*
X13250Y210157D01*
X12944Y210004D01*
X12642Y209845D01*
X12344Y209679D01*
X12050Y209506D01*
X11760Y209326D01*
X11473Y209140D01*
X11192Y208947D01*
X10915Y208748D01*
X10642Y208542D01*
X10374Y208330D01*
X10112Y208112D01*
X9854Y207888D01*
X9602Y207658D01*
X9355Y207422D01*
X9114Y207180D01*
X8878Y206933D01*
X8648Y206681D01*
X8424Y206424D01*
X8206Y206161D01*
X7994Y205893D01*
X7788Y205621D01*
X7588Y205344D01*
X7395Y205062D01*
X7209Y204776D01*
X7029Y204486D01*
X6856Y204191D01*
X6690Y203893D01*
X6531Y203591D01*
X6379Y203285D01*
X6234Y202976D01*
X6096Y202664D01*
X5965Y202349D01*
X5842Y202030D01*
X5726Y201709D01*
X5617Y201385D01*
X5516Y201059D01*
X5423Y200731D01*
X5337Y200400D01*
X5259Y200068D01*
X5189Y199734D01*
X5126Y199398D01*
X5071Y199061D01*
X5024Y198723D01*
X4984Y198384D01*
X4953Y198044D01*
X4929Y197704D01*
X4913Y197362D01*
X4905Y197021D01*
Y196680D01*
X4913Y196338D01*
X4929Y195997D01*
X4953Y195657D01*
X4984Y195317D01*
X5024Y194978D01*
X5071Y194639D01*
X5126Y194302D01*
X5189Y193967D01*
X5259Y193633D01*
X5337Y193300D01*
X5423Y192970D01*
X5516Y192642D01*
X5617Y192315D01*
X5726Y191992D01*
X5842Y191671D01*
X5965Y191352D01*
X6096Y191037D01*
X6234Y190725D01*
X6379Y190415D01*
X6531Y190110D01*
X6690Y189808D01*
X6856Y189509D01*
X7029Y189215D01*
X7209Y188925D01*
X7395Y188639D01*
X7588Y188357D01*
X7788Y188080D01*
X7994Y187808D01*
X8206Y187540D01*
X8424Y187277D01*
X8648Y187020D01*
X8878Y186767D01*
X9114Y186520D01*
X9355Y186279D01*
X9602Y186043D01*
X9854Y185813D01*
X10112Y185589D01*
X10374Y185371D01*
X10642Y185159D01*
X10915Y184953D01*
X11192Y184754D01*
X11473Y184561D01*
X11760Y184374D01*
X12050Y184195D01*
X12344Y184022D01*
X12642Y183856D01*
X12944Y183696D01*
X13250Y183544D01*
X13559Y183399D01*
X13871Y183261D01*
X14187Y183131D01*
X14505Y183007D01*
X14826Y182891D01*
X15150Y182783D01*
X15476Y182682D01*
X15805Y182588D01*
X16135Y182502D01*
X16467Y182424D01*
X16802Y182354D01*
X17137Y182291D01*
X17474Y182236D01*
X17812Y182189D01*
X18151Y182150D01*
X18491Y182118D01*
X18832Y182095D01*
X19173Y182079D01*
X19514Y182071D01*
X19856D01*
X20197Y182079D01*
X20538Y182095D01*
X20879Y182118D01*
X21219Y182150D01*
X21558Y182189D01*
X21896Y182236D01*
X22233Y182291D01*
X22569Y182354D01*
X22903Y182424D01*
X23235Y182502D01*
X23565Y182588D01*
X23894Y182682D01*
X24220Y182783D01*
X24544Y182891D01*
X24865Y183007D01*
X25183Y183131D01*
X25499Y183261D01*
X25811Y183399D01*
X26120Y183544D01*
X26426Y183696D01*
X26728Y183856D01*
X27026Y184022D01*
X27320Y184195D01*
X27611Y184374D01*
X27897Y184561D01*
X28178Y184754D01*
X28455Y184953D01*
X28728Y185159D01*
X28995Y185371D01*
X29258Y185589D01*
X29516Y185813D01*
X29768Y186043D01*
X30015Y186279D01*
X30257Y186520D01*
X30492Y186767D01*
X30722Y187020D01*
X30946Y187277D01*
X31165Y187540D01*
X31376Y187808D01*
X31582Y188080D01*
X31782Y188357D01*
X31975Y188639D01*
X32161Y188925D01*
X32341Y189215D01*
X32514Y189509D01*
X32680Y189808D01*
X32839Y190110D01*
X32991Y190415D01*
X33136Y190725D01*
X33274Y191037D01*
X33405Y191352D01*
X33528Y191671D01*
X33644Y191992D01*
X33753Y192315D01*
X33854Y192642D01*
X33947Y192970D01*
X34033Y193300D01*
X34111Y193633D01*
X34181Y193967D01*
X34244Y194302D01*
X34299Y194639D01*
X34346Y194978D01*
X34386Y195317D01*
X34417Y195657D01*
X34441Y195997D01*
X34457Y196338D01*
X34465Y196680D01*
Y197021D01*
X34457Y197362D01*
X34441Y197704D01*
X34417Y198044D01*
X34386Y198384D01*
X34346Y198723D01*
X34299Y199061D01*
X34244Y199398D01*
X34181Y199734D01*
X34111Y200068D01*
X34033Y200400D01*
X33947Y200731D01*
X33854Y201059D01*
X33753Y201385D01*
X33644Y201709D01*
X33528Y202030D01*
X33405Y202349D01*
X33274Y202664D01*
X33136Y202976D01*
X32991Y203285D01*
X32839Y203591D01*
X32680Y203893D01*
X32514Y204191D01*
X32341Y204486D01*
X32161Y204776D01*
X31975Y205062D01*
X31782Y205344D01*
X31582Y205621D01*
X31376Y205893D01*
X31165Y206161D01*
X30946Y206424D01*
X30722Y206681D01*
X30492Y206933D01*
X30257Y207180D01*
X30015Y207422D01*
X29768Y207658D01*
X29516Y207888D01*
X29258Y208112D01*
X28995Y208330D01*
X28728Y208542D01*
X28455Y208748D01*
X28178Y208947D01*
X27897Y209140D01*
X27611Y209326D01*
X27320Y209506D01*
X27026Y209679D01*
X26728Y209845D01*
X26426Y210004D01*
X26120Y210157D01*
X25811Y210302D01*
X25499Y210440D01*
X25183Y210570D01*
X24865Y210694D01*
X24544Y210809D01*
X24220Y210918D01*
X23894Y211019D01*
X23565Y211112D01*
X23235Y211198D01*
X22903Y211276D01*
X22569Y211347D01*
X22233Y211410D01*
X21896Y211465D01*
X21558Y211512D01*
X21219Y211551D01*
X20879Y211583D01*
X20538Y211606D01*
X20197Y211622D01*
X19856Y211630D01*
D02*
G37*
G36*
X645775Y186531D02*
X645564D01*
X645352Y186524D01*
X645141Y186509D01*
X644931Y186486D01*
X644722Y186456D01*
X644514Y186419D01*
X644307Y186374D01*
X644102Y186321D01*
X643900Y186262D01*
X643699Y186195D01*
X643501Y186121D01*
X643306Y186040D01*
X643113Y185952D01*
X642924Y185858D01*
X642739Y185757D01*
X642557Y185649D01*
X642379Y185534D01*
X642205Y185414D01*
X642036Y185287D01*
X641872Y185154D01*
X641712Y185016D01*
X641557Y184872D01*
X641407Y184722D01*
X641263Y184568D01*
X641125Y184408D01*
X640992Y184243D01*
X640866Y184074D01*
X640745Y183900D01*
X640631Y183723D01*
X640523Y183541D01*
X640422Y183355D01*
X640327Y183166D01*
X640239Y182974D01*
X640158Y182779D01*
X640084Y182580D01*
X640018Y182380D01*
X639958Y182177D01*
X639906Y181972D01*
X639861Y181766D01*
X639823Y181558D01*
X639793Y181348D01*
X639771Y181138D01*
X639756Y180927D01*
X639748Y180716D01*
Y180505D01*
X639756Y180293D01*
X639771Y180082D01*
X639793Y179872D01*
X639823Y179663D01*
X639861Y179455D01*
X639906Y179248D01*
X639958Y179043D01*
X640018Y178841D01*
X640084Y178640D01*
X640158Y178442D01*
X640239Y178247D01*
X640327Y178054D01*
X640422Y177865D01*
X640523Y177680D01*
X640631Y177498D01*
X640745Y177320D01*
X640866Y177146D01*
X640992Y176977D01*
X641125Y176813D01*
X641263Y176653D01*
X641407Y176498D01*
X641557Y176348D01*
X641712Y176205D01*
X641872Y176066D01*
X642036Y175933D01*
X642205Y175807D01*
X642379Y175686D01*
X642557Y175572D01*
X642739Y175464D01*
X642924Y175363D01*
X643113Y175268D01*
X643306Y175180D01*
X643501Y175099D01*
X643699Y175025D01*
X643900Y174959D01*
X644102Y174899D01*
X644307Y174847D01*
X644514Y174802D01*
X644722Y174764D01*
X644931Y174734D01*
X645141Y174712D01*
X645352Y174697D01*
X645564Y174689D01*
X645775D01*
X645986Y174697D01*
X646197Y174712D01*
X646407Y174734D01*
X646617Y174764D01*
X646825Y174802D01*
X647031Y174847D01*
X647236Y174899D01*
X647439Y174959D01*
X647640Y175025D01*
X647838Y175099D01*
X648033Y175180D01*
X648225Y175268D01*
X648414Y175363D01*
X648600Y175464D01*
X648782Y175572D01*
X648959Y175686D01*
X649133Y175807D01*
X649302Y175933D01*
X649467Y176066D01*
X649627Y176205D01*
X649782Y176348D01*
X649931Y176498D01*
X650075Y176653D01*
X650213Y176813D01*
X650346Y176977D01*
X650473Y177146D01*
X650593Y177320D01*
X650708Y177498D01*
X650816Y177680D01*
X650917Y177865D01*
X651012Y178054D01*
X651099Y178247D01*
X651180Y178442D01*
X651254Y178640D01*
X651321Y178841D01*
X651380Y179043D01*
X651433Y179248D01*
X651478Y179455D01*
X651515Y179663D01*
X651545Y179872D01*
X651568Y180082D01*
X651583Y180293D01*
X651590Y180505D01*
Y180716D01*
X651583Y180927D01*
X651568Y181138D01*
X651545Y181348D01*
X651515Y181558D01*
X651478Y181766D01*
X651433Y181972D01*
X651380Y182177D01*
X651321Y182380D01*
X651254Y182580D01*
X651180Y182779D01*
X651099Y182974D01*
X651012Y183166D01*
X650917Y183355D01*
X650816Y183541D01*
X650708Y183723D01*
X650593Y183900D01*
X650473Y184074D01*
X650346Y184243D01*
X650213Y184408D01*
X650075Y184568D01*
X649931Y184722D01*
X649782Y184872D01*
X649627Y185016D01*
X649467Y185154D01*
X649302Y185287D01*
X649133Y185414D01*
X648959Y185534D01*
X648782Y185649D01*
X648600Y185757D01*
X648414Y185858D01*
X648225Y185952D01*
X648033Y186040D01*
X647838Y186121D01*
X647640Y186195D01*
X647439Y186262D01*
X647236Y186321D01*
X647031Y186374D01*
X646825Y186419D01*
X646617Y186456D01*
X646407Y186486D01*
X646197Y186509D01*
X645986Y186524D01*
X645775Y186531D01*
D02*
G37*
G36*
X43413D02*
X43201D01*
X42990Y186524D01*
X42779Y186509D01*
X42569Y186486D01*
X42360Y186456D01*
X42152Y186419D01*
X41945Y186374D01*
X41740Y186321D01*
X41537Y186262D01*
X41337Y186195D01*
X41139Y186121D01*
X40944Y186040D01*
X40751Y185952D01*
X40562Y185858D01*
X40376Y185757D01*
X40195Y185649D01*
X40017Y185534D01*
X39843Y185414D01*
X39674Y185287D01*
X39509Y185154D01*
X39350Y185016D01*
X39195Y184872D01*
X39045Y184722D01*
X38901Y184568D01*
X38763Y184408D01*
X38630Y184243D01*
X38504Y184074D01*
X38383Y183900D01*
X38269Y183723D01*
X38161Y183541D01*
X38059Y183355D01*
X37965Y183166D01*
X37877Y182974D01*
X37796Y182779D01*
X37722Y182580D01*
X37655Y182380D01*
X37596Y182177D01*
X37544Y181972D01*
X37499Y181766D01*
X37461Y181558D01*
X37431Y181348D01*
X37408Y181138D01*
X37393Y180927D01*
X37386Y180716D01*
Y180505D01*
X37393Y180293D01*
X37408Y180082D01*
X37431Y179872D01*
X37461Y179663D01*
X37499Y179455D01*
X37544Y179248D01*
X37596Y179043D01*
X37655Y178841D01*
X37722Y178640D01*
X37796Y178442D01*
X37877Y178247D01*
X37965Y178054D01*
X38059Y177865D01*
X38161Y177680D01*
X38269Y177498D01*
X38383Y177320D01*
X38504Y177146D01*
X38630Y176977D01*
X38763Y176813D01*
X38901Y176653D01*
X39045Y176498D01*
X39195Y176348D01*
X39350Y176205D01*
X39509Y176066D01*
X39674Y175933D01*
X39843Y175807D01*
X40017Y175686D01*
X40195Y175572D01*
X40376Y175464D01*
X40562Y175363D01*
X40751Y175268D01*
X40944Y175180D01*
X41139Y175099D01*
X41337Y175025D01*
X41537Y174959D01*
X41740Y174899D01*
X41945Y174847D01*
X42152Y174802D01*
X42360Y174764D01*
X42569Y174734D01*
X42779Y174712D01*
X42990Y174697D01*
X43201Y174689D01*
X43413D01*
X43624Y174697D01*
X43835Y174712D01*
X44045Y174734D01*
X44254Y174764D01*
X44462Y174802D01*
X44669Y174847D01*
X44874Y174899D01*
X45077Y174959D01*
X45277Y175025D01*
X45475Y175099D01*
X45671Y175180D01*
X45863Y175268D01*
X46052Y175363D01*
X46238Y175464D01*
X46419Y175572D01*
X46597Y175686D01*
X46771Y175807D01*
X46940Y175933D01*
X47105Y176066D01*
X47265Y176205D01*
X47419Y176348D01*
X47569Y176498D01*
X47713Y176653D01*
X47851Y176813D01*
X47984Y176977D01*
X48111Y177146D01*
X48231Y177320D01*
X48346Y177498D01*
X48453Y177680D01*
X48555Y177865D01*
X48649Y178054D01*
X48737Y178247D01*
X48818Y178442D01*
X48892Y178640D01*
X48959Y178841D01*
X49018Y179043D01*
X49071Y179248D01*
X49115Y179455D01*
X49153Y179663D01*
X49183Y179872D01*
X49206Y180082D01*
X49221Y180293D01*
X49228Y180505D01*
Y180716D01*
X49221Y180927D01*
X49206Y181138D01*
X49183Y181348D01*
X49153Y181558D01*
X49115Y181766D01*
X49071Y181972D01*
X49018Y182177D01*
X48959Y182380D01*
X48892Y182580D01*
X48818Y182779D01*
X48737Y182974D01*
X48649Y183166D01*
X48555Y183355D01*
X48453Y183541D01*
X48346Y183723D01*
X48231Y183900D01*
X48111Y184074D01*
X47984Y184243D01*
X47851Y184408D01*
X47713Y184568D01*
X47569Y184722D01*
X47419Y184872D01*
X47265Y185016D01*
X47105Y185154D01*
X46940Y185287D01*
X46771Y185414D01*
X46597Y185534D01*
X46419Y185649D01*
X46238Y185757D01*
X46052Y185858D01*
X45863Y185952D01*
X45671Y186040D01*
X45475Y186121D01*
X45277Y186195D01*
X45077Y186262D01*
X44874Y186321D01*
X44669Y186374D01*
X44462Y186419D01*
X44254Y186456D01*
X44045Y186486D01*
X43835Y186509D01*
X43624Y186524D01*
X43413Y186531D01*
D02*
G37*
G36*
X618000Y212501D02*
X81500D01*
X81353Y212497D01*
X81206Y212487D01*
X81060Y212468D01*
X80914Y212443D01*
X80771Y212411D01*
X80629Y212372D01*
X80489Y212326D01*
X80352Y212273D01*
X80217Y212213D01*
X80085Y212147D01*
X79957Y212074D01*
X79833Y211995D01*
X79712Y211910D01*
X79596Y211820D01*
X79485Y211723D01*
X79378Y211622D01*
X79378Y211622D01*
X73469Y205713D01*
X73367Y205606D01*
X73271Y205494D01*
X73180Y205378D01*
X73095Y205258D01*
X73017Y205133D01*
X72944Y205005D01*
X72878Y204874D01*
X72818Y204739D01*
X72765Y204602D01*
X72719Y204462D01*
X72680Y204320D01*
X72647Y204176D01*
X72622Y204031D01*
X72604Y203885D01*
X72593Y203738D01*
X72590Y203591D01*
Y198005D01*
X72527Y196049D01*
X72482Y195531D01*
X72348Y194591D01*
X72269Y194223D01*
X72181Y193904D01*
X72088Y193645D01*
X72039Y193541D01*
X72025Y193513D01*
X72013Y193485D01*
X71972Y193397D01*
X71939Y193316D01*
X71929Y193285D01*
X71894Y193196D01*
X71839Y193034D01*
X71791Y192869D01*
X71750Y192702D01*
X71717Y192534D01*
X71690Y192364D01*
X71672Y192193D01*
X71661Y192022D01*
X71657Y191851D01*
Y189842D01*
X71661Y189671D01*
X71672Y189499D01*
X71690Y189329D01*
X71717Y189159D01*
X71750Y188991D01*
X71791Y188824D01*
X71839Y188659D01*
X71894Y188497D01*
X71956Y188337D01*
X72025Y188180D01*
X72101Y188026D01*
X72184Y187875D01*
X72273Y187729D01*
X72368Y187586D01*
X72470Y187448D01*
X72577Y187314D01*
X72690Y187185D01*
X72809Y187061D01*
X72933Y186942D01*
X73062Y186829D01*
X73196Y186721D01*
X73334Y186620D01*
X73477Y186524D01*
X73624Y186435D01*
X73774Y186353D01*
X73928Y186277D01*
X74085Y186208D01*
X74245Y186146D01*
X74408Y186091D01*
X74572Y186042D01*
X74739Y186002D01*
X74907Y185968D01*
X75077Y185942D01*
X75248Y185924D01*
X75419Y185912D01*
X75590Y185908D01*
X75762Y185912D01*
X75933Y185924D01*
X76104Y185942D01*
X76274Y185968D01*
X76442Y186002D01*
X76609Y186042D01*
X76773Y186091D01*
X76936Y186146D01*
X77096Y186208D01*
X77253Y186277D01*
X77407Y186353D01*
X77557Y186435D01*
X77704Y186524D01*
X77847Y186620D01*
X77985Y186721D01*
X78119Y186829D01*
X78248Y186942D01*
X78372Y187061D01*
X78491Y187185D01*
X78604Y187314D01*
X78711Y187448D01*
X78813Y187586D01*
X78908Y187729D01*
X78997Y187875D01*
X79080Y188026D01*
X79156Y188180D01*
X79207Y188296D01*
X79270Y188319D01*
X79335Y188337D01*
X79720D01*
X79785Y188319D01*
X79848Y188296D01*
X79899Y188180D01*
X79975Y188026D01*
X80058Y187875D01*
X80147Y187729D01*
X80242Y187586D01*
X80344Y187448D01*
X80451Y187314D01*
X80564Y187185D01*
X80683Y187061D01*
X80807Y186942D01*
X80936Y186829D01*
X81070Y186721D01*
X81208Y186620D01*
X81351Y186524D01*
X81498Y186435D01*
X81648Y186353D01*
X81802Y186277D01*
X81959Y186208D01*
X82119Y186146D01*
X82282Y186091D01*
X82446Y186042D01*
X82613Y186002D01*
X82781Y185968D01*
X82951Y185942D01*
X83122Y185924D01*
X83293Y185912D01*
X83464Y185908D01*
X83636Y185912D01*
X83807Y185924D01*
X83978Y185942D01*
X84148Y185968D01*
X84316Y186002D01*
X84483Y186042D01*
X84647Y186091D01*
X84810Y186146D01*
X84970Y186208D01*
X85127Y186277D01*
X85281Y186353D01*
X85431Y186435D01*
X85578Y186524D01*
X85721Y186620D01*
X85859Y186721D01*
X85993Y186829D01*
X86122Y186942D01*
X86246Y187061D01*
X86365Y187185D01*
X86478Y187314D01*
X86585Y187448D01*
X86687Y187586D01*
X86782Y187729D01*
X86871Y187875D01*
X86954Y188026D01*
X87030Y188180D01*
X87081Y188296D01*
X87144Y188319D01*
X87209Y188337D01*
X87594D01*
X87659Y188319D01*
X87722Y188296D01*
X87773Y188180D01*
X87849Y188026D01*
X87932Y187875D01*
X88021Y187729D01*
X88116Y187586D01*
X88218Y187448D01*
X88325Y187314D01*
X88438Y187185D01*
X88557Y187061D01*
X88681Y186942D01*
X88810Y186829D01*
X88944Y186721D01*
X89082Y186620D01*
X89225Y186524D01*
X89372Y186435D01*
X89522Y186353D01*
X89676Y186277D01*
X89833Y186208D01*
X89993Y186146D01*
X90156Y186091D01*
X90320Y186042D01*
X90487Y186002D01*
X90655Y185968D01*
X90825Y185942D01*
X90996Y185924D01*
X91167Y185912D01*
X91338Y185908D01*
X91510Y185912D01*
X91681Y185924D01*
X91852Y185942D01*
X92022Y185968D01*
X92190Y186002D01*
X92357Y186042D01*
X92521Y186091D01*
X92684Y186146D01*
X92844Y186208D01*
X93001Y186277D01*
X93155Y186353D01*
X93305Y186435D01*
X93452Y186524D01*
X93595Y186620D01*
X93733Y186721D01*
X93867Y186829D01*
X93996Y186942D01*
X94120Y187061D01*
X94239Y187185D01*
X94352Y187314D01*
X94459Y187448D01*
X94561Y187586D01*
X94656Y187729D01*
X94745Y187875D01*
X94828Y188026D01*
X94904Y188180D01*
X94955Y188296D01*
X95018Y188319D01*
X95083Y188337D01*
X95468D01*
X95533Y188319D01*
X95596Y188296D01*
X95647Y188180D01*
X95723Y188026D01*
X95806Y187875D01*
X95895Y187729D01*
X95990Y187586D01*
X96092Y187448D01*
X96199Y187314D01*
X96312Y187185D01*
X96431Y187061D01*
X96555Y186942D01*
X96684Y186829D01*
X96818Y186721D01*
X96956Y186620D01*
X97099Y186524D01*
X97246Y186435D01*
X97396Y186353D01*
X97550Y186277D01*
X97707Y186208D01*
X97867Y186146D01*
X98030Y186091D01*
X98194Y186042D01*
X98361Y186002D01*
X98529Y185968D01*
X98699Y185942D01*
X98870Y185924D01*
X99041Y185912D01*
X99212Y185908D01*
X99384Y185912D01*
X99555Y185924D01*
X99726Y185942D01*
X99896Y185968D01*
X100064Y186002D01*
X100231Y186042D01*
X100395Y186091D01*
X100558Y186146D01*
X100718Y186208D01*
X100875Y186277D01*
X101029Y186353D01*
X101179Y186435D01*
X101326Y186524D01*
X101469Y186620D01*
X101607Y186721D01*
X101741Y186829D01*
X101870Y186942D01*
X101994Y187061D01*
X102113Y187185D01*
X102226Y187314D01*
X102333Y187448D01*
X102435Y187586D01*
X102530Y187729D01*
X102619Y187875D01*
X102702Y188026D01*
X102778Y188180D01*
X102847Y188337D01*
X102909Y188497D01*
X102964Y188659D01*
X103012Y188824D01*
X103053Y188991D01*
X103086Y189159D01*
X103113Y189329D01*
X103131Y189499D01*
X103142Y189671D01*
X103146Y189842D01*
Y191851D01*
X103142Y192022D01*
X103131Y192193D01*
X103113Y192364D01*
X103086Y192534D01*
X103053Y192702D01*
X103012Y192869D01*
X102964Y193034D01*
X102909Y193196D01*
X102847Y193356D01*
X102778Y193513D01*
X102702Y193667D01*
X102619Y193817D01*
X102530Y193964D01*
X102435Y194107D01*
X102333Y194245D01*
X102226Y194379D01*
X102113Y194508D01*
X101994Y194632D01*
X101870Y194751D01*
X101741Y194864D01*
X101607Y194972D01*
X101469Y195073D01*
X101326Y195168D01*
X101179Y195257D01*
X101029Y195340D01*
X100875Y195416D01*
X100718Y195485D01*
X100558Y195547D01*
X100395Y195602D01*
X100231Y195650D01*
X100064Y195691D01*
X99896Y195725D01*
X99726Y195751D01*
X99555Y195769D01*
X99384Y195781D01*
X99212Y195784D01*
X99041Y195781D01*
X98870Y195769D01*
X98699Y195751D01*
X98529Y195725D01*
X98361Y195691D01*
X98194Y195650D01*
X98030Y195602D01*
X97867Y195547D01*
X97707Y195485D01*
X97550Y195416D01*
X97396Y195340D01*
X97246Y195257D01*
X97099Y195168D01*
X96956Y195073D01*
X96818Y194972D01*
X96684Y194864D01*
X96555Y194751D01*
X96431Y194632D01*
X96312Y194508D01*
X96199Y194379D01*
X96092Y194245D01*
X95990Y194107D01*
X95895Y193964D01*
X95806Y193817D01*
X95723Y193667D01*
X95647Y193513D01*
X95596Y193397D01*
X95533Y193374D01*
X95468Y193356D01*
X95083D01*
X95018Y193374D01*
X94955Y193397D01*
X94904Y193513D01*
X94828Y193667D01*
X94745Y193817D01*
X94656Y193964D01*
X94561Y194107D01*
X94459Y194245D01*
X94352Y194379D01*
X94239Y194508D01*
X94120Y194632D01*
X93996Y194751D01*
X93867Y194864D01*
X93733Y194972D01*
X93595Y195073D01*
X93452Y195168D01*
X93305Y195257D01*
X93155Y195340D01*
X93001Y195416D01*
X92844Y195485D01*
X92684Y195547D01*
X92521Y195602D01*
X92357Y195650D01*
X92190Y195691D01*
X92022Y195725D01*
X91852Y195751D01*
X91681Y195769D01*
X91510Y195781D01*
X91338Y195784D01*
X91167Y195781D01*
X90996Y195769D01*
X90825Y195751D01*
X90655Y195725D01*
X90487Y195691D01*
X90320Y195650D01*
X90156Y195602D01*
X89993Y195547D01*
X89833Y195485D01*
X89676Y195416D01*
X89522Y195340D01*
X89372Y195257D01*
X89225Y195168D01*
X89082Y195073D01*
X88944Y194972D01*
X88810Y194864D01*
X88681Y194751D01*
X88557Y194632D01*
X88438Y194508D01*
X88325Y194379D01*
X88218Y194245D01*
X88116Y194107D01*
X88021Y193964D01*
X87932Y193817D01*
X87849Y193667D01*
X87773Y193513D01*
X87722Y193397D01*
X87659Y193374D01*
X87594Y193356D01*
X87209D01*
X87144Y193374D01*
X87081Y193397D01*
X87030Y193513D01*
X86954Y193667D01*
X86871Y193817D01*
X86782Y193964D01*
X86687Y194107D01*
X86585Y194245D01*
X86478Y194379D01*
X86365Y194508D01*
X86246Y194632D01*
X86122Y194751D01*
X85993Y194864D01*
X85859Y194972D01*
X85721Y195073D01*
X85578Y195168D01*
X85431Y195257D01*
X85281Y195340D01*
X85127Y195416D01*
X84970Y195485D01*
X84810Y195547D01*
X84647Y195602D01*
X84483Y195650D01*
X84316Y195691D01*
X84148Y195725D01*
X83978Y195751D01*
X83807Y195769D01*
X83636Y195781D01*
X83464Y195784D01*
X83293Y195781D01*
X83122Y195769D01*
X82951Y195751D01*
X82781Y195725D01*
X82613Y195691D01*
X82446Y195650D01*
X82282Y195602D01*
X82119Y195547D01*
X81959Y195485D01*
X81802Y195416D01*
X81648Y195340D01*
X81498Y195257D01*
X81351Y195168D01*
X81208Y195073D01*
X81070Y194972D01*
X80936Y194864D01*
X80807Y194751D01*
X80683Y194632D01*
X80564Y194508D01*
X80451Y194379D01*
X80344Y194245D01*
X80242Y194107D01*
X80147Y193964D01*
X80058Y193817D01*
X79975Y193667D01*
X79899Y193513D01*
X79848Y193397D01*
X79785Y193374D01*
X79632Y193332D01*
X79514Y193317D01*
X79225Y193393D01*
X79208Y193399D01*
X79168Y193485D01*
X79156Y193513D01*
X79142Y193541D01*
X79093Y193645D01*
X79006Y193889D01*
X78828Y194615D01*
X78764Y195010D01*
X78598Y197316D01*
X78591Y197998D01*
Y202347D01*
X82743Y206499D01*
X616757D01*
X620999Y202257D01*
Y173743D01*
X616757Y169501D01*
X585243D01*
X584122Y170622D01*
X584015Y170723D01*
X583904Y170820D01*
X583788Y170910D01*
X583667Y170995D01*
X583543Y171074D01*
X583415Y171147D01*
X583283Y171213D01*
X583148Y171273D01*
X583011Y171326D01*
X582871Y171372D01*
X582729Y171411D01*
X582585Y171443D01*
X582440Y171468D01*
X582294Y171486D01*
X582147Y171497D01*
X582000Y171501D01*
X580500D01*
X580353Y171497D01*
X580206Y171486D01*
X580060Y171468D01*
X579915Y171443D01*
X579771Y171411D01*
X579629Y171372D01*
X579489Y171326D01*
X579352Y171273D01*
X579217Y171213D01*
X579085Y171147D01*
X578957Y171074D01*
X578833Y170995D01*
X578712Y170910D01*
X578596Y170820D01*
X578485Y170723D01*
X578378Y170622D01*
X578276Y170515D01*
X578180Y170404D01*
X578090Y170288D01*
X578005Y170167D01*
X577926Y170043D01*
X577853Y169915D01*
X577787Y169783D01*
X577728Y169648D01*
X577674Y169511D01*
X577628Y169371D01*
X577589Y169229D01*
X577557Y169085D01*
X577532Y168940D01*
X577514Y168794D01*
X577503Y168647D01*
X577499Y168500D01*
Y164500D01*
X577503Y164353D01*
X577514Y164206D01*
X577532Y164060D01*
X577557Y163915D01*
X577589Y163771D01*
X577628Y163629D01*
X577674Y163489D01*
X577728Y163352D01*
X577787Y163217D01*
X577853Y163085D01*
X577926Y162957D01*
X578005Y162833D01*
X578090Y162712D01*
X578180Y162596D01*
X578276Y162485D01*
X578378Y162378D01*
X578485Y162276D01*
X578596Y162180D01*
X578712Y162090D01*
X578833Y162005D01*
X578957Y161926D01*
X579085Y161853D01*
X579217Y161787D01*
X579352Y161727D01*
X579489Y161674D01*
X579629Y161628D01*
X579771Y161589D01*
X579915Y161557D01*
X580060Y161532D01*
X580206Y161514D01*
X580353Y161503D01*
X580500Y161499D01*
X582000D01*
X582147Y161503D01*
X582294Y161514D01*
X582440Y161532D01*
X582585Y161557D01*
X582729Y161589D01*
X582871Y161628D01*
X583011Y161674D01*
X583148Y161727D01*
X583283Y161787D01*
X583415Y161853D01*
X583543Y161926D01*
X583667Y162005D01*
X583788Y162090D01*
X583904Y162180D01*
X584015Y162276D01*
X584122Y162378D01*
X585243Y163499D01*
X618000D01*
X618147Y163503D01*
X618294Y163514D01*
X618440Y163532D01*
X618585Y163557D01*
X618729Y163589D01*
X618871Y163628D01*
X619011Y163674D01*
X619148Y163727D01*
X619283Y163787D01*
X619415Y163853D01*
X619543Y163926D01*
X619667Y164005D01*
X619788Y164090D01*
X619904Y164180D01*
X620015Y164277D01*
X620122Y164378D01*
X626122Y170378D01*
X626224Y170485D01*
X626320Y170596D01*
X626410Y170712D01*
X626495Y170833D01*
X626574Y170957D01*
X626647Y171085D01*
X626713Y171217D01*
X626772Y171352D01*
X626826Y171489D01*
X626872Y171629D01*
X626911Y171771D01*
X626943Y171915D01*
X626968Y172060D01*
X626986Y172206D01*
X626997Y172353D01*
X627001Y172500D01*
Y203500D01*
X626997Y203647D01*
X626986Y203794D01*
X626968Y203940D01*
X626943Y204085D01*
X626911Y204229D01*
X626872Y204371D01*
X626826Y204511D01*
X626772Y204648D01*
X626713Y204783D01*
X626647Y204915D01*
X626574Y205043D01*
X626495Y205167D01*
X626410Y205288D01*
X626320Y205404D01*
X626224Y205515D01*
X626122Y205622D01*
X620122Y211622D01*
X620015Y211723D01*
X619904Y211820D01*
X619788Y211910D01*
X619667Y211995D01*
X619543Y212074D01*
X619415Y212147D01*
X619283Y212213D01*
X619148Y212273D01*
X619011Y212326D01*
X618871Y212372D01*
X618729Y212411D01*
X618585Y212443D01*
X618440Y212468D01*
X618294Y212487D01*
X618147Y212497D01*
X618000Y212501D01*
D02*
G37*
G36*
X322500Y156001D02*
X271500D01*
X271304Y155997D01*
X271108Y155985D01*
X270912Y155966D01*
X270718Y155939D01*
X270524Y155905D01*
X270333Y155863D01*
X270143Y155813D01*
X269955Y155756D01*
X269769Y155692D01*
X269586Y155620D01*
X269406Y155542D01*
X269230Y155456D01*
X269056Y155363D01*
X268887Y155264D01*
X268722Y155158D01*
X268561Y155046D01*
X268404Y154927D01*
X268252Y154803D01*
X268105Y154672D01*
X267964Y154536D01*
X267828Y154395D01*
X267697Y154248D01*
X267573Y154096D01*
X267454Y153939D01*
X267342Y153778D01*
X267236Y153613D01*
X267137Y153444D01*
X267044Y153270D01*
X266958Y153094D01*
X266880Y152914D01*
X266808Y152731D01*
X266744Y152545D01*
X266687Y152357D01*
X266637Y152167D01*
X266595Y151976D01*
X266561Y151782D01*
X266534Y151588D01*
X266514Y151392D01*
X266503Y151196D01*
X266499Y151000D01*
Y147500D01*
X266503Y147304D01*
X266514Y147108D01*
X266534Y146912D01*
X266561Y146718D01*
X266595Y146524D01*
X266637Y146333D01*
X266687Y146142D01*
X266744Y145955D01*
X266808Y145769D01*
X266880Y145586D01*
X266958Y145406D01*
X267044Y145230D01*
X267137Y145056D01*
X267236Y144887D01*
X267342Y144722D01*
X267454Y144561D01*
X267573Y144404D01*
X267697Y144252D01*
X267828Y144105D01*
X267964Y143964D01*
X268105Y143828D01*
X268252Y143697D01*
X268404Y143573D01*
X268561Y143454D01*
X268722Y143342D01*
X268887Y143236D01*
X269056Y143137D01*
X269230Y143044D01*
X269406Y142958D01*
X269586Y142880D01*
X269769Y142808D01*
X269955Y142744D01*
X270143Y142687D01*
X270333Y142637D01*
X270524Y142595D01*
X270718Y142561D01*
X270912Y142534D01*
X271108Y142515D01*
X271304Y142503D01*
X271500Y142499D01*
X271696Y142503D01*
X271892Y142515D01*
X272088Y142534D01*
X272282Y142561D01*
X272476Y142595D01*
X272668Y142637D01*
X272857Y142687D01*
X273045Y142744D01*
X273231Y142808D01*
X273414Y142880D01*
X273594Y142958D01*
X273770Y143044D01*
X273944Y143137D01*
X274113Y143236D01*
X274278Y143342D01*
X274440Y143454D01*
X274596Y143573D01*
X274748Y143697D01*
X274895Y143828D01*
X275036Y143964D01*
X277071Y145999D01*
X322500D01*
X322696Y146003D01*
X322892Y146014D01*
X323088Y146034D01*
X323282Y146061D01*
X323476Y146095D01*
X323668Y146137D01*
X323857Y146187D01*
X324045Y146244D01*
X324231Y146308D01*
X324414Y146380D01*
X324594Y146458D01*
X324770Y146544D01*
X324944Y146637D01*
X325113Y146736D01*
X325278Y146842D01*
X325440Y146954D01*
X325596Y147073D01*
X325748Y147197D01*
X325895Y147328D01*
X326036Y147464D01*
X326172Y147605D01*
X326303Y147752D01*
X326427Y147904D01*
X326546Y148061D01*
X326658Y148222D01*
X326764Y148387D01*
X326863Y148556D01*
X326956Y148730D01*
X327042Y148906D01*
X327120Y149086D01*
X327192Y149269D01*
X327256Y149455D01*
X327313Y149643D01*
X327363Y149832D01*
X327405Y150024D01*
X327439Y150218D01*
X327466Y150412D01*
X327485Y150608D01*
X327497Y150804D01*
X327501Y151000D01*
X327497Y151196D01*
X327485Y151392D01*
X327466Y151588D01*
X327439Y151782D01*
X327405Y151976D01*
X327363Y152167D01*
X327313Y152357D01*
X327256Y152545D01*
X327192Y152731D01*
X327120Y152914D01*
X327042Y153094D01*
X326956Y153270D01*
X326863Y153444D01*
X326764Y153613D01*
X326658Y153778D01*
X326546Y153939D01*
X326427Y154096D01*
X326303Y154248D01*
X326172Y154395D01*
X326036Y154536D01*
X325895Y154672D01*
X325748Y154803D01*
X325596Y154927D01*
X325440Y155046D01*
X325278Y155158D01*
X325113Y155264D01*
X324944Y155363D01*
X324770Y155456D01*
X324594Y155542D01*
X324414Y155620D01*
X324231Y155692D01*
X324045Y155756D01*
X323857Y155813D01*
X323668Y155863D01*
X323476Y155905D01*
X323282Y155939D01*
X323088Y155966D01*
X322892Y155985D01*
X322696Y155997D01*
X322500Y156001D01*
D02*
G37*
G36*
X20500Y137318D02*
Y133500D01*
X24318D01*
X24302Y133627D01*
X24272Y133804D01*
X24236Y133980D01*
X24191Y134154D01*
X24140Y134326D01*
X24082Y134496D01*
X24016Y134664D01*
X23944Y134828D01*
X23865Y134990D01*
X23780Y135148D01*
X23688Y135302D01*
X23590Y135452D01*
X23485Y135599D01*
X23375Y135741D01*
X23259Y135878D01*
X23137Y136010D01*
X23010Y136137D01*
X22878Y136259D01*
X22740Y136375D01*
X22599Y136485D01*
X22453Y136590D01*
X22302Y136688D01*
X22148Y136780D01*
X21990Y136865D01*
X21828Y136944D01*
X21664Y137016D01*
X21496Y137082D01*
X21326Y137140D01*
X21154Y137191D01*
X20980Y137235D01*
X20804Y137272D01*
X20627Y137302D01*
X20500Y137318D01*
D02*
G37*
G36*
X19500Y137318D02*
X19373Y137302D01*
X19196Y137272D01*
X19020Y137235D01*
X18846Y137191D01*
X18674Y137140D01*
X18504Y137082D01*
X18336Y137016D01*
X18172Y136944D01*
X18010Y136865D01*
X17852Y136780D01*
X17698Y136688D01*
X17548Y136590D01*
X17401Y136485D01*
X17259Y136375D01*
X17122Y136259D01*
X16990Y136137D01*
X16863Y136010D01*
X16741Y135878D01*
X16625Y135741D01*
X16515Y135599D01*
X16410Y135452D01*
X16312Y135302D01*
X16220Y135148D01*
X16135Y134990D01*
X16056Y134828D01*
X15983Y134664D01*
X15918Y134496D01*
X15860Y134326D01*
X15809Y134154D01*
X15765Y133980D01*
X15728Y133804D01*
X15698Y133627D01*
X15682Y133500D01*
X19500D01*
Y137318D01*
D02*
G37*
G36*
Y132500D02*
X15682D01*
X15698Y132373D01*
X15728Y132196D01*
X15765Y132020D01*
X15809Y131846D01*
X15860Y131674D01*
X15918Y131504D01*
X15983Y131336D01*
X16056Y131172D01*
X16135Y131010D01*
X16220Y130852D01*
X16312Y130698D01*
X16410Y130547D01*
X16515Y130401D01*
X16625Y130259D01*
X16741Y130122D01*
X16863Y129990D01*
X16990Y129863D01*
X17122Y129741D01*
X17259Y129625D01*
X17401Y129515D01*
X17548Y129410D01*
X17698Y129312D01*
X17852Y129220D01*
X18010Y129135D01*
X18172Y129056D01*
X18336Y128983D01*
X18504Y128918D01*
X18674Y128860D01*
X18846Y128809D01*
X19020Y128764D01*
X19196Y128728D01*
X19373Y128698D01*
X19500Y128682D01*
Y132500D01*
D02*
G37*
G36*
X24318D02*
X20500D01*
Y128682D01*
X20627Y128698D01*
X20804Y128728D01*
X20980Y128764D01*
X21154Y128809D01*
X21326Y128860D01*
X21496Y128918D01*
X21664Y128983D01*
X21828Y129056D01*
X21990Y129135D01*
X22148Y129220D01*
X22302Y129312D01*
X22453Y129410D01*
X22599Y129515D01*
X22740Y129625D01*
X22878Y129741D01*
X23010Y129863D01*
X23137Y129990D01*
X23259Y130122D01*
X23375Y130259D01*
X23485Y130401D01*
X23590Y130547D01*
X23688Y130698D01*
X23780Y130852D01*
X23865Y131010D01*
X23944Y131172D01*
X24016Y131336D01*
X24082Y131504D01*
X24140Y131674D01*
X24191Y131846D01*
X24236Y132020D01*
X24272Y132196D01*
X24302Y132373D01*
X24318Y132500D01*
D02*
G37*
G36*
X30090Y127347D02*
X29910D01*
X29731Y127339D01*
X29552Y127324D01*
X29373Y127302D01*
X29196Y127272D01*
X29020Y127235D01*
X28846Y127191D01*
X28674Y127140D01*
X28504Y127082D01*
X28336Y127016D01*
X28172Y126944D01*
X28010Y126865D01*
X27852Y126780D01*
X27698Y126688D01*
X27547Y126590D01*
X27401Y126485D01*
X27259Y126375D01*
X27122Y126259D01*
X26990Y126137D01*
X26863Y126010D01*
X26741Y125878D01*
X26625Y125741D01*
X26515Y125599D01*
X26410Y125452D01*
X26312Y125302D01*
X26220Y125148D01*
X26135Y124990D01*
X26056Y124828D01*
X25984Y124664D01*
X25918Y124496D01*
X25860Y124326D01*
X25809Y124154D01*
X25765Y123980D01*
X25728Y123804D01*
X25698Y123627D01*
X25676Y123449D01*
X25661Y123269D01*
X25654Y123090D01*
Y122910D01*
X25661Y122731D01*
X25676Y122552D01*
X25698Y122373D01*
X25728Y122196D01*
X25765Y122020D01*
X25809Y121846D01*
X25860Y121674D01*
X25918Y121504D01*
X25984Y121336D01*
X26056Y121172D01*
X26135Y121010D01*
X26220Y120852D01*
X26312Y120698D01*
X26410Y120547D01*
X26515Y120401D01*
X26625Y120259D01*
X26741Y120122D01*
X26863Y119990D01*
X26990Y119863D01*
X27122Y119741D01*
X27259Y119625D01*
X27401Y119515D01*
X27547Y119410D01*
X27698Y119312D01*
X27852Y119220D01*
X28010Y119135D01*
X28172Y119056D01*
X28336Y118983D01*
X28504Y118918D01*
X28674Y118860D01*
X28846Y118809D01*
X29020Y118764D01*
X29196Y118728D01*
X29373Y118698D01*
X29552Y118676D01*
X29731Y118661D01*
X29910Y118654D01*
X30090D01*
X30269Y118661D01*
X30448Y118676D01*
X30627Y118698D01*
X30804Y118728D01*
X30980Y118764D01*
X31154Y118809D01*
X31326Y118860D01*
X31496Y118918D01*
X31664Y118983D01*
X31828Y119056D01*
X31990Y119135D01*
X32148Y119220D01*
X32302Y119312D01*
X32452Y119410D01*
X32599Y119515D01*
X32741Y119625D01*
X32878Y119741D01*
X33010Y119863D01*
X33137Y119990D01*
X33259Y120122D01*
X33375Y120259D01*
X33485Y120401D01*
X33590Y120547D01*
X33688Y120698D01*
X33780Y120852D01*
X33865Y121010D01*
X33944Y121172D01*
X34016Y121336D01*
X34082Y121504D01*
X34140Y121674D01*
X34191Y121846D01*
X34236Y122020D01*
X34272Y122196D01*
X34302Y122373D01*
X34324Y122552D01*
X34339Y122731D01*
X34346Y122910D01*
Y123090D01*
X34339Y123269D01*
X34324Y123449D01*
X34302Y123627D01*
X34272Y123804D01*
X34236Y123980D01*
X34191Y124154D01*
X34140Y124326D01*
X34082Y124496D01*
X34016Y124664D01*
X33944Y124828D01*
X33865Y124990D01*
X33780Y125148D01*
X33688Y125302D01*
X33590Y125452D01*
X33485Y125599D01*
X33375Y125741D01*
X33259Y125878D01*
X33137Y126010D01*
X33010Y126137D01*
X32878Y126259D01*
X32741Y126375D01*
X32599Y126485D01*
X32452Y126590D01*
X32302Y126688D01*
X32148Y126780D01*
X31990Y126865D01*
X31828Y126944D01*
X31664Y127016D01*
X31496Y127082D01*
X31326Y127140D01*
X31154Y127191D01*
X30980Y127235D01*
X30804Y127272D01*
X30627Y127302D01*
X30448Y127324D01*
X30269Y127339D01*
X30090Y127347D01*
D02*
G37*
G36*
X20090D02*
X19910D01*
X19731Y127339D01*
X19552Y127324D01*
X19373Y127302D01*
X19196Y127272D01*
X19020Y127235D01*
X18846Y127191D01*
X18674Y127140D01*
X18504Y127082D01*
X18336Y127016D01*
X18172Y126944D01*
X18010Y126865D01*
X17852Y126780D01*
X17698Y126688D01*
X17548Y126590D01*
X17401Y126485D01*
X17259Y126375D01*
X17122Y126259D01*
X16990Y126137D01*
X16863Y126010D01*
X16741Y125878D01*
X16625Y125741D01*
X16515Y125599D01*
X16410Y125452D01*
X16312Y125302D01*
X16220Y125148D01*
X16135Y124990D01*
X16056Y124828D01*
X15983Y124664D01*
X15918Y124496D01*
X15860Y124326D01*
X15809Y124154D01*
X15765Y123980D01*
X15728Y123804D01*
X15698Y123627D01*
X15676Y123449D01*
X15661Y123269D01*
X15654Y123090D01*
Y122910D01*
X15661Y122731D01*
X15676Y122552D01*
X15698Y122373D01*
X15728Y122196D01*
X15765Y122020D01*
X15809Y121846D01*
X15860Y121674D01*
X15918Y121504D01*
X15983Y121336D01*
X16056Y121172D01*
X16135Y121010D01*
X16220Y120852D01*
X16312Y120698D01*
X16410Y120547D01*
X16515Y120401D01*
X16625Y120259D01*
X16741Y120122D01*
X16863Y119990D01*
X16990Y119863D01*
X17122Y119741D01*
X17259Y119625D01*
X17401Y119515D01*
X17548Y119410D01*
X17698Y119312D01*
X17852Y119220D01*
X18010Y119135D01*
X18172Y119056D01*
X18336Y118983D01*
X18504Y118918D01*
X18674Y118860D01*
X18846Y118809D01*
X19020Y118764D01*
X19196Y118728D01*
X19373Y118698D01*
X19552Y118676D01*
X19731Y118661D01*
X19910Y118654D01*
X20090D01*
X20269Y118661D01*
X20448Y118676D01*
X20627Y118698D01*
X20804Y118728D01*
X20980Y118764D01*
X21154Y118809D01*
X21326Y118860D01*
X21496Y118918D01*
X21664Y118983D01*
X21828Y119056D01*
X21990Y119135D01*
X22148Y119220D01*
X22302Y119312D01*
X22453Y119410D01*
X22599Y119515D01*
X22740Y119625D01*
X22878Y119741D01*
X23010Y119863D01*
X23137Y119990D01*
X23259Y120122D01*
X23375Y120259D01*
X23485Y120401D01*
X23590Y120547D01*
X23688Y120698D01*
X23780Y120852D01*
X23865Y121010D01*
X23944Y121172D01*
X24016Y121336D01*
X24082Y121504D01*
X24140Y121674D01*
X24191Y121846D01*
X24236Y122020D01*
X24272Y122196D01*
X24302Y122373D01*
X24324Y122552D01*
X24339Y122731D01*
X24346Y122910D01*
Y123090D01*
X24339Y123269D01*
X24324Y123449D01*
X24302Y123627D01*
X24272Y123804D01*
X24236Y123980D01*
X24191Y124154D01*
X24140Y124326D01*
X24082Y124496D01*
X24016Y124664D01*
X23944Y124828D01*
X23865Y124990D01*
X23780Y125148D01*
X23688Y125302D01*
X23590Y125452D01*
X23485Y125599D01*
X23375Y125741D01*
X23259Y125878D01*
X23137Y126010D01*
X23010Y126137D01*
X22878Y126259D01*
X22740Y126375D01*
X22599Y126485D01*
X22453Y126590D01*
X22302Y126688D01*
X22148Y126780D01*
X21990Y126865D01*
X21828Y126944D01*
X21664Y127016D01*
X21496Y127082D01*
X21326Y127140D01*
X21154Y127191D01*
X20980Y127235D01*
X20804Y127272D01*
X20627Y127302D01*
X20448Y127324D01*
X20269Y127339D01*
X20090Y127347D01*
D02*
G37*
G36*
Y107346D02*
X19910D01*
X19731Y107339D01*
X19552Y107324D01*
X19373Y107302D01*
X19196Y107272D01*
X19020Y107236D01*
X18846Y107191D01*
X18674Y107140D01*
X18504Y107082D01*
X18336Y107017D01*
X18172Y106944D01*
X18010Y106865D01*
X17852Y106780D01*
X17698Y106688D01*
X17548Y106590D01*
X17401Y106485D01*
X17259Y106375D01*
X17122Y106259D01*
X16990Y106137D01*
X16863Y106010D01*
X16741Y105878D01*
X16625Y105741D01*
X16515Y105599D01*
X16410Y105453D01*
X16312Y105302D01*
X16220Y105148D01*
X16135Y104990D01*
X16056Y104828D01*
X15983Y104664D01*
X15918Y104496D01*
X15860Y104326D01*
X15809Y104154D01*
X15765Y103980D01*
X15728Y103804D01*
X15698Y103627D01*
X15676Y103448D01*
X15661Y103269D01*
X15654Y103090D01*
Y102910D01*
X15661Y102731D01*
X15676Y102551D01*
X15698Y102373D01*
X15728Y102196D01*
X15765Y102020D01*
X15809Y101846D01*
X15860Y101674D01*
X15918Y101504D01*
X15983Y101336D01*
X16056Y101172D01*
X16135Y101010D01*
X16220Y100852D01*
X16312Y100698D01*
X16410Y100548D01*
X16515Y100401D01*
X16625Y100259D01*
X16741Y100122D01*
X16863Y99990D01*
X16990Y99863D01*
X17122Y99741D01*
X17259Y99625D01*
X17401Y99515D01*
X17548Y99410D01*
X17698Y99312D01*
X17852Y99220D01*
X18010Y99135D01*
X18172Y99056D01*
X18336Y98984D01*
X18504Y98918D01*
X18674Y98860D01*
X18846Y98809D01*
X19020Y98764D01*
X19196Y98728D01*
X19373Y98698D01*
X19552Y98676D01*
X19731Y98661D01*
X19910Y98654D01*
X20090D01*
X20269Y98661D01*
X20448Y98676D01*
X20627Y98698D01*
X20804Y98728D01*
X20980Y98764D01*
X21154Y98809D01*
X21326Y98860D01*
X21496Y98918D01*
X21664Y98984D01*
X21828Y99056D01*
X21990Y99135D01*
X22148Y99220D01*
X22302Y99312D01*
X22453Y99410D01*
X22599Y99515D01*
X22740Y99625D01*
X22878Y99741D01*
X23010Y99863D01*
X23137Y99990D01*
X23259Y100122D01*
X23375Y100259D01*
X23485Y100401D01*
X23590Y100548D01*
X23688Y100698D01*
X23780Y100852D01*
X23865Y101010D01*
X23944Y101172D01*
X24016Y101336D01*
X24082Y101504D01*
X24140Y101674D01*
X24191Y101846D01*
X24236Y102020D01*
X24272Y102196D01*
X24302Y102373D01*
X24324Y102551D01*
X24339Y102731D01*
X24346Y102910D01*
Y103090D01*
X24339Y103269D01*
X24324Y103448D01*
X24302Y103627D01*
X24272Y103804D01*
X24236Y103980D01*
X24191Y104154D01*
X24140Y104326D01*
X24082Y104496D01*
X24016Y104664D01*
X23944Y104828D01*
X23865Y104990D01*
X23780Y105148D01*
X23688Y105302D01*
X23590Y105453D01*
X23485Y105599D01*
X23375Y105741D01*
X23259Y105878D01*
X23137Y106010D01*
X23010Y106137D01*
X22878Y106259D01*
X22740Y106375D01*
X22599Y106485D01*
X22453Y106590D01*
X22302Y106688D01*
X22148Y106780D01*
X21990Y106865D01*
X21828Y106944D01*
X21664Y107017D01*
X21496Y107082D01*
X21326Y107140D01*
X21154Y107191D01*
X20980Y107236D01*
X20804Y107272D01*
X20627Y107302D01*
X20448Y107324D01*
X20269Y107339D01*
X20090Y107346D01*
D02*
G37*
G36*
X645669Y118619D02*
X645524Y118615D01*
X645378Y118605D01*
X645234Y118587D01*
X645090Y118562D01*
X644948Y118530D01*
X644807Y118491D01*
X644669Y118445D01*
X644533Y118393D01*
X644400Y118334D01*
X644270Y118268D01*
X644143Y118196D01*
X644020Y118119D01*
X643900Y118035D01*
X643785Y117945D01*
X643675Y117850D01*
X643570Y117749D01*
X643469Y117644D01*
X643374Y117533D01*
X643284Y117419D01*
X643200Y117299D01*
X643122Y117176D01*
X643050Y117049D01*
X642985Y116919D01*
X642926Y116786D01*
X642873Y116650D01*
X642828Y116512D01*
X642789Y116371D01*
X642757Y116229D01*
X642732Y116085D01*
X642714Y115941D01*
X642703Y115795D01*
X642700Y115650D01*
Y99902D01*
X642703Y99756D01*
X642714Y99611D01*
X642732Y99466D01*
X642757Y99322D01*
X642789Y99180D01*
X642828Y99040D01*
X642873Y98901D01*
X642926Y98765D01*
X642985Y98632D01*
X643050Y98502D01*
X643122Y98375D01*
X643200Y98252D01*
X643284Y98133D01*
X643374Y98018D01*
X643469Y97907D01*
X643570Y97802D01*
X643675Y97701D01*
X643785Y97606D01*
X643900Y97517D01*
X644020Y97433D01*
X644143Y97355D01*
X644270Y97283D01*
X644400Y97217D01*
X644533Y97158D01*
X644669Y97106D01*
X644807Y97060D01*
X644948Y97021D01*
X645090Y96989D01*
X645234Y96964D01*
X645378Y96947D01*
X645524Y96936D01*
X645669Y96932D01*
X645815Y96936D01*
X645960Y96947D01*
X646105Y96964D01*
X646249Y96989D01*
X646391Y97021D01*
X646531Y97060D01*
X646670Y97106D01*
X646806Y97158D01*
X646939Y97217D01*
X647069Y97283D01*
X647196Y97355D01*
X647319Y97433D01*
X647438Y97517D01*
X647553Y97606D01*
X647663Y97701D01*
X647769Y97802D01*
X647869Y97907D01*
X647965Y98018D01*
X648054Y98133D01*
X648138Y98252D01*
X648216Y98375D01*
X648288Y98502D01*
X648354Y98632D01*
X648413Y98765D01*
X648465Y98901D01*
X648511Y99040D01*
X648550Y99180D01*
X648582Y99322D01*
X648606Y99466D01*
X648624Y99611D01*
X648635Y99756D01*
X648639Y99902D01*
Y115650D01*
X648635Y115795D01*
X648624Y115941D01*
X648606Y116085D01*
X648582Y116229D01*
X648550Y116371D01*
X648511Y116512D01*
X648465Y116650D01*
X648413Y116786D01*
X648354Y116919D01*
X648288Y117049D01*
X648216Y117176D01*
X648138Y117299D01*
X648054Y117419D01*
X647965Y117533D01*
X647869Y117644D01*
X647769Y117749D01*
X647663Y117850D01*
X647553Y117945D01*
X647438Y118035D01*
X647319Y118119D01*
X647196Y118196D01*
X647069Y118268D01*
X646939Y118334D01*
X646806Y118393D01*
X646670Y118445D01*
X646531Y118491D01*
X646391Y118530D01*
X646249Y118562D01*
X646105Y118587D01*
X645960Y118605D01*
X645815Y118615D01*
X645669Y118619D01*
D02*
G37*
G36*
X555231Y108776D02*
X555005D01*
X554779Y108768D01*
X554554Y108753D01*
X554329Y108731D01*
X554105Y108702D01*
X553882Y108665D01*
X553660Y108621D01*
X553440Y108570D01*
X553222Y108511D01*
X553005Y108445D01*
X552791Y108373D01*
X552580Y108293D01*
X552371Y108207D01*
X552165Y108113D01*
X551963Y108013D01*
X551763Y107907D01*
X551568Y107794D01*
X551376Y107675D01*
X551188Y107549D01*
X551004Y107417D01*
X550825Y107280D01*
X550650Y107136D01*
X550480Y106987D01*
X550315Y106833D01*
X550155Y106673D01*
X550001Y106508D01*
X549852Y106338D01*
X549708Y106164D01*
X549571Y105984D01*
X549439Y105800D01*
X549314Y105613D01*
X549194Y105421D01*
X549081Y105225D01*
X548975Y105026D01*
X548875Y104823D01*
X548781Y104617D01*
X548695Y104408D01*
X548615Y104197D01*
X548543Y103983D01*
X548477Y103767D01*
X548419Y103548D01*
X548367Y103328D01*
X548323Y103106D01*
X548286Y102884D01*
X548257Y102659D01*
X548235Y102435D01*
X548220Y102209D01*
X548213Y101983D01*
Y101757D01*
X548220Y101531D01*
X548235Y101306D01*
X548257Y101081D01*
X548286Y100857D01*
X548323Y100634D01*
X548367Y100412D01*
X548419Y100192D01*
X548477Y99974D01*
X548543Y99757D01*
X548615Y99543D01*
X548695Y99332D01*
X548781Y99123D01*
X548875Y98917D01*
X548975Y98715D01*
X549081Y98515D01*
X549194Y98320D01*
X549314Y98128D01*
X549439Y97940D01*
X549571Y97756D01*
X549708Y97577D01*
X549852Y97402D01*
X550001Y97232D01*
X550155Y97067D01*
X550315Y96907D01*
X550480Y96753D01*
X550650Y96604D01*
X550825Y96460D01*
X551004Y96323D01*
X551188Y96191D01*
X551376Y96066D01*
X551568Y95946D01*
X551763Y95833D01*
X551963Y95727D01*
X552165Y95627D01*
X552371Y95534D01*
X552580Y95447D01*
X552791Y95367D01*
X553005Y95295D01*
X553222Y95229D01*
X553440Y95171D01*
X553660Y95119D01*
X553882Y95075D01*
X554105Y95038D01*
X554329Y95009D01*
X554554Y94987D01*
X554779Y94972D01*
X555005Y94965D01*
X555231D01*
X555457Y94972D01*
X555683Y94987D01*
X555907Y95009D01*
X556132Y95038D01*
X556355Y95075D01*
X556576Y95119D01*
X556796Y95171D01*
X557015Y95229D01*
X557231Y95295D01*
X557445Y95367D01*
X557656Y95447D01*
X557865Y95534D01*
X558071Y95627D01*
X558274Y95727D01*
X558473Y95833D01*
X558669Y95946D01*
X558861Y96066D01*
X559049Y96191D01*
X559232Y96323D01*
X559412Y96460D01*
X559586Y96604D01*
X559756Y96753D01*
X559921Y96907D01*
X560081Y97067D01*
X560235Y97232D01*
X560385Y97402D01*
X560528Y97577D01*
X560665Y97756D01*
X560797Y97940D01*
X560923Y98128D01*
X561042Y98320D01*
X561155Y98515D01*
X561262Y98715D01*
X561361Y98917D01*
X561455Y99123D01*
X561541Y99332D01*
X561621Y99543D01*
X561693Y99757D01*
X561759Y99974D01*
X561818Y100192D01*
X561869Y100412D01*
X561913Y100634D01*
X561950Y100857D01*
X561979Y101081D01*
X562001Y101306D01*
X562016Y101531D01*
X562024Y101757D01*
Y101983D01*
X562016Y102209D01*
X562001Y102435D01*
X561979Y102659D01*
X561950Y102884D01*
X561913Y103106D01*
X561869Y103328D01*
X561818Y103548D01*
X561759Y103767D01*
X561693Y103983D01*
X561621Y104197D01*
X561541Y104408D01*
X561455Y104617D01*
X561361Y104823D01*
X561262Y105026D01*
X561155Y105225D01*
X561042Y105421D01*
X560923Y105613D01*
X560797Y105800D01*
X560665Y105984D01*
X560528Y106164D01*
X560385Y106338D01*
X560235Y106508D01*
X560081Y106673D01*
X559921Y106833D01*
X559756Y106987D01*
X559586Y107136D01*
X559412Y107280D01*
X559232Y107417D01*
X559049Y107549D01*
X558861Y107675D01*
X558669Y107794D01*
X558473Y107907D01*
X558274Y108013D01*
X558071Y108113D01*
X557865Y108207D01*
X557656Y108293D01*
X557445Y108373D01*
X557231Y108445D01*
X557015Y108511D01*
X556796Y108570D01*
X556576Y108621D01*
X556355Y108665D01*
X556132Y108702D01*
X555907Y108731D01*
X555683Y108753D01*
X555457Y108768D01*
X555231Y108776D01*
D02*
G37*
G36*
X126969Y108776D02*
X125000D01*
X124774Y108773D01*
X124548Y108762D01*
X124323Y108743D01*
X124099Y108717D01*
X123875Y108684D01*
X123653Y108644D01*
X123432Y108596D01*
X123213Y108541D01*
X122995Y108479D01*
X122780Y108410D01*
X122567Y108334D01*
X122357Y108251D01*
X122150Y108161D01*
X121945Y108064D01*
X121744Y107961D01*
X121547Y107851D01*
X121353Y107735D01*
X121163Y107613D01*
X120977Y107484D01*
X120796Y107349D01*
X120619Y107209D01*
X120446Y107063D01*
X120279Y106911D01*
X120116Y106754D01*
X119959Y106591D01*
X119808Y106424D01*
X119661Y106252D01*
X119521Y106075D01*
X119386Y105893D01*
X119257Y105707D01*
X119135Y105517D01*
X119019Y105323D01*
X118909Y105126D01*
X118806Y104925D01*
X118709Y104720D01*
X118619Y104513D01*
X118536Y104303D01*
X118460Y104090D01*
X118391Y103875D01*
X118329Y103658D01*
X118274Y103438D01*
X118226Y103217D01*
X118186Y102995D01*
X118153Y102772D01*
X118127Y102547D01*
X118108Y102322D01*
X118097Y102096D01*
X118094Y101870D01*
X118097Y101644D01*
X118108Y101418D01*
X118127Y101193D01*
X118153Y100969D01*
X118186Y100745D01*
X118226Y100523D01*
X118274Y100302D01*
X118329Y100083D01*
X118391Y99865D01*
X118460Y99650D01*
X118536Y99437D01*
X118619Y99227D01*
X118709Y99020D01*
X118806Y98815D01*
X118909Y98614D01*
X119019Y98417D01*
X119135Y98223D01*
X119257Y98033D01*
X119386Y97847D01*
X119521Y97666D01*
X119661Y97489D01*
X119808Y97316D01*
X119959Y97149D01*
X120116Y96987D01*
X120279Y96829D01*
X120446Y96678D01*
X120619Y96531D01*
X120796Y96391D01*
X120977Y96256D01*
X121163Y96128D01*
X121353Y96005D01*
X121547Y95889D01*
X121744Y95779D01*
X121945Y95676D01*
X122150Y95579D01*
X122357Y95489D01*
X122567Y95406D01*
X122780Y95330D01*
X122995Y95261D01*
X123213Y95199D01*
X123432Y95144D01*
X123653Y95096D01*
X123875Y95056D01*
X124099Y95023D01*
X124323Y94997D01*
X124548Y94978D01*
X124774Y94967D01*
X125000Y94964D01*
X126969D01*
X127194Y94967D01*
X127420Y94978D01*
X127646Y94997D01*
X127870Y95023D01*
X128094Y95056D01*
X128316Y95096D01*
X128537Y95144D01*
X128756Y95199D01*
X128973Y95261D01*
X129189Y95330D01*
X129401Y95406D01*
X129612Y95489D01*
X129819Y95579D01*
X130023Y95676D01*
X130224Y95779D01*
X130422Y95889D01*
X130616Y96005D01*
X130806Y96128D01*
X130991Y96256D01*
X131173Y96391D01*
X131350Y96531D01*
X131522Y96678D01*
X131690Y96829D01*
X131852Y96987D01*
X132009Y97149D01*
X132161Y97316D01*
X132307Y97489D01*
X132448Y97666D01*
X132582Y97847D01*
X132711Y98033D01*
X132834Y98223D01*
X132950Y98417D01*
X133059Y98614D01*
X133163Y98815D01*
X133259Y99020D01*
X133349Y99227D01*
X133432Y99437D01*
X133508Y99650D01*
X133578Y99865D01*
X133640Y100083D01*
X133695Y100302D01*
X133742Y100523D01*
X133783Y100745D01*
X133816Y100969D01*
X133842Y101193D01*
X133860Y101418D01*
X133871Y101644D01*
X133875Y101870D01*
X133871Y102096D01*
X133860Y102322D01*
X133842Y102547D01*
X133816Y102772D01*
X133783Y102995D01*
X133742Y103217D01*
X133695Y103438D01*
X133640Y103658D01*
X133578Y103875D01*
X133508Y104090D01*
X133432Y104303D01*
X133349Y104513D01*
X133259Y104720D01*
X133163Y104925D01*
X133059Y105126D01*
X132950Y105323D01*
X132834Y105517D01*
X132711Y105707D01*
X132582Y105893D01*
X132448Y106075D01*
X132307Y106252D01*
X132161Y106424D01*
X132009Y106591D01*
X131852Y106754D01*
X131690Y106911D01*
X131522Y107063D01*
X131350Y107209D01*
X131173Y107349D01*
X130991Y107484D01*
X130806Y107613D01*
X130616Y107735D01*
X130422Y107851D01*
X130224Y107961D01*
X130023Y108064D01*
X129819Y108161D01*
X129612Y108251D01*
X129401Y108334D01*
X129189Y108410D01*
X128973Y108479D01*
X128756Y108541D01*
X128537Y108596D01*
X128316Y108644D01*
X128094Y108684D01*
X127870Y108717D01*
X127646Y108743D01*
X127420Y108762D01*
X127194Y108773D01*
X126969Y108776D01*
D02*
G37*
G36*
X20090Y97347D02*
X19910D01*
X19731Y97339D01*
X19552Y97324D01*
X19373Y97302D01*
X19196Y97272D01*
X19020Y97236D01*
X18846Y97191D01*
X18674Y97140D01*
X18504Y97082D01*
X18336Y97017D01*
X18172Y96944D01*
X18010Y96865D01*
X17852Y96780D01*
X17698Y96688D01*
X17548Y96590D01*
X17401Y96485D01*
X17259Y96375D01*
X17122Y96259D01*
X16990Y96137D01*
X16863Y96010D01*
X16741Y95878D01*
X16625Y95740D01*
X16515Y95599D01*
X16410Y95452D01*
X16312Y95302D01*
X16220Y95148D01*
X16135Y94990D01*
X16056Y94828D01*
X15983Y94664D01*
X15918Y94496D01*
X15860Y94326D01*
X15809Y94154D01*
X15765Y93980D01*
X15728Y93804D01*
X15698Y93627D01*
X15676Y93449D01*
X15661Y93269D01*
X15654Y93090D01*
Y92910D01*
X15661Y92731D01*
X15676Y92551D01*
X15698Y92373D01*
X15728Y92196D01*
X15765Y92020D01*
X15809Y91846D01*
X15860Y91674D01*
X15918Y91504D01*
X15983Y91336D01*
X16056Y91172D01*
X16135Y91010D01*
X16220Y90852D01*
X16312Y90698D01*
X16410Y90548D01*
X16515Y90401D01*
X16625Y90259D01*
X16741Y90122D01*
X16863Y89990D01*
X16990Y89863D01*
X17122Y89741D01*
X17259Y89625D01*
X17401Y89515D01*
X17548Y89410D01*
X17698Y89312D01*
X17852Y89220D01*
X18010Y89135D01*
X18172Y89056D01*
X18336Y88984D01*
X18504Y88918D01*
X18674Y88860D01*
X18846Y88809D01*
X19020Y88765D01*
X19196Y88728D01*
X19373Y88698D01*
X19552Y88676D01*
X19731Y88661D01*
X19910Y88653D01*
X20090D01*
X20269Y88661D01*
X20448Y88676D01*
X20627Y88698D01*
X20804Y88728D01*
X20980Y88765D01*
X21154Y88809D01*
X21326Y88860D01*
X21496Y88918D01*
X21664Y88984D01*
X21828Y89056D01*
X21990Y89135D01*
X22148Y89220D01*
X22302Y89312D01*
X22453Y89410D01*
X22599Y89515D01*
X22740Y89625D01*
X22878Y89741D01*
X23010Y89863D01*
X23137Y89990D01*
X23259Y90122D01*
X23375Y90259D01*
X23485Y90401D01*
X23590Y90548D01*
X23688Y90698D01*
X23780Y90852D01*
X23865Y91010D01*
X23944Y91172D01*
X24016Y91336D01*
X24082Y91504D01*
X24140Y91674D01*
X24191Y91846D01*
X24236Y92020D01*
X24272Y92196D01*
X24302Y92373D01*
X24324Y92551D01*
X24339Y92731D01*
X24346Y92910D01*
Y93090D01*
X24339Y93269D01*
X24324Y93449D01*
X24302Y93627D01*
X24272Y93804D01*
X24236Y93980D01*
X24191Y94154D01*
X24140Y94326D01*
X24082Y94496D01*
X24016Y94664D01*
X23944Y94828D01*
X23865Y94990D01*
X23780Y95148D01*
X23688Y95302D01*
X23590Y95452D01*
X23485Y95599D01*
X23375Y95740D01*
X23259Y95878D01*
X23137Y96010D01*
X23010Y96137D01*
X22878Y96259D01*
X22740Y96375D01*
X22599Y96485D01*
X22453Y96590D01*
X22302Y96688D01*
X22148Y96780D01*
X21990Y96865D01*
X21828Y96944D01*
X21664Y97017D01*
X21496Y97082D01*
X21326Y97140D01*
X21154Y97191D01*
X20980Y97236D01*
X20804Y97272D01*
X20627Y97302D01*
X20448Y97324D01*
X20269Y97339D01*
X20090Y97347D01*
D02*
G37*
G36*
X29500Y82500D02*
X25682D01*
X25698Y82373D01*
X25728Y82196D01*
X25765Y82020D01*
X25809Y81846D01*
X25860Y81674D01*
X25918Y81504D01*
X25984Y81336D01*
X26056Y81172D01*
X26135Y81010D01*
X26220Y80852D01*
X26312Y80698D01*
X26410Y80547D01*
X26515Y80401D01*
X26625Y80260D01*
X26741Y80122D01*
X26863Y79990D01*
X26990Y79863D01*
X27122Y79741D01*
X27259Y79625D01*
X27401Y79515D01*
X27547Y79410D01*
X27698Y79312D01*
X27852Y79220D01*
X28010Y79135D01*
X28172Y79056D01*
X28336Y78983D01*
X28504Y78918D01*
X28674Y78860D01*
X28846Y78809D01*
X29020Y78764D01*
X29196Y78728D01*
X29373Y78698D01*
X29500Y78682D01*
Y82500D01*
D02*
G37*
G36*
X34318D02*
X30500D01*
Y78682D01*
X30627Y78698D01*
X30804Y78728D01*
X30980Y78764D01*
X31154Y78809D01*
X31326Y78860D01*
X31496Y78918D01*
X31664Y78983D01*
X31828Y79056D01*
X31990Y79135D01*
X32148Y79220D01*
X32302Y79312D01*
X32452Y79410D01*
X32599Y79515D01*
X32741Y79625D01*
X32878Y79741D01*
X33010Y79863D01*
X33137Y79990D01*
X33259Y80122D01*
X33375Y80260D01*
X33485Y80401D01*
X33590Y80547D01*
X33688Y80698D01*
X33780Y80852D01*
X33865Y81010D01*
X33944Y81172D01*
X34016Y81336D01*
X34082Y81504D01*
X34140Y81674D01*
X34191Y81846D01*
X34236Y82020D01*
X34272Y82196D01*
X34302Y82373D01*
X34318Y82500D01*
D02*
G37*
G36*
X24346Y77346D02*
X20500D01*
Y73500D01*
X24346D01*
Y77346D01*
D02*
G37*
G36*
X19500D02*
X15654D01*
Y73500D01*
X19500D01*
Y77346D01*
D02*
G37*
G36*
X223158Y81965D02*
X197658D01*
X197551Y81961D01*
X197444Y81950D01*
X197339Y81931D01*
X197235Y81904D01*
X197134Y81871D01*
X197035Y81830D01*
X196939Y81782D01*
X196847Y81727D01*
X196758Y81666D01*
X196675Y81599D01*
X196597Y81526D01*
X192597Y77526D01*
X192524Y77447D01*
X192456Y77364D01*
X192395Y77276D01*
X192341Y77184D01*
X192293Y77088D01*
X192252Y76989D01*
X192218Y76887D01*
X192191Y76783D01*
X192172Y76678D01*
X192161Y76571D01*
X192157Y76464D01*
Y39287D01*
X192153Y39206D01*
X192145Y39147D01*
X192130Y39086D01*
X192107Y39019D01*
X192075Y38947D01*
X192031Y38867D01*
X191975Y38780D01*
X191904Y38686D01*
X191818Y38586D01*
X191698Y38462D01*
X191690Y38453D01*
X191647Y38410D01*
X191550Y38302D01*
X191458Y38189D01*
X191373Y38071D01*
X191294Y37950D01*
X191221Y37824D01*
X191156Y37695D01*
X191096Y37562D01*
X191044Y37426D01*
X191000Y37288D01*
X190962Y37148D01*
X190932Y37006D01*
X190909Y36863D01*
X190894Y36718D01*
X190886Y36574D01*
Y36428D01*
X190894Y36283D01*
X190909Y36139D01*
X190932Y35996D01*
X190962Y35854D01*
X191000Y35713D01*
X191044Y35576D01*
X191096Y35440D01*
X191156Y35307D01*
X191221Y35178D01*
X191294Y35052D01*
X191373Y34931D01*
X191458Y34813D01*
X191550Y34700D01*
X191647Y34592D01*
X191750Y34490D01*
X191857Y34393D01*
X191970Y34301D01*
X192088Y34216D01*
X192209Y34137D01*
X192335Y34064D01*
X192464Y33999D01*
X192597Y33939D01*
X192733Y33887D01*
X192871Y33843D01*
X193011Y33805D01*
X193153Y33775D01*
X193296Y33752D01*
X193440Y33737D01*
X193586Y33729D01*
X193731D01*
X193876Y33737D01*
X194020Y33752D01*
X194163Y33775D01*
X194305Y33805D01*
X194446Y33843D01*
X194583Y33887D01*
X194719Y33939D01*
X194852Y33999D01*
X194981Y34064D01*
X195107Y34137D01*
X195229Y34216D01*
X195346Y34301D01*
X195459Y34393D01*
X195567Y34490D01*
X195669Y34592D01*
X195766Y34700D01*
X195858Y34813D01*
X195943Y34931D01*
X196022Y35052D01*
X196095Y35178D01*
X196160Y35307D01*
X196220Y35440D01*
X196272Y35576D01*
X196317Y35713D01*
X196354Y35854D01*
X196384Y35996D01*
X196407Y36139D01*
X196422Y36283D01*
X196430Y36428D01*
Y36574D01*
X196422Y36718D01*
X196407Y36863D01*
X196384Y37006D01*
X196354Y37148D01*
X196317Y37288D01*
X196272Y37426D01*
X196220Y37562D01*
X196160Y37695D01*
X196095Y37824D01*
X196022Y37950D01*
X195943Y38071D01*
X195858Y38189D01*
X195766Y38302D01*
X195669Y38410D01*
X195626Y38453D01*
X195618Y38462D01*
X195498Y38586D01*
X195412Y38686D01*
X195341Y38780D01*
X195285Y38867D01*
X195241Y38947D01*
X195209Y39020D01*
X195186Y39086D01*
X195171Y39147D01*
X195163Y39206D01*
X195159Y39287D01*
Y75843D01*
X198280Y78963D01*
X222536D01*
X227614Y73886D01*
X227669Y73825D01*
X227705Y73777D01*
X227738Y73722D01*
X227771Y73657D01*
X227800Y73581D01*
X227828Y73492D01*
X227851Y73388D01*
X227869Y73270D01*
X227881Y73136D01*
X227886Y72961D01*
X227886Y72956D01*
Y72928D01*
X227894Y72783D01*
X227909Y72639D01*
X227932Y72496D01*
X227962Y72354D01*
X228000Y72214D01*
X228045Y72075D01*
X228097Y71940D01*
X228155Y71807D01*
X228221Y71678D01*
X228294Y71552D01*
X228373Y71431D01*
X228458Y71313D01*
X228550Y71200D01*
X228647Y71092D01*
X228749Y70990D01*
X228857Y70893D01*
X228970Y70801D01*
X229088Y70716D01*
X229209Y70637D01*
X229335Y70564D01*
X229464Y70499D01*
X229597Y70439D01*
X229732Y70387D01*
X229871Y70343D01*
X230011Y70305D01*
X230153Y70275D01*
X230296Y70252D01*
X230440Y70237D01*
X230586Y70229D01*
X230731D01*
X230876Y70237D01*
X231020Y70252D01*
X231163Y70275D01*
X231305Y70305D01*
X231446Y70343D01*
X231584Y70387D01*
X231719Y70439D01*
X231852Y70499D01*
X231981Y70564D01*
X232107Y70637D01*
X232228Y70716D01*
X232346Y70801D01*
X232459Y70893D01*
X232567Y70990D01*
X232669Y71092D01*
X232766Y71200D01*
X232858Y71313D01*
X232943Y71431D01*
X233022Y71552D01*
X233095Y71678D01*
X233161Y71807D01*
X233220Y71940D01*
X233272Y72075D01*
X233316Y72214D01*
X233354Y72354D01*
X233384Y72496D01*
X233407Y72639D01*
X233422Y72783D01*
X233430Y72928D01*
Y73074D01*
X233422Y73219D01*
X233407Y73363D01*
X233384Y73506D01*
X233354Y73648D01*
X233316Y73788D01*
X233272Y73927D01*
X233220Y74062D01*
X233161Y74195D01*
X233095Y74324D01*
X233022Y74450D01*
X232943Y74571D01*
X232858Y74689D01*
X232766Y74802D01*
X232669Y74910D01*
X232567Y75012D01*
X232459Y75109D01*
X232346Y75201D01*
X232228Y75286D01*
X232107Y75365D01*
X231981Y75438D01*
X231852Y75503D01*
X231719Y75563D01*
X231584Y75615D01*
X231446Y75659D01*
X231305Y75697D01*
X231163Y75727D01*
X231020Y75750D01*
X230876Y75765D01*
X230731Y75773D01*
X230626D01*
X230618Y75773D01*
X230446Y75774D01*
X230317Y75782D01*
X230203Y75797D01*
X230104Y75817D01*
X230019Y75841D01*
X229947Y75868D01*
X229885Y75898D01*
X229832Y75930D01*
X229786Y75965D01*
X229725Y76020D01*
X224219Y81526D01*
X224141Y81599D01*
X224058Y81666D01*
X223970Y81727D01*
X223877Y81782D01*
X223782Y81830D01*
X223683Y81871D01*
X223581Y81904D01*
X223477Y81931D01*
X223372Y81950D01*
X223265Y81961D01*
X223158Y81965D01*
D02*
G37*
G36*
X24346Y72500D02*
X20500D01*
Y68654D01*
X24346D01*
Y72500D01*
D02*
G37*
G36*
X19500D02*
X15654D01*
Y68654D01*
X19500D01*
Y72500D01*
D02*
G37*
G36*
X173500Y92001D02*
X147000D01*
X146913Y91997D01*
X146826Y91986D01*
X146741Y91967D01*
X146694Y91952D01*
X146658Y91941D01*
X146577Y91907D01*
X146500Y91867D01*
X146426Y91820D01*
X146357Y91767D01*
X146292Y91708D01*
X145292Y90708D01*
X145233Y90643D01*
X145180Y90574D01*
X145133Y90500D01*
X145093Y90423D01*
X145059Y90342D01*
X145033Y90259D01*
X145014Y90174D01*
X145003Y90087D01*
X144999Y90000D01*
Y60000D01*
X145003Y59913D01*
X145014Y59826D01*
X145033Y59741D01*
X145048Y59694D01*
X145059Y59658D01*
X145093Y59577D01*
X145133Y59500D01*
X145180Y59426D01*
X145233Y59357D01*
X145292Y59292D01*
X146292Y58292D01*
X146357Y58233D01*
X146426Y58180D01*
X146500Y58133D01*
X146577Y58093D01*
X146658Y58059D01*
X146741Y58033D01*
X146826Y58014D01*
X146913Y58003D01*
X147000Y57999D01*
X173500D01*
X173587Y58003D01*
X173674Y58014D01*
X173759Y58033D01*
X173806Y58048D01*
X173842Y58059D01*
X173923Y58093D01*
X174001Y58133D01*
X174074Y58180D01*
X174143Y58233D01*
X174208Y58292D01*
X175208Y59292D01*
X175267Y59357D01*
X175320Y59426D01*
X175367Y59500D01*
X175407Y59577D01*
X175441Y59658D01*
X175467Y59741D01*
X175486Y59826D01*
X175497Y59913D01*
X175501Y60000D01*
Y90000D01*
X175497Y90087D01*
X175486Y90174D01*
X175467Y90259D01*
X175452Y90306D01*
X175441Y90342D01*
X175407Y90423D01*
X175367Y90500D01*
X175320Y90574D01*
X175267Y90643D01*
X175208Y90708D01*
X174208Y91708D01*
X174143Y91767D01*
X174074Y91820D01*
X174001Y91867D01*
X173923Y91907D01*
X173842Y91941D01*
X173759Y91967D01*
X173674Y91986D01*
X173587Y91997D01*
X173500Y92001D01*
D02*
G37*
G36*
X43307Y35942D02*
X43161Y35938D01*
X43016Y35928D01*
X42871Y35910D01*
X42728Y35885D01*
X42586Y35853D01*
X42445Y35814D01*
X42307Y35768D01*
X42171Y35716D01*
X42037Y35657D01*
X41907Y35591D01*
X41780Y35519D01*
X41657Y35441D01*
X41538Y35357D01*
X41423Y35268D01*
X41313Y35173D01*
X41207Y35072D01*
X41107Y34967D01*
X41012Y34856D01*
X40922Y34741D01*
X40838Y34622D01*
X40760Y34499D01*
X40688Y34372D01*
X40623Y34242D01*
X40564Y34109D01*
X40511Y33973D01*
X40466Y33834D01*
X40427Y33694D01*
X40395Y33552D01*
X40370Y33408D01*
X40352Y33263D01*
X40341Y33118D01*
X40338Y32972D01*
Y17224D01*
X40341Y17079D01*
X40352Y16933D01*
X40370Y16789D01*
X40395Y16645D01*
X40427Y16503D01*
X40466Y16362D01*
X40511Y16224D01*
X40564Y16088D01*
X40623Y15955D01*
X40688Y15825D01*
X40760Y15698D01*
X40838Y15575D01*
X40922Y15455D01*
X41012Y15341D01*
X41107Y15230D01*
X41207Y15125D01*
X41313Y15024D01*
X41423Y14929D01*
X41538Y14839D01*
X41657Y14755D01*
X41780Y14678D01*
X41907Y14606D01*
X42037Y14540D01*
X42171Y14481D01*
X42307Y14429D01*
X42445Y14383D01*
X42586Y14344D01*
X42728Y14312D01*
X42871Y14287D01*
X43016Y14269D01*
X43161Y14259D01*
X43307Y14255D01*
X43453Y14259D01*
X43598Y14269D01*
X43743Y14287D01*
X43886Y14312D01*
X44029Y14344D01*
X44169Y14383D01*
X44307Y14429D01*
X44443Y14481D01*
X44577Y14540D01*
X44707Y14606D01*
X44834Y14678D01*
X44957Y14755D01*
X45076Y14839D01*
X45191Y14929D01*
X45301Y15024D01*
X45407Y15125D01*
X45507Y15230D01*
X45602Y15341D01*
X45692Y15455D01*
X45776Y15575D01*
X45854Y15698D01*
X45926Y15825D01*
X45991Y15955D01*
X46050Y16088D01*
X46103Y16224D01*
X46149Y16362D01*
X46187Y16503D01*
X46219Y16645D01*
X46244Y16789D01*
X46262Y16933D01*
X46273Y17079D01*
X46277Y17224D01*
Y32972D01*
X46273Y33118D01*
X46262Y33263D01*
X46244Y33408D01*
X46219Y33552D01*
X46187Y33694D01*
X46149Y33834D01*
X46103Y33973D01*
X46050Y34109D01*
X45991Y34242D01*
X45926Y34372D01*
X45854Y34499D01*
X45776Y34622D01*
X45692Y34741D01*
X45602Y34856D01*
X45507Y34967D01*
X45407Y35072D01*
X45301Y35173D01*
X45191Y35268D01*
X45076Y35357D01*
X44957Y35441D01*
X44834Y35519D01*
X44707Y35591D01*
X44577Y35657D01*
X44443Y35716D01*
X44307Y35768D01*
X44169Y35814D01*
X44029Y35853D01*
X43886Y35885D01*
X43743Y35910D01*
X43598Y35928D01*
X43453Y35938D01*
X43307Y35942D01*
D02*
G37*
G36*
X570866Y18225D02*
X555118D01*
X554972Y18222D01*
X554827Y18211D01*
X554682Y18193D01*
X554539Y18168D01*
X554397Y18136D01*
X554256Y18098D01*
X554118Y18052D01*
X553982Y17999D01*
X553849Y17940D01*
X553718Y17875D01*
X553591Y17803D01*
X553468Y17725D01*
X553349Y17641D01*
X553234Y17551D01*
X553124Y17456D01*
X553018Y17356D01*
X552918Y17250D01*
X552823Y17140D01*
X552733Y17025D01*
X552649Y16906D01*
X552571Y16782D01*
X552499Y16656D01*
X552434Y16525D01*
X552375Y16392D01*
X552322Y16256D01*
X552277Y16118D01*
X552238Y15977D01*
X552206Y15835D01*
X552181Y15692D01*
X552163Y15547D01*
X552152Y15402D01*
X552149Y15256D01*
X552152Y15110D01*
X552163Y14965D01*
X552181Y14820D01*
X552206Y14677D01*
X552238Y14534D01*
X552277Y14394D01*
X552322Y14256D01*
X552375Y14120D01*
X552434Y13986D01*
X552499Y13856D01*
X552571Y13729D01*
X552649Y13606D01*
X552733Y13487D01*
X552823Y13372D01*
X552918Y13262D01*
X553018Y13156D01*
X553124Y13056D01*
X553234Y12961D01*
X553349Y12871D01*
X553468Y12787D01*
X553591Y12709D01*
X553718Y12637D01*
X553849Y12572D01*
X553982Y12513D01*
X554118Y12460D01*
X554256Y12414D01*
X554397Y12376D01*
X554539Y12344D01*
X554682Y12319D01*
X554827Y12301D01*
X554972Y12290D01*
X555118Y12286D01*
X570866D01*
X571012Y12290D01*
X571157Y12301D01*
X571302Y12319D01*
X571445Y12344D01*
X571588Y12376D01*
X571728Y12414D01*
X571867Y12460D01*
X572003Y12513D01*
X572136Y12572D01*
X572266Y12637D01*
X572393Y12709D01*
X572516Y12787D01*
X572635Y12871D01*
X572750Y12961D01*
X572860Y13056D01*
X572966Y13156D01*
X573066Y13262D01*
X573162Y13372D01*
X573251Y13487D01*
X573335Y13606D01*
X573413Y13729D01*
X573485Y13856D01*
X573551Y13986D01*
X573609Y14120D01*
X573662Y14256D01*
X573708Y14394D01*
X573747Y14534D01*
X573778Y14677D01*
X573803Y14820D01*
X573821Y14965D01*
X573832Y15110D01*
X573836Y15256D01*
X573832Y15402D01*
X573821Y15547D01*
X573803Y15692D01*
X573778Y15835D01*
X573747Y15977D01*
X573708Y16118D01*
X573662Y16256D01*
X573609Y16392D01*
X573551Y16525D01*
X573485Y16656D01*
X573413Y16782D01*
X573335Y16906D01*
X573251Y17025D01*
X573162Y17140D01*
X573066Y17250D01*
X572966Y17356D01*
X572860Y17456D01*
X572750Y17551D01*
X572635Y17641D01*
X572516Y17725D01*
X572393Y17803D01*
X572266Y17875D01*
X572136Y17940D01*
X572003Y17999D01*
X571867Y18052D01*
X571728Y18098D01*
X571588Y18136D01*
X571445Y18168D01*
X571302Y18193D01*
X571157Y18211D01*
X571012Y18222D01*
X570866Y18225D01*
D02*
G37*
G36*
X350394D02*
X334646D01*
X334500Y18222D01*
X334355Y18211D01*
X334210Y18193D01*
X334066Y18168D01*
X333924Y18136D01*
X333784Y18098D01*
X333645Y18052D01*
X333509Y17999D01*
X333376Y17940D01*
X333246Y17875D01*
X333119Y17803D01*
X332996Y17725D01*
X332877Y17641D01*
X332762Y17551D01*
X332651Y17456D01*
X332546Y17356D01*
X332446Y17250D01*
X332350Y17140D01*
X332261Y17025D01*
X332177Y16906D01*
X332099Y16782D01*
X332027Y16656D01*
X331961Y16525D01*
X331902Y16392D01*
X331850Y16256D01*
X331804Y16118D01*
X331765Y15977D01*
X331733Y15835D01*
X331708Y15692D01*
X331691Y15547D01*
X331680Y15402D01*
X331676Y15256D01*
X331680Y15110D01*
X331691Y14965D01*
X331708Y14820D01*
X331733Y14677D01*
X331765Y14534D01*
X331804Y14394D01*
X331850Y14256D01*
X331902Y14120D01*
X331961Y13986D01*
X332027Y13856D01*
X332099Y13729D01*
X332177Y13606D01*
X332261Y13487D01*
X332350Y13372D01*
X332446Y13262D01*
X332546Y13156D01*
X332651Y13056D01*
X332762Y12961D01*
X332877Y12871D01*
X332996Y12787D01*
X333119Y12709D01*
X333246Y12637D01*
X333376Y12572D01*
X333509Y12513D01*
X333645Y12460D01*
X333784Y12414D01*
X333924Y12376D01*
X334066Y12344D01*
X334210Y12319D01*
X334355Y12301D01*
X334500Y12290D01*
X334646Y12286D01*
X350394D01*
X350539Y12290D01*
X350685Y12301D01*
X350829Y12319D01*
X350973Y12344D01*
X351115Y12376D01*
X351256Y12414D01*
X351394Y12460D01*
X351530Y12513D01*
X351663Y12572D01*
X351794Y12637D01*
X351920Y12709D01*
X352043Y12787D01*
X352163Y12871D01*
X352277Y12961D01*
X352388Y13056D01*
X352493Y13156D01*
X352594Y13262D01*
X352689Y13372D01*
X352779Y13487D01*
X352863Y13606D01*
X352941Y13729D01*
X353012Y13856D01*
X353078Y13986D01*
X353137Y14120D01*
X353189Y14256D01*
X353235Y14394D01*
X353274Y14534D01*
X353306Y14677D01*
X353331Y14820D01*
X353349Y14965D01*
X353360Y15110D01*
X353363Y15256D01*
X353360Y15402D01*
X353349Y15547D01*
X353331Y15692D01*
X353306Y15835D01*
X353274Y15977D01*
X353235Y16118D01*
X353189Y16256D01*
X353137Y16392D01*
X353078Y16525D01*
X353012Y16656D01*
X352941Y16782D01*
X352863Y16906D01*
X352779Y17025D01*
X352689Y17140D01*
X352594Y17250D01*
X352493Y17356D01*
X352388Y17456D01*
X352277Y17551D01*
X352163Y17641D01*
X352043Y17725D01*
X351920Y17803D01*
X351794Y17875D01*
X351663Y17940D01*
X351530Y17999D01*
X351394Y18052D01*
X351256Y18098D01*
X351115Y18136D01*
X350973Y18168D01*
X350829Y18193D01*
X350685Y18211D01*
X350539Y18222D01*
X350394Y18225D01*
D02*
G37*
G36*
X128347D02*
X112598D01*
X112453Y18222D01*
X112307Y18211D01*
X112163Y18193D01*
X112019Y18168D01*
X111877Y18136D01*
X111737Y18098D01*
X111598Y18052D01*
X111462Y17999D01*
X111329Y17940D01*
X111199Y17875D01*
X111072Y17803D01*
X110949Y17725D01*
X110830Y17641D01*
X110715Y17551D01*
X110604Y17456D01*
X110499Y17356D01*
X110398Y17250D01*
X110303Y17140D01*
X110213Y17025D01*
X110129Y16906D01*
X110052Y16782D01*
X109980Y16656D01*
X109914Y16525D01*
X109855Y16392D01*
X109803Y16256D01*
X109757Y16118D01*
X109718Y15977D01*
X109686Y15835D01*
X109661Y15692D01*
X109643Y15547D01*
X109633Y15402D01*
X109629Y15256D01*
X109633Y15110D01*
X109643Y14965D01*
X109661Y14820D01*
X109686Y14677D01*
X109718Y14534D01*
X109757Y14394D01*
X109803Y14256D01*
X109855Y14120D01*
X109914Y13986D01*
X109980Y13856D01*
X110052Y13729D01*
X110129Y13606D01*
X110213Y13487D01*
X110303Y13372D01*
X110398Y13262D01*
X110499Y13156D01*
X110604Y13056D01*
X110715Y12961D01*
X110830Y12871D01*
X110949Y12787D01*
X111072Y12709D01*
X111199Y12637D01*
X111329Y12572D01*
X111462Y12513D01*
X111598Y12460D01*
X111737Y12414D01*
X111877Y12376D01*
X112019Y12344D01*
X112163Y12319D01*
X112307Y12301D01*
X112453Y12290D01*
X112598Y12286D01*
X128347D01*
X128492Y12290D01*
X128638Y12301D01*
X128782Y12319D01*
X128926Y12344D01*
X129068Y12376D01*
X129208Y12414D01*
X129347Y12460D01*
X129483Y12513D01*
X129616Y12572D01*
X129746Y12637D01*
X129873Y12709D01*
X129996Y12787D01*
X130115Y12871D01*
X130230Y12961D01*
X130341Y13056D01*
X130446Y13156D01*
X130547Y13262D01*
X130642Y13372D01*
X130731Y13487D01*
X130815Y13606D01*
X130893Y13729D01*
X130965Y13856D01*
X131031Y13986D01*
X131090Y14120D01*
X131142Y14256D01*
X131188Y14394D01*
X131227Y14534D01*
X131259Y14677D01*
X131284Y14820D01*
X131302Y14965D01*
X131312Y15110D01*
X131316Y15256D01*
X131312Y15402D01*
X131302Y15547D01*
X131284Y15692D01*
X131259Y15835D01*
X131227Y15977D01*
X131188Y16118D01*
X131142Y16256D01*
X131090Y16392D01*
X131031Y16525D01*
X130965Y16656D01*
X130893Y16782D01*
X130815Y16906D01*
X130731Y17025D01*
X130642Y17140D01*
X130547Y17250D01*
X130446Y17356D01*
X130341Y17456D01*
X130230Y17551D01*
X130115Y17641D01*
X129996Y17725D01*
X129873Y17803D01*
X129746Y17875D01*
X129616Y17940D01*
X129483Y17999D01*
X129347Y18052D01*
X129208Y18098D01*
X129068Y18136D01*
X128926Y18168D01*
X128782Y18193D01*
X128638Y18211D01*
X128492Y18222D01*
X128347Y18225D01*
D02*
G37*
G36*
X669462Y34465D02*
X669121D01*
X668779Y34457D01*
X668438Y34441D01*
X668098Y34417D01*
X667758Y34386D01*
X667418Y34347D01*
X667080Y34299D01*
X666743Y34244D01*
X666408Y34182D01*
X666074Y34111D01*
X665741Y34033D01*
X665411Y33947D01*
X665083Y33854D01*
X664756Y33753D01*
X664433Y33644D01*
X664112Y33528D01*
X663793Y33405D01*
X663478Y33274D01*
X663165Y33136D01*
X662856Y32991D01*
X662551Y32839D01*
X662249Y32680D01*
X661950Y32514D01*
X661656Y32341D01*
X661366Y32161D01*
X661080Y31975D01*
X660798Y31782D01*
X660521Y31582D01*
X660249Y31376D01*
X659981Y31165D01*
X659718Y30946D01*
X659461Y30722D01*
X659208Y30492D01*
X658961Y30257D01*
X658720Y30015D01*
X658484Y29768D01*
X658254Y29516D01*
X658030Y29258D01*
X657812Y28996D01*
X657600Y28728D01*
X657394Y28455D01*
X657195Y28178D01*
X657002Y27897D01*
X656815Y27611D01*
X656636Y27320D01*
X656463Y27026D01*
X656297Y26728D01*
X656137Y26426D01*
X655985Y26120D01*
X655840Y25811D01*
X655702Y25499D01*
X655572Y25183D01*
X655448Y24865D01*
X655332Y24544D01*
X655224Y24220D01*
X655123Y23894D01*
X655029Y23565D01*
X654944Y23235D01*
X654865Y22903D01*
X654795Y22569D01*
X654732Y22233D01*
X654677Y21896D01*
X654630Y21558D01*
X654591Y21219D01*
X654559Y20879D01*
X654535Y20538D01*
X654520Y20197D01*
X654512Y19856D01*
Y19514D01*
X654520Y19173D01*
X654535Y18832D01*
X654559Y18491D01*
X654591Y18151D01*
X654630Y17812D01*
X654677Y17474D01*
X654732Y17137D01*
X654795Y16802D01*
X654865Y16467D01*
X654944Y16135D01*
X655029Y15805D01*
X655123Y15476D01*
X655224Y15150D01*
X655332Y14826D01*
X655448Y14505D01*
X655572Y14187D01*
X655702Y13871D01*
X655840Y13559D01*
X655985Y13250D01*
X656137Y12945D01*
X656297Y12642D01*
X656463Y12344D01*
X656636Y12050D01*
X656815Y11760D01*
X657002Y11473D01*
X657195Y11192D01*
X657394Y10915D01*
X657600Y10642D01*
X657812Y10375D01*
X658030Y10112D01*
X658254Y9854D01*
X658484Y9602D01*
X658720Y9355D01*
X658961Y9114D01*
X659208Y8878D01*
X659461Y8648D01*
X659718Y8424D01*
X659981Y8206D01*
X660249Y7994D01*
X660521Y7788D01*
X660798Y7588D01*
X661080Y7395D01*
X661366Y7209D01*
X661656Y7029D01*
X661950Y6856D01*
X662249Y6690D01*
X662551Y6531D01*
X662856Y6379D01*
X663165Y6234D01*
X663478Y6096D01*
X663793Y5965D01*
X664112Y5842D01*
X664433Y5726D01*
X664756Y5618D01*
X665083Y5516D01*
X665411Y5423D01*
X665741Y5337D01*
X666074Y5259D01*
X666408Y5189D01*
X666743Y5126D01*
X667080Y5071D01*
X667418Y5024D01*
X667758Y4984D01*
X668098Y4953D01*
X668438Y4929D01*
X668779Y4913D01*
X669121Y4905D01*
X669462D01*
X669803Y4913D01*
X670144Y4929D01*
X670485Y4953D01*
X670825Y4984D01*
X671164Y5024D01*
X671502Y5071D01*
X671839Y5126D01*
X672175Y5189D01*
X672509Y5259D01*
X672841Y5337D01*
X673172Y5423D01*
X673500Y5516D01*
X673826Y5618D01*
X674150Y5726D01*
X674471Y5842D01*
X674789Y5965D01*
X675105Y6096D01*
X675417Y6234D01*
X675726Y6379D01*
X676032Y6531D01*
X676334Y6690D01*
X676632Y6856D01*
X676927Y7029D01*
X677217Y7209D01*
X677503Y7395D01*
X677785Y7588D01*
X678062Y7788D01*
X678334Y7994D01*
X678602Y8206D01*
X678864Y8424D01*
X679122Y8648D01*
X679374Y8878D01*
X679621Y9114D01*
X679863Y9355D01*
X680098Y9602D01*
X680329Y9854D01*
X680553Y10112D01*
X680771Y10375D01*
X680983Y10642D01*
X681189Y10915D01*
X681388Y11192D01*
X681581Y11473D01*
X681767Y11760D01*
X681947Y12050D01*
X682120Y12344D01*
X682286Y12642D01*
X682445Y12945D01*
X682597Y13250D01*
X682743Y13559D01*
X682880Y13871D01*
X683011Y14187D01*
X683135Y14505D01*
X683251Y14826D01*
X683359Y15150D01*
X683460Y15476D01*
X683553Y15805D01*
X683639Y16135D01*
X683717Y16467D01*
X683788Y16802D01*
X683851Y17137D01*
X683906Y17474D01*
X683953Y17812D01*
X683992Y18151D01*
X684024Y18491D01*
X684047Y18832D01*
X684063Y19173D01*
X684071Y19514D01*
Y19856D01*
X684063Y20197D01*
X684047Y20538D01*
X684024Y20879D01*
X683992Y21219D01*
X683953Y21558D01*
X683906Y21896D01*
X683851Y22233D01*
X683788Y22569D01*
X683717Y22903D01*
X683639Y23235D01*
X683553Y23565D01*
X683460Y23894D01*
X683359Y24220D01*
X683251Y24544D01*
X683135Y24865D01*
X683011Y25183D01*
X682880Y25499D01*
X682743Y25811D01*
X682597Y26120D01*
X682445Y26426D01*
X682286Y26728D01*
X682120Y27026D01*
X681947Y27320D01*
X681767Y27611D01*
X681581Y27897D01*
X681388Y28178D01*
X681189Y28455D01*
X680983Y28728D01*
X680771Y28996D01*
X680553Y29258D01*
X680329Y29516D01*
X680098Y29768D01*
X679863Y30015D01*
X679621Y30257D01*
X679374Y30492D01*
X679122Y30722D01*
X678864Y30946D01*
X678602Y31165D01*
X678334Y31376D01*
X678062Y31582D01*
X677785Y31782D01*
X677503Y31975D01*
X677217Y32161D01*
X676927Y32341D01*
X676632Y32514D01*
X676334Y32680D01*
X676032Y32839D01*
X675726Y32991D01*
X675417Y33136D01*
X675105Y33274D01*
X674789Y33405D01*
X674471Y33528D01*
X674150Y33644D01*
X673826Y33753D01*
X673500Y33854D01*
X673172Y33947D01*
X672841Y34033D01*
X672509Y34111D01*
X672175Y34182D01*
X671839Y34244D01*
X671502Y34299D01*
X671164Y34347D01*
X670825Y34386D01*
X670485Y34417D01*
X670144Y34441D01*
X669803Y34457D01*
X669462Y34465D01*
D02*
G37*
G36*
X19856D02*
X19514D01*
X19173Y34457D01*
X18832Y34441D01*
X18491Y34417D01*
X18151Y34386D01*
X17812Y34347D01*
X17474Y34299D01*
X17137Y34244D01*
X16802Y34182D01*
X16467Y34111D01*
X16135Y34033D01*
X15805Y33947D01*
X15476Y33854D01*
X15150Y33753D01*
X14826Y33644D01*
X14505Y33528D01*
X14187Y33405D01*
X13871Y33274D01*
X13559Y33136D01*
X13250Y32991D01*
X12944Y32839D01*
X12642Y32680D01*
X12344Y32514D01*
X12050Y32341D01*
X11760Y32161D01*
X11473Y31975D01*
X11192Y31782D01*
X10915Y31582D01*
X10642Y31376D01*
X10374Y31165D01*
X10112Y30946D01*
X9854Y30722D01*
X9602Y30492D01*
X9355Y30257D01*
X9114Y30015D01*
X8878Y29768D01*
X8648Y29516D01*
X8424Y29258D01*
X8206Y28996D01*
X7994Y28728D01*
X7788Y28455D01*
X7588Y28178D01*
X7395Y27897D01*
X7209Y27611D01*
X7029Y27320D01*
X6856Y27026D01*
X6690Y26728D01*
X6531Y26426D01*
X6379Y26120D01*
X6234Y25811D01*
X6096Y25499D01*
X5965Y25183D01*
X5842Y24865D01*
X5726Y24544D01*
X5617Y24220D01*
X5516Y23894D01*
X5423Y23565D01*
X5337Y23235D01*
X5259Y22903D01*
X5189Y22569D01*
X5126Y22233D01*
X5071Y21896D01*
X5024Y21558D01*
X4984Y21219D01*
X4953Y20879D01*
X4929Y20538D01*
X4913Y20197D01*
X4905Y19856D01*
Y19514D01*
X4913Y19173D01*
X4929Y18832D01*
X4953Y18491D01*
X4984Y18151D01*
X5024Y17812D01*
X5071Y17474D01*
X5126Y17137D01*
X5189Y16802D01*
X5259Y16467D01*
X5337Y16135D01*
X5423Y15805D01*
X5516Y15476D01*
X5617Y15150D01*
X5726Y14826D01*
X5842Y14505D01*
X5965Y14187D01*
X6096Y13871D01*
X6234Y13559D01*
X6379Y13250D01*
X6531Y12945D01*
X6690Y12642D01*
X6856Y12344D01*
X7029Y12050D01*
X7209Y11760D01*
X7395Y11473D01*
X7588Y11192D01*
X7788Y10915D01*
X7994Y10642D01*
X8206Y10375D01*
X8424Y10112D01*
X8648Y9854D01*
X8878Y9602D01*
X9114Y9355D01*
X9355Y9114D01*
X9602Y8878D01*
X9854Y8648D01*
X10112Y8424D01*
X10374Y8206D01*
X10642Y7994D01*
X10915Y7788D01*
X11192Y7588D01*
X11473Y7395D01*
X11760Y7209D01*
X12050Y7029D01*
X12344Y6856D01*
X12642Y6690D01*
X12944Y6531D01*
X13250Y6379D01*
X13559Y6234D01*
X13871Y6096D01*
X14187Y5965D01*
X14505Y5842D01*
X14826Y5726D01*
X15150Y5618D01*
X15476Y5516D01*
X15805Y5423D01*
X16135Y5337D01*
X16467Y5259D01*
X16802Y5189D01*
X17137Y5126D01*
X17474Y5071D01*
X17812Y5024D01*
X18151Y4984D01*
X18491Y4953D01*
X18832Y4929D01*
X19173Y4913D01*
X19514Y4905D01*
X19856D01*
X20197Y4913D01*
X20538Y4929D01*
X20879Y4953D01*
X21219Y4984D01*
X21558Y5024D01*
X21896Y5071D01*
X22233Y5126D01*
X22569Y5189D01*
X22903Y5259D01*
X23235Y5337D01*
X23565Y5423D01*
X23894Y5516D01*
X24220Y5618D01*
X24544Y5726D01*
X24865Y5842D01*
X25183Y5965D01*
X25499Y6096D01*
X25811Y6234D01*
X26120Y6379D01*
X26426Y6531D01*
X26728Y6690D01*
X27026Y6856D01*
X27320Y7029D01*
X27611Y7209D01*
X27897Y7395D01*
X28178Y7588D01*
X28455Y7788D01*
X28728Y7994D01*
X28995Y8206D01*
X29258Y8424D01*
X29516Y8648D01*
X29768Y8878D01*
X30015Y9114D01*
X30257Y9355D01*
X30492Y9602D01*
X30722Y9854D01*
X30946Y10112D01*
X31165Y10375D01*
X31376Y10642D01*
X31582Y10915D01*
X31782Y11192D01*
X31975Y11473D01*
X32161Y11760D01*
X32341Y12050D01*
X32514Y12344D01*
X32680Y12642D01*
X32839Y12945D01*
X32991Y13250D01*
X33136Y13559D01*
X33274Y13871D01*
X33405Y14187D01*
X33528Y14505D01*
X33644Y14826D01*
X33753Y15150D01*
X33854Y15476D01*
X33947Y15805D01*
X34033Y16135D01*
X34111Y16467D01*
X34181Y16802D01*
X34244Y17137D01*
X34299Y17474D01*
X34346Y17812D01*
X34386Y18151D01*
X34417Y18491D01*
X34441Y18832D01*
X34457Y19173D01*
X34465Y19514D01*
Y19856D01*
X34457Y20197D01*
X34441Y20538D01*
X34417Y20879D01*
X34386Y21219D01*
X34346Y21558D01*
X34299Y21896D01*
X34244Y22233D01*
X34181Y22569D01*
X34111Y22903D01*
X34033Y23235D01*
X33947Y23565D01*
X33854Y23894D01*
X33753Y24220D01*
X33644Y24544D01*
X33528Y24865D01*
X33405Y25183D01*
X33274Y25499D01*
X33136Y25811D01*
X32991Y26120D01*
X32839Y26426D01*
X32680Y26728D01*
X32514Y27026D01*
X32341Y27320D01*
X32161Y27611D01*
X31975Y27897D01*
X31782Y28178D01*
X31582Y28455D01*
X31376Y28728D01*
X31165Y28996D01*
X30946Y29258D01*
X30722Y29516D01*
X30492Y29768D01*
X30257Y30015D01*
X30015Y30257D01*
X29768Y30492D01*
X29516Y30722D01*
X29258Y30946D01*
X28995Y31165D01*
X28728Y31376D01*
X28455Y31582D01*
X28178Y31782D01*
X27897Y31975D01*
X27611Y32161D01*
X27320Y32341D01*
X27026Y32514D01*
X26728Y32680D01*
X26426Y32839D01*
X26120Y32991D01*
X25811Y33136D01*
X25499Y33274D01*
X25183Y33405D01*
X24865Y33528D01*
X24544Y33644D01*
X24220Y33753D01*
X23894Y33854D01*
X23565Y33947D01*
X23235Y34033D01*
X22903Y34111D01*
X22569Y34182D01*
X22233Y34244D01*
X21896Y34299D01*
X21558Y34347D01*
X21219Y34386D01*
X20879Y34417D01*
X20538Y34441D01*
X20197Y34457D01*
X19856Y34465D01*
D02*
G37*
%LPD*%
G36*
X164008Y187688D02*
X163840Y187610D01*
X163691Y187478D01*
X163562Y187295D01*
X163453Y187059D01*
X163363Y186771D01*
X163294Y186430D01*
X163244Y186037D01*
X163215Y185591D01*
X163205Y185093D01*
X161205D01*
X161195Y185591D01*
X161115Y186430D01*
X161046Y186771D01*
X160956Y187059D01*
X160847Y187295D01*
X160718Y187478D01*
X160569Y187610D01*
X160401Y187688D01*
X160212Y187714D01*
X164197D01*
X164008Y187688D01*
D02*
G37*
G36*
X166500Y177500D02*
X158000D01*
X162250Y181750D01*
X166500Y177500D01*
D02*
G37*
G36*
X32277Y70527D02*
X32219Y70411D01*
X32168Y70262D01*
X32123Y70081D01*
X32086Y69867D01*
X32031Y69342D01*
X32003Y68686D01*
X32000Y68309D01*
X28000D01*
X27997Y68686D01*
X27914Y69867D01*
X27877Y70081D01*
X27832Y70262D01*
X27781Y70411D01*
X27723Y70527D01*
X27657Y70610D01*
X32342D01*
X32277Y70527D01*
D02*
G37*
G36*
X509564Y187093D02*
X509479Y187059D01*
X509405Y187002D01*
X509340Y186921D01*
X509286Y186818D01*
X509241Y186691D01*
X509206Y186542D01*
X509181Y186370D01*
X509166Y186175D01*
X509162Y185957D01*
X508161D01*
X508157Y186175D01*
X508142Y186370D01*
X508117Y186542D01*
X508082Y186691D01*
X508037Y186818D01*
X507983Y186921D01*
X507918Y187002D01*
X507844Y187059D01*
X507759Y187093D01*
X507665Y187105D01*
X509658D01*
X509564Y187093D01*
D02*
G37*
G36*
X501690D02*
X501605Y187059D01*
X501531Y187002D01*
X501466Y186921D01*
X501412Y186818D01*
X501367Y186691D01*
X501332Y186542D01*
X501307Y186370D01*
X501293Y186175D01*
X501288Y185957D01*
X500288D01*
X500283Y186175D01*
X500268Y186370D01*
X500243Y186542D01*
X500208Y186691D01*
X500163Y186818D01*
X500109Y186921D01*
X500044Y187002D01*
X499970Y187059D01*
X499885Y187093D01*
X499791Y187105D01*
X501784D01*
X501690Y187093D01*
D02*
G37*
G36*
X485942D02*
X485857Y187059D01*
X485783Y187002D01*
X485718Y186921D01*
X485664Y186818D01*
X485619Y186691D01*
X485584Y186542D01*
X485559Y186370D01*
X485544Y186175D01*
X485539Y185957D01*
X484540D01*
X484535Y186175D01*
X484520Y186370D01*
X484495Y186542D01*
X484460Y186691D01*
X484415Y186818D01*
X484361Y186921D01*
X484296Y187002D01*
X484222Y187059D01*
X484137Y187093D01*
X484043Y187105D01*
X486036D01*
X485942Y187093D01*
D02*
G37*
G36*
X470194D02*
X470109Y187059D01*
X470035Y187002D01*
X469970Y186921D01*
X469916Y186818D01*
X469871Y186691D01*
X469836Y186542D01*
X469811Y186370D01*
X469797Y186175D01*
X469792Y185957D01*
X468792D01*
X468787Y186175D01*
X468772Y186370D01*
X468747Y186542D01*
X468712Y186691D01*
X468667Y186818D01*
X468613Y186921D01*
X468548Y187002D01*
X468474Y187059D01*
X468389Y187093D01*
X468295Y187105D01*
X470288D01*
X470194Y187093D01*
D02*
G37*
G36*
X497108Y188319D02*
X497171Y188296D01*
X497222Y188180D01*
X497298Y188026D01*
X497381Y187875D01*
X497470Y187729D01*
X497565Y187586D01*
X497667Y187448D01*
X497774Y187314D01*
X497887Y187185D01*
X498006Y187061D01*
X498130Y186942D01*
X498259Y186829D01*
X498393Y186721D01*
X498531Y186620D01*
X498674Y186524D01*
X498821Y186435D01*
X498971Y186353D01*
X499125Y186277D01*
X499276Y186211D01*
X499283Y186125D01*
X499287Y185946D01*
Y180409D01*
X487378Y168501D01*
X476408D01*
X476178Y169055D01*
X486101Y178978D01*
X486174Y179057D01*
X486241Y179140D01*
X486302Y179228D01*
X486357Y179320D01*
X486405Y179416D01*
X486446Y179515D01*
X486480Y179617D01*
X486506Y179720D01*
X486525Y179826D01*
X486537Y179932D01*
X486541Y180040D01*
Y185946D01*
X486545Y186125D01*
X486551Y186211D01*
X486702Y186277D01*
X486856Y186353D01*
X487006Y186435D01*
X487153Y186524D01*
X487296Y186620D01*
X487434Y186721D01*
X487568Y186829D01*
X487697Y186942D01*
X487821Y187061D01*
X487940Y187185D01*
X488053Y187314D01*
X488160Y187448D01*
X488262Y187586D01*
X488357Y187729D01*
X488446Y187875D01*
X488529Y188026D01*
X488605Y188180D01*
X488656Y188296D01*
X488719Y188319D01*
X488785Y188337D01*
X489169D01*
X489234Y188319D01*
X489297Y188296D01*
X489348Y188180D01*
X489424Y188026D01*
X489507Y187875D01*
X489596Y187729D01*
X489691Y187586D01*
X489793Y187448D01*
X489900Y187314D01*
X490013Y187185D01*
X490132Y187061D01*
X490256Y186942D01*
X490385Y186829D01*
X490519Y186721D01*
X490657Y186620D01*
X490800Y186524D01*
X490947Y186435D01*
X491097Y186353D01*
X491251Y186277D01*
X491408Y186208D01*
X491568Y186146D01*
X491731Y186091D01*
X491895Y186042D01*
X492062Y186002D01*
X492231Y185968D01*
X492400Y185942D01*
X492571Y185924D01*
X492742Y185912D01*
X492914Y185908D01*
X493085Y185912D01*
X493256Y185924D01*
X493427Y185942D01*
X493597Y185968D01*
X493765Y186002D01*
X493932Y186042D01*
X494096Y186091D01*
X494259Y186146D01*
X494419Y186208D01*
X494576Y186277D01*
X494730Y186353D01*
X494880Y186435D01*
X495027Y186524D01*
X495170Y186620D01*
X495308Y186721D01*
X495442Y186829D01*
X495571Y186942D01*
X495695Y187061D01*
X495814Y187185D01*
X495927Y187314D01*
X496034Y187448D01*
X496136Y187586D01*
X496231Y187729D01*
X496320Y187875D01*
X496403Y188026D01*
X496479Y188180D01*
X496530Y188296D01*
X496593Y188319D01*
X496659Y188337D01*
X497043D01*
X497108Y188319D01*
D02*
G37*
G36*
X481360D02*
X481423Y188296D01*
X481474Y188180D01*
X481550Y188026D01*
X481633Y187875D01*
X481722Y187729D01*
X481817Y187586D01*
X481919Y187448D01*
X482026Y187314D01*
X482139Y187185D01*
X482258Y187061D01*
X482382Y186942D01*
X482511Y186829D01*
X482645Y186721D01*
X482783Y186620D01*
X482926Y186524D01*
X483073Y186435D01*
X483223Y186353D01*
X483377Y186277D01*
X483528Y186211D01*
X483534Y186125D01*
X483539Y185946D01*
Y180661D01*
X473878Y171001D01*
X463408D01*
X463178Y171555D01*
X470353Y178730D01*
X470426Y178809D01*
X470493Y178892D01*
X470554Y178980D01*
X470609Y179072D01*
X470657Y179168D01*
X470698Y179267D01*
X470732Y179369D01*
X470758Y179472D01*
X470777Y179578D01*
X470789Y179684D01*
X470792Y179792D01*
Y185946D01*
X470797Y186125D01*
X470803Y186211D01*
X470954Y186277D01*
X471108Y186353D01*
X471258Y186435D01*
X471405Y186524D01*
X471548Y186620D01*
X471686Y186721D01*
X471820Y186829D01*
X471949Y186942D01*
X472073Y187061D01*
X472192Y187185D01*
X472305Y187314D01*
X472412Y187448D01*
X472514Y187586D01*
X472609Y187729D01*
X472698Y187875D01*
X472781Y188026D01*
X472857Y188180D01*
X472908Y188296D01*
X472971Y188319D01*
X473036Y188337D01*
X473421D01*
X473486Y188319D01*
X473549Y188296D01*
X473600Y188180D01*
X473676Y188026D01*
X473759Y187875D01*
X473848Y187729D01*
X473943Y187586D01*
X474045Y187448D01*
X474152Y187314D01*
X474265Y187185D01*
X474384Y187061D01*
X474508Y186942D01*
X474637Y186829D01*
X474771Y186721D01*
X474909Y186620D01*
X475052Y186524D01*
X475199Y186435D01*
X475349Y186353D01*
X475503Y186277D01*
X475660Y186208D01*
X475820Y186146D01*
X475983Y186091D01*
X476147Y186042D01*
X476314Y186002D01*
X476482Y185968D01*
X476652Y185942D01*
X476823Y185924D01*
X476994Y185912D01*
X477166Y185908D01*
X477337Y185912D01*
X477508Y185924D01*
X477679Y185942D01*
X477849Y185968D01*
X478017Y186002D01*
X478184Y186042D01*
X478348Y186091D01*
X478511Y186146D01*
X478671Y186208D01*
X478828Y186277D01*
X478982Y186353D01*
X479132Y186435D01*
X479279Y186524D01*
X479422Y186620D01*
X479560Y186721D01*
X479694Y186829D01*
X479823Y186942D01*
X479947Y187061D01*
X480066Y187185D01*
X480179Y187314D01*
X480286Y187448D01*
X480388Y187586D01*
X480483Y187729D01*
X480572Y187875D01*
X480655Y188026D01*
X480731Y188180D01*
X480782Y188296D01*
X480845Y188319D01*
X480910Y188337D01*
X481295D01*
X481360Y188319D01*
D02*
G37*
G36*
X505599Y182089D02*
X505474Y181943D01*
X505363Y181795D01*
X505267Y181647D01*
X505185Y181498D01*
X505118Y181348D01*
X505067Y181196D01*
X505030Y181044D01*
X505007Y180891D01*
X505000Y180737D01*
X504000D01*
X503993Y180891D01*
X503970Y181044D01*
X503933Y181196D01*
X503882Y181348D01*
X503815Y181498D01*
X503733Y181647D01*
X503637Y181795D01*
X503526Y181943D01*
X503401Y182089D01*
X503260Y182235D01*
X505740D01*
X505599Y182089D01*
D02*
G37*
G36*
X23349Y142468D02*
X23404Y141579D01*
X23457Y141189D01*
X23525Y140833D01*
X23610Y140514D01*
X23711Y140230D01*
X23829Y139983D01*
X23963Y139770D01*
X24113Y139594D01*
X23406Y138887D01*
X23230Y139037D01*
X23017Y139171D01*
X22770Y139289D01*
X22486Y139390D01*
X22166Y139475D01*
X21811Y139543D01*
X21421Y139595D01*
X20532Y139651D01*
X20033Y139654D01*
X23346Y142966D01*
X23349Y142468D01*
D02*
G37*
G36*
X32744Y114992D02*
X33412Y114403D01*
X33725Y114163D01*
X34025Y113961D01*
X34310Y113795D01*
X34583Y113666D01*
X34841Y113574D01*
X35086Y113518D01*
X35317Y113500D01*
Y112500D01*
X35086Y112482D01*
X34841Y112426D01*
X34583Y112334D01*
X34310Y112205D01*
X34025Y112039D01*
X33725Y111837D01*
X33412Y111597D01*
X32744Y111008D01*
X32390Y110658D01*
Y115342D01*
X32744Y114992D01*
D02*
G37*
G36*
X23349Y112468D02*
X23404Y111579D01*
X23457Y111189D01*
X23525Y110834D01*
X23610Y110514D01*
X23711Y110230D01*
X23829Y109983D01*
X23963Y109770D01*
X24113Y109594D01*
X23406Y108887D01*
X23230Y109037D01*
X23017Y109171D01*
X22770Y109289D01*
X22486Y109390D01*
X22166Y109475D01*
X21811Y109543D01*
X21421Y109596D01*
X20532Y109651D01*
X20033Y109654D01*
X23346Y112967D01*
X23349Y112468D01*
D02*
G37*
G36*
X32744Y94992D02*
X33412Y94403D01*
X33725Y94163D01*
X34025Y93961D01*
X34310Y93795D01*
X34583Y93666D01*
X34841Y93574D01*
X35086Y93518D01*
X35317Y93500D01*
Y92500D01*
X35086Y92482D01*
X34841Y92426D01*
X34583Y92334D01*
X34310Y92205D01*
X34025Y92039D01*
X33725Y91837D01*
X33412Y91597D01*
X32744Y91008D01*
X32390Y90658D01*
Y95342D01*
X32744Y94992D01*
D02*
G37*
G36*
X24113Y86406D02*
X23963Y86230D01*
X23829Y86017D01*
X23711Y85770D01*
X23610Y85486D01*
X23525Y85167D01*
X23457Y84811D01*
X23404Y84421D01*
X23349Y83532D01*
X23346Y83034D01*
X20033Y86346D01*
X20532Y86349D01*
X21421Y86405D01*
X21811Y86457D01*
X22166Y86525D01*
X22486Y86610D01*
X22770Y86711D01*
X23017Y86829D01*
X23230Y86963D01*
X23406Y87113D01*
X24113Y86406D01*
D02*
G37*
G36*
X77598Y197275D02*
X77768Y194893D01*
X77847Y194415D01*
X78046Y193600D01*
X78167Y193264D01*
X78302Y192974D01*
X72879D01*
X73014Y193264D01*
X73135Y193600D01*
X73242Y193984D01*
X73334Y194415D01*
X73477Y195418D01*
X73527Y195990D01*
X73590Y197988D01*
X77591D01*
X77598Y197275D01*
D02*
G37*
G36*
X229149Y75191D02*
X229273Y75099D01*
X229407Y75018D01*
X229551Y74948D01*
X229704Y74890D01*
X229866Y74844D01*
X230039Y74809D01*
X230221Y74785D01*
X230413Y74773D01*
X230614Y74772D01*
X228886Y72993D01*
X228880Y73196D01*
X228863Y73389D01*
X228835Y73572D01*
X228796Y73746D01*
X228747Y73909D01*
X228687Y74063D01*
X228616Y74206D01*
X228534Y74340D01*
X228442Y74463D01*
X228338Y74577D01*
X229034Y75295D01*
X229149Y75191D01*
D02*
G37*
G36*
X194165Y39110D02*
X194188Y38957D01*
X194225Y38805D01*
X194276Y38653D01*
X194343Y38503D01*
X194424Y38354D01*
X194521Y38206D01*
X194632Y38058D01*
X194758Y37912D01*
X194898Y37766D01*
X192418D01*
X192559Y37912D01*
X192684Y38058D01*
X192795Y38206D01*
X192892Y38354D01*
X192973Y38503D01*
X193040Y38653D01*
X193091Y38805D01*
X193128Y38957D01*
X193151Y39110D01*
X193158Y39264D01*
X194158D01*
X194165Y39110D01*
D02*
G37*
G36*
X174500Y90000D02*
Y60000D01*
X173500Y59000D01*
X147000D01*
X146000Y60000D01*
Y90000D01*
X147000Y91000D01*
X173500D01*
X174500Y90000D01*
D02*
G37*
D10*
X197658Y80464D02*
X223158D01*
X193658Y36501D02*
Y76464D01*
Y36464D02*
Y36501D01*
Y76464D02*
X197658Y80464D01*
X223158D02*
X230640Y72983D01*
X141500Y162000D02*
X490000D01*
X107500Y128000D02*
X141500Y162000D01*
X63000Y128000D02*
X107500D01*
X106500Y130500D02*
X140500Y164500D01*
X62000Y130500D02*
X106500D01*
X140500Y164500D02*
X489000D01*
X61000Y133000D02*
X105500D01*
X139500Y167000D01*
X488000D01*
X104500Y135500D02*
X138500Y169500D01*
X60000Y135500D02*
X104500D01*
X138500Y169500D02*
X474500D01*
X137500Y172000D02*
X461500D01*
X103500Y138000D02*
X137500Y172000D01*
X59000Y138000D02*
X103500D01*
X490000Y162000D02*
X508662Y180662D01*
X489000Y164500D02*
X504500Y180000D01*
X488000Y167000D02*
X500788Y179788D01*
X474500Y169500D02*
X485040Y180040D01*
X461500Y172000D02*
X469292Y179792D01*
Y190846D01*
X485040Y180040D02*
Y190846D01*
X508662Y180662D02*
Y190846D01*
X59000Y138000D02*
X59000Y138000D01*
X25000Y138000D02*
X59000D01*
X20000Y143000D02*
X25000Y138000D01*
X34500Y88000D02*
X48500Y102000D01*
Y113500D02*
X63000Y128000D01*
X48500Y102000D02*
Y113500D01*
X46000Y114500D02*
X62000Y130500D01*
X35500Y93000D02*
X46000Y103500D01*
Y114500D01*
X30000Y93000D02*
X35500D01*
X25000Y108000D02*
X36000D01*
X46250Y118250D01*
X61000Y133000D01*
X20000Y113000D02*
X25000Y108000D01*
X30000Y113000D02*
X37500D01*
X60000Y135500D01*
X504500Y180000D02*
Y183500D01*
X500788Y179788D02*
Y190846D01*
X25000Y88000D02*
X34500D01*
X20000Y83000D02*
X25000Y88000D01*
D21*
X624000Y172500D02*
Y203500D01*
X584000Y166500D02*
X618000D01*
X624000Y172500D01*
X582000Y164500D02*
X584000Y166500D01*
X580500Y164500D02*
X582000D01*
X580500D02*
Y168500D01*
X582000D02*
X584000Y166500D01*
X580500Y164500D02*
Y168500D01*
Y164500D02*
X582000D01*
X580500Y168500D02*
X582000D01*
X580500D02*
X582000D01*
X275000Y151000D02*
X319000D01*
X322500D01*
X75590Y203591D02*
X81500Y209500D01*
X618000D01*
X75590Y190846D02*
Y203591D01*
X618000Y209500D02*
X624000Y203500D01*
X107000Y154500D02*
X112000D01*
X135000Y177500D02*
X162205D01*
X112000Y154500D02*
X135000Y177500D01*
X271500Y151000D02*
X275000D01*
X271500Y147500D02*
X275000Y151000D01*
X271500Y147500D02*
Y151000D01*
X13000Y154500D02*
X95000D01*
X103000D02*
X107000D01*
X95000D02*
X99000D01*
X103000D01*
X162205Y177500D02*
X453000D01*
X8000Y149500D02*
X13000Y154500D01*
X8000Y63500D02*
Y149500D01*
X25000Y58500D02*
X30000Y63500D01*
X8000D02*
X13000Y58500D01*
X25000D01*
X30000Y63500D02*
Y73000D01*
D22*
X162205Y177500D02*
Y190846D01*
D23*
X120473Y15256D02*
D03*
X116929Y201279D02*
D03*
X562992Y15256D02*
D03*
X342520D02*
D03*
X565945Y201279D02*
D03*
D24*
X125984Y101870D02*
D03*
D25*
X43307Y25098D02*
D03*
X645669Y107776D02*
D03*
D26*
X611024Y190846D02*
D03*
X603150D02*
D03*
X595276D02*
D03*
X587402D02*
D03*
X548032D02*
D03*
X540158D02*
D03*
X532284D02*
D03*
X524410D02*
D03*
X516536D02*
D03*
X508662D02*
D03*
X500788D02*
D03*
X492914D02*
D03*
X485040D02*
D03*
X477166D02*
D03*
X453544D02*
D03*
X469292D02*
D03*
X461418D02*
D03*
X445670D02*
D03*
X437796D02*
D03*
X429922D02*
D03*
X422048D02*
D03*
X414174D02*
D03*
X83464D02*
D03*
X170079D02*
D03*
X162205D02*
D03*
X154331D02*
D03*
X146457D02*
D03*
X138583D02*
D03*
X99212D02*
D03*
X91338D02*
D03*
X75590D02*
D03*
D27*
X555118Y101870D02*
D03*
D28*
X43307Y180610D02*
D03*
X645669D02*
D03*
D29*
X19685Y19685D02*
D03*
X669291D02*
D03*
Y196850D02*
D03*
X19685D02*
D03*
D30*
X30000Y143000D02*
D03*
X20000D02*
D03*
Y133000D02*
D03*
X30000D02*
D03*
Y123000D02*
D03*
X20000D02*
D03*
Y113000D02*
D03*
X30000D02*
D03*
Y103000D02*
D03*
X20000D02*
D03*
Y93000D02*
D03*
X30000D02*
D03*
Y83000D02*
D03*
X20000D02*
D03*
X30000Y73000D02*
D03*
D31*
X20000D02*
D03*
D32*
X253500Y46000D02*
D03*
X78000Y40000D02*
D03*
X82000D02*
D03*
Y36000D02*
D03*
X86000Y40000D02*
D03*
Y36000D02*
D03*
X78000D02*
D03*
X124000Y40000D02*
D03*
Y36000D02*
D03*
X120000D02*
D03*
X116000D02*
D03*
X120000Y40000D02*
D03*
X116000D02*
D03*
X275000Y29500D02*
D03*
X299000Y52000D02*
D03*
X222658Y62001D02*
D03*
X278158Y49501D02*
D03*
X274158D02*
D03*
X222658Y58001D02*
D03*
X214658Y73001D02*
D03*
X242158D02*
D03*
X238158D02*
D03*
X246158D02*
D03*
X230658D02*
D03*
X278158Y41501D02*
D03*
X274158Y45501D02*
D03*
X278158D02*
D03*
X274158Y41501D02*
D03*
X193658Y36501D02*
D03*
X157658Y49001D02*
D03*
X180658Y70501D02*
D03*
X161658Y53001D02*
D03*
X165658Y49001D02*
D03*
Y53001D02*
D03*
X161658Y49001D02*
D03*
X157658Y53001D02*
D03*
X605500Y93500D02*
D03*
X615500D02*
D03*
X522500Y171500D02*
D03*
X534000D02*
D03*
X100500Y180000D02*
D03*
X96500D02*
D03*
X92500D02*
D03*
X194500Y157000D02*
D03*
Y153000D02*
D03*
X190500D02*
D03*
Y157000D02*
D03*
X186500D02*
D03*
Y153000D02*
D03*
X234500Y148000D02*
D03*
X580500Y164500D02*
D03*
Y168500D02*
D03*
X584000Y166500D02*
D03*
X322500Y151000D02*
D03*
X131000Y137000D02*
D03*
X127000D02*
D03*
Y141000D02*
D03*
X131000D02*
D03*
X133500Y127500D02*
D03*
X159000Y146000D02*
D03*
X155000D02*
D03*
X151000D02*
D03*
Y142000D02*
D03*
X155000D02*
D03*
X159000D02*
D03*
X179500Y134500D02*
D03*
X646331Y206535D02*
D03*
Y10000D02*
D03*
X42646Y10000D02*
D03*
X10000Y42646D02*
D03*
X10000Y173890D02*
D03*
X42646Y206535D02*
D03*
X489000Y198500D02*
D03*
X528500Y198000D02*
D03*
X460000Y182500D02*
D03*
X271500Y151000D02*
D03*
Y147500D02*
D03*
X319000Y151000D02*
D03*
X170000Y198000D02*
D03*
X166000D02*
D03*
X162000D02*
D03*
X414500D02*
D03*
X410500D02*
D03*
X406500D02*
D03*
X99000Y154500D02*
D03*
X95000D02*
D03*
X103000D02*
D03*
X107000D02*
D03*
X453000Y177500D02*
D03*
X298500Y89000D02*
D03*
X302500D02*
D03*
X306500D02*
D03*
X468500Y173000D02*
D03*
X483000Y171000D02*
D03*
X234500Y156000D02*
D03*
Y152000D02*
D03*
X238500Y148000D02*
D03*
Y152000D02*
D03*
Y156000D02*
D03*
X97500Y108500D02*
D03*
Y104500D02*
D03*
Y100500D02*
D03*
X93500D02*
D03*
Y104500D02*
D03*
Y108500D02*
D03*
X504500Y183500D02*
D03*
D33*
X165800Y86535D02*
D03*
X168550Y81035D02*
D03*
X165800Y75535D02*
D03*
X168550Y70035D02*
D03*
X165800Y64535D02*
D03*
X160300Y86535D02*
D03*
X163050Y81035D02*
D03*
X160300Y75535D02*
D03*
X163050Y70035D02*
D03*
X160300Y64535D02*
D03*
X154800Y86535D02*
D03*
X157550Y81035D02*
D03*
X154800Y75535D02*
D03*
X157550Y70035D02*
D03*
X154800Y64535D02*
D03*
X152050Y81035D02*
D03*
Y70035D02*
D03*
X679000Y161035D02*
D03*
Y149035D02*
D03*
Y137035D02*
D03*
Y125035D02*
D03*
Y113035D02*
D03*
Y101035D02*
D03*
Y89035D02*
D03*
Y77035D02*
D03*
Y65035D02*
D03*
Y53035D02*
D03*
Y41035D02*
D03*
X676000Y167035D02*
D03*
X673000Y161035D02*
D03*
X676000Y155035D02*
D03*
X673000Y149035D02*
D03*
X676000Y143035D02*
D03*
X673000Y137035D02*
D03*
X676000Y131035D02*
D03*
X673000Y125035D02*
D03*
X676000Y119035D02*
D03*
X673000Y113035D02*
D03*
X676000Y107035D02*
D03*
X673000Y101035D02*
D03*
X676000Y95035D02*
D03*
X673000Y89035D02*
D03*
X676000Y83035D02*
D03*
X673000Y77035D02*
D03*
X676000Y71035D02*
D03*
X673000Y65035D02*
D03*
X676000Y59035D02*
D03*
X673000Y53035D02*
D03*
X676000Y47035D02*
D03*
X673000Y41035D02*
D03*
X670000Y167035D02*
D03*
X667000Y161035D02*
D03*
X670000Y155035D02*
D03*
Y143035D02*
D03*
Y131035D02*
D03*
X667000Y125035D02*
D03*
X670000Y119035D02*
D03*
X667000Y113035D02*
D03*
X670000Y107035D02*
D03*
X667000Y101035D02*
D03*
X670000Y95035D02*
D03*
X667000Y89035D02*
D03*
X670000Y83035D02*
D03*
Y71035D02*
D03*
Y59035D02*
D03*
X667000Y53035D02*
D03*
X670000Y47035D02*
D03*
X667000Y41035D02*
D03*
X664000Y167035D02*
D03*
X661000Y161035D02*
D03*
Y125035D02*
D03*
X664000Y119035D02*
D03*
X661000Y113035D02*
D03*
X664000Y107035D02*
D03*
X661000Y101035D02*
D03*
X664000Y95035D02*
D03*
X661000Y89035D02*
D03*
Y53035D02*
D03*
X664000Y47035D02*
D03*
X661000Y41035D02*
D03*
X658000Y167035D02*
D03*
X655000Y161035D02*
D03*
Y125035D02*
D03*
X658000Y119035D02*
D03*
X655000Y113035D02*
D03*
X658000Y107035D02*
D03*
X655000Y101035D02*
D03*
X658000Y95035D02*
D03*
X655000Y89035D02*
D03*
Y53035D02*
D03*
X658000Y47035D02*
D03*
X655000Y41035D02*
D03*
X652000Y167035D02*
D03*
X649000Y161035D02*
D03*
Y125035D02*
D03*
X652000Y119035D02*
D03*
Y95035D02*
D03*
X649000Y89035D02*
D03*
Y53035D02*
D03*
X652000Y47035D02*
D03*
X649000Y41035D02*
D03*
X643000Y161035D02*
D03*
Y125035D02*
D03*
Y89035D02*
D03*
Y53035D02*
D03*
X646000Y47035D02*
D03*
X643000Y41035D02*
D03*
X640000Y167035D02*
D03*
X637000Y161035D02*
D03*
Y125035D02*
D03*
X640000Y119035D02*
D03*
X637000Y113035D02*
D03*
Y101035D02*
D03*
X640000Y95035D02*
D03*
X637000Y89035D02*
D03*
Y53035D02*
D03*
X640000Y47035D02*
D03*
X637000Y41035D02*
D03*
M02*
