G04*
G04 #@! TF.GenerationSoftware,Altium Limited,Altium Designer,22.1.2 (22)*
G04*
G04 Layer_Color=255*
%FSLAX25Y25*%
%MOIN*%
G70*
G04*
G04 #@! TF.SameCoordinates,8EE64DC1-8580-4971-BFB0-55DE03F2C5D5*
G04*
G04*
G04 #@! TF.FilePolarity,Positive*
G04*
G01*
G75*
%ADD23O,0.19685X0.03937*%
%ADD24O,0.13780X0.11811*%
%ADD25O,0.03937X0.19685*%
%ADD26O,0.05866X0.07874*%
%ADD27C,0.11811*%
%ADD28C,0.09843*%
%ADD29C,0.27559*%
%ADD30C,0.06693*%
%ADD31R,0.06693X0.06693*%
D23*
X120473Y15256D02*
D03*
X116929Y201279D02*
D03*
X562992Y15256D02*
D03*
X342520D02*
D03*
X565945Y201279D02*
D03*
D24*
X125984Y101870D02*
D03*
D25*
X43307Y25098D02*
D03*
X645669Y107776D02*
D03*
D26*
X611024Y190846D02*
D03*
X603150D02*
D03*
X595276D02*
D03*
X587402D02*
D03*
X548032D02*
D03*
X540158D02*
D03*
X532284D02*
D03*
X524410D02*
D03*
X516536D02*
D03*
X508662D02*
D03*
X500788D02*
D03*
X492914D02*
D03*
X485040D02*
D03*
X477166D02*
D03*
X453544D02*
D03*
X469292D02*
D03*
X461418D02*
D03*
X445670D02*
D03*
X437796D02*
D03*
X429922D02*
D03*
X422048D02*
D03*
X414174D02*
D03*
X83464D02*
D03*
X170079D02*
D03*
X162205D02*
D03*
X154331D02*
D03*
X146457D02*
D03*
X138583D02*
D03*
X99212D02*
D03*
X91338D02*
D03*
X75590D02*
D03*
D27*
X555118Y101870D02*
D03*
D28*
X43307Y180610D02*
D03*
X645669D02*
D03*
D29*
X19685Y19685D02*
D03*
X669291D02*
D03*
Y196850D02*
D03*
X19685D02*
D03*
D30*
X30000Y143000D02*
D03*
X20000D02*
D03*
Y133000D02*
D03*
X30000D02*
D03*
Y123000D02*
D03*
X20000D02*
D03*
Y113000D02*
D03*
X30000D02*
D03*
Y103000D02*
D03*
X20000D02*
D03*
Y93000D02*
D03*
X30000D02*
D03*
Y83000D02*
D03*
X20000D02*
D03*
X30000Y73000D02*
D03*
D31*
X20000D02*
D03*
M02*
