G04*
G04 #@! TF.GenerationSoftware,Altium Limited,Altium Designer,22.1.2 (22)*
G04*
G04 Layer_Color=2752767*
%FSLAX25Y25*%
%MOIN*%
G70*
G04*
G04 #@! TF.SameCoordinates,8EE64DC1-8580-4971-BFB0-55DE03F2C5D5*
G04*
G04*
G04 #@! TF.FilePolarity,Positive*
G04*
G01*
G75*
%ADD10C,0.01000*%
%ADD77C,0.01500*%
%ADD78C,0.01600*%
%ADD79C,0.01400*%
%ADD80C,0.00200*%
D10*
X1591702Y176893D02*
X1595701D01*
X1591702Y158894D02*
X1593701D01*
X1592702D01*
Y164892D01*
X1591702Y163893D01*
X1596700Y159894D02*
X1597700Y158894D01*
X1599700D01*
X1600699Y159894D01*
Y163893D01*
X1599700Y164892D01*
X1597700D01*
X1596700Y163893D01*
Y162893D01*
X1597700Y161893D01*
X1600699D01*
X1602699Y158894D02*
Y159894D01*
X1603698D01*
Y158894D01*
X1602699D01*
X1611696Y164892D02*
X1609696Y163893D01*
X1607697Y161893D01*
Y159894D01*
X1608697Y158894D01*
X1610696D01*
X1611696Y159894D01*
Y160893D01*
X1610696Y161893D01*
X1607697D01*
X1613695Y159894D02*
X1614695Y158894D01*
X1616694D01*
X1617694Y159894D01*
Y163893D01*
X1616694Y164892D01*
X1614695D01*
X1613695Y163893D01*
Y162893D01*
X1614695Y161893D01*
X1617694D01*
X1619693Y158894D02*
Y162893D01*
X1620693D01*
X1621692Y161893D01*
Y158894D01*
Y161893D01*
X1622692Y162893D01*
X1623692Y161893D01*
Y158894D01*
X1625691D02*
X1627691D01*
X1626691D01*
Y162893D01*
X1625691D01*
X1630689Y158894D02*
X1632689D01*
X1631689D01*
Y164892D01*
X1630689D01*
X1643685Y158894D02*
X1641686Y160893D01*
Y162893D01*
X1643685Y164892D01*
X1646684Y163893D02*
X1647684Y164892D01*
X1649683D01*
X1650683Y163893D01*
Y159894D01*
X1649683Y158894D01*
X1647684D01*
X1646684Y159894D01*
Y163893D01*
X1652682Y158894D02*
Y159894D01*
X1653682D01*
Y158894D01*
X1652682D01*
X1661679Y164892D02*
X1657681D01*
Y161893D01*
X1659680Y162893D01*
X1660680D01*
X1661679Y161893D01*
Y159894D01*
X1660680Y158894D01*
X1658681D01*
X1657681Y159894D01*
X1663679Y163893D02*
X1664679Y164892D01*
X1666678D01*
X1667678Y163893D01*
Y159894D01*
X1666678Y158894D01*
X1664679D01*
X1663679Y159894D01*
Y163893D01*
X1669677D02*
X1670677Y164892D01*
X1672676D01*
X1673676Y163893D01*
Y159894D01*
X1672676Y158894D01*
X1670677D01*
X1669677Y159894D01*
Y163893D01*
X1675675Y158894D02*
Y162893D01*
X1676675D01*
X1677674Y161893D01*
Y158894D01*
Y161893D01*
X1678674Y162893D01*
X1679674Y161893D01*
Y158894D01*
X1681673D02*
Y162893D01*
X1682673D01*
X1683672Y161893D01*
Y158894D01*
Y161893D01*
X1684672Y162893D01*
X1685672Y161893D01*
Y158894D01*
X1687671D02*
X1689670Y160893D01*
Y162893D01*
X1687671Y164892D01*
X1591702Y146893D02*
X1595701D01*
X1591702Y131893D02*
X1595701D01*
X1591702Y113894D02*
X1593701D01*
X1592702D01*
Y119892D01*
X1591702Y118893D01*
X1600699Y119892D02*
X1596700D01*
Y116893D01*
X1598700Y117893D01*
X1599700D01*
X1600699Y116893D01*
Y114894D01*
X1599700Y113894D01*
X1597700D01*
X1596700Y114894D01*
X1602699Y119892D02*
X1606697D01*
Y118893D01*
X1602699Y114894D01*
Y113894D01*
X1608697D02*
Y114894D01*
X1609696D01*
Y113894D01*
X1608697D01*
X1616694D02*
Y119892D01*
X1613695Y116893D01*
X1617694D01*
X1619693Y118893D02*
X1620693Y119892D01*
X1622692D01*
X1623692Y118893D01*
Y117893D01*
X1622692Y116893D01*
X1623692Y115893D01*
Y114894D01*
X1622692Y113894D01*
X1620693D01*
X1619693Y114894D01*
Y115893D01*
X1620693Y116893D01*
X1619693Y117893D01*
Y118893D01*
X1620693Y116893D02*
X1622692D01*
X1625691Y113894D02*
Y117893D01*
X1626691D01*
X1627691Y116893D01*
Y113894D01*
Y116893D01*
X1628690Y117893D01*
X1629690Y116893D01*
Y113894D01*
X1631689D02*
X1633689D01*
X1632689D01*
Y117893D01*
X1631689D01*
X1636688Y113894D02*
X1638687D01*
X1637687D01*
Y119892D01*
X1636688D01*
X1649683Y113894D02*
X1647684Y115893D01*
Y117893D01*
X1649683Y119892D01*
X1655681Y113894D02*
Y119892D01*
X1652682Y116893D01*
X1656681D01*
X1658681Y113894D02*
Y114894D01*
X1659680D01*
Y113894D01*
X1658681D01*
X1663679Y118893D02*
X1664679Y119892D01*
X1666678D01*
X1667678Y118893D01*
Y114894D01*
X1666678Y113894D01*
X1664679D01*
X1663679Y114894D01*
Y118893D01*
X1669677D02*
X1670677Y119892D01*
X1672676D01*
X1673676Y118893D01*
Y114894D01*
X1672676Y113894D01*
X1670677D01*
X1669677Y114894D01*
Y118893D01*
X1675675D02*
X1676675Y119892D01*
X1678674D01*
X1679674Y118893D01*
Y114894D01*
X1678674Y113894D01*
X1676675D01*
X1675675Y114894D01*
Y118893D01*
X1681673Y113894D02*
Y117893D01*
X1682673D01*
X1683672Y116893D01*
Y113894D01*
Y116893D01*
X1684672Y117893D01*
X1685672Y116893D01*
Y113894D01*
X1687671D02*
Y117893D01*
X1688671D01*
X1689670Y116893D01*
Y113894D01*
Y116893D01*
X1690670Y117893D01*
X1691670Y116893D01*
Y113894D01*
X1693669D02*
X1695668Y115893D01*
Y117893D01*
X1693669Y119892D01*
X1591702Y101893D02*
X1595701D01*
X1591702Y86893D02*
X1595701D01*
X1591702Y71893D02*
X1595701D01*
X1591702Y56893D02*
X1595701D01*
X1476736Y176893D02*
X1480735D01*
X1476736Y158894D02*
X1478735D01*
X1477736D01*
Y164892D01*
X1476736Y163893D01*
X1481734D02*
X1482734Y164892D01*
X1484733D01*
X1485733Y163893D01*
Y162893D01*
X1484733Y161893D01*
X1483733D01*
X1484733D01*
X1485733Y160893D01*
Y159894D01*
X1484733Y158894D01*
X1482734D01*
X1481734Y159894D01*
X1487732Y164892D02*
X1491731D01*
Y163893D01*
X1487732Y159894D01*
Y158894D01*
X1493730D02*
Y159894D01*
X1494730D01*
Y158894D01*
X1493730D01*
X1498729Y164892D02*
X1502727D01*
Y163893D01*
X1498729Y159894D01*
Y158894D01*
X1504727Y159894D02*
X1505726Y158894D01*
X1507726D01*
X1508725Y159894D01*
Y163893D01*
X1507726Y164892D01*
X1505726D01*
X1504727Y163893D01*
Y162893D01*
X1505726Y161893D01*
X1508725D01*
X1510725Y158894D02*
Y162893D01*
X1511724D01*
X1512724Y161893D01*
Y158894D01*
Y161893D01*
X1513724Y162893D01*
X1514723Y161893D01*
Y158894D01*
X1516723D02*
X1518722D01*
X1517723D01*
Y162893D01*
X1516723D01*
X1521721Y158894D02*
X1523721D01*
X1522721D01*
Y164892D01*
X1521721D01*
X1534717Y158894D02*
X1532718Y160893D01*
Y162893D01*
X1534717Y164892D01*
X1537716Y163893D02*
X1538716Y164892D01*
X1540715D01*
X1541715Y163893D01*
Y162893D01*
X1540715Y161893D01*
X1539715D01*
X1540715D01*
X1541715Y160893D01*
Y159894D01*
X1540715Y158894D01*
X1538716D01*
X1537716Y159894D01*
X1543714Y158894D02*
Y159894D01*
X1544714D01*
Y158894D01*
X1543714D01*
X1552711Y164892D02*
X1548713D01*
Y161893D01*
X1550712Y162893D01*
X1551711D01*
X1552711Y161893D01*
Y159894D01*
X1551711Y158894D01*
X1549712D01*
X1548713Y159894D01*
X1554711Y163893D02*
X1555710Y164892D01*
X1557710D01*
X1558709Y163893D01*
Y159894D01*
X1557710Y158894D01*
X1555710D01*
X1554711Y159894D01*
Y163893D01*
X1560709D02*
X1561708Y164892D01*
X1563708D01*
X1564707Y163893D01*
Y159894D01*
X1563708Y158894D01*
X1561708D01*
X1560709Y159894D01*
Y163893D01*
X1566707Y158894D02*
Y162893D01*
X1567706D01*
X1568706Y161893D01*
Y158894D01*
Y161893D01*
X1569706Y162893D01*
X1570705Y161893D01*
Y158894D01*
X1572705D02*
Y162893D01*
X1573704D01*
X1574704Y161893D01*
Y158894D01*
Y161893D01*
X1575704Y162893D01*
X1576703Y161893D01*
Y158894D01*
X1578703D02*
X1580702Y160893D01*
Y162893D01*
X1578703Y164892D01*
X1476736Y146893D02*
X1480735D01*
X1476736Y131893D02*
X1480735D01*
X1476736Y113894D02*
X1478735D01*
X1477736D01*
Y119892D01*
X1476736Y118893D01*
X1481734Y114894D02*
X1482734Y113894D01*
X1484733D01*
X1485733Y114894D01*
Y118893D01*
X1484733Y119892D01*
X1482734D01*
X1481734Y118893D01*
Y117893D01*
X1482734Y116893D01*
X1485733D01*
X1491731Y119892D02*
X1489732Y118893D01*
X1487732Y116893D01*
Y114894D01*
X1488732Y113894D01*
X1490731D01*
X1491731Y114894D01*
Y115893D01*
X1490731Y116893D01*
X1487732D01*
X1493730Y113894D02*
Y114894D01*
X1494730D01*
Y113894D01*
X1493730D01*
X1498729Y118893D02*
X1499728Y119892D01*
X1501728D01*
X1502727Y118893D01*
Y117893D01*
X1501728Y116893D01*
X1502727Y115893D01*
Y114894D01*
X1501728Y113894D01*
X1499728D01*
X1498729Y114894D01*
Y115893D01*
X1499728Y116893D01*
X1498729Y117893D01*
Y118893D01*
X1499728Y116893D02*
X1501728D01*
X1508725Y119892D02*
X1504727D01*
Y116893D01*
X1506726Y117893D01*
X1507726D01*
X1508725Y116893D01*
Y114894D01*
X1507726Y113894D01*
X1505726D01*
X1504727Y114894D01*
X1510725Y113894D02*
Y117893D01*
X1511724D01*
X1512724Y116893D01*
Y113894D01*
Y116893D01*
X1513724Y117893D01*
X1514723Y116893D01*
Y113894D01*
X1516723D02*
X1518722D01*
X1517723D01*
Y117893D01*
X1516723D01*
X1521721Y113894D02*
X1523721D01*
X1522721D01*
Y119892D01*
X1521721D01*
X1534717Y113894D02*
X1532718Y115893D01*
Y117893D01*
X1534717Y119892D01*
X1541715D02*
X1537716D01*
Y116893D01*
X1539715Y117893D01*
X1540715D01*
X1541715Y116893D01*
Y114894D01*
X1540715Y113894D01*
X1538716D01*
X1537716Y114894D01*
X1543714Y113894D02*
Y114894D01*
X1544714D01*
Y113894D01*
X1543714D01*
X1548713Y118893D02*
X1549712Y119892D01*
X1551711D01*
X1552711Y118893D01*
Y114894D01*
X1551711Y113894D01*
X1549712D01*
X1548713Y114894D01*
Y118893D01*
X1554711D02*
X1555710Y119892D01*
X1557710D01*
X1558709Y118893D01*
Y114894D01*
X1557710Y113894D01*
X1555710D01*
X1554711Y114894D01*
Y118893D01*
X1560709D02*
X1561708Y119892D01*
X1563708D01*
X1564707Y118893D01*
Y114894D01*
X1563708Y113894D01*
X1561708D01*
X1560709Y114894D01*
Y118893D01*
X1566707Y113894D02*
Y117893D01*
X1567706D01*
X1568706Y116893D01*
Y113894D01*
Y116893D01*
X1569706Y117893D01*
X1570705Y116893D01*
Y113894D01*
X1572705D02*
Y117893D01*
X1573704D01*
X1574704Y116893D01*
Y113894D01*
Y116893D01*
X1575704Y117893D01*
X1576703Y116893D01*
Y113894D01*
X1578703D02*
X1580702Y115893D01*
Y117893D01*
X1578703Y119892D01*
X1476736Y101893D02*
X1480735D01*
X1476736Y86893D02*
X1480735D01*
X1476736Y71893D02*
X1480735D01*
X1476736Y56893D02*
X1480735D01*
X1346774Y177893D02*
X1343775D01*
X1342776Y176893D01*
Y174894D01*
X1343775Y173894D01*
X1346774D01*
X1348774Y178893D02*
X1349773Y179892D01*
X1351773D01*
X1352772Y178893D01*
Y177893D01*
X1351773Y176893D01*
X1350773D01*
X1351773D01*
X1352772Y175893D01*
Y174894D01*
X1351773Y173894D01*
X1349773D01*
X1348774Y174894D01*
X1354772Y178893D02*
X1355771Y179892D01*
X1357771D01*
X1358770Y178893D01*
Y174894D01*
X1357771Y173894D01*
X1355771D01*
X1354772Y174894D01*
Y178893D01*
X1360770D02*
X1361769Y179892D01*
X1363769D01*
X1364769Y178893D01*
Y174894D01*
X1363769Y173894D01*
X1361769D01*
X1360770Y174894D01*
Y178893D01*
X1366768Y179892D02*
Y173894D01*
Y176893D01*
X1367768Y177893D01*
X1369767D01*
X1370767Y176893D01*
Y173894D01*
X1372766D02*
Y177893D01*
X1375765D01*
X1376765Y176893D01*
Y173894D01*
X1378764Y178893D02*
X1379764Y179892D01*
X1381763D01*
X1382763Y178893D01*
Y177893D01*
X1381763Y176893D01*
X1380763D01*
X1381763D01*
X1382763Y175893D01*
Y174894D01*
X1381763Y173894D01*
X1379764D01*
X1378764Y174894D01*
X1384762Y178893D02*
X1385762Y179892D01*
X1387761D01*
X1388761Y178893D01*
Y174894D01*
X1387761Y173894D01*
X1385762D01*
X1384762Y174894D01*
Y178893D01*
X1390760D02*
X1391760Y179892D01*
X1393759D01*
X1394759Y178893D01*
Y174894D01*
X1393759Y173894D01*
X1391760D01*
X1390760Y174894D01*
Y178893D01*
X1342776Y162893D02*
Y158894D01*
Y160893D01*
X1343775Y161893D01*
X1344775Y162893D01*
X1345775D01*
X1348774Y163893D02*
X1349773Y164892D01*
X1351773D01*
X1352772Y163893D01*
Y162893D01*
X1351773Y161893D01*
X1350773D01*
X1351773D01*
X1352772Y160893D01*
Y159894D01*
X1351773Y158894D01*
X1349773D01*
X1348774Y159894D01*
X1354772Y163893D02*
X1355771Y164892D01*
X1357771D01*
X1358770Y163893D01*
Y159894D01*
X1357771Y158894D01*
X1355771D01*
X1354772Y159894D01*
Y163893D01*
X1360770D02*
X1361769Y164892D01*
X1363769D01*
X1364769Y163893D01*
Y159894D01*
X1363769Y158894D01*
X1361769D01*
X1360770Y159894D01*
Y163893D01*
X1366768Y157895D02*
X1370767D01*
X1372766Y163893D02*
X1373766Y164892D01*
X1375765D01*
X1376765Y163893D01*
Y162893D01*
X1375765Y161893D01*
X1374765D01*
X1375765D01*
X1376765Y160893D01*
Y159894D01*
X1375765Y158894D01*
X1373766D01*
X1372766Y159894D01*
X1382763Y164892D02*
X1378764D01*
Y161893D01*
X1380763Y162893D01*
X1381763D01*
X1382763Y161893D01*
Y159894D01*
X1381763Y158894D01*
X1379764D01*
X1378764Y159894D01*
X1384762Y163893D02*
X1385762Y164892D01*
X1387761D01*
X1388761Y163893D01*
Y159894D01*
X1387761Y158894D01*
X1385762D01*
X1384762Y159894D01*
Y163893D01*
X1390760Y164892D02*
Y158894D01*
Y161893D01*
X1391760Y162893D01*
X1393759D01*
X1394759Y161893D01*
Y158894D01*
X1396758D02*
Y162893D01*
X1399757D01*
X1400757Y161893D01*
Y158894D01*
X1402756Y163893D02*
X1403756Y164892D01*
X1405755D01*
X1406755Y163893D01*
Y162893D01*
X1405755Y161893D01*
X1404755D01*
X1405755D01*
X1406755Y160893D01*
Y159894D01*
X1405755Y158894D01*
X1403756D01*
X1402756Y159894D01*
X1408754Y163893D02*
X1409754Y164892D01*
X1411753D01*
X1412753Y163893D01*
Y159894D01*
X1411753Y158894D01*
X1409754D01*
X1408754Y159894D01*
Y163893D01*
X1414752D02*
X1415752Y164892D01*
X1417751D01*
X1418751Y163893D01*
Y159894D01*
X1417751Y158894D01*
X1415752D01*
X1414752Y159894D01*
Y163893D01*
X1420750Y157895D02*
X1424749D01*
X1426748Y163893D02*
X1427748Y164892D01*
X1429747D01*
X1430747Y163893D01*
Y162893D01*
X1429747Y161893D01*
X1428748D01*
X1429747D01*
X1430747Y160893D01*
Y159894D01*
X1429747Y158894D01*
X1427748D01*
X1426748Y159894D01*
X1436745Y164892D02*
X1432747D01*
Y161893D01*
X1434746Y162893D01*
X1435746D01*
X1436745Y161893D01*
Y159894D01*
X1435746Y158894D01*
X1433746D01*
X1432747Y159894D01*
X1438745Y163893D02*
X1439744Y164892D01*
X1441744D01*
X1442743Y163893D01*
Y159894D01*
X1441744Y158894D01*
X1439744D01*
X1438745Y159894D01*
Y163893D01*
X1444743Y162893D02*
Y158894D01*
Y160893D01*
X1445742Y161893D01*
X1446742Y162893D01*
X1447742D01*
X1450741Y158894D02*
X1452740D01*
X1451740D01*
Y164892D01*
X1450741Y163893D01*
X1455739D02*
X1456739Y164892D01*
X1458738D01*
X1459738Y163893D01*
Y159894D01*
X1458738Y158894D01*
X1456739D01*
X1455739Y159894D01*
Y163893D01*
X1461737D02*
X1462737Y164892D01*
X1464736D01*
X1465736Y163893D01*
Y159894D01*
X1464736Y158894D01*
X1462737D01*
X1461737Y159894D01*
Y163893D01*
X1346774Y147893D02*
X1343775D01*
X1342776Y146893D01*
Y144894D01*
X1343775Y143894D01*
X1346774D01*
X1352772D02*
X1348774D01*
X1352772Y147893D01*
Y148893D01*
X1351773Y149892D01*
X1349773D01*
X1348774Y148893D01*
X1358770Y149892D02*
X1354772D01*
Y146893D01*
X1356771Y147893D01*
X1357771D01*
X1358770Y146893D01*
Y144894D01*
X1357771Y143894D01*
X1355771D01*
X1354772Y144894D01*
X1360770Y148893D02*
X1361769Y149892D01*
X1363769D01*
X1364769Y148893D01*
Y144894D01*
X1363769Y143894D01*
X1361769D01*
X1360770Y144894D01*
Y148893D01*
X1366768Y149892D02*
Y143894D01*
Y146893D01*
X1367768Y147893D01*
X1369767D01*
X1370767Y146893D01*
Y143894D01*
X1372766D02*
Y147893D01*
X1375765D01*
X1376765Y146893D01*
Y143894D01*
X1382763D02*
X1378764D01*
X1382763Y147893D01*
Y148893D01*
X1381763Y149892D01*
X1379764D01*
X1378764Y148893D01*
X1388761Y149892D02*
X1384762D01*
Y146893D01*
X1386761Y147893D01*
X1387761D01*
X1388761Y146893D01*
Y144894D01*
X1387761Y143894D01*
X1385762D01*
X1384762Y144894D01*
X1390760Y148893D02*
X1391760Y149892D01*
X1393759D01*
X1394759Y148893D01*
Y144894D01*
X1393759Y143894D01*
X1391760D01*
X1390760Y144894D01*
Y148893D01*
X1346774Y132893D02*
X1343775D01*
X1342776Y131893D01*
Y129894D01*
X1343775Y128894D01*
X1346774D01*
X1348774Y134892D02*
X1352772D01*
Y133893D01*
X1348774Y129894D01*
Y128894D01*
X1354772Y133893D02*
X1355771Y134892D01*
X1357771D01*
X1358770Y133893D01*
Y129894D01*
X1357771Y128894D01*
X1355771D01*
X1354772Y129894D01*
Y133893D01*
X1360770D02*
X1361769Y134892D01*
X1363769D01*
X1364769Y133893D01*
Y129894D01*
X1363769Y128894D01*
X1361769D01*
X1360770Y129894D01*
Y133893D01*
X1366768Y134892D02*
Y128894D01*
Y131893D01*
X1367768Y132893D01*
X1369767D01*
X1370767Y131893D01*
Y128894D01*
X1372766Y133893D02*
X1373766Y134892D01*
X1375765D01*
X1376765Y133893D01*
Y132893D01*
X1375765Y131893D01*
X1374765D01*
X1375765D01*
X1376765Y130894D01*
Y129894D01*
X1375765Y128894D01*
X1373766D01*
X1372766Y129894D01*
X1382763Y134892D02*
X1378764D01*
Y131893D01*
X1380763Y132893D01*
X1381763D01*
X1382763Y131893D01*
Y129894D01*
X1381763Y128894D01*
X1379764D01*
X1378764Y129894D01*
X1384762Y133893D02*
X1385762Y134892D01*
X1387761D01*
X1388761Y133893D01*
Y129894D01*
X1387761Y128894D01*
X1385762D01*
X1384762Y129894D01*
Y133893D01*
X1342776Y117893D02*
Y113894D01*
Y115893D01*
X1343775Y116893D01*
X1344775Y117893D01*
X1345775D01*
X1348774Y113894D02*
X1350773D01*
X1349773D01*
Y119892D01*
X1348774Y118893D01*
X1353772D02*
X1354772Y119892D01*
X1356771D01*
X1357771Y118893D01*
Y114894D01*
X1356771Y113894D01*
X1354772D01*
X1353772Y114894D01*
Y118893D01*
X1359770D02*
X1360770Y119892D01*
X1362769D01*
X1363769Y118893D01*
Y114894D01*
X1362769Y113894D01*
X1360770D01*
X1359770Y114894D01*
Y118893D01*
X1365768Y112894D02*
X1369767D01*
X1375765Y119892D02*
X1371766D01*
Y116893D01*
X1373765Y117893D01*
X1374765D01*
X1375765Y116893D01*
Y114894D01*
X1374765Y113894D01*
X1372766D01*
X1371766Y114894D01*
X1377764Y118893D02*
X1378764Y119892D01*
X1380763D01*
X1381763Y118893D01*
Y114894D01*
X1380763Y113894D01*
X1378764D01*
X1377764Y114894D01*
Y118893D01*
X1383762D02*
X1384762Y119892D01*
X1386761D01*
X1387761Y118893D01*
Y114894D01*
X1386761Y113894D01*
X1384762D01*
X1383762Y114894D01*
Y118893D01*
X1389760Y119892D02*
Y113894D01*
Y116893D01*
X1390760Y117893D01*
X1392759D01*
X1393759Y116893D01*
Y113894D01*
X1395758D02*
Y117893D01*
X1398757D01*
X1399757Y116893D01*
Y113894D01*
X1401756D02*
X1403756D01*
X1402756D01*
Y119892D01*
X1401756Y118893D01*
X1406755D02*
X1407755Y119892D01*
X1409754D01*
X1410754Y118893D01*
Y114894D01*
X1409754Y113894D01*
X1407755D01*
X1406755Y114894D01*
Y118893D01*
X1412753D02*
X1413753Y119892D01*
X1415752D01*
X1416752Y118893D01*
Y114894D01*
X1415752Y113894D01*
X1413753D01*
X1412753Y114894D01*
Y118893D01*
X1418751Y112894D02*
X1422750D01*
X1428748Y119892D02*
X1424749D01*
Y116893D01*
X1426748Y117893D01*
X1427748D01*
X1428748Y116893D01*
Y114894D01*
X1427748Y113894D01*
X1425749D01*
X1424749Y114894D01*
X1430747Y118893D02*
X1431747Y119892D01*
X1433746D01*
X1434746Y118893D01*
Y114894D01*
X1433746Y113894D01*
X1431747D01*
X1430747Y114894D01*
Y118893D01*
X1436745D02*
X1437745Y119892D01*
X1439744D01*
X1440744Y118893D01*
Y114894D01*
X1439744Y113894D01*
X1437745D01*
X1436745Y114894D01*
Y118893D01*
X1442743Y117893D02*
Y113894D01*
Y115893D01*
X1443743Y116893D01*
X1444743Y117893D01*
X1445742D01*
X1448741Y113894D02*
X1450741D01*
X1449741D01*
Y119892D01*
X1448741Y118893D01*
X1453740D02*
X1454739Y119892D01*
X1456739D01*
X1457738Y118893D01*
Y114894D01*
X1456739Y113894D01*
X1454739D01*
X1453740Y114894D01*
Y118893D01*
X1459738D02*
X1460737Y119892D01*
X1462737D01*
X1463736Y118893D01*
Y114894D01*
X1462737Y113894D01*
X1460737D01*
X1459738Y114894D01*
Y118893D01*
X1344775Y98894D02*
X1342776Y100893D01*
Y102893D01*
X1344775Y104892D01*
X1347774Y98894D02*
Y104892D01*
X1349773Y102893D01*
X1351773Y104892D01*
Y98894D01*
X1353772D02*
X1355771D01*
X1354772D01*
Y102893D01*
X1353772D01*
X1358770D02*
X1362769Y98894D01*
X1360770Y100893D01*
X1362769Y102893D01*
X1358770Y98894D01*
X1367768D02*
X1365768D01*
X1364768Y99894D01*
Y101893D01*
X1365768Y102893D01*
X1367768D01*
X1368767Y101893D01*
Y100893D01*
X1364768D01*
X1374765Y104892D02*
Y98894D01*
X1371766D01*
X1370767Y99894D01*
Y101893D01*
X1371766Y102893D01*
X1374765D01*
X1376765Y98894D02*
X1378764Y100893D01*
Y102893D01*
X1376765Y104892D01*
X1342776Y87893D02*
Y83894D01*
Y85893D01*
X1343775Y86893D01*
X1344775Y87893D01*
X1345775D01*
X1348774Y83894D02*
X1350773D01*
X1349773D01*
Y89892D01*
X1348774Y88893D01*
X1356771Y83894D02*
Y89892D01*
X1353772Y86893D01*
X1357771D01*
X1359770Y84894D02*
X1360770Y83894D01*
X1362769D01*
X1363769Y84894D01*
Y88893D01*
X1362769Y89892D01*
X1360770D01*
X1359770Y88893D01*
Y87893D01*
X1360770Y86893D01*
X1363769D01*
X1365768Y82894D02*
X1369767D01*
X1375765Y83894D02*
X1371766D01*
X1375765Y87893D01*
Y88893D01*
X1374765Y89892D01*
X1372766D01*
X1371766Y88893D01*
X1377764D02*
X1378764Y89892D01*
X1380763D01*
X1381763Y88893D01*
Y84894D01*
X1380763Y83894D01*
X1378764D01*
X1377764Y84894D01*
Y88893D01*
X1383762D02*
X1384762Y89892D01*
X1386761D01*
X1387761Y88893D01*
Y84894D01*
X1386761Y83894D01*
X1384762D01*
X1383762Y84894D01*
Y88893D01*
X1389760Y89892D02*
Y83894D01*
Y86893D01*
X1390760Y87893D01*
X1392759D01*
X1393759Y86893D01*
Y83894D01*
X1395758D02*
X1397758D01*
X1396758D01*
Y89892D01*
X1395758Y88893D01*
X1400757D02*
X1401756Y89892D01*
X1403756D01*
X1404755Y88893D01*
Y84894D01*
X1403756Y83894D01*
X1401756D01*
X1400757Y84894D01*
Y88893D01*
X1406755D02*
X1407755Y89892D01*
X1409754D01*
X1410754Y88893D01*
Y84894D01*
X1409754Y83894D01*
X1407755D01*
X1406755Y84894D01*
Y88893D01*
X1412753Y87893D02*
Y83894D01*
Y85893D01*
X1413753Y86893D01*
X1414752Y87893D01*
X1415752D01*
X1418751Y83894D02*
X1420750D01*
X1419751D01*
Y89892D01*
X1418751Y88893D01*
X1423749D02*
X1424749Y89892D01*
X1426748D01*
X1427748Y88893D01*
Y84894D01*
X1426748Y83894D01*
X1424749D01*
X1423749Y84894D01*
Y88893D01*
X1429747D02*
X1430747Y89892D01*
X1432747D01*
X1433746Y88893D01*
Y84894D01*
X1432747Y83894D01*
X1430747D01*
X1429747Y84894D01*
Y88893D01*
X1342776Y72893D02*
X1344775Y68894D01*
X1346774Y72893D01*
X1348774Y69894D02*
X1349773Y68894D01*
X1351773D01*
X1352772Y69894D01*
Y73893D01*
X1351773Y74892D01*
X1349773D01*
X1348774Y73893D01*
Y72893D01*
X1349773Y71893D01*
X1352772D01*
X1354772Y73893D02*
X1355771Y74892D01*
X1357771D01*
X1358770Y73893D01*
Y69894D01*
X1357771Y68894D01*
X1355771D01*
X1354772Y69894D01*
Y73893D01*
X1360770Y74892D02*
Y68894D01*
Y71893D01*
X1361769Y72893D01*
X1363769D01*
X1364769Y71893D01*
Y68894D01*
X1370767Y74892D02*
X1366768D01*
Y71893D01*
X1368767Y72893D01*
X1369767D01*
X1370767Y71893D01*
Y69894D01*
X1369767Y68894D01*
X1367768D01*
X1366768Y69894D01*
X1372766Y73893D02*
X1373766Y74892D01*
X1375765D01*
X1376765Y73893D01*
Y69894D01*
X1375765Y68894D01*
X1373766D01*
X1372766Y69894D01*
Y73893D01*
X1378764Y68894D02*
Y72893D01*
X1379764D01*
X1380763Y71893D01*
Y68894D01*
Y71893D01*
X1381763Y72893D01*
X1382763Y71893D01*
Y68894D01*
X1384762Y73893D02*
X1385762Y74892D01*
X1387761D01*
X1388761Y73893D01*
Y69894D01*
X1387761Y68894D01*
X1385762D01*
X1384762Y69894D01*
Y73893D01*
X1390760Y68894D02*
Y72893D01*
X1391760D01*
X1392759Y71893D01*
Y68894D01*
Y71893D01*
X1393759Y72893D01*
X1394759Y71893D01*
Y68894D01*
X1396758Y72893D02*
X1400757Y68894D01*
X1398757Y70894D01*
X1400757Y72893D01*
X1396758Y68894D01*
X1402756Y73893D02*
X1403756Y74892D01*
X1405755D01*
X1406755Y73893D01*
Y69894D01*
X1405755Y68894D01*
X1403756D01*
X1402756Y69894D01*
Y73893D01*
X1342776Y57893D02*
X1344775Y53894D01*
X1346774Y57893D01*
X1348774Y53894D02*
X1350773D01*
X1349773D01*
Y59892D01*
X1348774Y58893D01*
X1357771Y53894D02*
X1353772D01*
X1357771Y57893D01*
Y58893D01*
X1356771Y59892D01*
X1354772D01*
X1353772Y58893D01*
X1359770D02*
X1360770Y59892D01*
X1362769D01*
X1363769Y58893D01*
Y54894D01*
X1362769Y53894D01*
X1360770D01*
X1359770Y54894D01*
Y58893D01*
X1365768Y59892D02*
Y53894D01*
Y56893D01*
X1366768Y57893D01*
X1368767D01*
X1369767Y56893D01*
Y53894D01*
X1371766Y59892D02*
X1375765D01*
Y58893D01*
X1371766Y54894D01*
Y53894D01*
X1377764Y58893D02*
X1378764Y59892D01*
X1380763D01*
X1381763Y58893D01*
Y54894D01*
X1380763Y53894D01*
X1378764D01*
X1377764Y54894D01*
Y58893D01*
X1383762Y53894D02*
Y57893D01*
X1384762D01*
X1385762Y56893D01*
Y53894D01*
Y56893D01*
X1386761Y57893D01*
X1387761Y56893D01*
Y53894D01*
X1389760Y58893D02*
X1390760Y59892D01*
X1392759D01*
X1393759Y58893D01*
Y54894D01*
X1392759Y53894D01*
X1390760D01*
X1389760Y54894D01*
Y58893D01*
X1395758Y53894D02*
Y57893D01*
X1396758D01*
X1397758Y56893D01*
Y53894D01*
Y56893D01*
X1398757Y57893D01*
X1399757Y56893D01*
Y53894D01*
X1401756Y57893D02*
X1405755Y53894D01*
X1403756Y55893D01*
X1405755Y57893D01*
X1401756Y53894D01*
X1407755Y58893D02*
X1408754Y59892D01*
X1410754D01*
X1411753Y58893D01*
Y54894D01*
X1410754Y53894D01*
X1408754D01*
X1407755Y54894D01*
Y58893D01*
X1268196Y173894D02*
Y179892D01*
X1271195D01*
X1272194Y178893D01*
Y176893D01*
X1271195Y175893D01*
X1268196D01*
X1270195D02*
X1272194Y173894D01*
X1275194D02*
X1277193D01*
X1278193Y174894D01*
Y176893D01*
X1277193Y177893D01*
X1275194D01*
X1274194Y176893D01*
Y174894D01*
X1275194Y173894D01*
X1280192Y177893D02*
Y174894D01*
X1281192Y173894D01*
X1284191D01*
Y177893D01*
X1286190Y173894D02*
Y177893D01*
X1289189D01*
X1290189Y176893D01*
Y173894D01*
X1296187Y179892D02*
Y173894D01*
X1293188D01*
X1292188Y174894D01*
Y176893D01*
X1293188Y177893D01*
X1296187D01*
X1301185Y173894D02*
X1299186D01*
X1298186Y174894D01*
Y176893D01*
X1299186Y177893D01*
X1301185D01*
X1302185Y176893D01*
Y175893D01*
X1298186D01*
X1308183Y179892D02*
Y173894D01*
X1305184D01*
X1304184Y174894D01*
Y176893D01*
X1305184Y177893D01*
X1308183D01*
X1268196Y158894D02*
Y164892D01*
X1271195D01*
X1272194Y163893D01*
Y161893D01*
X1271195Y160893D01*
X1268196D01*
X1270195D02*
X1272194Y158894D01*
X1275194D02*
X1277193D01*
X1278193Y159894D01*
Y161893D01*
X1277193Y162893D01*
X1275194D01*
X1274194Y161893D01*
Y159894D01*
X1275194Y158894D01*
X1280192Y162893D02*
Y159894D01*
X1281192Y158894D01*
X1284191D01*
Y162893D01*
X1286190Y158894D02*
Y162893D01*
X1289189D01*
X1290189Y161893D01*
Y158894D01*
X1296187Y164892D02*
Y158894D01*
X1293188D01*
X1292188Y159894D01*
Y161893D01*
X1293188Y162893D01*
X1296187D01*
X1301185Y158894D02*
X1299186D01*
X1298186Y159894D01*
Y161893D01*
X1299186Y162893D01*
X1301185D01*
X1302185Y161893D01*
Y160893D01*
X1298186D01*
X1308183Y164892D02*
Y158894D01*
X1305184D01*
X1304184Y159894D01*
Y161893D01*
X1305184Y162893D01*
X1308183D01*
X1268196Y143894D02*
Y149892D01*
X1271195D01*
X1272194Y148893D01*
Y146893D01*
X1271195Y145894D01*
X1268196D01*
X1270195D02*
X1272194Y143894D01*
X1275194D02*
X1277193D01*
X1278193Y144894D01*
Y146893D01*
X1277193Y147893D01*
X1275194D01*
X1274194Y146893D01*
Y144894D01*
X1275194Y143894D01*
X1280192Y147893D02*
Y144894D01*
X1281192Y143894D01*
X1284191D01*
Y147893D01*
X1286190Y143894D02*
Y147893D01*
X1289189D01*
X1290189Y146893D01*
Y143894D01*
X1296187Y149892D02*
Y143894D01*
X1293188D01*
X1292188Y144894D01*
Y146893D01*
X1293188Y147893D01*
X1296187D01*
X1301185Y143894D02*
X1299186D01*
X1298186Y144894D01*
Y146893D01*
X1299186Y147893D01*
X1301185D01*
X1302185Y146893D01*
Y145894D01*
X1298186D01*
X1308183Y149892D02*
Y143894D01*
X1305184D01*
X1304184Y144894D01*
Y146893D01*
X1305184Y147893D01*
X1308183D01*
X1268196Y128894D02*
Y134892D01*
X1271195D01*
X1272194Y133893D01*
Y131893D01*
X1271195Y130894D01*
X1268196D01*
X1270195D02*
X1272194Y128894D01*
X1275194D02*
X1277193D01*
X1278193Y129894D01*
Y131893D01*
X1277193Y132893D01*
X1275194D01*
X1274194Y131893D01*
Y129894D01*
X1275194Y128894D01*
X1280192Y132893D02*
Y129894D01*
X1281192Y128894D01*
X1284191D01*
Y132893D01*
X1286190Y128894D02*
Y132893D01*
X1289189D01*
X1290189Y131893D01*
Y128894D01*
X1296187Y134892D02*
Y128894D01*
X1293188D01*
X1292188Y129894D01*
Y131893D01*
X1293188Y132893D01*
X1296187D01*
X1301185Y128894D02*
X1299186D01*
X1298186Y129894D01*
Y131893D01*
X1299186Y132893D01*
X1301185D01*
X1302185Y131893D01*
Y130894D01*
X1298186D01*
X1308183Y134892D02*
Y128894D01*
X1305184D01*
X1304184Y129894D01*
Y131893D01*
X1305184Y132893D01*
X1308183D01*
X1268196Y113894D02*
Y119892D01*
X1271195D01*
X1272194Y118893D01*
Y116893D01*
X1271195Y115893D01*
X1268196D01*
X1270195D02*
X1272194Y113894D01*
X1275194D02*
X1277193D01*
X1278193Y114894D01*
Y116893D01*
X1277193Y117893D01*
X1275194D01*
X1274194Y116893D01*
Y114894D01*
X1275194Y113894D01*
X1280192Y117893D02*
Y114894D01*
X1281192Y113894D01*
X1284191D01*
Y117893D01*
X1286190Y113894D02*
Y117893D01*
X1289189D01*
X1290189Y116893D01*
Y113894D01*
X1296187Y119892D02*
Y113894D01*
X1293188D01*
X1292188Y114894D01*
Y116893D01*
X1293188Y117893D01*
X1296187D01*
X1301185Y113894D02*
X1299186D01*
X1298186Y114894D01*
Y116893D01*
X1299186Y117893D01*
X1301185D01*
X1302185Y116893D01*
Y115893D01*
X1298186D01*
X1308183Y119892D02*
Y113894D01*
X1305184D01*
X1304184Y114894D01*
Y116893D01*
X1305184Y117893D01*
X1308183D01*
X1270195Y98894D02*
X1268196Y100893D01*
Y102893D01*
X1270195Y104892D01*
X1273194Y98894D02*
Y104892D01*
X1275194Y102893D01*
X1277193Y104892D01*
Y98894D01*
X1279192D02*
X1281192D01*
X1280192D01*
Y102893D01*
X1279192D01*
X1284191D02*
X1288189Y98894D01*
X1286190Y100893D01*
X1288189Y102893D01*
X1284191Y98894D01*
X1293188D02*
X1291188D01*
X1290189Y99894D01*
Y101893D01*
X1291188Y102893D01*
X1293188D01*
X1294187Y101893D01*
Y100893D01*
X1290189D01*
X1300185Y104892D02*
Y98894D01*
X1297186D01*
X1296187Y99894D01*
Y101893D01*
X1297186Y102893D01*
X1300185D01*
X1302185Y98894D02*
X1304184Y100893D01*
Y102893D01*
X1302185Y104892D01*
X1268196Y83894D02*
Y89892D01*
X1271195D01*
X1272194Y88893D01*
Y86893D01*
X1271195Y85893D01*
X1268196D01*
X1270195D02*
X1272194Y83894D01*
X1275194D02*
X1277193D01*
X1278193Y84894D01*
Y86893D01*
X1277193Y87893D01*
X1275194D01*
X1274194Y86893D01*
Y84894D01*
X1275194Y83894D01*
X1280192Y87893D02*
Y84894D01*
X1281192Y83894D01*
X1284191D01*
Y87893D01*
X1286190Y83894D02*
Y87893D01*
X1289189D01*
X1290189Y86893D01*
Y83894D01*
X1296187Y89892D02*
Y83894D01*
X1293188D01*
X1292188Y84894D01*
Y86893D01*
X1293188Y87893D01*
X1296187D01*
X1301185Y83894D02*
X1299186D01*
X1298186Y84894D01*
Y86893D01*
X1299186Y87893D01*
X1301185D01*
X1302185Y86893D01*
Y85893D01*
X1298186D01*
X1308183Y89892D02*
Y83894D01*
X1305184D01*
X1304184Y84894D01*
Y86893D01*
X1305184Y87893D01*
X1308183D01*
X1268196Y68894D02*
Y74892D01*
X1271195D01*
X1272194Y73893D01*
Y71893D01*
X1271195Y70894D01*
X1268196D01*
X1270195D02*
X1272194Y68894D01*
X1275194D02*
X1277193D01*
X1278193Y69894D01*
Y71893D01*
X1277193Y72893D01*
X1275194D01*
X1274194Y71893D01*
Y69894D01*
X1275194Y68894D01*
X1280192Y72893D02*
Y69894D01*
X1281192Y68894D01*
X1284191D01*
Y72893D01*
X1286190Y68894D02*
Y72893D01*
X1289189D01*
X1290189Y71893D01*
Y68894D01*
X1296187Y74892D02*
Y68894D01*
X1293188D01*
X1292188Y69894D01*
Y71893D01*
X1293188Y72893D01*
X1296187D01*
X1301185Y68894D02*
X1299186D01*
X1298186Y69894D01*
Y71893D01*
X1299186Y72893D01*
X1301185D01*
X1302185Y71893D01*
Y70894D01*
X1298186D01*
X1308183Y74892D02*
Y68894D01*
X1305184D01*
X1304184Y69894D01*
Y71893D01*
X1305184Y72893D01*
X1308183D01*
X1268196Y53894D02*
Y59892D01*
X1271195D01*
X1272194Y58893D01*
Y56893D01*
X1271195Y55893D01*
X1268196D01*
X1270195D02*
X1272194Y53894D01*
X1275194D02*
X1277193D01*
X1278193Y54894D01*
Y56893D01*
X1277193Y57893D01*
X1275194D01*
X1274194Y56893D01*
Y54894D01*
X1275194Y53894D01*
X1280192Y57893D02*
Y54894D01*
X1281192Y53894D01*
X1284191D01*
Y57893D01*
X1286190Y53894D02*
Y57893D01*
X1289189D01*
X1290189Y56893D01*
Y53894D01*
X1296187Y59892D02*
Y53894D01*
X1293188D01*
X1292188Y54894D01*
Y56893D01*
X1293188Y57893D01*
X1296187D01*
X1301185Y53894D02*
X1299186D01*
X1298186Y54894D01*
Y56893D01*
X1299186Y57893D01*
X1301185D01*
X1302185Y56893D01*
Y55893D01*
X1298186D01*
X1308183Y59892D02*
Y53894D01*
X1305184D01*
X1304184Y54894D01*
Y56893D01*
X1305184Y57893D01*
X1308183D01*
X1209211Y173894D02*
Y179892D01*
X1212210D01*
X1213210Y178893D01*
Y176893D01*
X1212210Y175893D01*
X1209211D01*
X1216209Y177893D02*
X1218208D01*
X1219208Y176893D01*
Y173894D01*
X1216209D01*
X1215209Y174894D01*
X1216209Y175893D01*
X1219208D01*
X1225206Y179892D02*
Y173894D01*
X1222207D01*
X1221207Y174894D01*
Y176893D01*
X1222207Y177893D01*
X1225206D01*
X1209211Y158894D02*
Y164892D01*
X1212210D01*
X1213210Y163893D01*
Y161893D01*
X1212210Y160893D01*
X1209211D01*
X1216209Y162893D02*
X1218208D01*
X1219208Y161893D01*
Y158894D01*
X1216209D01*
X1215209Y159894D01*
X1216209Y160893D01*
X1219208D01*
X1225206Y164892D02*
Y158894D01*
X1222207D01*
X1221207Y159894D01*
Y161893D01*
X1222207Y162893D01*
X1225206D01*
X1209211Y143894D02*
Y149892D01*
X1212210D01*
X1213210Y148893D01*
Y146893D01*
X1212210Y145894D01*
X1209211D01*
X1216209Y147893D02*
X1218208D01*
X1219208Y146893D01*
Y143894D01*
X1216209D01*
X1215209Y144894D01*
X1216209Y145894D01*
X1219208D01*
X1225206Y149892D02*
Y143894D01*
X1222207D01*
X1221207Y144894D01*
Y146893D01*
X1222207Y147893D01*
X1225206D01*
X1209211Y128894D02*
Y134892D01*
X1212210D01*
X1213210Y133893D01*
Y131893D01*
X1212210Y130894D01*
X1209211D01*
X1216209Y132893D02*
X1218208D01*
X1219208Y131893D01*
Y128894D01*
X1216209D01*
X1215209Y129894D01*
X1216209Y130894D01*
X1219208D01*
X1225206Y134892D02*
Y128894D01*
X1222207D01*
X1221207Y129894D01*
Y131893D01*
X1222207Y132893D01*
X1225206D01*
X1209211Y113894D02*
Y119892D01*
X1212210D01*
X1213210Y118893D01*
Y116893D01*
X1212210Y115893D01*
X1209211D01*
X1216209Y117893D02*
X1218208D01*
X1219208Y116893D01*
Y113894D01*
X1216209D01*
X1215209Y114894D01*
X1216209Y115893D01*
X1219208D01*
X1225206Y119892D02*
Y113894D01*
X1222207D01*
X1221207Y114894D01*
Y116893D01*
X1222207Y117893D01*
X1225206D01*
X1209211Y98894D02*
Y104892D01*
X1212210D01*
X1213210Y103893D01*
Y101893D01*
X1212210Y100893D01*
X1209211D01*
X1216209Y102893D02*
X1218208D01*
X1219208Y101893D01*
Y98894D01*
X1216209D01*
X1215209Y99894D01*
X1216209Y100893D01*
X1219208D01*
X1225206Y104892D02*
Y98894D01*
X1222207D01*
X1221207Y99894D01*
Y101893D01*
X1222207Y102893D01*
X1225206D01*
X1209211Y83894D02*
Y89892D01*
X1212210D01*
X1213210Y88893D01*
Y86893D01*
X1212210Y85893D01*
X1209211D01*
X1216209Y87893D02*
X1218208D01*
X1219208Y86893D01*
Y83894D01*
X1216209D01*
X1215209Y84894D01*
X1216209Y85893D01*
X1219208D01*
X1225206Y89892D02*
Y83894D01*
X1222207D01*
X1221207Y84894D01*
Y86893D01*
X1222207Y87893D01*
X1225206D01*
X1209211Y74892D02*
Y70894D01*
X1211210Y68894D01*
X1213210Y70894D01*
Y74892D01*
X1215209Y68894D02*
X1217208D01*
X1216209D01*
Y72893D01*
X1215209D01*
X1221207D02*
X1223206D01*
X1224206Y71893D01*
Y68894D01*
X1221207D01*
X1220207Y69894D01*
X1221207Y70894D01*
X1224206D01*
X1209211Y59892D02*
Y55893D01*
X1211210Y53894D01*
X1213210Y55893D01*
Y59892D01*
X1215209Y53894D02*
X1217208D01*
X1216209D01*
Y57893D01*
X1215209D01*
X1221207D02*
X1223206D01*
X1224206Y56893D01*
Y53894D01*
X1221207D01*
X1220207Y54894D01*
X1221207Y55893D01*
X1224206D01*
X1059256Y179892D02*
X1063255D01*
X1061255D01*
Y173894D01*
X1066254D02*
X1068253D01*
X1069253Y174894D01*
Y176893D01*
X1068253Y177893D01*
X1066254D01*
X1065254Y176893D01*
Y174894D01*
X1066254Y173894D01*
X1071252Y171895D02*
Y177893D01*
X1074251D01*
X1075251Y176893D01*
Y174894D01*
X1074251Y173894D01*
X1071252D01*
X1083248Y179892D02*
Y173894D01*
X1087247D01*
X1090246Y177893D02*
X1092245D01*
X1093245Y176893D01*
Y173894D01*
X1090246D01*
X1089246Y174894D01*
X1090246Y175893D01*
X1093245D01*
X1095244Y177893D02*
Y174894D01*
X1096244Y173894D01*
X1099243D01*
Y172895D01*
X1098243Y171895D01*
X1097244D01*
X1099243Y173894D02*
Y177893D01*
X1104241Y173894D02*
X1102242D01*
X1101242Y174894D01*
Y176893D01*
X1102242Y177893D01*
X1104241D01*
X1105241Y176893D01*
Y175893D01*
X1101242D01*
X1107240Y177893D02*
Y173894D01*
Y175893D01*
X1108240Y176893D01*
X1109240Y177893D01*
X1110239D01*
X1119236Y176893D02*
X1123235D01*
X1131233Y179892D02*
Y173894D01*
X1134232D01*
X1135231Y174894D01*
Y175893D01*
X1134232Y176893D01*
X1131233D01*
X1134232D01*
X1135231Y177893D01*
Y178893D01*
X1134232Y179892D01*
X1131233D01*
X1138230Y173894D02*
X1140230D01*
X1141229Y174894D01*
Y176893D01*
X1140230Y177893D01*
X1138230D01*
X1137231Y176893D01*
Y174894D01*
X1138230Y173894D01*
X1144228Y178893D02*
Y177893D01*
X1143229D01*
X1145228D01*
X1144228D01*
Y174894D01*
X1145228Y173894D01*
X1149227Y178893D02*
Y177893D01*
X1148227D01*
X1150226D01*
X1149227D01*
Y174894D01*
X1150226Y173894D01*
X1154225D02*
X1156225D01*
X1157224Y174894D01*
Y176893D01*
X1156225Y177893D01*
X1154225D01*
X1153225Y176893D01*
Y174894D01*
X1154225Y173894D01*
X1159223D02*
Y177893D01*
X1160223D01*
X1161223Y176893D01*
Y173894D01*
Y176893D01*
X1162222Y177893D01*
X1163222Y176893D01*
Y173894D01*
X1171220Y179892D02*
Y173894D01*
X1175218D01*
X1178217Y177893D02*
X1180217D01*
X1181216Y176893D01*
Y173894D01*
X1178217D01*
X1177218Y174894D01*
X1178217Y175893D01*
X1181216D01*
X1183216Y177893D02*
Y174894D01*
X1184215Y173894D01*
X1187214D01*
Y172895D01*
X1186215Y171895D01*
X1185215D01*
X1187214Y173894D02*
Y177893D01*
X1192213Y173894D02*
X1190213D01*
X1189214Y174894D01*
Y176893D01*
X1190213Y177893D01*
X1192213D01*
X1193213Y176893D01*
Y175893D01*
X1189214D01*
X1195212Y177893D02*
Y173894D01*
Y175893D01*
X1196212Y176893D01*
X1197211Y177893D01*
X1198211D01*
X1059256Y164892D02*
X1063255D01*
X1061255D01*
Y158894D01*
X1066254D02*
X1068253D01*
X1069253Y159894D01*
Y161893D01*
X1068253Y162893D01*
X1066254D01*
X1065254Y161893D01*
Y159894D01*
X1066254Y158894D01*
X1071252Y156895D02*
Y162893D01*
X1074251D01*
X1075251Y161893D01*
Y159894D01*
X1074251Y158894D01*
X1071252D01*
X1083248Y164892D02*
Y158894D01*
X1087247D01*
X1090246Y162893D02*
X1092245D01*
X1093245Y161893D01*
Y158894D01*
X1090246D01*
X1089246Y159894D01*
X1090246Y160893D01*
X1093245D01*
X1095244Y162893D02*
Y159894D01*
X1096244Y158894D01*
X1099243D01*
Y157895D01*
X1098243Y156895D01*
X1097244D01*
X1099243Y158894D02*
Y162893D01*
X1104241Y158894D02*
X1102242D01*
X1101242Y159894D01*
Y161893D01*
X1102242Y162893D01*
X1104241D01*
X1105241Y161893D01*
Y160893D01*
X1101242D01*
X1107240Y162893D02*
Y158894D01*
Y160893D01*
X1108240Y161893D01*
X1109240Y162893D01*
X1110239D01*
X1119236Y161893D02*
X1123235D01*
X1131233Y164892D02*
Y158894D01*
X1134232D01*
X1135231Y159894D01*
Y160893D01*
X1134232Y161893D01*
X1131233D01*
X1134232D01*
X1135231Y162893D01*
Y163893D01*
X1134232Y164892D01*
X1131233D01*
X1138230Y158894D02*
X1140230D01*
X1141229Y159894D01*
Y161893D01*
X1140230Y162893D01*
X1138230D01*
X1137231Y161893D01*
Y159894D01*
X1138230Y158894D01*
X1144228Y163893D02*
Y162893D01*
X1143229D01*
X1145228D01*
X1144228D01*
Y159894D01*
X1145228Y158894D01*
X1149227Y163893D02*
Y162893D01*
X1148227D01*
X1150226D01*
X1149227D01*
Y159894D01*
X1150226Y158894D01*
X1154225D02*
X1156225D01*
X1157224Y159894D01*
Y161893D01*
X1156225Y162893D01*
X1154225D01*
X1153225Y161893D01*
Y159894D01*
X1154225Y158894D01*
X1159223D02*
Y162893D01*
X1160223D01*
X1161223Y161893D01*
Y158894D01*
Y161893D01*
X1162222Y162893D01*
X1163222Y161893D01*
Y158894D01*
X1171220Y164892D02*
Y158894D01*
X1175218D01*
X1178217Y162893D02*
X1180217D01*
X1181216Y161893D01*
Y158894D01*
X1178217D01*
X1177218Y159894D01*
X1178217Y160893D01*
X1181216D01*
X1183216Y162893D02*
Y159894D01*
X1184215Y158894D01*
X1187214D01*
Y157895D01*
X1186215Y156895D01*
X1185215D01*
X1187214Y158894D02*
Y162893D01*
X1192213Y158894D02*
X1190213D01*
X1189214Y159894D01*
Y161893D01*
X1190213Y162893D01*
X1192213D01*
X1193213Y161893D01*
Y160893D01*
X1189214D01*
X1195212Y162893D02*
Y158894D01*
Y160893D01*
X1196212Y161893D01*
X1197211Y162893D01*
X1198211D01*
X1059256Y149892D02*
X1063255D01*
X1061255D01*
Y143894D01*
X1066254D02*
X1068253D01*
X1069253Y144894D01*
Y146893D01*
X1068253Y147893D01*
X1066254D01*
X1065254Y146893D01*
Y144894D01*
X1066254Y143894D01*
X1071252Y141895D02*
Y147893D01*
X1074251D01*
X1075251Y146893D01*
Y144894D01*
X1074251Y143894D01*
X1071252D01*
X1083248Y149892D02*
Y143894D01*
X1087247D01*
X1090246Y147893D02*
X1092245D01*
X1093245Y146893D01*
Y143894D01*
X1090246D01*
X1089246Y144894D01*
X1090246Y145894D01*
X1093245D01*
X1095244Y147893D02*
Y144894D01*
X1096244Y143894D01*
X1099243D01*
Y142894D01*
X1098243Y141895D01*
X1097244D01*
X1099243Y143894D02*
Y147893D01*
X1104241Y143894D02*
X1102242D01*
X1101242Y144894D01*
Y146893D01*
X1102242Y147893D01*
X1104241D01*
X1105241Y146893D01*
Y145894D01*
X1101242D01*
X1107240Y147893D02*
Y143894D01*
Y145894D01*
X1108240Y146893D01*
X1109240Y147893D01*
X1110239D01*
X1119236Y146893D02*
X1123235D01*
X1131233Y149892D02*
Y143894D01*
X1134232D01*
X1135231Y144894D01*
Y145894D01*
X1134232Y146893D01*
X1131233D01*
X1134232D01*
X1135231Y147893D01*
Y148893D01*
X1134232Y149892D01*
X1131233D01*
X1138230Y143894D02*
X1140230D01*
X1141229Y144894D01*
Y146893D01*
X1140230Y147893D01*
X1138230D01*
X1137231Y146893D01*
Y144894D01*
X1138230Y143894D01*
X1144228Y148893D02*
Y147893D01*
X1143229D01*
X1145228D01*
X1144228D01*
Y144894D01*
X1145228Y143894D01*
X1149227Y148893D02*
Y147893D01*
X1148227D01*
X1150226D01*
X1149227D01*
Y144894D01*
X1150226Y143894D01*
X1154225D02*
X1156225D01*
X1157224Y144894D01*
Y146893D01*
X1156225Y147893D01*
X1154225D01*
X1153225Y146893D01*
Y144894D01*
X1154225Y143894D01*
X1159223D02*
Y147893D01*
X1160223D01*
X1161223Y146893D01*
Y143894D01*
Y146893D01*
X1162222Y147893D01*
X1163222Y146893D01*
Y143894D01*
X1171220Y149892D02*
Y143894D01*
X1175218D01*
X1178217Y147893D02*
X1180217D01*
X1181216Y146893D01*
Y143894D01*
X1178217D01*
X1177218Y144894D01*
X1178217Y145894D01*
X1181216D01*
X1183216Y147893D02*
Y144894D01*
X1184215Y143894D01*
X1187214D01*
Y142894D01*
X1186215Y141895D01*
X1185215D01*
X1187214Y143894D02*
Y147893D01*
X1192213Y143894D02*
X1190213D01*
X1189214Y144894D01*
Y146893D01*
X1190213Y147893D01*
X1192213D01*
X1193213Y146893D01*
Y145894D01*
X1189214D01*
X1195212Y147893D02*
Y143894D01*
Y145894D01*
X1196212Y146893D01*
X1197211Y147893D01*
X1198211D01*
X1059256Y134892D02*
X1063255D01*
X1061255D01*
Y128894D01*
X1066254D02*
X1068253D01*
X1069253Y129894D01*
Y131893D01*
X1068253Y132893D01*
X1066254D01*
X1065254Y131893D01*
Y129894D01*
X1066254Y128894D01*
X1071252Y126895D02*
Y132893D01*
X1074251D01*
X1075251Y131893D01*
Y129894D01*
X1074251Y128894D01*
X1071252D01*
X1083248Y134892D02*
Y128894D01*
X1087247D01*
X1090246Y132893D02*
X1092245D01*
X1093245Y131893D01*
Y128894D01*
X1090246D01*
X1089246Y129894D01*
X1090246Y130894D01*
X1093245D01*
X1095244Y132893D02*
Y129894D01*
X1096244Y128894D01*
X1099243D01*
Y127894D01*
X1098243Y126895D01*
X1097244D01*
X1099243Y128894D02*
Y132893D01*
X1104241Y128894D02*
X1102242D01*
X1101242Y129894D01*
Y131893D01*
X1102242Y132893D01*
X1104241D01*
X1105241Y131893D01*
Y130894D01*
X1101242D01*
X1107240Y132893D02*
Y128894D01*
Y130894D01*
X1108240Y131893D01*
X1109240Y132893D01*
X1110239D01*
X1119236Y131893D02*
X1123235D01*
X1131233Y134892D02*
Y128894D01*
X1134232D01*
X1135231Y129894D01*
Y130894D01*
X1134232Y131893D01*
X1131233D01*
X1134232D01*
X1135231Y132893D01*
Y133893D01*
X1134232Y134892D01*
X1131233D01*
X1138230Y128894D02*
X1140230D01*
X1141229Y129894D01*
Y131893D01*
X1140230Y132893D01*
X1138230D01*
X1137231Y131893D01*
Y129894D01*
X1138230Y128894D01*
X1144228Y133893D02*
Y132893D01*
X1143229D01*
X1145228D01*
X1144228D01*
Y129894D01*
X1145228Y128894D01*
X1149227Y133893D02*
Y132893D01*
X1148227D01*
X1150226D01*
X1149227D01*
Y129894D01*
X1150226Y128894D01*
X1154225D02*
X1156225D01*
X1157224Y129894D01*
Y131893D01*
X1156225Y132893D01*
X1154225D01*
X1153225Y131893D01*
Y129894D01*
X1154225Y128894D01*
X1159223D02*
Y132893D01*
X1160223D01*
X1161223Y131893D01*
Y128894D01*
Y131893D01*
X1162222Y132893D01*
X1163222Y131893D01*
Y128894D01*
X1171220Y134892D02*
Y128894D01*
X1175218D01*
X1178217Y132893D02*
X1180217D01*
X1181216Y131893D01*
Y128894D01*
X1178217D01*
X1177218Y129894D01*
X1178217Y130894D01*
X1181216D01*
X1183216Y132893D02*
Y129894D01*
X1184215Y128894D01*
X1187214D01*
Y127894D01*
X1186215Y126895D01*
X1185215D01*
X1187214Y128894D02*
Y132893D01*
X1192213Y128894D02*
X1190213D01*
X1189214Y129894D01*
Y131893D01*
X1190213Y132893D01*
X1192213D01*
X1193213Y131893D01*
Y130894D01*
X1189214D01*
X1195212Y132893D02*
Y128894D01*
Y130894D01*
X1196212Y131893D01*
X1197211Y132893D01*
X1198211D01*
X1059256Y119892D02*
X1063255D01*
X1061255D01*
Y113894D01*
X1066254D02*
X1068253D01*
X1069253Y114894D01*
Y116893D01*
X1068253Y117893D01*
X1066254D01*
X1065254Y116893D01*
Y114894D01*
X1066254Y113894D01*
X1071252Y111895D02*
Y117893D01*
X1074251D01*
X1075251Y116893D01*
Y114894D01*
X1074251Y113894D01*
X1071252D01*
X1083248Y119892D02*
Y113894D01*
X1087247D01*
X1090246Y117893D02*
X1092245D01*
X1093245Y116893D01*
Y113894D01*
X1090246D01*
X1089246Y114894D01*
X1090246Y115893D01*
X1093245D01*
X1095244Y117893D02*
Y114894D01*
X1096244Y113894D01*
X1099243D01*
Y112894D01*
X1098243Y111895D01*
X1097244D01*
X1099243Y113894D02*
Y117893D01*
X1104241Y113894D02*
X1102242D01*
X1101242Y114894D01*
Y116893D01*
X1102242Y117893D01*
X1104241D01*
X1105241Y116893D01*
Y115893D01*
X1101242D01*
X1107240Y117893D02*
Y113894D01*
Y115893D01*
X1108240Y116893D01*
X1109240Y117893D01*
X1110239D01*
X1119236Y116893D02*
X1123235D01*
X1131233Y119892D02*
Y113894D01*
X1134232D01*
X1135231Y114894D01*
Y115893D01*
X1134232Y116893D01*
X1131233D01*
X1134232D01*
X1135231Y117893D01*
Y118893D01*
X1134232Y119892D01*
X1131233D01*
X1138230Y113894D02*
X1140230D01*
X1141229Y114894D01*
Y116893D01*
X1140230Y117893D01*
X1138230D01*
X1137231Y116893D01*
Y114894D01*
X1138230Y113894D01*
X1144228Y118893D02*
Y117893D01*
X1143229D01*
X1145228D01*
X1144228D01*
Y114894D01*
X1145228Y113894D01*
X1149227Y118893D02*
Y117893D01*
X1148227D01*
X1150226D01*
X1149227D01*
Y114894D01*
X1150226Y113894D01*
X1154225D02*
X1156225D01*
X1157224Y114894D01*
Y116893D01*
X1156225Y117893D01*
X1154225D01*
X1153225Y116893D01*
Y114894D01*
X1154225Y113894D01*
X1159223D02*
Y117893D01*
X1160223D01*
X1161223Y116893D01*
Y113894D01*
Y116893D01*
X1162222Y117893D01*
X1163222Y116893D01*
Y113894D01*
X1171220Y119892D02*
Y113894D01*
X1175218D01*
X1178217Y117893D02*
X1180217D01*
X1181216Y116893D01*
Y113894D01*
X1178217D01*
X1177218Y114894D01*
X1178217Y115893D01*
X1181216D01*
X1183216Y117893D02*
Y114894D01*
X1184215Y113894D01*
X1187214D01*
Y112894D01*
X1186215Y111895D01*
X1185215D01*
X1187214Y113894D02*
Y117893D01*
X1192213Y113894D02*
X1190213D01*
X1189214Y114894D01*
Y116893D01*
X1190213Y117893D01*
X1192213D01*
X1193213Y116893D01*
Y115893D01*
X1189214D01*
X1195212Y117893D02*
Y113894D01*
Y115893D01*
X1196212Y116893D01*
X1197211Y117893D01*
X1198211D01*
X1059256Y104892D02*
X1063255D01*
X1061255D01*
Y98894D01*
X1066254D02*
X1068253D01*
X1069253Y99894D01*
Y101893D01*
X1068253Y102893D01*
X1066254D01*
X1065254Y101893D01*
Y99894D01*
X1066254Y98894D01*
X1071252Y96895D02*
Y102893D01*
X1074251D01*
X1075251Y101893D01*
Y99894D01*
X1074251Y98894D01*
X1071252D01*
X1083248Y104892D02*
Y98894D01*
X1087247D01*
X1090246Y102893D02*
X1092245D01*
X1093245Y101893D01*
Y98894D01*
X1090246D01*
X1089246Y99894D01*
X1090246Y100893D01*
X1093245D01*
X1095244Y102893D02*
Y99894D01*
X1096244Y98894D01*
X1099243D01*
Y97895D01*
X1098243Y96895D01*
X1097244D01*
X1099243Y98894D02*
Y102893D01*
X1104241Y98894D02*
X1102242D01*
X1101242Y99894D01*
Y101893D01*
X1102242Y102893D01*
X1104241D01*
X1105241Y101893D01*
Y100893D01*
X1101242D01*
X1107240Y102893D02*
Y98894D01*
Y100893D01*
X1108240Y101893D01*
X1109240Y102893D01*
X1110239D01*
X1119236Y101893D02*
X1123235D01*
X1131233Y104892D02*
Y98894D01*
X1134232D01*
X1135231Y99894D01*
Y100893D01*
X1134232Y101893D01*
X1131233D01*
X1134232D01*
X1135231Y102893D01*
Y103893D01*
X1134232Y104892D01*
X1131233D01*
X1138230Y98894D02*
X1140230D01*
X1141229Y99894D01*
Y101893D01*
X1140230Y102893D01*
X1138230D01*
X1137231Y101893D01*
Y99894D01*
X1138230Y98894D01*
X1144228Y103893D02*
Y102893D01*
X1143229D01*
X1145228D01*
X1144228D01*
Y99894D01*
X1145228Y98894D01*
X1149227Y103893D02*
Y102893D01*
X1148227D01*
X1150226D01*
X1149227D01*
Y99894D01*
X1150226Y98894D01*
X1154225D02*
X1156225D01*
X1157224Y99894D01*
Y101893D01*
X1156225Y102893D01*
X1154225D01*
X1153225Y101893D01*
Y99894D01*
X1154225Y98894D01*
X1159223D02*
Y102893D01*
X1160223D01*
X1161223Y101893D01*
Y98894D01*
Y101893D01*
X1162222Y102893D01*
X1163222Y101893D01*
Y98894D01*
X1171220Y104892D02*
Y98894D01*
X1175218D01*
X1178217Y102893D02*
X1180217D01*
X1181216Y101893D01*
Y98894D01*
X1178217D01*
X1177218Y99894D01*
X1178217Y100893D01*
X1181216D01*
X1183216Y102893D02*
Y99894D01*
X1184215Y98894D01*
X1187214D01*
Y97895D01*
X1186215Y96895D01*
X1185215D01*
X1187214Y98894D02*
Y102893D01*
X1192213Y98894D02*
X1190213D01*
X1189214Y99894D01*
Y101893D01*
X1190213Y102893D01*
X1192213D01*
X1193213Y101893D01*
Y100893D01*
X1189214D01*
X1195212Y102893D02*
Y98894D01*
Y100893D01*
X1196212Y101893D01*
X1197211Y102893D01*
X1198211D01*
X1059256Y89892D02*
X1063255D01*
X1061255D01*
Y83894D01*
X1066254D02*
X1068253D01*
X1069253Y84894D01*
Y86893D01*
X1068253Y87893D01*
X1066254D01*
X1065254Y86893D01*
Y84894D01*
X1066254Y83894D01*
X1071252Y81895D02*
Y87893D01*
X1074251D01*
X1075251Y86893D01*
Y84894D01*
X1074251Y83894D01*
X1071252D01*
X1083248Y89892D02*
Y83894D01*
X1087247D01*
X1090246Y87893D02*
X1092245D01*
X1093245Y86893D01*
Y83894D01*
X1090246D01*
X1089246Y84894D01*
X1090246Y85893D01*
X1093245D01*
X1095244Y87893D02*
Y84894D01*
X1096244Y83894D01*
X1099243D01*
Y82894D01*
X1098243Y81895D01*
X1097244D01*
X1099243Y83894D02*
Y87893D01*
X1104241Y83894D02*
X1102242D01*
X1101242Y84894D01*
Y86893D01*
X1102242Y87893D01*
X1104241D01*
X1105241Y86893D01*
Y85893D01*
X1101242D01*
X1107240Y87893D02*
Y83894D01*
Y85893D01*
X1108240Y86893D01*
X1109240Y87893D01*
X1110239D01*
X1119236Y86893D02*
X1123235D01*
X1131233Y89892D02*
Y83894D01*
X1134232D01*
X1135231Y84894D01*
Y85893D01*
X1134232Y86893D01*
X1131233D01*
X1134232D01*
X1135231Y87893D01*
Y88893D01*
X1134232Y89892D01*
X1131233D01*
X1138230Y83894D02*
X1140230D01*
X1141229Y84894D01*
Y86893D01*
X1140230Y87893D01*
X1138230D01*
X1137231Y86893D01*
Y84894D01*
X1138230Y83894D01*
X1144228Y88893D02*
Y87893D01*
X1143229D01*
X1145228D01*
X1144228D01*
Y84894D01*
X1145228Y83894D01*
X1149227Y88893D02*
Y87893D01*
X1148227D01*
X1150226D01*
X1149227D01*
Y84894D01*
X1150226Y83894D01*
X1154225D02*
X1156225D01*
X1157224Y84894D01*
Y86893D01*
X1156225Y87893D01*
X1154225D01*
X1153225Y86893D01*
Y84894D01*
X1154225Y83894D01*
X1159223D02*
Y87893D01*
X1160223D01*
X1161223Y86893D01*
Y83894D01*
Y86893D01*
X1162222Y87893D01*
X1163222Y86893D01*
Y83894D01*
X1171220Y89892D02*
Y83894D01*
X1175218D01*
X1178217Y87893D02*
X1180217D01*
X1181216Y86893D01*
Y83894D01*
X1178217D01*
X1177218Y84894D01*
X1178217Y85893D01*
X1181216D01*
X1183216Y87893D02*
Y84894D01*
X1184215Y83894D01*
X1187214D01*
Y82894D01*
X1186215Y81895D01*
X1185215D01*
X1187214Y83894D02*
Y87893D01*
X1192213Y83894D02*
X1190213D01*
X1189214Y84894D01*
Y86893D01*
X1190213Y87893D01*
X1192213D01*
X1193213Y86893D01*
Y85893D01*
X1189214D01*
X1195212Y87893D02*
Y83894D01*
Y85893D01*
X1196212Y86893D01*
X1197211Y87893D01*
X1198211D01*
X1059256Y74892D02*
X1063255D01*
X1061255D01*
Y68894D01*
X1066254D02*
X1068253D01*
X1069253Y69894D01*
Y71893D01*
X1068253Y72893D01*
X1066254D01*
X1065254Y71893D01*
Y69894D01*
X1066254Y68894D01*
X1071252Y66895D02*
Y72893D01*
X1074251D01*
X1075251Y71893D01*
Y69894D01*
X1074251Y68894D01*
X1071252D01*
X1083248Y74892D02*
Y68894D01*
X1087247D01*
X1090246Y72893D02*
X1092245D01*
X1093245Y71893D01*
Y68894D01*
X1090246D01*
X1089246Y69894D01*
X1090246Y70894D01*
X1093245D01*
X1095244Y72893D02*
Y69894D01*
X1096244Y68894D01*
X1099243D01*
Y67895D01*
X1098243Y66895D01*
X1097244D01*
X1099243Y68894D02*
Y72893D01*
X1104241Y68894D02*
X1102242D01*
X1101242Y69894D01*
Y71893D01*
X1102242Y72893D01*
X1104241D01*
X1105241Y71893D01*
Y70894D01*
X1101242D01*
X1107240Y72893D02*
Y68894D01*
Y70894D01*
X1108240Y71893D01*
X1109240Y72893D01*
X1110239D01*
X1119236Y71893D02*
X1123235D01*
X1131233Y74892D02*
Y68894D01*
X1134232D01*
X1135231Y69894D01*
Y70894D01*
X1134232Y71893D01*
X1131233D01*
X1134232D01*
X1135231Y72893D01*
Y73893D01*
X1134232Y74892D01*
X1131233D01*
X1138230Y68894D02*
X1140230D01*
X1141229Y69894D01*
Y71893D01*
X1140230Y72893D01*
X1138230D01*
X1137231Y71893D01*
Y69894D01*
X1138230Y68894D01*
X1144228Y73893D02*
Y72893D01*
X1143229D01*
X1145228D01*
X1144228D01*
Y69894D01*
X1145228Y68894D01*
X1149227Y73893D02*
Y72893D01*
X1148227D01*
X1150226D01*
X1149227D01*
Y69894D01*
X1150226Y68894D01*
X1154225D02*
X1156225D01*
X1157224Y69894D01*
Y71893D01*
X1156225Y72893D01*
X1154225D01*
X1153225Y71893D01*
Y69894D01*
X1154225Y68894D01*
X1159223D02*
Y72893D01*
X1160223D01*
X1161223Y71893D01*
Y68894D01*
Y71893D01*
X1162222Y72893D01*
X1163222Y71893D01*
Y68894D01*
X1171220Y74892D02*
Y68894D01*
X1175218D01*
X1178217Y72893D02*
X1180217D01*
X1181216Y71893D01*
Y68894D01*
X1178217D01*
X1177218Y69894D01*
X1178217Y70894D01*
X1181216D01*
X1183216Y72893D02*
Y69894D01*
X1184215Y68894D01*
X1187214D01*
Y67895D01*
X1186215Y66895D01*
X1185215D01*
X1187214Y68894D02*
Y72893D01*
X1192213Y68894D02*
X1190213D01*
X1189214Y69894D01*
Y71893D01*
X1190213Y72893D01*
X1192213D01*
X1193213Y71893D01*
Y70894D01*
X1189214D01*
X1195212Y72893D02*
Y68894D01*
Y70894D01*
X1196212Y71893D01*
X1197211Y72893D01*
X1198211D01*
X1059256Y59892D02*
X1063255D01*
X1061255D01*
Y53894D01*
X1066254D02*
X1068253D01*
X1069253Y54894D01*
Y56893D01*
X1068253Y57893D01*
X1066254D01*
X1065254Y56893D01*
Y54894D01*
X1066254Y53894D01*
X1071252Y51895D02*
Y57893D01*
X1074251D01*
X1075251Y56893D01*
Y54894D01*
X1074251Y53894D01*
X1071252D01*
X1083248Y59892D02*
Y53894D01*
X1087247D01*
X1090246Y57893D02*
X1092245D01*
X1093245Y56893D01*
Y53894D01*
X1090246D01*
X1089246Y54894D01*
X1090246Y55893D01*
X1093245D01*
X1095244Y57893D02*
Y54894D01*
X1096244Y53894D01*
X1099243D01*
Y52895D01*
X1098243Y51895D01*
X1097244D01*
X1099243Y53894D02*
Y57893D01*
X1104241Y53894D02*
X1102242D01*
X1101242Y54894D01*
Y56893D01*
X1102242Y57893D01*
X1104241D01*
X1105241Y56893D01*
Y55893D01*
X1101242D01*
X1107240Y57893D02*
Y53894D01*
Y55893D01*
X1108240Y56893D01*
X1109240Y57893D01*
X1110239D01*
X1119236Y56893D02*
X1123235D01*
X1131233Y59892D02*
Y53894D01*
X1134232D01*
X1135231Y54894D01*
Y55893D01*
X1134232Y56893D01*
X1131233D01*
X1134232D01*
X1135231Y57893D01*
Y58893D01*
X1134232Y59892D01*
X1131233D01*
X1138230Y53894D02*
X1140230D01*
X1141229Y54894D01*
Y56893D01*
X1140230Y57893D01*
X1138230D01*
X1137231Y56893D01*
Y54894D01*
X1138230Y53894D01*
X1144228Y58893D02*
Y57893D01*
X1143229D01*
X1145228D01*
X1144228D01*
Y54894D01*
X1145228Y53894D01*
X1149227Y58893D02*
Y57893D01*
X1148227D01*
X1150226D01*
X1149227D01*
Y54894D01*
X1150226Y53894D01*
X1154225D02*
X1156225D01*
X1157224Y54894D01*
Y56893D01*
X1156225Y57893D01*
X1154225D01*
X1153225Y56893D01*
Y54894D01*
X1154225Y53894D01*
X1159223D02*
Y57893D01*
X1160223D01*
X1161223Y56893D01*
Y53894D01*
Y56893D01*
X1162222Y57893D01*
X1163222Y56893D01*
Y53894D01*
X1171220Y59892D02*
Y53894D01*
X1175218D01*
X1178217Y57893D02*
X1180217D01*
X1181216Y56893D01*
Y53894D01*
X1178217D01*
X1177218Y54894D01*
X1178217Y55893D01*
X1181216D01*
X1183216Y57893D02*
Y54894D01*
X1184215Y53894D01*
X1187214D01*
Y52895D01*
X1186215Y51895D01*
X1185215D01*
X1187214Y53894D02*
Y57893D01*
X1192213Y53894D02*
X1190213D01*
X1189214Y54894D01*
Y56893D01*
X1190213Y57893D01*
X1192213D01*
X1193213Y56893D01*
Y55893D01*
X1189214D01*
X1195212Y57893D02*
Y53894D01*
Y55893D01*
X1196212Y56893D01*
X1197211Y57893D01*
X1198211D01*
X985876Y173894D02*
Y179892D01*
X988875D01*
X989874Y178893D01*
Y176893D01*
X988875Y175893D01*
X985876D01*
X987875D02*
X989874Y173894D01*
X992873D02*
X994873D01*
X995872Y174894D01*
Y176893D01*
X994873Y177893D01*
X992873D01*
X991874Y176893D01*
Y174894D01*
X992873Y173894D01*
X997872Y177893D02*
Y174894D01*
X998872Y173894D01*
X1001871D01*
Y177893D01*
X1003870Y173894D02*
Y177893D01*
X1006869D01*
X1007868Y176893D01*
Y173894D01*
X1013867Y179892D02*
Y173894D01*
X1010868D01*
X1009868Y174894D01*
Y176893D01*
X1010868Y177893D01*
X1013867D01*
X989874Y163893D02*
X988875Y164892D01*
X986875D01*
X985876Y163893D01*
Y162893D01*
X986875Y161893D01*
X988875D01*
X989874Y160893D01*
Y159894D01*
X988875Y158894D01*
X986875D01*
X985876Y159894D01*
X991874Y158894D02*
X993873D01*
X992873D01*
Y164892D01*
X991874D01*
X997872Y158894D02*
X999871D01*
X1000871Y159894D01*
Y161893D01*
X999871Y162893D01*
X997872D01*
X996872Y161893D01*
Y159894D01*
X997872Y158894D01*
X1003870Y163893D02*
Y162893D01*
X1002870D01*
X1004869D01*
X1003870D01*
Y159894D01*
X1004869Y158894D01*
X985876Y143894D02*
Y149892D01*
X988875D01*
X989874Y148893D01*
Y146893D01*
X988875Y145894D01*
X985876D01*
X987875D02*
X989874Y143894D01*
X992873D02*
X994873D01*
X995872Y144894D01*
Y146893D01*
X994873Y147893D01*
X992873D01*
X991874Y146893D01*
Y144894D01*
X992873Y143894D01*
X997872Y147893D02*
Y144894D01*
X998872Y143894D01*
X1001871D01*
Y147893D01*
X1003870Y143894D02*
Y147893D01*
X1006869D01*
X1007868Y146893D01*
Y143894D01*
X1013867Y149892D02*
Y143894D01*
X1010868D01*
X1009868Y144894D01*
Y146893D01*
X1010868Y147893D01*
X1013867D01*
X985876Y128894D02*
Y134892D01*
X988875D01*
X989874Y133893D01*
Y131893D01*
X988875Y130894D01*
X985876D01*
X987875D02*
X989874Y128894D01*
X992873D02*
X994873D01*
X995872Y129894D01*
Y131893D01*
X994873Y132893D01*
X992873D01*
X991874Y131893D01*
Y129894D01*
X992873Y128894D01*
X997872Y132893D02*
Y129894D01*
X998872Y128894D01*
X1001871D01*
Y132893D01*
X1003870Y128894D02*
Y132893D01*
X1006869D01*
X1007868Y131893D01*
Y128894D01*
X1013867Y134892D02*
Y128894D01*
X1010868D01*
X1009868Y129894D01*
Y131893D01*
X1010868Y132893D01*
X1013867D01*
X989874Y118893D02*
X988875Y119892D01*
X986875D01*
X985876Y118893D01*
Y117893D01*
X986875Y116893D01*
X988875D01*
X989874Y115893D01*
Y114894D01*
X988875Y113894D01*
X986875D01*
X985876Y114894D01*
X991874Y113894D02*
X993873D01*
X992873D01*
Y119892D01*
X991874D01*
X997872Y113894D02*
X999871D01*
X1000871Y114894D01*
Y116893D01*
X999871Y117893D01*
X997872D01*
X996872Y116893D01*
Y114894D01*
X997872Y113894D01*
X1003870Y118893D02*
Y117893D01*
X1002870D01*
X1004869D01*
X1003870D01*
Y114894D01*
X1004869Y113894D01*
X985876Y98894D02*
Y104892D01*
X988875D01*
X989874Y103893D01*
Y101893D01*
X988875Y100893D01*
X985876D01*
X987875D02*
X989874Y98894D01*
X992873D02*
X994873D01*
X995872Y99894D01*
Y101893D01*
X994873Y102893D01*
X992873D01*
X991874Y101893D01*
Y99894D01*
X992873Y98894D01*
X997872Y102893D02*
Y99894D01*
X998872Y98894D01*
X1001871D01*
Y102893D01*
X1003870Y98894D02*
Y102893D01*
X1006869D01*
X1007868Y101893D01*
Y98894D01*
X1013867Y104892D02*
Y98894D01*
X1010868D01*
X1009868Y99894D01*
Y101893D01*
X1010868Y102893D01*
X1013867D01*
X985876Y83894D02*
Y89892D01*
X988875D01*
X989874Y88893D01*
Y86893D01*
X988875Y85893D01*
X985876D01*
X987875D02*
X989874Y83894D01*
X992873D02*
X994873D01*
X995872Y84894D01*
Y86893D01*
X994873Y87893D01*
X992873D01*
X991874Y86893D01*
Y84894D01*
X992873Y83894D01*
X997872Y87893D02*
Y84894D01*
X998872Y83894D01*
X1001871D01*
Y87893D01*
X1003870Y83894D02*
Y87893D01*
X1006869D01*
X1007868Y86893D01*
Y83894D01*
X1013867Y89892D02*
Y83894D01*
X1010868D01*
X1009868Y84894D01*
Y86893D01*
X1010868Y87893D01*
X1013867D01*
X985876Y68894D02*
Y74892D01*
X988875D01*
X989874Y73893D01*
Y71893D01*
X988875Y70894D01*
X985876D01*
X987875D02*
X989874Y68894D01*
X992873D02*
X994873D01*
X995872Y69894D01*
Y71893D01*
X994873Y72893D01*
X992873D01*
X991874Y71893D01*
Y69894D01*
X992873Y68894D01*
X997872Y72893D02*
Y69894D01*
X998872Y68894D01*
X1001871D01*
Y72893D01*
X1003870Y68894D02*
Y72893D01*
X1006869D01*
X1007868Y71893D01*
Y68894D01*
X1013867Y74892D02*
Y68894D01*
X1010868D01*
X1009868Y69894D01*
Y71893D01*
X1010868Y72893D01*
X1013867D01*
X985876Y53894D02*
Y59892D01*
X988875D01*
X989874Y58893D01*
Y56893D01*
X988875Y55893D01*
X985876D01*
X987875D02*
X989874Y53894D01*
X992873D02*
X994873D01*
X995872Y54894D01*
Y56893D01*
X994873Y57893D01*
X992873D01*
X991874Y56893D01*
Y54894D01*
X992873Y53894D01*
X997872Y57893D02*
Y54894D01*
X998872Y53894D01*
X1001871D01*
Y57893D01*
X1003870Y53894D02*
Y57893D01*
X1006869D01*
X1007868Y56893D01*
Y53894D01*
X1013867Y59892D02*
Y53894D01*
X1010868D01*
X1009868Y54894D01*
Y56893D01*
X1010868Y57893D01*
X1013867D01*
X935288Y173894D02*
Y179892D01*
X939287Y173894D01*
Y179892D01*
X941286Y173894D02*
Y179892D01*
X944285D01*
X945285Y178893D01*
Y176893D01*
X944285Y175893D01*
X941286D01*
X947284Y179892D02*
X951283D01*
X949284D01*
Y173894D01*
X953282Y179892D02*
Y173894D01*
Y176893D01*
X957281D01*
Y179892D01*
Y173894D01*
X935288Y158894D02*
Y164892D01*
X939287Y158894D01*
Y164892D01*
X941286Y158894D02*
Y164892D01*
X944285D01*
X945285Y163893D01*
Y161893D01*
X944285Y160893D01*
X941286D01*
X947284Y164892D02*
X951283D01*
X949284D01*
Y158894D01*
X953282Y164892D02*
Y158894D01*
Y161893D01*
X957281D01*
Y164892D01*
Y158894D01*
X935288Y143894D02*
Y149892D01*
X939287Y143894D01*
Y149892D01*
X941286Y143894D02*
Y149892D01*
X944285D01*
X945285Y148893D01*
Y146893D01*
X944285Y145894D01*
X941286D01*
X947284Y149892D02*
X951283D01*
X949284D01*
Y143894D01*
X953282Y149892D02*
Y143894D01*
Y146893D01*
X957281D01*
Y149892D01*
Y143894D01*
X935288Y128894D02*
Y134892D01*
X938287D01*
X939287Y133893D01*
Y131893D01*
X938287Y130894D01*
X935288D01*
X941286Y134892D02*
X945285D01*
X943285D01*
Y128894D01*
X947284Y134892D02*
Y128894D01*
Y131893D01*
X951283D01*
Y134892D01*
Y128894D01*
X935288Y113894D02*
Y119892D01*
X939287Y113894D01*
Y119892D01*
X941286Y113894D02*
Y119892D01*
X944285D01*
X945285Y118893D01*
Y116893D01*
X944285Y115893D01*
X941286D01*
X947284Y119892D02*
X951283D01*
X949284D01*
Y113894D01*
X953282Y119892D02*
Y113894D01*
Y116893D01*
X957281D01*
Y119892D01*
Y113894D01*
X935288Y98894D02*
Y104892D01*
X938287D01*
X939287Y103893D01*
Y101893D01*
X938287Y100893D01*
X935288D01*
X941286Y104892D02*
X945285D01*
X943285D01*
Y98894D01*
X947284Y104892D02*
Y98894D01*
Y101893D01*
X951283D01*
Y104892D01*
Y98894D01*
X935288Y83894D02*
Y89892D01*
X938287D01*
X939287Y88893D01*
Y86893D01*
X938287Y85893D01*
X935288D01*
X941286Y89892D02*
X945285D01*
X943285D01*
Y83894D01*
X947284Y89892D02*
Y83894D01*
Y86893D01*
X951283D01*
Y89892D01*
Y83894D01*
X935288Y68894D02*
Y74892D01*
X938287D01*
X939287Y73893D01*
Y71893D01*
X938287Y70894D01*
X935288D01*
X941286Y74892D02*
X945285D01*
X943285D01*
Y68894D01*
X947284Y74892D02*
Y68894D01*
Y71893D01*
X951283D01*
Y74892D01*
Y68894D01*
X935288Y53894D02*
Y59892D01*
X938287D01*
X939287Y58893D01*
Y56893D01*
X938287Y55893D01*
X935288D01*
X941286Y59892D02*
X945285D01*
X943285D01*
Y53894D01*
X947284Y59892D02*
Y53894D01*
Y56893D01*
X951283D01*
Y59892D01*
Y53894D01*
X820322Y173894D02*
X822321D01*
X821321D01*
Y179892D01*
X820322Y178893D01*
X825320Y173894D02*
X827319D01*
X826320D01*
Y179892D01*
X825320Y178893D01*
X830319D02*
X831318Y179892D01*
X833317D01*
X834317Y178893D01*
Y177893D01*
X833317Y176893D01*
X834317Y175893D01*
Y174894D01*
X833317Y173894D01*
X831318D01*
X830319Y174894D01*
Y175893D01*
X831318Y176893D01*
X830319Y177893D01*
Y178893D01*
X831318Y176893D02*
X833317D01*
X836316Y173894D02*
Y174894D01*
X837316D01*
Y173894D01*
X836316D01*
X841315D02*
X843314D01*
X842315D01*
Y179892D01*
X841315Y178893D01*
X846313Y173894D02*
X848313D01*
X847313D01*
Y179892D01*
X846313Y178893D01*
X851312Y173894D02*
Y177893D01*
X852311D01*
X853311Y176893D01*
Y173894D01*
Y176893D01*
X854311Y177893D01*
X855310Y176893D01*
Y173894D01*
X857310D02*
X859309D01*
X858309D01*
Y177893D01*
X857310D01*
X862308Y173894D02*
X864307D01*
X863308D01*
Y179892D01*
X862308D01*
X875304Y173894D02*
X873305Y175893D01*
Y177893D01*
X875304Y179892D01*
X878303Y178893D02*
X879303Y179892D01*
X881302D01*
X882302Y178893D01*
Y177893D01*
X881302Y176893D01*
X880302D01*
X881302D01*
X882302Y175893D01*
Y174894D01*
X881302Y173894D01*
X879303D01*
X878303Y174894D01*
X884301Y173894D02*
Y174894D01*
X885301D01*
Y173894D01*
X884301D01*
X889299Y178893D02*
X890299Y179892D01*
X892298D01*
X893298Y178893D01*
Y174894D01*
X892298Y173894D01*
X890299D01*
X889299Y174894D01*
Y178893D01*
X895297D02*
X896297Y179892D01*
X898297D01*
X899296Y178893D01*
Y174894D01*
X898297Y173894D01*
X896297D01*
X895297Y174894D01*
Y178893D01*
X901295D02*
X902295Y179892D01*
X904294D01*
X905294Y178893D01*
Y174894D01*
X904294Y173894D01*
X902295D01*
X901295Y174894D01*
Y178893D01*
X907294Y173894D02*
Y177893D01*
X908293D01*
X909293Y176893D01*
Y173894D01*
Y176893D01*
X910293Y177893D01*
X911292Y176893D01*
Y173894D01*
X913292D02*
Y177893D01*
X914291D01*
X915291Y176893D01*
Y173894D01*
Y176893D01*
X916291Y177893D01*
X917290Y176893D01*
Y173894D01*
X919290D02*
X921289Y175893D01*
Y177893D01*
X919290Y179892D01*
X820322Y158894D02*
X822321D01*
X821321D01*
Y164892D01*
X820322Y163893D01*
X825320Y158894D02*
X827319D01*
X826320D01*
Y164892D01*
X825320Y163893D01*
X830319D02*
X831318Y164892D01*
X833317D01*
X834317Y163893D01*
Y162893D01*
X833317Y161893D01*
X834317Y160893D01*
Y159894D01*
X833317Y158894D01*
X831318D01*
X830319Y159894D01*
Y160893D01*
X831318Y161893D01*
X830319Y162893D01*
Y163893D01*
X831318Y161893D02*
X833317D01*
X836316Y158894D02*
Y159894D01*
X837316D01*
Y158894D01*
X836316D01*
X841315D02*
X843314D01*
X842315D01*
Y164892D01*
X841315Y163893D01*
X846313Y158894D02*
X848313D01*
X847313D01*
Y164892D01*
X846313Y163893D01*
X851312Y158894D02*
Y162893D01*
X852311D01*
X853311Y161893D01*
Y158894D01*
Y161893D01*
X854311Y162893D01*
X855310Y161893D01*
Y158894D01*
X857310D02*
X859309D01*
X858309D01*
Y162893D01*
X857310D01*
X862308Y158894D02*
X864307D01*
X863308D01*
Y164892D01*
X862308D01*
X875304Y158894D02*
X873305Y160893D01*
Y162893D01*
X875304Y164892D01*
X878303Y163893D02*
X879303Y164892D01*
X881302D01*
X882302Y163893D01*
Y162893D01*
X881302Y161893D01*
X880302D01*
X881302D01*
X882302Y160893D01*
Y159894D01*
X881302Y158894D01*
X879303D01*
X878303Y159894D01*
X884301Y158894D02*
Y159894D01*
X885301D01*
Y158894D01*
X884301D01*
X889299Y163893D02*
X890299Y164892D01*
X892298D01*
X893298Y163893D01*
Y159894D01*
X892298Y158894D01*
X890299D01*
X889299Y159894D01*
Y163893D01*
X895297D02*
X896297Y164892D01*
X898297D01*
X899296Y163893D01*
Y159894D01*
X898297Y158894D01*
X896297D01*
X895297Y159894D01*
Y163893D01*
X901295D02*
X902295Y164892D01*
X904294D01*
X905294Y163893D01*
Y159894D01*
X904294Y158894D01*
X902295D01*
X901295Y159894D01*
Y163893D01*
X907294Y158894D02*
Y162893D01*
X908293D01*
X909293Y161893D01*
Y158894D01*
Y161893D01*
X910293Y162893D01*
X911292Y161893D01*
Y158894D01*
X913292D02*
Y162893D01*
X914291D01*
X915291Y161893D01*
Y158894D01*
Y161893D01*
X916291Y162893D01*
X917290Y161893D01*
Y158894D01*
X919290D02*
X921289Y160893D01*
Y162893D01*
X919290Y164892D01*
X820322Y144894D02*
X821321Y143894D01*
X823321D01*
X824320Y144894D01*
Y148893D01*
X823321Y149892D01*
X821321D01*
X820322Y148893D01*
Y147893D01*
X821321Y146893D01*
X824320D01*
X826320Y148893D02*
X827320Y149892D01*
X829319D01*
X830319Y148893D01*
Y147893D01*
X829319Y146893D01*
X830319Y145894D01*
Y144894D01*
X829319Y143894D01*
X827320D01*
X826320Y144894D01*
Y145894D01*
X827320Y146893D01*
X826320Y147893D01*
Y148893D01*
X827320Y146893D02*
X829319D01*
X832318Y143894D02*
Y144894D01*
X833317D01*
Y143894D01*
X832318D01*
X840315D02*
Y149892D01*
X837316Y146893D01*
X841315D01*
X843314Y148893D02*
X844314Y149892D01*
X846313D01*
X847313Y148893D01*
Y147893D01*
X846313Y146893D01*
X845314D01*
X846313D01*
X847313Y145894D01*
Y144894D01*
X846313Y143894D01*
X844314D01*
X843314Y144894D01*
X849312Y143894D02*
Y147893D01*
X850312D01*
X851312Y146893D01*
Y143894D01*
Y146893D01*
X852311Y147893D01*
X853311Y146893D01*
Y143894D01*
X855310D02*
X857310D01*
X856310D01*
Y147893D01*
X855310D01*
X860309Y143894D02*
X862308D01*
X861308D01*
Y149892D01*
X860309D01*
X873305Y143894D02*
X871305Y145894D01*
Y147893D01*
X873305Y149892D01*
X880302Y143894D02*
X876304D01*
X880302Y147893D01*
Y148893D01*
X879303Y149892D01*
X877303D01*
X876304Y148893D01*
X882302Y143894D02*
Y144894D01*
X883301D01*
Y143894D01*
X882302D01*
X891299Y149892D02*
X887300D01*
Y146893D01*
X889299Y147893D01*
X890299D01*
X891299Y146893D01*
Y144894D01*
X890299Y143894D01*
X888300D01*
X887300Y144894D01*
X893298Y148893D02*
X894298Y149892D01*
X896297D01*
X897297Y148893D01*
Y144894D01*
X896297Y143894D01*
X894298D01*
X893298Y144894D01*
Y148893D01*
X899296D02*
X900296Y149892D01*
X902295D01*
X903295Y148893D01*
Y144894D01*
X902295Y143894D01*
X900296D01*
X899296Y144894D01*
Y148893D01*
X905294Y143894D02*
Y147893D01*
X906294D01*
X907294Y146893D01*
Y143894D01*
Y146893D01*
X908293Y147893D01*
X909293Y146893D01*
Y143894D01*
X911292D02*
Y147893D01*
X912292D01*
X913292Y146893D01*
Y143894D01*
Y146893D01*
X914291Y147893D01*
X915291Y146893D01*
Y143894D01*
X917290D02*
X919290Y145894D01*
Y147893D01*
X917290Y149892D01*
X820322Y128894D02*
X822321D01*
X821321D01*
Y134892D01*
X820322Y133893D01*
X825320D02*
X826320Y134892D01*
X828319D01*
X829319Y133893D01*
Y132893D01*
X828319Y131893D01*
X827319D01*
X828319D01*
X829319Y130894D01*
Y129894D01*
X828319Y128894D01*
X826320D01*
X825320Y129894D01*
X831318Y134892D02*
X835317D01*
Y133893D01*
X831318Y129894D01*
Y128894D01*
X837316D02*
Y129894D01*
X838316D01*
Y128894D01*
X837316D01*
X842315Y134892D02*
X846313D01*
Y133893D01*
X842315Y129894D01*
Y128894D01*
X848313Y129894D02*
X849312Y128894D01*
X851312D01*
X852311Y129894D01*
Y133893D01*
X851312Y134892D01*
X849312D01*
X848313Y133893D01*
Y132893D01*
X849312Y131893D01*
X852311D01*
X854311Y128894D02*
Y132893D01*
X855310D01*
X856310Y131893D01*
Y128894D01*
Y131893D01*
X857310Y132893D01*
X858309Y131893D01*
Y128894D01*
X860309D02*
X862308D01*
X861308D01*
Y132893D01*
X860309D01*
X865307Y128894D02*
X867307D01*
X866307D01*
Y134892D01*
X865307D01*
X878303Y128894D02*
X876304Y130894D01*
Y132893D01*
X878303Y134892D01*
X881302Y133893D02*
X882302Y134892D01*
X884301D01*
X885301Y133893D01*
Y132893D01*
X884301Y131893D01*
X883301D01*
X884301D01*
X885301Y130894D01*
Y129894D01*
X884301Y128894D01*
X882302D01*
X881302Y129894D01*
X887300Y128894D02*
Y129894D01*
X888300D01*
Y128894D01*
X887300D01*
X896297Y134892D02*
X892298D01*
Y131893D01*
X894298Y132893D01*
X895298D01*
X896297Y131893D01*
Y129894D01*
X895298Y128894D01*
X893298D01*
X892298Y129894D01*
X898297Y133893D02*
X899296Y134892D01*
X901295D01*
X902295Y133893D01*
Y129894D01*
X901295Y128894D01*
X899296D01*
X898297Y129894D01*
Y133893D01*
X904294D02*
X905294Y134892D01*
X907294D01*
X908293Y133893D01*
Y129894D01*
X907294Y128894D01*
X905294D01*
X904294Y129894D01*
Y133893D01*
X910293Y128894D02*
Y132893D01*
X911292D01*
X912292Y131893D01*
Y128894D01*
Y131893D01*
X913292Y132893D01*
X914291Y131893D01*
Y128894D01*
X916291D02*
Y132893D01*
X917290D01*
X918290Y131893D01*
Y128894D01*
Y131893D01*
X919290Y132893D01*
X920289Y131893D01*
Y128894D01*
X922289D02*
X924288Y130894D01*
Y132893D01*
X922289Y134892D01*
X820322Y118893D02*
X821321Y119892D01*
X823321D01*
X824320Y118893D01*
Y117893D01*
X823321Y116893D01*
X822321D01*
X823321D01*
X824320Y115893D01*
Y114894D01*
X823321Y113894D01*
X821321D01*
X820322Y114894D01*
X826320D02*
X827320Y113894D01*
X829319D01*
X830319Y114894D01*
Y118893D01*
X829319Y119892D01*
X827320D01*
X826320Y118893D01*
Y117893D01*
X827320Y116893D01*
X830319D01*
X832318Y113894D02*
Y114894D01*
X833317D01*
Y113894D01*
X832318D01*
X837316Y118893D02*
X838316Y119892D01*
X840315D01*
X841315Y118893D01*
Y117893D01*
X840315Y116893D01*
X839316D01*
X840315D01*
X841315Y115893D01*
Y114894D01*
X840315Y113894D01*
X838316D01*
X837316Y114894D01*
X843314Y119892D02*
X847313D01*
Y118893D01*
X843314Y114894D01*
Y113894D01*
X849312D02*
Y117893D01*
X850312D01*
X851312Y116893D01*
Y113894D01*
Y116893D01*
X852311Y117893D01*
X853311Y116893D01*
Y113894D01*
X855310D02*
X857310D01*
X856310D01*
Y117893D01*
X855310D01*
X860309Y113894D02*
X862308D01*
X861308D01*
Y119892D01*
X860309D01*
X873305Y113894D02*
X871305Y115893D01*
Y117893D01*
X873305Y119892D01*
X876304Y113894D02*
X878303D01*
X877303D01*
Y119892D01*
X876304Y118893D01*
X881302Y113894D02*
Y114894D01*
X882302D01*
Y113894D01*
X881302D01*
X886300Y118893D02*
X887300Y119892D01*
X889299D01*
X890299Y118893D01*
Y114894D01*
X889299Y113894D01*
X887300D01*
X886300Y114894D01*
Y118893D01*
X892298D02*
X893298Y119892D01*
X895298D01*
X896297Y118893D01*
Y114894D01*
X895298Y113894D01*
X893298D01*
X892298Y114894D01*
Y118893D01*
X898297D02*
X899296Y119892D01*
X901295D01*
X902295Y118893D01*
Y114894D01*
X901295Y113894D01*
X899296D01*
X898297Y114894D01*
Y118893D01*
X904294Y113894D02*
Y117893D01*
X905294D01*
X906294Y116893D01*
Y113894D01*
Y116893D01*
X907294Y117893D01*
X908293Y116893D01*
Y113894D01*
X910293D02*
Y117893D01*
X911292D01*
X912292Y116893D01*
Y113894D01*
Y116893D01*
X913292Y117893D01*
X914291Y116893D01*
Y113894D01*
X916291D02*
X918290Y115893D01*
Y117893D01*
X916291Y119892D01*
X823321Y98894D02*
Y104892D01*
X820322Y101893D01*
X824320D01*
X826320Y103893D02*
X827320Y104892D01*
X829319D01*
X830319Y103893D01*
Y102893D01*
X829319Y101893D01*
X828319D01*
X829319D01*
X830319Y100893D01*
Y99894D01*
X829319Y98894D01*
X827320D01*
X826320Y99894D01*
X832318Y98894D02*
Y99894D01*
X833317D01*
Y98894D01*
X832318D01*
X837316Y103893D02*
X838316Y104892D01*
X840315D01*
X841315Y103893D01*
Y102893D01*
X840315Y101893D01*
X839316D01*
X840315D01*
X841315Y100893D01*
Y99894D01*
X840315Y98894D01*
X838316D01*
X837316Y99894D01*
X843314Y98894D02*
X845314D01*
X844314D01*
Y104892D01*
X843314Y103893D01*
X848313Y98894D02*
Y102893D01*
X849312D01*
X850312Y101893D01*
Y98894D01*
Y101893D01*
X851312Y102893D01*
X852311Y101893D01*
Y98894D01*
X854311D02*
X856310D01*
X855310D01*
Y102893D01*
X854311D01*
X859309Y98894D02*
X861308D01*
X860309D01*
Y104892D01*
X859309D01*
X872305Y98894D02*
X870306Y100893D01*
Y102893D01*
X872305Y104892D01*
X875304Y98894D02*
X877303D01*
X876304D01*
Y104892D01*
X875304Y103893D01*
X880302Y98894D02*
Y99894D01*
X881302D01*
Y98894D01*
X880302D01*
X885301D02*
X887300D01*
X886300D01*
Y104892D01*
X885301Y103893D01*
X890299D02*
X891299Y104892D01*
X893298D01*
X894298Y103893D01*
Y99894D01*
X893298Y98894D01*
X891299D01*
X890299Y99894D01*
Y103893D01*
X896297D02*
X897297Y104892D01*
X899296D01*
X900296Y103893D01*
Y99894D01*
X899296Y98894D01*
X897297D01*
X896297Y99894D01*
Y103893D01*
X902295Y98894D02*
Y102893D01*
X903295D01*
X904294Y101893D01*
Y98894D01*
Y101893D01*
X905294Y102893D01*
X906294Y101893D01*
Y98894D01*
X908293D02*
Y102893D01*
X909293D01*
X910293Y101893D01*
Y98894D01*
Y101893D01*
X911292Y102893D01*
X912292Y101893D01*
Y98894D01*
X914291D02*
X916291Y100893D01*
Y102893D01*
X914291Y104892D01*
X820322Y88893D02*
X821321Y89892D01*
X823321D01*
X824320Y88893D01*
Y87893D01*
X823321Y86893D01*
X822321D01*
X823321D01*
X824320Y85893D01*
Y84894D01*
X823321Y83894D01*
X821321D01*
X820322Y84894D01*
X826320D02*
X827320Y83894D01*
X829319D01*
X830319Y84894D01*
Y88893D01*
X829319Y89892D01*
X827320D01*
X826320Y88893D01*
Y87893D01*
X827320Y86893D01*
X830319D01*
X832318Y83894D02*
Y84894D01*
X833317D01*
Y83894D01*
X832318D01*
X837316Y88893D02*
X838316Y89892D01*
X840315D01*
X841315Y88893D01*
Y87893D01*
X840315Y86893D01*
X839316D01*
X840315D01*
X841315Y85893D01*
Y84894D01*
X840315Y83894D01*
X838316D01*
X837316Y84894D01*
X843314Y89892D02*
X847313D01*
Y88893D01*
X843314Y84894D01*
Y83894D01*
X849312D02*
Y87893D01*
X850312D01*
X851312Y86893D01*
Y83894D01*
Y86893D01*
X852311Y87893D01*
X853311Y86893D01*
Y83894D01*
X855310D02*
X857310D01*
X856310D01*
Y87893D01*
X855310D01*
X860309Y83894D02*
X862308D01*
X861308D01*
Y89892D01*
X860309D01*
X873305Y83894D02*
X871305Y85893D01*
Y87893D01*
X873305Y89892D01*
X876304Y83894D02*
X878303D01*
X877303D01*
Y89892D01*
X876304Y88893D01*
X881302Y83894D02*
Y84894D01*
X882302D01*
Y83894D01*
X881302D01*
X886300Y88893D02*
X887300Y89892D01*
X889299D01*
X890299Y88893D01*
Y84894D01*
X889299Y83894D01*
X887300D01*
X886300Y84894D01*
Y88893D01*
X892298D02*
X893298Y89892D01*
X895298D01*
X896297Y88893D01*
Y84894D01*
X895298Y83894D01*
X893298D01*
X892298Y84894D01*
Y88893D01*
X898297D02*
X899296Y89892D01*
X901295D01*
X902295Y88893D01*
Y84894D01*
X901295Y83894D01*
X899296D01*
X898297Y84894D01*
Y88893D01*
X904294Y83894D02*
Y87893D01*
X905294D01*
X906294Y86893D01*
Y83894D01*
Y86893D01*
X907294Y87893D01*
X908293Y86893D01*
Y83894D01*
X910293D02*
Y87893D01*
X911292D01*
X912292Y86893D01*
Y83894D01*
Y86893D01*
X913292Y87893D01*
X914291Y86893D01*
Y83894D01*
X916291D02*
X918290Y85893D01*
Y87893D01*
X916291Y89892D01*
X820322Y68894D02*
X822321D01*
X821321D01*
Y74892D01*
X820322Y73893D01*
X825320Y69894D02*
X826320Y68894D01*
X828319D01*
X829319Y69894D01*
Y73893D01*
X828319Y74892D01*
X826320D01*
X825320Y73893D01*
Y72893D01*
X826320Y71893D01*
X829319D01*
X831318Y68894D02*
Y69894D01*
X832318D01*
Y68894D01*
X831318D01*
X840315Y74892D02*
X838316Y73893D01*
X836316Y71893D01*
Y69894D01*
X837316Y68894D01*
X839316D01*
X840315Y69894D01*
Y70894D01*
X839316Y71893D01*
X836316D01*
X842315Y69894D02*
X843314Y68894D01*
X845314D01*
X846313Y69894D01*
Y73893D01*
X845314Y74892D01*
X843314D01*
X842315Y73893D01*
Y72893D01*
X843314Y71893D01*
X846313D01*
X848313Y68894D02*
Y72893D01*
X849312D01*
X850312Y71893D01*
Y68894D01*
Y71893D01*
X851312Y72893D01*
X852311Y71893D01*
Y68894D01*
X854311D02*
X856310D01*
X855310D01*
Y72893D01*
X854311D01*
X859309Y68894D02*
X861308D01*
X860309D01*
Y74892D01*
X859309D01*
X872305Y68894D02*
X870306Y70894D01*
Y72893D01*
X872305Y74892D01*
X875304Y73893D02*
X876304Y74892D01*
X878303D01*
X879303Y73893D01*
Y69894D01*
X878303Y68894D01*
X876304D01*
X875304Y69894D01*
Y73893D01*
X881302Y68894D02*
Y69894D01*
X882302D01*
Y68894D01*
X881302D01*
X890299Y74892D02*
X886300D01*
Y71893D01*
X888300Y72893D01*
X889299D01*
X890299Y71893D01*
Y69894D01*
X889299Y68894D01*
X887300D01*
X886300Y69894D01*
X892298Y73893D02*
X893298Y74892D01*
X895298D01*
X896297Y73893D01*
Y69894D01*
X895298Y68894D01*
X893298D01*
X892298Y69894D01*
Y73893D01*
X898297D02*
X899296Y74892D01*
X901295D01*
X902295Y73893D01*
Y69894D01*
X901295Y68894D01*
X899296D01*
X898297Y69894D01*
Y73893D01*
X904294Y68894D02*
Y72893D01*
X905294D01*
X906294Y71893D01*
Y68894D01*
Y71893D01*
X907294Y72893D01*
X908293Y71893D01*
Y68894D01*
X910293D02*
Y72893D01*
X911292D01*
X912292Y71893D01*
Y68894D01*
Y71893D01*
X913292Y72893D01*
X914291Y71893D01*
Y68894D01*
X916291D02*
X918290Y70894D01*
Y72893D01*
X916291Y74892D01*
X824320Y53894D02*
X820322D01*
X824320Y57893D01*
Y58893D01*
X823321Y59892D01*
X821321D01*
X820322Y58893D01*
X826320Y59892D02*
X830319D01*
Y58893D01*
X826320Y54894D01*
Y53894D01*
X832318D02*
Y54894D01*
X833317D01*
Y53894D01*
X832318D01*
X841315Y59892D02*
X837316D01*
Y56893D01*
X839316Y57893D01*
X840315D01*
X841315Y56893D01*
Y54894D01*
X840315Y53894D01*
X838316D01*
X837316Y54894D01*
X847313Y59892D02*
X845314Y58893D01*
X843314Y56893D01*
Y54894D01*
X844314Y53894D01*
X846313D01*
X847313Y54894D01*
Y55893D01*
X846313Y56893D01*
X843314D01*
X849312Y53894D02*
Y57893D01*
X850312D01*
X851312Y56893D01*
Y53894D01*
Y56893D01*
X852311Y57893D01*
X853311Y56893D01*
Y53894D01*
X855310D02*
X857310D01*
X856310D01*
Y57893D01*
X855310D01*
X860309Y53894D02*
X862308D01*
X861308D01*
Y59892D01*
X860309D01*
X873305Y53894D02*
X871305Y55893D01*
Y57893D01*
X873305Y59892D01*
X876304Y58893D02*
X877303Y59892D01*
X879303D01*
X880302Y58893D01*
Y54894D01*
X879303Y53894D01*
X877303D01*
X876304Y54894D01*
Y58893D01*
X882302Y53894D02*
Y54894D01*
X883301D01*
Y53894D01*
X882302D01*
X887300Y59892D02*
X891299D01*
Y58893D01*
X887300Y54894D01*
Y53894D01*
X893298Y58893D02*
X894298Y59892D01*
X896297D01*
X897297Y58893D01*
Y54894D01*
X896297Y53894D01*
X894298D01*
X893298Y54894D01*
Y58893D01*
X899296D02*
X900296Y59892D01*
X902295D01*
X903295Y58893D01*
Y54894D01*
X902295Y53894D01*
X900296D01*
X899296Y54894D01*
Y58893D01*
X905294Y53894D02*
Y57893D01*
X906294D01*
X907294Y56893D01*
Y53894D01*
Y56893D01*
X908293Y57893D01*
X909293Y56893D01*
Y53894D01*
X911292D02*
Y57893D01*
X912292D01*
X913292Y56893D01*
Y53894D01*
Y56893D01*
X914291Y57893D01*
X915291Y56893D01*
Y53894D01*
X917290D02*
X919290Y55893D01*
Y57893D01*
X917290Y59892D01*
X764336Y38894D02*
X760338D01*
X764336Y42893D01*
Y43892D01*
X763337Y44892D01*
X761337D01*
X760338Y43892D01*
X766336Y39894D02*
X767335Y38894D01*
X769335D01*
X770334Y39894D01*
Y43892D01*
X769335Y44892D01*
X767335D01*
X766336Y43892D01*
Y42893D01*
X767335Y41893D01*
X770334D01*
X772334Y43892D02*
X773333Y44892D01*
X775333D01*
X776332Y43892D01*
Y39894D01*
X775333Y38894D01*
X773333D01*
X772334Y39894D01*
Y43892D01*
X784330Y44892D02*
X788329D01*
X786329D01*
Y38894D01*
X791327D02*
X793327D01*
X794327Y39894D01*
Y41893D01*
X793327Y42893D01*
X791327D01*
X790328Y41893D01*
Y39894D01*
X791327Y38894D01*
X797326Y43892D02*
Y42893D01*
X796326D01*
X798325D01*
X797326D01*
Y39894D01*
X798325Y38894D01*
X802324Y42893D02*
X804323D01*
X805323Y41893D01*
Y38894D01*
X802324D01*
X801324Y39894D01*
X802324Y40894D01*
X805323D01*
X807322Y38894D02*
X809322D01*
X808322D01*
Y44892D01*
X807322D01*
X760338Y173894D02*
X762337D01*
X761337D01*
Y179892D01*
X760338Y178893D01*
Y158894D02*
X762337D01*
X761337D01*
Y164892D01*
X760338Y163893D01*
X764336Y143894D02*
X760338D01*
X764336Y147893D01*
Y148893D01*
X763337Y149892D01*
X761337D01*
X760338Y148893D01*
X763337Y128894D02*
Y134892D01*
X760338Y131893D01*
X764336D01*
X760338Y119892D02*
X764336D01*
Y118893D01*
X760338Y114894D01*
Y113894D01*
Y98894D02*
X762337D01*
X761337D01*
Y104892D01*
X760338Y103893D01*
X769335Y104892D02*
X767335Y103893D01*
X765336Y101893D01*
Y99894D01*
X766336Y98894D01*
X768335D01*
X769335Y99894D01*
Y100893D01*
X768335Y101893D01*
X765336D01*
X760338Y88893D02*
X761337Y89892D01*
X763337D01*
X764336Y88893D01*
Y87893D01*
X763337Y86893D01*
X762337D01*
X763337D01*
X764336Y85893D01*
Y84894D01*
X763337Y83894D01*
X761337D01*
X760338Y84894D01*
X766336Y83894D02*
X768335D01*
X767335D01*
Y89892D01*
X766336Y88893D01*
X760338Y68894D02*
X762337D01*
X761337D01*
Y74892D01*
X760338Y73893D01*
X765336D02*
X766336Y74892D01*
X768335D01*
X769335Y73893D01*
Y69894D01*
X768335Y68894D01*
X766336D01*
X765336Y69894D01*
Y73893D01*
X775333Y74892D02*
X773333Y73893D01*
X771334Y71893D01*
Y69894D01*
X772334Y68894D01*
X774333D01*
X775333Y69894D01*
Y70894D01*
X774333Y71893D01*
X771334D01*
X760338Y53894D02*
X762337D01*
X761337D01*
Y59892D01*
X760338Y58893D01*
X769335Y53894D02*
X765336D01*
X769335Y57893D01*
Y58893D01*
X768335Y59892D01*
X766336D01*
X765336Y58893D01*
X775333Y53894D02*
X771334D01*
X775333Y57893D01*
Y58893D01*
X774333Y59892D01*
X772334D01*
X771334Y58893D01*
X888297Y16399D02*
X892296D01*
X888297Y18398D02*
X892296D01*
X900293Y14399D02*
Y20397D01*
X903292D01*
X904292Y19398D01*
Y17398D01*
X903292Y16399D01*
X900293D01*
X902292D02*
X904292Y14399D01*
X907291D02*
X909290D01*
X910290Y15399D01*
Y17398D01*
X909290Y18398D01*
X907291D01*
X906291Y17398D01*
Y15399D01*
X907291Y14399D01*
X912289Y18398D02*
Y15399D01*
X913289Y14399D01*
X916288D01*
Y18398D01*
X919287Y19398D02*
Y18398D01*
X918287D01*
X920287D01*
X919287D01*
Y15399D01*
X920287Y14399D01*
X926285D02*
X924285D01*
X923286Y15399D01*
Y17398D01*
X924285Y18398D01*
X926285D01*
X927284Y17398D01*
Y16399D01*
X923286D01*
X933282Y20397D02*
Y14399D01*
X930283D01*
X929284Y15399D01*
Y17398D01*
X930283Y18398D01*
X933282D01*
X941280Y14399D02*
Y20397D01*
X944279D01*
X945278Y19398D01*
Y17398D01*
X944279Y16399D01*
X941280D01*
X948277Y18398D02*
X950277D01*
X951277Y17398D01*
Y14399D01*
X948277D01*
X947278Y15399D01*
X948277Y16399D01*
X951277D01*
X954276Y19398D02*
Y18398D01*
X953276D01*
X955275D01*
X954276D01*
Y15399D01*
X955275Y14399D01*
X958274Y20397D02*
Y14399D01*
Y17398D01*
X959274Y18398D01*
X961273D01*
X962273Y17398D01*
Y14399D01*
X970270Y20397D02*
Y14399D01*
X974269D01*
X979268D02*
X977268D01*
X976268Y15399D01*
Y17398D01*
X977268Y18398D01*
X979268D01*
X980267Y17398D01*
Y16399D01*
X976268D01*
X982267Y14399D02*
Y18398D01*
X985266D01*
X986265Y17398D01*
Y14399D01*
X990264Y12400D02*
X991264D01*
X992263Y13400D01*
Y18398D01*
X989264D01*
X988265Y17398D01*
Y15399D01*
X989264Y14399D01*
X992263D01*
X995262Y19398D02*
Y18398D01*
X994263D01*
X996262D01*
X995262D01*
Y15399D01*
X996262Y14399D01*
X999261Y20397D02*
Y14399D01*
Y17398D01*
X1000261Y18398D01*
X1002260D01*
X1003260Y17398D01*
Y14399D01*
X1011257Y17398D02*
X1015256D01*
X1013256Y19398D02*
Y15399D01*
X1023253Y20397D02*
X1027252D01*
X1025253D01*
Y14399D01*
X1030251D02*
X1032250D01*
X1033250Y15399D01*
Y17398D01*
X1032250Y18398D01*
X1030251D01*
X1029251Y17398D01*
Y15399D01*
X1030251Y14399D01*
X1036249D02*
X1038248D01*
X1039248Y15399D01*
Y17398D01*
X1038248Y18398D01*
X1036249D01*
X1035249Y17398D01*
Y15399D01*
X1036249Y14399D01*
X1041247D02*
X1043247D01*
X1042247D01*
Y20397D01*
X1041247D01*
X1056243Y19398D02*
X1055243Y20397D01*
X1053244D01*
X1052244Y19398D01*
Y18398D01*
X1053244Y17398D01*
X1055243D01*
X1056243Y16399D01*
Y15399D01*
X1055243Y14399D01*
X1053244D01*
X1052244Y15399D01*
X1058242Y14399D02*
X1060241D01*
X1059242D01*
Y18398D01*
X1058242D01*
X1063240D02*
X1067239D01*
X1063240Y14399D01*
X1067239D01*
X1072237D02*
X1070238D01*
X1069238Y15399D01*
Y17398D01*
X1070238Y18398D01*
X1072237D01*
X1073237Y17398D01*
Y16399D01*
X1069238D01*
X1081234D02*
X1085233D01*
X1081234Y18398D02*
X1085233D01*
X1097229Y19398D02*
X1096230Y20397D01*
X1094230D01*
X1093231Y19398D01*
Y18398D01*
X1094230Y17398D01*
X1096230D01*
X1097229Y16399D01*
Y15399D01*
X1096230Y14399D01*
X1094230D01*
X1093231Y15399D01*
X1099229Y14399D02*
X1101228D01*
X1100228D01*
Y20397D01*
X1099229D01*
X1105227Y14399D02*
X1107226D01*
X1108226Y15399D01*
Y17398D01*
X1107226Y18398D01*
X1105227D01*
X1104227Y17398D01*
Y15399D01*
X1105227Y14399D01*
X1111225Y19398D02*
Y18398D01*
X1110225D01*
X1112224D01*
X1111225D01*
Y15399D01*
X1112224Y14399D01*
X1121222D02*
X1123221D01*
X1122221D01*
Y20397D01*
X1121222D01*
X1129219Y14399D02*
X1127220D01*
X1126220Y15399D01*
Y17398D01*
X1127220Y18398D01*
X1129219D01*
X1130219Y17398D01*
Y16399D01*
X1126220D01*
X1132218Y14399D02*
Y18398D01*
X1135217D01*
X1136217Y17398D01*
Y14399D01*
X1140215Y12400D02*
X1141215D01*
X1142215Y13400D01*
Y18398D01*
X1139216D01*
X1138216Y17398D01*
Y15399D01*
X1139216Y14399D01*
X1142215D01*
X1145214Y19398D02*
Y18398D01*
X1144214D01*
X1146214D01*
X1145214D01*
Y15399D01*
X1146214Y14399D01*
X1149212Y20397D02*
Y14399D01*
Y17398D01*
X1150212Y18398D01*
X1152212D01*
X1153211Y17398D01*
Y14399D01*
X1162208Y18398D02*
X1164208D01*
X1165207Y17398D01*
Y14399D01*
X1162208D01*
X1161209Y15399D01*
X1162208Y16399D01*
X1165207D01*
X1167207Y14399D02*
X1170206D01*
X1171205Y15399D01*
X1170206Y16399D01*
X1168206D01*
X1167207Y17398D01*
X1168206Y18398D01*
X1171205D01*
X1183202Y20397D02*
Y14399D01*
X1180202D01*
X1179203Y15399D01*
Y17398D01*
X1180202Y18398D01*
X1183202D01*
X1188200Y14399D02*
X1186201D01*
X1185201Y15399D01*
Y17398D01*
X1186201Y18398D01*
X1188200D01*
X1189200Y17398D01*
Y16399D01*
X1185201D01*
X1192199Y14399D02*
Y19398D01*
Y17398D01*
X1191199D01*
X1193198D01*
X1192199D01*
Y19398D01*
X1193198Y20397D01*
X1196197Y14399D02*
X1198197D01*
X1197197D01*
Y18398D01*
X1196197D01*
X1201196Y14399D02*
Y18398D01*
X1204195D01*
X1205194Y17398D01*
Y14399D01*
X1210193D02*
X1208193D01*
X1207194Y15399D01*
Y17398D01*
X1208193Y18398D01*
X1210193D01*
X1211193Y17398D01*
Y16399D01*
X1207194D01*
X1217190Y20397D02*
Y14399D01*
X1214192D01*
X1213192Y15399D01*
Y17398D01*
X1214192Y18398D01*
X1217190D01*
X1225188Y14399D02*
X1227187D01*
X1226188D01*
Y18398D01*
X1225188D01*
X1230186Y14399D02*
Y18398D01*
X1233185D01*
X1234185Y17398D01*
Y14399D01*
X1243182Y19398D02*
Y18398D01*
X1242183D01*
X1244182D01*
X1243182D01*
Y15399D01*
X1244182Y14399D01*
X1247181Y20397D02*
Y14399D01*
Y17398D01*
X1248180Y18398D01*
X1250180D01*
X1251180Y17398D01*
Y14399D01*
X1256178D02*
X1254179D01*
X1253179Y15399D01*
Y17398D01*
X1254179Y18398D01*
X1256178D01*
X1257178Y17398D01*
Y16399D01*
X1253179D01*
X1265175Y14399D02*
Y20397D01*
X1268174D01*
X1269174Y19398D01*
Y17398D01*
X1268174Y16399D01*
X1265175D01*
X1275172Y19398D02*
X1274172Y20397D01*
X1272173D01*
X1271173Y19398D01*
Y15399D01*
X1272173Y14399D01*
X1274172D01*
X1275172Y15399D01*
X1277171Y20397D02*
Y14399D01*
X1280170D01*
X1281170Y15399D01*
Y16399D01*
X1280170Y17398D01*
X1277171D01*
X1280170D01*
X1281170Y18398D01*
Y19398D01*
X1280170Y20397D01*
X1277171D01*
X1289167Y14399D02*
X1291167D01*
X1290167D01*
Y20397D01*
X1289167D01*
X1295165Y18398D02*
X1297165D01*
X1298164Y17398D01*
Y14399D01*
X1295165D01*
X1294166Y15399D01*
X1295165Y16399D01*
X1298164D01*
X1300164Y18398D02*
Y15399D01*
X1301163Y14399D01*
X1304162D01*
Y13400D01*
X1303163Y12400D01*
X1302163D01*
X1304162Y14399D02*
Y18398D01*
X1307161Y14399D02*
X1309161D01*
X1310161Y15399D01*
Y17398D01*
X1309161Y18398D01*
X1307161D01*
X1306162Y17398D01*
Y15399D01*
X1307161Y14399D01*
X1312160Y18398D02*
Y15399D01*
X1313159Y14399D01*
X1316158D01*
Y18398D01*
X1319158Y19398D02*
Y18398D01*
X1318158D01*
X1320157D01*
X1319158D01*
Y15399D01*
X1320157Y14399D01*
X923286Y26396D02*
X927284D01*
X923286Y28396D02*
X927284D01*
X939281Y29395D02*
X938281Y30395D01*
X936281D01*
X935282Y29395D01*
Y25396D01*
X936281Y24397D01*
X938281D01*
X939281Y25396D01*
X942280Y28396D02*
X944279D01*
X945278Y27396D01*
Y24397D01*
X942280D01*
X941280Y25396D01*
X942280Y26396D01*
X945278D01*
X947278Y24397D02*
X949277D01*
X948277D01*
Y30395D01*
X947278D01*
X956275Y28396D02*
X953276D01*
X952276Y27396D01*
Y25396D01*
X953276Y24397D01*
X956275D01*
X958274Y28396D02*
Y25396D01*
X959274Y24397D01*
X962273D01*
Y28396D01*
X964272Y24397D02*
X966272D01*
X965272D01*
Y30395D01*
X964272D01*
X970270Y28396D02*
X972270D01*
X973269Y27396D01*
Y24397D01*
X970270D01*
X969271Y25396D01*
X970270Y26396D01*
X973269D01*
X976268Y29395D02*
Y28396D01*
X975269D01*
X977268D01*
X976268D01*
Y25396D01*
X977268Y24397D01*
X983266D02*
X981267D01*
X980267Y25396D01*
Y27396D01*
X981267Y28396D01*
X983266D01*
X984266Y27396D01*
Y26396D01*
X980267D01*
X990264Y30395D02*
Y24397D01*
X987265D01*
X986265Y25396D01*
Y27396D01*
X987265Y28396D01*
X990264D01*
X999261Y24397D02*
Y29395D01*
Y27396D01*
X998261D01*
X1000261D01*
X999261D01*
Y29395D01*
X1000261Y30395D01*
X1003260Y28396D02*
Y24397D01*
Y26396D01*
X1004259Y27396D01*
X1005259Y28396D01*
X1006259D01*
X1010258Y24397D02*
X1012257D01*
X1013256Y25396D01*
Y27396D01*
X1012257Y28396D01*
X1010258D01*
X1009258Y27396D01*
Y25396D01*
X1010258Y24397D01*
X1015256D02*
Y28396D01*
X1016256D01*
X1017255Y27396D01*
Y24397D01*
Y27396D01*
X1018255Y28396D01*
X1019255Y27396D01*
Y24397D01*
X1028252Y29395D02*
Y28396D01*
X1027252D01*
X1029251D01*
X1028252D01*
Y25396D01*
X1029251Y24397D01*
X1033250D02*
X1035249D01*
X1036249Y25396D01*
Y27396D01*
X1035249Y28396D01*
X1033250D01*
X1032250Y27396D01*
Y25396D01*
X1033250Y24397D01*
X1039248D02*
X1041247D01*
X1042247Y25396D01*
Y27396D01*
X1041247Y28396D01*
X1039248D01*
X1038248Y27396D01*
Y25396D01*
X1039248Y24397D01*
X1044246D02*
X1046246D01*
X1045246D01*
Y30395D01*
X1044246D01*
X1055243Y24397D02*
X1058242D01*
X1059242Y25396D01*
X1058242Y26396D01*
X1056243D01*
X1055243Y27396D01*
X1056243Y28396D01*
X1059242D01*
X1062241Y29395D02*
Y28396D01*
X1061241D01*
X1063240D01*
X1062241D01*
Y25396D01*
X1063240Y24397D01*
X1067239Y28396D02*
X1069238D01*
X1070238Y27396D01*
Y24397D01*
X1067239D01*
X1066239Y25396D01*
X1067239Y26396D01*
X1070238D01*
X1072237Y28396D02*
Y24397D01*
Y26396D01*
X1073237Y27396D01*
X1074237Y28396D01*
X1075237D01*
X1079235Y29395D02*
Y28396D01*
X1078236D01*
X1080235D01*
X1079235D01*
Y25396D01*
X1080235Y24397D01*
X1093231Y28396D02*
X1090232D01*
X1089232Y27396D01*
Y25396D01*
X1090232Y24397D01*
X1093231D01*
X1098229D02*
X1096230D01*
X1095230Y25396D01*
Y27396D01*
X1096230Y28396D01*
X1098229D01*
X1099229Y27396D01*
Y26396D01*
X1095230D01*
X1101228Y24397D02*
Y28396D01*
X1104227D01*
X1105227Y27396D01*
Y24397D01*
X1108226Y29395D02*
Y28396D01*
X1107226D01*
X1109225D01*
X1108226D01*
Y25396D01*
X1109225Y24397D01*
X1112224Y28396D02*
Y24397D01*
Y26396D01*
X1113224Y27396D01*
X1114224Y28396D01*
X1115224D01*
X1121222Y24397D02*
X1119222D01*
X1118223Y25396D01*
Y27396D01*
X1119222Y28396D01*
X1121222D01*
X1122221Y27396D01*
Y26396D01*
X1118223D01*
X1130219Y22397D02*
Y28396D01*
X1133218D01*
X1134217Y27396D01*
Y25396D01*
X1133218Y24397D01*
X1130219D01*
X1137216D02*
X1139216D01*
X1140215Y25396D01*
Y27396D01*
X1139216Y28396D01*
X1137216D01*
X1136217Y27396D01*
Y25396D01*
X1137216Y24397D01*
X1142215D02*
X1145214D01*
X1146214Y25396D01*
X1145214Y26396D01*
X1143215D01*
X1142215Y27396D01*
X1143215Y28396D01*
X1146214D01*
X1148213Y24397D02*
X1150212D01*
X1149212D01*
Y28396D01*
X1148213D01*
X1154211Y29395D02*
Y28396D01*
X1153211D01*
X1155211D01*
X1154211D01*
Y25396D01*
X1155211Y24397D01*
X1158210D02*
X1160209D01*
X1159209D01*
Y28396D01*
X1158210D01*
X1164208Y24397D02*
X1166207D01*
X1167207Y25396D01*
Y27396D01*
X1166207Y28396D01*
X1164208D01*
X1163208Y27396D01*
Y25396D01*
X1164208Y24397D01*
X1169206D02*
Y28396D01*
X1172205D01*
X1173205Y27396D01*
Y24397D01*
X1182202Y29395D02*
Y28396D01*
X1181202D01*
X1183202D01*
X1182202D01*
Y25396D01*
X1183202Y24397D01*
X1187200D02*
X1189200D01*
X1190199Y25396D01*
Y27396D01*
X1189200Y28396D01*
X1187200D01*
X1186201Y27396D01*
Y25396D01*
X1187200Y24397D01*
X1199196Y29395D02*
Y28396D01*
X1198197D01*
X1200196D01*
X1199196D01*
Y25396D01*
X1200196Y24397D01*
X1204195D02*
X1206194D01*
X1207194Y25396D01*
Y27396D01*
X1206194Y28396D01*
X1204195D01*
X1203195Y27396D01*
Y25396D01*
X1204195Y24397D01*
X1210193D02*
X1212192D01*
X1213192Y25396D01*
Y27396D01*
X1212192Y28396D01*
X1210193D01*
X1209193Y27396D01*
Y25396D01*
X1210193Y24397D01*
X1215191D02*
X1217190D01*
X1216191D01*
Y30395D01*
X1215191D01*
X1229187Y24397D02*
X1227187D01*
X1226188Y25396D01*
Y27396D01*
X1227187Y28396D01*
X1229187D01*
X1230186Y27396D01*
Y26396D01*
X1226188D01*
X1232186Y24397D02*
Y28396D01*
X1235185D01*
X1236184Y27396D01*
Y24397D01*
X1242182Y30395D02*
Y24397D01*
X1239183D01*
X1238184Y25396D01*
Y27396D01*
X1239183Y28396D01*
X1242182D01*
X1254179D02*
X1251180D01*
X1250180Y27396D01*
Y25396D01*
X1251180Y24397D01*
X1254179D01*
X1259177D02*
X1257178D01*
X1256178Y25396D01*
Y27396D01*
X1257178Y28396D01*
X1259177D01*
X1260177Y27396D01*
Y26396D01*
X1256178D01*
X1262176Y24397D02*
Y28396D01*
X1265175D01*
X1266175Y27396D01*
Y24397D01*
X1269174Y29395D02*
Y28396D01*
X1268174D01*
X1270173D01*
X1269174D01*
Y25396D01*
X1270173Y24397D01*
X1273172Y28396D02*
Y24397D01*
Y26396D01*
X1274172Y27396D01*
X1275172Y28396D01*
X1276171D01*
X1282170Y24397D02*
X1280170D01*
X1279171Y25396D01*
Y27396D01*
X1280170Y28396D01*
X1282170D01*
X1283169Y27396D01*
Y26396D01*
X1279171D01*
X1291167Y22397D02*
Y28396D01*
X1294166D01*
X1295165Y27396D01*
Y25396D01*
X1294166Y24397D01*
X1291167D01*
X1298164D02*
X1300164D01*
X1301163Y25396D01*
Y27396D01*
X1300164Y28396D01*
X1298164D01*
X1297165Y27396D01*
Y25396D01*
X1298164Y24397D01*
X1303163D02*
X1306162D01*
X1307161Y25396D01*
X1306162Y26396D01*
X1304162D01*
X1303163Y27396D01*
X1304162Y28396D01*
X1307161D01*
X1309161Y24397D02*
X1311160D01*
X1310160D01*
Y28396D01*
X1309161D01*
X1315159Y29395D02*
Y28396D01*
X1314159D01*
X1316158D01*
X1315159D01*
Y25396D01*
X1316158Y24397D01*
X1319158D02*
X1321157D01*
X1320157D01*
Y28396D01*
X1319158D01*
X1325156Y24397D02*
X1327155D01*
X1328155Y25396D01*
Y27396D01*
X1327155Y28396D01*
X1325156D01*
X1324156Y27396D01*
Y25396D01*
X1325156Y24397D01*
X1330154D02*
Y28396D01*
X1333153D01*
X1334153Y27396D01*
Y24397D01*
X1336152D02*
Y25396D01*
X1337152D01*
Y24397D01*
X1336152D01*
X711284Y178449D02*
X710173Y179560D01*
X707952D01*
X706841Y178449D01*
Y174006D01*
X707952Y172895D01*
X710173D01*
X711284Y174006D01*
Y176227D01*
X709062D01*
X706841Y164560D02*
Y157895D01*
Y161228D01*
X711284D01*
Y164560D01*
Y157895D01*
Y149560D02*
X706841D01*
Y146228D01*
X709062D01*
X706841D01*
Y142895D01*
X707952Y134560D02*
X710173D01*
X709062D01*
Y127895D01*
X707952D01*
X710173D01*
X711284Y118449D02*
X710173Y119560D01*
X707952D01*
X706841Y118449D01*
Y114006D01*
X707952Y112895D01*
X710173D01*
X711284Y114006D01*
X706841Y104560D02*
Y97895D01*
X710173D01*
X711284Y99006D01*
Y103449D01*
X710173Y104560D01*
X706841D01*
Y89560D02*
Y82895D01*
X710173D01*
X711284Y84006D01*
Y85117D01*
X710173Y86228D01*
X706841D01*
X710173D01*
X711284Y87338D01*
Y88449D01*
X710173Y89560D01*
X706841D01*
Y67895D02*
Y72338D01*
X709062Y74560D01*
X711284Y72338D01*
Y67895D01*
Y71228D01*
X706841D01*
X711284Y59560D02*
X706841D01*
Y52895D01*
X711284D01*
X706841Y56227D02*
X709062D01*
D77*
X700750Y184394D02*
X1727462D01*
X700750Y49394D02*
X1727462D01*
X700750Y34394D02*
X1727462D01*
Y199394D01*
X700750D02*
X1727462D01*
X700750Y34394D02*
Y199394D01*
X1587202Y34394D02*
Y199394D01*
X1472236Y34394D02*
Y199394D01*
X1338276Y34394D02*
Y199394D01*
X1263696Y34394D02*
Y199394D01*
X1204711Y34394D02*
Y199394D01*
X1054756Y34394D02*
Y199394D01*
X981376Y34394D02*
Y199394D01*
X930788Y34394D02*
Y199394D01*
X815822Y34394D02*
Y199394D01*
X755838Y34394D02*
Y199394D01*
D78*
X1591702Y188894D02*
Y196092D01*
X1595301D01*
X1596501Y194892D01*
Y192493D01*
X1595301Y191293D01*
X1591702D01*
X1594101D02*
X1596501Y188894D01*
X1600099D02*
X1602499D01*
X1603698Y190094D01*
Y192493D01*
X1602499Y193693D01*
X1600099D01*
X1598900Y192493D01*
Y190094D01*
X1600099Y188894D01*
X1606097Y193693D02*
Y190094D01*
X1607297Y188894D01*
X1610896D01*
Y193693D01*
X1614495Y194892D02*
Y193693D01*
X1613295D01*
X1615694D01*
X1614495D01*
Y190094D01*
X1615694Y188894D01*
X1622892D02*
X1620493D01*
X1619293Y190094D01*
Y192493D01*
X1620493Y193693D01*
X1622892D01*
X1624092Y192493D01*
Y191293D01*
X1619293D01*
X1631289Y196092D02*
Y188894D01*
X1627691D01*
X1626491Y190094D01*
Y192493D01*
X1627691Y193693D01*
X1631289D01*
X1640886Y188894D02*
Y196092D01*
X1644485D01*
X1645685Y194892D01*
Y192493D01*
X1644485Y191293D01*
X1640886D01*
X1649283Y193693D02*
X1651683D01*
X1652882Y192493D01*
Y188894D01*
X1649283D01*
X1648084Y190094D01*
X1649283Y191293D01*
X1652882D01*
X1656481Y194892D02*
Y193693D01*
X1655282D01*
X1657681D01*
X1656481D01*
Y190094D01*
X1657681Y188894D01*
X1661280Y196092D02*
Y188894D01*
Y192493D01*
X1662479Y193693D01*
X1664878D01*
X1666078Y192493D01*
Y188894D01*
X1675675Y196092D02*
Y188894D01*
X1680473D01*
X1686472D02*
X1684072D01*
X1682873Y190094D01*
Y192493D01*
X1684072Y193693D01*
X1686472D01*
X1687671Y192493D01*
Y191293D01*
X1682873D01*
X1690070Y188894D02*
Y193693D01*
X1693669D01*
X1694869Y192493D01*
Y188894D01*
X1699667Y186495D02*
X1700867D01*
X1702066Y187695D01*
Y193693D01*
X1698468D01*
X1697268Y192493D01*
Y190094D01*
X1698468Y188894D01*
X1702066D01*
X1705665Y194892D02*
Y193693D01*
X1704466D01*
X1706865D01*
X1705665D01*
Y190094D01*
X1706865Y188894D01*
X1710464Y196092D02*
Y188894D01*
Y192493D01*
X1711663Y193693D01*
X1714062D01*
X1715262Y192493D01*
Y188894D01*
X1476736Y196092D02*
Y188894D01*
Y192493D01*
X1481534D01*
Y196092D01*
Y188894D01*
X1485133D02*
X1487532D01*
X1488732Y190094D01*
Y192493D01*
X1487532Y193693D01*
X1485133D01*
X1483934Y192493D01*
Y190094D01*
X1485133Y188894D01*
X1491131D02*
X1493530D01*
X1492331D01*
Y196092D01*
X1491131D01*
X1500728Y188894D02*
X1498329D01*
X1497129Y190094D01*
Y192493D01*
X1498329Y193693D01*
X1500728D01*
X1501928Y192493D01*
Y191293D01*
X1497129D01*
X1511524Y196092D02*
Y188894D01*
X1516323D01*
X1522321D02*
X1519922D01*
X1518722Y190094D01*
Y192493D01*
X1519922Y193693D01*
X1522321D01*
X1523521Y192493D01*
Y191293D01*
X1518722D01*
X1525920Y188894D02*
Y193693D01*
X1529519D01*
X1530718Y192493D01*
Y188894D01*
X1535517Y186495D02*
X1536716D01*
X1537916Y187695D01*
Y193693D01*
X1534317D01*
X1533117Y192493D01*
Y190094D01*
X1534317Y188894D01*
X1537916D01*
X1541515Y194892D02*
Y193693D01*
X1540315D01*
X1542714D01*
X1541515D01*
Y190094D01*
X1542714Y188894D01*
X1546313Y196092D02*
Y188894D01*
Y192493D01*
X1547513Y193693D01*
X1549912D01*
X1551112Y192493D01*
Y188894D01*
X1342776Y196092D02*
X1347574D01*
X1345175D01*
Y188894D01*
X1353572D02*
X1351173D01*
X1349973Y190094D01*
Y192493D01*
X1351173Y193693D01*
X1353572D01*
X1354772Y192493D01*
Y191293D01*
X1349973D01*
X1357171Y188894D02*
Y193693D01*
X1358370D01*
X1359570Y192493D01*
Y188894D01*
Y192493D01*
X1360770Y193693D01*
X1361969Y192493D01*
Y188894D01*
X1364369Y186495D02*
Y193693D01*
X1367967D01*
X1369167Y192493D01*
Y190094D01*
X1367967Y188894D01*
X1364369D01*
X1371566D02*
X1373965D01*
X1372766D01*
Y196092D01*
X1371566D01*
X1378764Y193693D02*
X1381163D01*
X1382363Y192493D01*
Y188894D01*
X1378764D01*
X1377564Y190094D01*
X1378764Y191293D01*
X1382363D01*
X1385962Y194892D02*
Y193693D01*
X1384762D01*
X1387161D01*
X1385962D01*
Y190094D01*
X1387161Y188894D01*
X1394359D02*
X1391960D01*
X1390760Y190094D01*
Y192493D01*
X1391960Y193693D01*
X1394359D01*
X1395558Y192493D01*
Y191293D01*
X1390760D01*
X1268196Y188894D02*
Y196092D01*
X1271795D01*
X1272994Y194892D01*
Y192493D01*
X1271795Y191293D01*
X1268196D01*
X1276593Y193693D02*
X1278992D01*
X1280192Y192493D01*
Y188894D01*
X1276593D01*
X1275393Y190094D01*
X1276593Y191293D01*
X1280192D01*
X1287390Y196092D02*
Y188894D01*
X1283791D01*
X1282591Y190094D01*
Y192493D01*
X1283791Y193693D01*
X1287390D01*
X1301785Y194892D02*
X1300585Y196092D01*
X1298186D01*
X1296986Y194892D01*
Y193693D01*
X1298186Y192493D01*
X1300585D01*
X1301785Y191293D01*
Y190094D01*
X1300585Y188894D01*
X1298186D01*
X1296986Y190094D01*
X1304184Y196092D02*
Y188894D01*
Y192493D01*
X1305384Y193693D01*
X1307783D01*
X1308983Y192493D01*
Y188894D01*
X1312581Y193693D02*
X1314981D01*
X1316180Y192493D01*
Y188894D01*
X1312581D01*
X1311382Y190094D01*
X1312581Y191293D01*
X1316180D01*
X1318579Y186495D02*
Y193693D01*
X1322178D01*
X1323378Y192493D01*
Y190094D01*
X1322178Y188894D01*
X1318579D01*
X1329376D02*
X1326977D01*
X1325777Y190094D01*
Y192493D01*
X1326977Y193693D01*
X1329376D01*
X1330576Y192493D01*
Y191293D01*
X1325777D01*
X1209211Y196092D02*
Y191293D01*
X1211610Y188894D01*
X1214009Y191293D01*
Y196092D01*
X1216409Y188894D02*
X1218808D01*
X1217608D01*
Y193693D01*
X1216409D01*
X1223606D02*
X1226005D01*
X1227205Y192493D01*
Y188894D01*
X1223606D01*
X1222407Y190094D01*
X1223606Y191293D01*
X1227205D01*
X1229604Y188894D02*
X1234403Y193693D01*
X1236802Y188894D02*
Y196092D01*
X1240401D01*
X1241600Y194892D01*
Y192493D01*
X1240401Y191293D01*
X1236802D01*
X1245199Y193693D02*
X1247598D01*
X1248798Y192493D01*
Y188894D01*
X1245199D01*
X1244000Y190094D01*
X1245199Y191293D01*
X1248798D01*
X1255996Y196092D02*
Y188894D01*
X1252397D01*
X1251197Y190094D01*
Y192493D01*
X1252397Y193693D01*
X1255996D01*
X1059256Y196092D02*
Y188894D01*
X1062855D01*
X1064054Y190094D01*
Y194892D01*
X1062855Y196092D01*
X1059256D01*
X1066453Y193693D02*
Y188894D01*
Y191293D01*
X1067653Y192493D01*
X1068853Y193693D01*
X1070052D01*
X1073651Y188894D02*
X1076050D01*
X1074851D01*
Y193693D01*
X1073651D01*
X1079649Y188894D02*
X1082049D01*
X1080849D01*
Y196092D01*
X1079649D01*
X1085647Y188894D02*
X1088046D01*
X1086847D01*
Y196092D01*
X1085647D01*
X1098843D02*
Y188894D01*
X1103642D01*
X1107240Y193693D02*
X1109640D01*
X1110839Y192493D01*
Y188894D01*
X1107240D01*
X1106041Y190094D01*
X1107240Y191293D01*
X1110839D01*
X1113238Y193693D02*
Y190094D01*
X1114438Y188894D01*
X1118037D01*
Y187695D01*
X1116837Y186495D01*
X1115638D01*
X1118037Y188894D02*
Y193693D01*
X1124035Y188894D02*
X1121636D01*
X1120436Y190094D01*
Y192493D01*
X1121636Y193693D01*
X1124035D01*
X1125235Y192493D01*
Y191293D01*
X1120436D01*
X1127634Y193693D02*
Y188894D01*
Y191293D01*
X1128833Y192493D01*
X1130033Y193693D01*
X1131233D01*
X1142029Y188894D02*
Y196092D01*
X1145628D01*
X1146828Y194892D01*
Y192493D01*
X1145628Y191293D01*
X1142029D01*
X1150426Y193693D02*
X1152826D01*
X1154025Y192493D01*
Y188894D01*
X1150426D01*
X1149227Y190094D01*
X1150426Y191293D01*
X1154025D01*
X1156424Y188894D02*
X1158824D01*
X1157624D01*
Y193693D01*
X1156424D01*
X1162422D02*
Y188894D01*
Y191293D01*
X1163622Y192493D01*
X1164822Y193693D01*
X1166021D01*
X985876Y196092D02*
Y188894D01*
Y192493D01*
X990674D01*
Y196092D01*
Y188894D01*
X994273D02*
X996672D01*
X997872Y190094D01*
Y192493D01*
X996672Y193693D01*
X994273D01*
X993073Y192493D01*
Y190094D01*
X994273Y188894D01*
X1000271D02*
X1002670D01*
X1001471D01*
Y196092D01*
X1000271D01*
X1009868Y188894D02*
X1007469D01*
X1006269Y190094D01*
Y192493D01*
X1007469Y193693D01*
X1009868D01*
X1011067Y192493D01*
Y191293D01*
X1006269D01*
X1020664Y196092D02*
X1025463D01*
X1023064D01*
Y188894D01*
X1027862Y193693D02*
Y190094D01*
X1029062Y188894D01*
X1032660D01*
Y187695D01*
X1031461Y186495D01*
X1030261D01*
X1032660Y188894D02*
Y193693D01*
X1035060Y186495D02*
Y193693D01*
X1038659D01*
X1039858Y192493D01*
Y190094D01*
X1038659Y188894D01*
X1035060D01*
X1045856D02*
X1043457D01*
X1042257Y190094D01*
Y192493D01*
X1043457Y193693D01*
X1045856D01*
X1047056Y192493D01*
Y191293D01*
X1042257D01*
X935288Y188894D02*
Y196092D01*
X938887D01*
X940086Y194892D01*
Y192493D01*
X938887Y191293D01*
X935288D01*
X942486Y188894D02*
X944885D01*
X943685D01*
Y196092D01*
X942486D01*
X949683Y193693D02*
X952083D01*
X953282Y192493D01*
Y188894D01*
X949683D01*
X948484Y190094D01*
X949683Y191293D01*
X953282D01*
X956881Y194892D02*
Y193693D01*
X955682D01*
X958081D01*
X956881D01*
Y190094D01*
X958081Y188894D01*
X965278D02*
X962879D01*
X961679Y190094D01*
Y192493D01*
X962879Y193693D01*
X965278D01*
X966478Y192493D01*
Y191293D01*
X961679D01*
X973676Y196092D02*
Y188894D01*
X970077D01*
X968877Y190094D01*
Y192493D01*
X970077Y193693D01*
X973676D01*
X820322Y196092D02*
Y188894D01*
Y192493D01*
X825120D01*
Y196092D01*
Y188894D01*
X828719D02*
X831118D01*
X832318Y190094D01*
Y192493D01*
X831118Y193693D01*
X828719D01*
X827519Y192493D01*
Y190094D01*
X828719Y188894D01*
X834717D02*
X837116D01*
X835917D01*
Y196092D01*
X834717D01*
X844314Y188894D02*
X841915D01*
X840715Y190094D01*
Y192493D01*
X841915Y193693D01*
X844314D01*
X845514Y192493D01*
Y191293D01*
X840715D01*
X859909Y194892D02*
X858709Y196092D01*
X856310D01*
X855110Y194892D01*
Y193693D01*
X856310Y192493D01*
X858709D01*
X859909Y191293D01*
Y190094D01*
X858709Y188894D01*
X856310D01*
X855110Y190094D01*
X862308Y188894D02*
X864707D01*
X863508D01*
Y193693D01*
X862308D01*
X868306D02*
X873105D01*
X868306Y188894D01*
X873105D01*
X879103D02*
X876703D01*
X875504Y190094D01*
Y192493D01*
X876703Y193693D01*
X879103D01*
X880302Y192493D01*
Y191293D01*
X875504D01*
X765136Y194892D02*
X763936Y196092D01*
X761537D01*
X760338Y194892D01*
Y190094D01*
X761537Y188894D01*
X763936D01*
X765136Y190094D01*
X768735Y188894D02*
X771134D01*
X772334Y190094D01*
Y192493D01*
X771134Y193693D01*
X768735D01*
X767535Y192493D01*
Y190094D01*
X768735Y188894D01*
X774733Y193693D02*
Y190094D01*
X775933Y188894D01*
X779531D01*
Y193693D01*
X781931Y188894D02*
Y193693D01*
X785529D01*
X786729Y192493D01*
Y188894D01*
X790328Y194892D02*
Y193693D01*
X789128D01*
X791528D01*
X790328D01*
Y190094D01*
X791528Y188894D01*
X714548Y194892D02*
X713349Y196092D01*
X710950D01*
X709750Y194892D01*
Y193693D01*
X710950Y192493D01*
X713349D01*
X714548Y191293D01*
Y190094D01*
X713349Y188894D01*
X710950D01*
X709750Y190094D01*
X716948Y193693D02*
Y190094D01*
X718147Y188894D01*
X721746D01*
Y187695D01*
X720546Y186495D01*
X719347D01*
X721746Y188894D02*
Y193693D01*
X724145Y188894D02*
Y193693D01*
X725345D01*
X726545Y192493D01*
Y188894D01*
Y192493D01*
X727744Y193693D01*
X728944Y192493D01*
Y188894D01*
X731343Y196092D02*
Y188894D01*
X734942D01*
X736141Y190094D01*
Y191293D01*
Y192493D01*
X734942Y193693D01*
X731343D01*
X739740Y188894D02*
X742139D01*
X743339Y190094D01*
Y192493D01*
X742139Y193693D01*
X739740D01*
X738541Y192493D01*
Y190094D01*
X739740Y188894D01*
X745738D02*
X748138D01*
X746938D01*
Y196092D01*
X745738D01*
D79*
X813019Y20397D02*
Y14399D01*
Y17398D01*
X817018D01*
Y20397D01*
Y14399D01*
X820017D02*
X822016D01*
X823016Y15399D01*
Y17398D01*
X822016Y18398D01*
X820017D01*
X819017Y17398D01*
Y15399D01*
X820017Y14399D01*
X825015D02*
X827014D01*
X826015D01*
Y20397D01*
X825015D01*
X833012Y14399D02*
X831013D01*
X830013Y15399D01*
Y17398D01*
X831013Y18398D01*
X833012D01*
X834012Y17398D01*
Y16399D01*
X830013D01*
X842010Y20397D02*
Y14399D01*
X846008D01*
X851007D02*
X849007D01*
X848008Y15399D01*
Y17398D01*
X849007Y18398D01*
X851007D01*
X852006Y17398D01*
Y16399D01*
X848008D01*
X854006Y14399D02*
Y18398D01*
X857005D01*
X858004Y17398D01*
Y14399D01*
X862003Y12400D02*
X863003D01*
X864002Y13400D01*
Y18398D01*
X861003D01*
X860004Y17398D01*
Y15399D01*
X861003Y14399D01*
X864002D01*
X867002Y19398D02*
Y18398D01*
X866002D01*
X868001D01*
X867002D01*
Y15399D01*
X868001Y14399D01*
X871000Y20397D02*
Y14399D01*
Y17398D01*
X872000Y18398D01*
X873999D01*
X874999Y17398D01*
Y14399D01*
X813019Y24397D02*
Y30395D01*
X816018D01*
X817018Y29395D01*
Y27396D01*
X816018Y26396D01*
X813019D01*
X815018D02*
X817018Y24397D01*
X820017D02*
X822016D01*
X823016Y25396D01*
Y27396D01*
X822016Y28396D01*
X820017D01*
X819017Y27396D01*
Y25396D01*
X820017Y24397D01*
X825015Y28396D02*
Y25396D01*
X826015Y24397D01*
X829014D01*
Y28396D01*
X832013Y29395D02*
Y28396D01*
X831013D01*
X833012D01*
X832013D01*
Y25396D01*
X833012Y24397D01*
X839011D02*
X837011D01*
X836012Y25396D01*
Y27396D01*
X837011Y28396D01*
X839011D01*
X840010Y27396D01*
Y26396D01*
X836012D01*
X846008Y30395D02*
Y24397D01*
X843009D01*
X842010Y25396D01*
Y27396D01*
X843009Y28396D01*
X846008D01*
X854006Y24397D02*
Y30395D01*
X857005D01*
X858004Y29395D01*
Y27396D01*
X857005Y26396D01*
X854006D01*
X861003Y28396D02*
X863003D01*
X864002Y27396D01*
Y24397D01*
X861003D01*
X860004Y25396D01*
X861003Y26396D01*
X864002D01*
X867002Y29395D02*
Y28396D01*
X866002D01*
X868001D01*
X867002D01*
Y25396D01*
X868001Y24397D01*
X871000Y30395D02*
Y24397D01*
Y27396D01*
X872000Y28396D01*
X873999D01*
X874999Y27396D01*
Y24397D01*
X882996Y30395D02*
Y24397D01*
X886995D01*
X891993D02*
X889994D01*
X888994Y25396D01*
Y27396D01*
X889994Y28396D01*
X891993D01*
X892993Y27396D01*
Y26396D01*
X888994D01*
X894992Y24397D02*
Y28396D01*
X897991D01*
X898991Y27396D01*
Y24397D01*
X902990Y22397D02*
X903990D01*
X904989Y23397D01*
Y28396D01*
X901990D01*
X900990Y27396D01*
Y25396D01*
X901990Y24397D01*
X904989D01*
X907988Y29395D02*
Y28396D01*
X906989D01*
X908988D01*
X907988D01*
Y25396D01*
X908988Y24397D01*
X911987Y30395D02*
Y24397D01*
Y27396D01*
X912987Y28396D01*
X914986D01*
X915986Y27396D01*
Y24397D01*
X713749Y29395D02*
X712749Y30395D01*
X710750D01*
X709750Y29395D01*
Y28396D01*
X710750Y27396D01*
X712749D01*
X713749Y26396D01*
Y25396D01*
X712749Y24397D01*
X710750D01*
X709750Y25396D01*
X715748Y24397D02*
X717747D01*
X716748D01*
Y30395D01*
X715748D01*
X721746Y24397D02*
X723745D01*
X724745Y25396D01*
Y27396D01*
X723745Y28396D01*
X721746D01*
X720746Y27396D01*
Y25396D01*
X721746Y24397D01*
X727744Y29395D02*
Y28396D01*
X726745D01*
X728744D01*
X727744D01*
Y25396D01*
X728744Y24397D01*
X741740Y30395D02*
Y24397D01*
X738741D01*
X737741Y25396D01*
Y27396D01*
X738741Y28396D01*
X741740D01*
X746738Y24397D02*
X744739D01*
X743739Y25396D01*
Y27396D01*
X744739Y28396D01*
X746738D01*
X747738Y27396D01*
Y26396D01*
X743739D01*
X750737Y24397D02*
Y29395D01*
Y27396D01*
X749737D01*
X751736D01*
X750737D01*
Y29395D01*
X751736Y30395D01*
X754735Y24397D02*
X756735D01*
X755735D01*
Y28396D01*
X754735D01*
X759734Y24397D02*
Y28396D01*
X762733D01*
X763732Y27396D01*
Y24397D01*
X765732D02*
X767731D01*
X766732D01*
Y28396D01*
X765732D01*
X771730Y29395D02*
Y28396D01*
X770730D01*
X772730D01*
X771730D01*
Y25396D01*
X772730Y24397D01*
X775729D02*
X777728D01*
X776728D01*
Y28396D01*
X775729D01*
X781727Y24397D02*
X783726D01*
X784726Y25396D01*
Y27396D01*
X783726Y28396D01*
X781727D01*
X780727Y27396D01*
Y25396D01*
X781727Y24397D01*
X786725D02*
Y28396D01*
X789724D01*
X790724Y27396D01*
Y24397D01*
X792723D02*
X795722D01*
X796722Y25396D01*
X795722Y26396D01*
X793723D01*
X792723Y27396D01*
X793723Y28396D01*
X796722D01*
X804719D02*
X805719D01*
Y27396D01*
X804719D01*
Y28396D01*
Y25396D02*
X805719D01*
Y24397D01*
X804719D01*
Y25396D01*
D80*
X503634Y182300D02*
Y183633D01*
X504300Y184300D01*
X504966Y183633D01*
Y182300D01*
Y183300D01*
X503634D01*
X92634Y107300D02*
Y108633D01*
X93300Y109300D01*
X93966Y108633D01*
Y107300D01*
Y108300D01*
X92634D01*
Y103300D02*
Y104633D01*
X93300Y105300D01*
X93966Y104633D01*
Y103300D01*
Y104300D01*
X92634D01*
Y99300D02*
Y100633D01*
X93300Y101300D01*
X93966Y100633D01*
Y99300D01*
Y100300D01*
X92634D01*
X96634Y99300D02*
Y100633D01*
X97300Y101300D01*
X97966Y100633D01*
Y99300D01*
Y100300D01*
X96634D01*
Y103300D02*
Y104633D01*
X97300Y105300D01*
X97966Y104633D01*
Y103300D01*
Y104300D01*
X96634D01*
Y107300D02*
Y108633D01*
X97300Y109300D01*
X97966Y108633D01*
Y107300D01*
Y108300D01*
X96634D01*
X237634Y154800D02*
Y156133D01*
X238300Y156800D01*
X238966Y156133D01*
Y154800D01*
Y155800D01*
X237634D01*
Y150800D02*
Y152133D01*
X238300Y152800D01*
X238966Y152133D01*
Y150800D01*
Y151800D01*
X237634D01*
Y146800D02*
Y148133D01*
X238300Y148800D01*
X238966Y148133D01*
Y146800D01*
Y147800D01*
X237634D01*
X233634Y150800D02*
Y152133D01*
X234300Y152800D01*
X234966Y152133D01*
Y150800D01*
Y151800D01*
X233634D01*
Y154800D02*
Y156133D01*
X234300Y156800D01*
X234966Y156133D01*
Y154800D01*
Y155800D01*
X233634D01*
X482134Y169800D02*
Y171133D01*
X482800Y171800D01*
X483466Y171133D01*
Y169800D01*
Y170800D01*
X482134D01*
X467634Y171800D02*
Y173133D01*
X468300Y173800D01*
X468966Y173133D01*
Y171800D01*
Y172800D01*
X467634D01*
X305634Y87800D02*
Y89133D01*
X306300Y89800D01*
X306966Y89133D01*
Y87800D01*
Y88800D01*
X305634D01*
X301634Y87800D02*
Y89133D01*
X302300Y89800D01*
X302966Y89133D01*
Y87800D01*
Y88800D01*
X301634D01*
X297634Y87800D02*
Y89133D01*
X298300Y89800D01*
X298966Y89133D01*
Y87800D01*
Y88800D01*
X297634D01*
X452134Y176300D02*
Y177633D01*
X452800Y178300D01*
X453466Y177633D01*
Y176300D01*
Y177300D01*
X452134D01*
X106133Y153300D02*
Y154633D01*
X106800Y155300D01*
X107466Y154633D01*
Y153300D01*
Y154300D01*
X106133D01*
X102134Y153300D02*
Y154633D01*
X102800Y155300D01*
X103466Y154633D01*
Y153300D01*
Y154300D01*
X102134D01*
X94134Y153300D02*
Y154633D01*
X94800Y155300D01*
X95466Y154633D01*
Y153300D01*
Y154300D01*
X94134D01*
X98134Y153300D02*
Y154633D01*
X98800Y155300D01*
X99466Y154633D01*
Y153300D01*
Y154300D01*
X98134D01*
X405634Y196800D02*
Y198133D01*
X406300Y198800D01*
X406966Y198133D01*
Y196800D01*
Y197800D01*
X405634D01*
X409634Y196800D02*
Y198133D01*
X410300Y198800D01*
X410966Y198133D01*
Y196800D01*
Y197800D01*
X409634D01*
X413634Y196800D02*
Y198133D01*
X414300Y198800D01*
X414966Y198133D01*
Y196800D01*
Y197800D01*
X413634D01*
X161134Y196800D02*
Y198133D01*
X161800Y198800D01*
X162467Y198133D01*
Y196800D01*
Y197800D01*
X161134D01*
X165134Y196800D02*
Y198133D01*
X165800Y198800D01*
X166466Y198133D01*
Y196800D01*
Y197800D01*
X165134D01*
X169133Y196800D02*
Y198133D01*
X169800Y198800D01*
X170466Y198133D01*
Y196800D01*
Y197800D01*
X169133D01*
X318134Y149800D02*
Y151133D01*
X318800Y151800D01*
X319466Y151133D01*
Y149800D01*
Y150800D01*
X318134D01*
X270634Y146300D02*
Y147633D01*
X271300Y148300D01*
X271966Y147633D01*
Y146300D01*
Y147300D01*
X270634D01*
Y149800D02*
Y151133D01*
X271300Y151800D01*
X271966Y151133D01*
Y149800D01*
Y150800D01*
X270634D01*
X459134Y181300D02*
Y182633D01*
X459800Y183300D01*
X460466Y182633D01*
Y181300D01*
Y182300D01*
X459134D01*
X527634Y196800D02*
Y198133D01*
X528300Y198800D01*
X528966Y198133D01*
Y196800D01*
Y197800D01*
X527634D01*
X488134Y197300D02*
Y198633D01*
X488800Y199300D01*
X489466Y198633D01*
Y197300D01*
Y198300D01*
X488134D01*
X41779Y205336D02*
Y206669D01*
X42446Y207335D01*
X43112Y206669D01*
Y205336D01*
Y206335D01*
X41779D01*
X9133Y172690D02*
Y174023D01*
X9800Y174689D01*
X10466Y174023D01*
Y172690D01*
Y173690D01*
X9133D01*
X9134Y41446D02*
Y42779D01*
X9800Y43445D01*
X10467Y42779D01*
Y41446D01*
Y42446D01*
X9134D01*
X41779Y8800D02*
Y10133D01*
X42446Y10800D01*
X43112Y10133D01*
Y8800D01*
Y9800D01*
X41779D01*
X645464Y8800D02*
Y10133D01*
X646131Y10800D01*
X646797Y10133D01*
Y8800D01*
Y9800D01*
X645464D01*
Y205336D02*
Y206669D01*
X646131Y207335D01*
X646797Y206669D01*
Y205336D01*
Y206335D01*
X645464D01*
X178633Y133300D02*
Y134633D01*
X179300Y135300D01*
X179966Y134633D01*
Y133300D01*
Y134300D01*
X178633D01*
X158133Y140800D02*
Y142133D01*
X158800Y142800D01*
X159467Y142133D01*
Y140800D01*
Y141800D01*
X158133D01*
X154133Y140800D02*
Y142133D01*
X154800Y142800D01*
X155466Y142133D01*
Y140800D01*
Y141800D01*
X154133D01*
X150134Y140800D02*
Y142133D01*
X150800Y142800D01*
X151467Y142133D01*
Y140800D01*
Y141800D01*
X150134D01*
Y144800D02*
Y146133D01*
X150800Y146800D01*
X151467Y146133D01*
Y144800D01*
Y145800D01*
X150134D01*
X154133Y144800D02*
Y146133D01*
X154800Y146800D01*
X155466Y146133D01*
Y144800D01*
Y145800D01*
X154133D01*
X158133Y144800D02*
Y146133D01*
X158800Y146800D01*
X159467Y146133D01*
Y144800D01*
Y145800D01*
X158133D01*
X132633Y126300D02*
Y127633D01*
X133300Y128300D01*
X133967Y127633D01*
Y126300D01*
Y127300D01*
X132633D01*
X130133Y139800D02*
Y141133D01*
X130800Y141800D01*
X131466Y141133D01*
Y139800D01*
Y140800D01*
X130133D01*
X126134Y139800D02*
Y141133D01*
X126800Y141800D01*
X127466Y141133D01*
Y139800D01*
Y140800D01*
X126134D01*
Y135800D02*
Y137133D01*
X126800Y137800D01*
X127466Y137133D01*
Y135800D01*
Y136800D01*
X126134D01*
X130133Y135800D02*
Y137133D01*
X130800Y137800D01*
X131466Y137133D01*
Y135800D01*
Y136800D01*
X130133D01*
X321634Y149800D02*
Y151133D01*
X322300Y151800D01*
X322966Y151133D01*
Y149800D01*
Y150800D01*
X321634D01*
X583134Y165300D02*
Y166633D01*
X583800Y167300D01*
X584466Y166633D01*
Y165300D01*
Y166300D01*
X583134D01*
X579634Y167300D02*
Y168633D01*
X580300Y169300D01*
X580966Y168633D01*
Y167300D01*
Y168300D01*
X579634D01*
Y163300D02*
Y164633D01*
X580300Y165300D01*
X580966Y164633D01*
Y163300D01*
Y164300D01*
X579634D01*
X233634Y146800D02*
Y148133D01*
X234300Y148800D01*
X234966Y148133D01*
Y146800D01*
Y147800D01*
X233634D01*
X185634Y151800D02*
Y153133D01*
X186300Y153800D01*
X186967Y153133D01*
Y151800D01*
Y152800D01*
X185634D01*
Y155800D02*
Y157133D01*
X186300Y157800D01*
X186967Y157133D01*
Y155800D01*
Y156800D01*
X185634D01*
X189634Y155800D02*
Y157133D01*
X190300Y157800D01*
X190966Y157133D01*
Y155800D01*
Y156800D01*
X189634D01*
Y151800D02*
Y153133D01*
X190300Y153800D01*
X190966Y153133D01*
Y151800D01*
Y152800D01*
X189634D01*
X193633Y151800D02*
Y153133D01*
X194300Y153800D01*
X194966Y153133D01*
Y151800D01*
Y152800D01*
X193633D01*
Y155800D02*
Y157133D01*
X194300Y157800D01*
X194966Y157133D01*
Y155800D01*
Y156800D01*
X193633D01*
X91634Y178800D02*
Y180133D01*
X92300Y180800D01*
X92966Y180133D01*
Y178800D01*
Y179800D01*
X91634D01*
X95634Y178800D02*
Y180133D01*
X96300Y180800D01*
X96966Y180133D01*
Y178800D01*
Y179800D01*
X95634D01*
X99634Y178800D02*
Y180133D01*
X100300Y180800D01*
X100966Y180133D01*
Y178800D01*
Y179800D01*
X99634D01*
X533134Y170300D02*
Y171633D01*
X533800Y172300D01*
X534466Y171633D01*
Y170300D01*
Y171300D01*
X533134D01*
X521634Y170300D02*
Y171633D01*
X522300Y172300D01*
X522966Y171633D01*
Y170300D01*
Y171300D01*
X521634D01*
X614634Y92300D02*
Y93633D01*
X615300Y94300D01*
X615966Y93633D01*
Y92300D01*
Y93300D01*
X614634D01*
X604634Y92300D02*
Y93633D01*
X605300Y94300D01*
X605966Y93633D01*
Y92300D01*
Y93300D01*
X604634D01*
X156792Y51801D02*
Y53134D01*
X157458Y53801D01*
X158124Y53134D01*
Y51801D01*
Y52801D01*
X156792D01*
X160792Y47801D02*
Y49134D01*
X161458Y49801D01*
X162125Y49134D01*
Y47801D01*
Y48801D01*
X160792D01*
X164792Y51801D02*
Y53134D01*
X165458Y53801D01*
X166124Y53134D01*
Y51801D01*
Y52801D01*
X164792D01*
Y47801D02*
Y49134D01*
X165458Y49801D01*
X166124Y49134D01*
Y47801D01*
Y48801D01*
X164792D01*
X160792Y51801D02*
Y53134D01*
X161458Y53801D01*
X162125Y53134D01*
Y51801D01*
Y52801D01*
X160792D01*
X181792Y69301D02*
Y70634D01*
X182458Y71301D01*
X183124Y70634D01*
Y69301D01*
Y70301D01*
X181792D01*
X156792Y47801D02*
Y49134D01*
X157458Y49801D01*
X158124Y49134D01*
Y47801D01*
Y48801D01*
X156792D01*
X275292Y40301D02*
Y41634D01*
X275958Y42301D01*
X276624Y41634D01*
Y40301D01*
Y41301D01*
X275292D01*
X279292Y44301D02*
Y45634D01*
X279958Y46301D01*
X280625Y45634D01*
Y44301D01*
Y45301D01*
X279292D01*
X275292Y44301D02*
Y45634D01*
X275958Y46301D01*
X276624Y45634D01*
Y44301D01*
Y45301D01*
X275292D01*
X279292Y40301D02*
Y41634D01*
X279958Y42301D01*
X280625Y41634D01*
Y40301D01*
Y41301D01*
X279292D01*
X231792Y71801D02*
Y73134D01*
X232458Y73801D01*
X233124Y73134D01*
Y71801D01*
Y72801D01*
X231792D01*
X247292Y71801D02*
Y73134D01*
X247958Y73801D01*
X248624Y73134D01*
Y71801D01*
Y72801D01*
X247292D01*
X239292Y71801D02*
Y73134D01*
X239958Y73801D01*
X240624Y73134D01*
Y71801D01*
Y72801D01*
X239292D01*
X243292Y71801D02*
Y73134D01*
X243958Y73801D01*
X244624Y73134D01*
Y71801D01*
Y72801D01*
X243292D01*
X215792Y71801D02*
Y73134D01*
X216458Y73801D01*
X217125Y73134D01*
Y71801D01*
Y72801D01*
X215792D01*
X223792Y56801D02*
Y58134D01*
X224458Y58801D01*
X225125Y58134D01*
Y56801D01*
Y57801D01*
X223792D01*
X275292Y48301D02*
Y49634D01*
X275958Y50301D01*
X276624Y49634D01*
Y48301D01*
Y49301D01*
X275292D01*
X279292Y48301D02*
Y49634D01*
X279958Y50301D01*
X280625Y49634D01*
Y48301D01*
Y49301D01*
X279292D01*
X223792Y60801D02*
Y62134D01*
X224458Y62801D01*
X225125Y62134D01*
Y60801D01*
Y61801D01*
X223792D01*
X300134Y50800D02*
Y52133D01*
X300800Y52800D01*
X301466Y52133D01*
Y50800D01*
Y51800D01*
X300134D01*
X276134Y28300D02*
Y29633D01*
X276800Y30300D01*
X277466Y29633D01*
Y28300D01*
Y29300D01*
X276134D01*
X115134Y38800D02*
Y40133D01*
X115800Y40800D01*
X116466Y40133D01*
Y38800D01*
Y39800D01*
X115134D01*
X119133Y38800D02*
Y40133D01*
X119800Y40800D01*
X120466Y40133D01*
Y38800D01*
Y39800D01*
X119133D01*
X115134Y34800D02*
Y36133D01*
X115800Y36800D01*
X116466Y36133D01*
Y34800D01*
Y35800D01*
X115134D01*
X119133Y34800D02*
Y36133D01*
X119800Y36800D01*
X120466Y36133D01*
Y34800D01*
Y35800D01*
X119133D01*
X123134Y34800D02*
Y36133D01*
X123800Y36800D01*
X124467Y36133D01*
Y34800D01*
Y35800D01*
X123134D01*
Y38800D02*
Y40133D01*
X123800Y40800D01*
X124467Y40133D01*
Y38800D01*
Y39800D01*
X123134D01*
X77134Y34800D02*
Y36133D01*
X77800Y36800D01*
X78466Y36133D01*
Y34800D01*
Y35800D01*
X77134D01*
X85134Y34800D02*
Y36133D01*
X85800Y36800D01*
X86466Y36133D01*
Y34800D01*
Y35800D01*
X85134D01*
Y38800D02*
Y40133D01*
X85800Y40800D01*
X86466Y40133D01*
Y38800D01*
Y39800D01*
X85134D01*
X81134Y34800D02*
Y36133D01*
X81800Y36800D01*
X82466Y36133D01*
Y34800D01*
Y35800D01*
X81134D01*
Y38800D02*
Y40133D01*
X81800Y40800D01*
X82466Y40133D01*
Y38800D01*
Y39800D01*
X81134D01*
X77134Y38800D02*
Y40133D01*
X77800Y40800D01*
X78466Y40133D01*
Y38800D01*
Y39800D01*
X77134D01*
X254634Y44800D02*
Y46133D01*
X255300Y46800D01*
X255966Y46133D01*
Y44800D01*
Y45800D01*
X254634D01*
X637466Y41835D02*
X636133D01*
Y39836D01*
X637466D01*
X636133Y40835D02*
X636800D01*
X640466Y47835D02*
X639134D01*
Y45836D01*
X640466D01*
X639134Y46835D02*
X639800D01*
X637466Y53835D02*
X636133D01*
Y51836D01*
X637466D01*
X636133Y52835D02*
X636800D01*
X637466Y89835D02*
X636133D01*
Y87836D01*
X637466D01*
X636133Y88835D02*
X636800D01*
X640466Y95835D02*
X639134D01*
Y93836D01*
X640466D01*
X639134Y94835D02*
X639800D01*
X637466Y101835D02*
X636133D01*
Y99836D01*
X637466D01*
X636133Y100835D02*
X636800D01*
X637466Y113835D02*
X636133D01*
Y111836D01*
X637466D01*
X636133Y112835D02*
X636800D01*
X640466Y119835D02*
X639134D01*
Y117836D01*
X640466D01*
X639134Y118835D02*
X639800D01*
X637466Y125835D02*
X636133D01*
Y123836D01*
X637466D01*
X636133Y124835D02*
X636800D01*
X637466Y161835D02*
X636133D01*
Y159836D01*
X637466D01*
X636133Y160835D02*
X636800D01*
X640466Y167835D02*
X639134D01*
Y165836D01*
X640466D01*
X639134Y166835D02*
X639800D01*
X643466Y41835D02*
X642134D01*
Y39836D01*
X643466D01*
X642134Y40835D02*
X642800D01*
X646466Y47835D02*
X645133D01*
Y45836D01*
X646466D01*
X645133Y46835D02*
X645800D01*
X643466Y53835D02*
X642134D01*
Y51836D01*
X643466D01*
X642134Y52835D02*
X642800D01*
X643466Y89835D02*
X642134D01*
Y87836D01*
X643466D01*
X642134Y88835D02*
X642800D01*
X643466Y125835D02*
X642134D01*
Y123836D01*
X643466D01*
X642134Y124835D02*
X642800D01*
X643466Y161835D02*
X642134D01*
Y159836D01*
X643466D01*
X642134Y160835D02*
X642800D01*
X649466Y41835D02*
X648134D01*
Y39836D01*
X649466D01*
X648134Y40835D02*
X648800D01*
X652466Y47835D02*
X651133D01*
Y45836D01*
X652466D01*
X651133Y46835D02*
X651800D01*
X649466Y53835D02*
X648134D01*
Y51836D01*
X649466D01*
X648134Y52835D02*
X648800D01*
X649466Y89835D02*
X648134D01*
Y87836D01*
X649466D01*
X648134Y88835D02*
X648800D01*
X652466Y95835D02*
X651133D01*
Y93836D01*
X652466D01*
X651133Y94835D02*
X651800D01*
X652466Y119835D02*
X651133D01*
Y117836D01*
X652466D01*
X651133Y118835D02*
X651800D01*
X649466Y125835D02*
X648134D01*
Y123836D01*
X649466D01*
X648134Y124835D02*
X648800D01*
X649466Y161835D02*
X648134D01*
Y159836D01*
X649466D01*
X648134Y160835D02*
X648800D01*
X652466Y167835D02*
X651133D01*
Y165836D01*
X652466D01*
X651133Y166835D02*
X651800D01*
X655466Y41835D02*
X654134D01*
Y39836D01*
X655466D01*
X654134Y40835D02*
X654800D01*
X658466Y47835D02*
X657133D01*
Y45836D01*
X658466D01*
X657133Y46835D02*
X657800D01*
X655466Y53835D02*
X654134D01*
Y51836D01*
X655466D01*
X654134Y52835D02*
X654800D01*
X655466Y89835D02*
X654134D01*
Y87836D01*
X655466D01*
X654134Y88835D02*
X654800D01*
X658466Y95835D02*
X657133D01*
Y93836D01*
X658466D01*
X657133Y94835D02*
X657800D01*
X655466Y101835D02*
X654134D01*
Y99836D01*
X655466D01*
X654134Y100835D02*
X654800D01*
X658466Y107835D02*
X657133D01*
Y105836D01*
X658466D01*
X657133Y106835D02*
X657800D01*
X655466Y113835D02*
X654134D01*
Y111836D01*
X655466D01*
X654134Y112835D02*
X654800D01*
X658466Y119835D02*
X657133D01*
Y117836D01*
X658466D01*
X657133Y118835D02*
X657800D01*
X655466Y125835D02*
X654134D01*
Y123836D01*
X655466D01*
X654134Y124835D02*
X654800D01*
X655466Y161835D02*
X654134D01*
Y159836D01*
X655466D01*
X654134Y160835D02*
X654800D01*
X658466Y167835D02*
X657133D01*
Y165836D01*
X658466D01*
X657133Y166835D02*
X657800D01*
X661466Y41835D02*
X660134D01*
Y39836D01*
X661466D01*
X660134Y40835D02*
X660800D01*
X664466Y47835D02*
X663133D01*
Y45836D01*
X664466D01*
X663133Y46835D02*
X663800D01*
X661466Y53835D02*
X660134D01*
Y51836D01*
X661466D01*
X660134Y52835D02*
X660800D01*
X661466Y89835D02*
X660134D01*
Y87836D01*
X661466D01*
X660134Y88835D02*
X660800D01*
X664466Y95835D02*
X663133D01*
Y93836D01*
X664466D01*
X663133Y94835D02*
X663800D01*
X661466Y101835D02*
X660134D01*
Y99836D01*
X661466D01*
X660134Y100835D02*
X660800D01*
X664466Y107835D02*
X663133D01*
Y105836D01*
X664466D01*
X663133Y106835D02*
X663800D01*
X661466Y113835D02*
X660134D01*
Y111836D01*
X661466D01*
X660134Y112835D02*
X660800D01*
X664466Y119835D02*
X663133D01*
Y117836D01*
X664466D01*
X663133Y118835D02*
X663800D01*
X661466Y125835D02*
X660134D01*
Y123836D01*
X661466D01*
X660134Y124835D02*
X660800D01*
X661466Y161835D02*
X660134D01*
Y159836D01*
X661466D01*
X660134Y160835D02*
X660800D01*
X664466Y167835D02*
X663133D01*
Y165836D01*
X664466D01*
X663133Y166835D02*
X663800D01*
X661466Y173835D02*
X660134D01*
Y171836D01*
X661466D01*
X660134Y172835D02*
X660800D01*
X667466Y41835D02*
X666133D01*
Y39836D01*
X667466D01*
X666133Y40835D02*
X666800D01*
X670466Y47835D02*
X669134D01*
Y45836D01*
X670466D01*
X669134Y46835D02*
X669800D01*
X667466Y53835D02*
X666133D01*
Y51836D01*
X667466D01*
X666133Y52835D02*
X666800D01*
X670466Y59835D02*
X669134D01*
Y57836D01*
X670466D01*
X669134Y58835D02*
X669800D01*
X670466Y71835D02*
X669134D01*
Y69836D01*
X670466D01*
X669134Y70835D02*
X669800D01*
X670466Y83835D02*
X669134D01*
Y81836D01*
X670466D01*
X669134Y82835D02*
X669800D01*
X667466Y89835D02*
X666133D01*
Y87836D01*
X667466D01*
X666133Y88835D02*
X666800D01*
X670466Y95835D02*
X669134D01*
Y93836D01*
X670466D01*
X669134Y94835D02*
X669800D01*
X667466Y101835D02*
X666133D01*
Y99836D01*
X667466D01*
X666133Y100835D02*
X666800D01*
X670466Y107835D02*
X669134D01*
Y105836D01*
X670466D01*
X669134Y106835D02*
X669800D01*
X667466Y113835D02*
X666133D01*
Y111836D01*
X667466D01*
X666133Y112835D02*
X666800D01*
X670466Y119835D02*
X669134D01*
Y117836D01*
X670466D01*
X669134Y118835D02*
X669800D01*
X667466Y125835D02*
X666133D01*
Y123836D01*
X667466D01*
X666133Y124835D02*
X666800D01*
X670466Y131835D02*
X669134D01*
Y129836D01*
X670466D01*
X669134Y130835D02*
X669800D01*
X670466Y143835D02*
X669134D01*
Y141836D01*
X670466D01*
X669134Y142835D02*
X669800D01*
X670466Y155835D02*
X669134D01*
Y153836D01*
X670466D01*
X669134Y154835D02*
X669800D01*
X667466Y161835D02*
X666133D01*
Y159836D01*
X667466D01*
X666133Y160835D02*
X666800D01*
X670466Y167835D02*
X669134D01*
Y165836D01*
X670466D01*
X669134Y166835D02*
X669800D01*
X667466Y173835D02*
X666133D01*
Y171836D01*
X667466D01*
X666133Y172835D02*
X666800D01*
X673466Y41835D02*
X672133D01*
Y39836D01*
X673466D01*
X672133Y40835D02*
X672800D01*
X676466Y47835D02*
X675134D01*
Y45836D01*
X676466D01*
X675134Y46835D02*
X675800D01*
X673466Y53835D02*
X672133D01*
Y51836D01*
X673466D01*
X672133Y52835D02*
X672800D01*
X676466Y59835D02*
X675134D01*
Y57836D01*
X676466D01*
X675134Y58835D02*
X675800D01*
X673466Y65835D02*
X672133D01*
Y63836D01*
X673466D01*
X672133Y64835D02*
X672800D01*
X676466Y71835D02*
X675134D01*
Y69836D01*
X676466D01*
X675134Y70835D02*
X675800D01*
X673466Y77835D02*
X672133D01*
Y75836D01*
X673466D01*
X672133Y76835D02*
X672800D01*
X676466Y83835D02*
X675134D01*
Y81836D01*
X676466D01*
X675134Y82835D02*
X675800D01*
X673466Y89835D02*
X672133D01*
Y87836D01*
X673466D01*
X672133Y88835D02*
X672800D01*
X676466Y95835D02*
X675134D01*
Y93836D01*
X676466D01*
X675134Y94835D02*
X675800D01*
X673466Y101835D02*
X672133D01*
Y99836D01*
X673466D01*
X672133Y100835D02*
X672800D01*
X676466Y107835D02*
X675134D01*
Y105836D01*
X676466D01*
X675134Y106835D02*
X675800D01*
X673466Y113835D02*
X672133D01*
Y111836D01*
X673466D01*
X672133Y112835D02*
X672800D01*
X676466Y119835D02*
X675134D01*
Y117836D01*
X676466D01*
X675134Y118835D02*
X675800D01*
X673466Y125835D02*
X672133D01*
Y123836D01*
X673466D01*
X672133Y124835D02*
X672800D01*
X676466Y131835D02*
X675134D01*
Y129836D01*
X676466D01*
X675134Y130835D02*
X675800D01*
X673466Y137835D02*
X672133D01*
Y135836D01*
X673466D01*
X672133Y136835D02*
X672800D01*
X676466Y143835D02*
X675134D01*
Y141836D01*
X676466D01*
X675134Y142835D02*
X675800D01*
X673466Y149835D02*
X672133D01*
Y147836D01*
X673466D01*
X672133Y148835D02*
X672800D01*
X676466Y155835D02*
X675134D01*
Y153836D01*
X676466D01*
X675134Y154835D02*
X675800D01*
X673466Y161835D02*
X672133D01*
Y159836D01*
X673466D01*
X672133Y160835D02*
X672800D01*
X676466Y167835D02*
X675134D01*
Y165836D01*
X676466D01*
X675134Y166835D02*
X675800D01*
X673466Y173835D02*
X672133D01*
Y171836D01*
X673466D01*
X672133Y172835D02*
X672800D01*
X679466Y41835D02*
X678133D01*
Y39836D01*
X679466D01*
X678133Y40835D02*
X678800D01*
X679466Y53835D02*
X678133D01*
Y51836D01*
X679466D01*
X678133Y52835D02*
X678800D01*
X679466Y65835D02*
X678133D01*
Y63836D01*
X679466D01*
X678133Y64835D02*
X678800D01*
X679466Y77835D02*
X678133D01*
Y75836D01*
X679466D01*
X678133Y76835D02*
X678800D01*
X679466Y89835D02*
X678133D01*
Y87836D01*
X679466D01*
X678133Y88835D02*
X678800D01*
X679466Y101835D02*
X678133D01*
Y99836D01*
X679466D01*
X678133Y100835D02*
X678800D01*
X679466Y113835D02*
X678133D01*
Y111836D01*
X679466D01*
X678133Y112835D02*
X678800D01*
X679466Y125835D02*
X678133D01*
Y123836D01*
X679466D01*
X678133Y124835D02*
X678800D01*
X679466Y137835D02*
X678133D01*
Y135836D01*
X679466D01*
X678133Y136835D02*
X678800D01*
X679466Y149835D02*
X678133D01*
Y147836D01*
X679466D01*
X678133Y148835D02*
X678800D01*
X679466Y161835D02*
X678133D01*
Y159836D01*
X679466D01*
X678133Y160835D02*
X678800D01*
X679466Y173835D02*
X678133D01*
Y171836D01*
X679466D01*
X678133Y172835D02*
X678800D01*
X152516Y70235D02*
X151183D01*
Y68236D01*
X152516D01*
X151183Y69235D02*
X151850D01*
X152516Y81235D02*
X151183D01*
Y79236D01*
X152516D01*
X151183Y80235D02*
X151850D01*
X155266Y64735D02*
X153934D01*
Y62736D01*
X155266D01*
X153934Y63735D02*
X154600D01*
X158016Y70235D02*
X156684D01*
Y68236D01*
X158016D01*
X156684Y69235D02*
X157350D01*
X155266Y75735D02*
X153934D01*
Y73736D01*
X155266D01*
X153934Y74735D02*
X154600D01*
X158016Y81235D02*
X156684D01*
Y79236D01*
X158016D01*
X156684Y80235D02*
X157350D01*
X155266Y86735D02*
X153934D01*
Y84736D01*
X155266D01*
X153934Y85735D02*
X154600D01*
X160766Y64735D02*
X159433D01*
Y62736D01*
X160766D01*
X159433Y63735D02*
X160100D01*
X163516Y70235D02*
X162183D01*
Y68236D01*
X163516D01*
X162183Y69235D02*
X162850D01*
X160766Y75735D02*
X159433D01*
Y73736D01*
X160766D01*
X159433Y74735D02*
X160100D01*
X163516Y81235D02*
X162183D01*
Y79236D01*
X163516D01*
X162183Y80235D02*
X162850D01*
X160766Y86735D02*
X159433D01*
Y84736D01*
X160766D01*
X159433Y85735D02*
X160100D01*
X166266Y64735D02*
X164934D01*
Y62736D01*
X166266D01*
X164934Y63735D02*
X165600D01*
X169016Y70235D02*
X167683D01*
Y68236D01*
X169016D01*
X167683Y69235D02*
X168350D01*
X166266Y75735D02*
X164934D01*
Y73736D01*
X166266D01*
X164934Y74735D02*
X165600D01*
X169016Y81235D02*
X167683D01*
Y79236D01*
X169016D01*
X167683Y80235D02*
X168350D01*
X166266Y86735D02*
X164934D01*
Y84736D01*
X166266D01*
X164934Y85735D02*
X165600D01*
X161134Y22300D02*
Y23633D01*
X161800Y24300D01*
X162467Y23633D01*
Y22300D01*
Y23300D01*
X161134D01*
X29134Y73800D02*
Y71800D01*
X30133D01*
X30466Y72134D01*
Y73466D01*
X30133Y73800D01*
X29134D01*
X19133D02*
Y71800D01*
X20133D01*
X20467Y72134D01*
Y73466D01*
X20133Y73800D01*
X19133D01*
Y83800D02*
Y81800D01*
X20133D01*
X20467Y82134D01*
Y83467D01*
X20133Y83800D01*
X19133D01*
X29134D02*
Y81800D01*
X30133D01*
X30466Y82134D01*
Y83467D01*
X30133Y83800D01*
X29134D01*
Y93800D02*
Y91800D01*
X30133D01*
X30466Y92134D01*
Y93467D01*
X30133Y93800D01*
X29134D01*
X19133D02*
Y91800D01*
X20133D01*
X20467Y92134D01*
Y93467D01*
X20133Y93800D01*
X19133D01*
Y103800D02*
Y101800D01*
X20133D01*
X20467Y102134D01*
Y103466D01*
X20133Y103800D01*
X19133D01*
X29134D02*
Y101800D01*
X30133D01*
X30466Y102134D01*
Y103466D01*
X30133Y103800D01*
X29134D01*
Y113800D02*
Y111800D01*
X30133D01*
X30466Y112134D01*
Y113467D01*
X30133Y113800D01*
X29134D01*
X19133D02*
Y111800D01*
X20133D01*
X20467Y112134D01*
Y113467D01*
X20133Y113800D01*
X19133D01*
Y123800D02*
Y121800D01*
X20133D01*
X20467Y122134D01*
Y123467D01*
X20133Y123800D01*
X19133D01*
X29134D02*
Y121800D01*
X30133D01*
X30466Y122134D01*
Y123467D01*
X30133Y123800D01*
X29134D01*
Y133800D02*
Y131800D01*
X30133D01*
X30466Y132134D01*
Y133466D01*
X30133Y133800D01*
X29134D01*
X19133D02*
Y131800D01*
X20133D01*
X20467Y132134D01*
Y133466D01*
X20133Y133800D01*
X19133D01*
Y143800D02*
Y141800D01*
X20133D01*
X20467Y142134D01*
Y143466D01*
X20133Y143800D01*
X19133D01*
X29134D02*
Y141800D01*
X30133D01*
X30466Y142134D01*
Y143466D01*
X30133Y143800D01*
X29134D01*
X19152Y197650D02*
X19818D01*
X19485D01*
Y195651D01*
X19152D01*
X19818D01*
X668758Y197650D02*
X669425D01*
X669091D01*
Y195651D01*
X668758D01*
X669425D01*
X668758Y20485D02*
X669425D01*
X669091D01*
Y18485D01*
X668758D01*
X669425D01*
X19152Y20485D02*
X19818D01*
X19485D01*
Y18485D01*
X19152D01*
X19818D01*
X646136Y181410D02*
X644803D01*
Y180410D01*
X645469D01*
X644803D01*
Y179411D01*
X43773Y181410D02*
X42441D01*
Y180410D01*
X43107D01*
X42441D01*
Y179411D01*
X646136Y108242D02*
X645802Y108575D01*
X645136D01*
X644803Y108242D01*
Y106909D01*
X645136Y106576D01*
X645802D01*
X646136Y106909D01*
X555585Y102337D02*
X555251Y102670D01*
X554585D01*
X554252Y102337D01*
Y101004D01*
X554585Y100670D01*
X555251D01*
X555585Y101004D01*
Y101670D01*
X554918D01*
X566411Y201746D02*
X566078Y202079D01*
X565412D01*
X565078Y201746D01*
Y200413D01*
X565412Y200080D01*
X566078D01*
X566411Y200413D01*
X74724Y191646D02*
Y189647D01*
X75724D01*
X76057Y189980D01*
Y190313D01*
X75724Y190647D01*
X74724D01*
X75724D01*
X76057Y190980D01*
Y191313D01*
X75724Y191646D01*
X74724D01*
X90472D02*
Y189647D01*
X91472D01*
X91805Y189980D01*
Y190313D01*
X91472Y190647D01*
X90472D01*
X91472D01*
X91805Y190980D01*
Y191313D01*
X91472Y191646D01*
X90472D01*
X98346D02*
Y189647D01*
X99346D01*
X99679Y189980D01*
Y190313D01*
X99346Y190647D01*
X98346D01*
X99346D01*
X99679Y190980D01*
Y191313D01*
X99346Y191646D01*
X98346D01*
X137716D02*
Y189647D01*
X138716D01*
X139049Y189980D01*
Y190313D01*
X138716Y190647D01*
X137716D01*
X138716D01*
X139049Y190980D01*
Y191313D01*
X138716Y191646D01*
X137716D01*
X145590D02*
Y189647D01*
X146590D01*
X146923Y189980D01*
Y190313D01*
X146590Y190647D01*
X145590D01*
X146590D01*
X146923Y190980D01*
Y191313D01*
X146590Y191646D01*
X145590D01*
X153464D02*
Y189647D01*
X154464D01*
X154797Y189980D01*
Y190313D01*
X154464Y190647D01*
X153464D01*
X154464D01*
X154797Y190980D01*
Y191313D01*
X154464Y191646D01*
X153464D01*
X161338D02*
Y189647D01*
X162338D01*
X162671Y189980D01*
Y190313D01*
X162338Y190647D01*
X161338D01*
X162338D01*
X162671Y190980D01*
Y191313D01*
X162338Y191646D01*
X161338D01*
X169212D02*
Y189647D01*
X170212D01*
X170545Y189980D01*
Y190313D01*
X170212Y190647D01*
X169212D01*
X170212D01*
X170545Y190980D01*
Y191313D01*
X170212Y191646D01*
X169212D01*
X82598D02*
Y189647D01*
X83598D01*
X83931Y189980D01*
Y190313D01*
X83598Y190647D01*
X82598D01*
X83598D01*
X83931Y190980D01*
Y191313D01*
X83598Y191646D01*
X82598D01*
X413307D02*
Y189647D01*
X414307D01*
X414640Y189980D01*
Y190313D01*
X414307Y190647D01*
X413307D01*
X414307D01*
X414640Y190980D01*
Y191313D01*
X414307Y191646D01*
X413307D01*
X421181D02*
Y189647D01*
X422181D01*
X422514Y189980D01*
Y190313D01*
X422181Y190647D01*
X421181D01*
X422181D01*
X422514Y190980D01*
Y191313D01*
X422181Y191646D01*
X421181D01*
X429055D02*
Y189647D01*
X430055D01*
X430388Y189980D01*
Y190313D01*
X430055Y190647D01*
X429055D01*
X430055D01*
X430388Y190980D01*
Y191313D01*
X430055Y191646D01*
X429055D01*
X436929D02*
Y189647D01*
X437929D01*
X438262Y189980D01*
Y190313D01*
X437929Y190647D01*
X436929D01*
X437929D01*
X438262Y190980D01*
Y191313D01*
X437929Y191646D01*
X436929D01*
X444803D02*
Y189647D01*
X445803D01*
X446136Y189980D01*
Y190313D01*
X445803Y190647D01*
X444803D01*
X445803D01*
X446136Y190980D01*
Y191313D01*
X445803Y191646D01*
X444803D01*
X460551D02*
Y189647D01*
X461551D01*
X461884Y189980D01*
Y190313D01*
X461551Y190647D01*
X460551D01*
X461551D01*
X461884Y190980D01*
Y191313D01*
X461551Y191646D01*
X460551D01*
X468425D02*
Y189647D01*
X469425D01*
X469758Y189980D01*
Y190313D01*
X469425Y190647D01*
X468425D01*
X469425D01*
X469758Y190980D01*
Y191313D01*
X469425Y191646D01*
X468425D01*
X452677D02*
Y189647D01*
X453677D01*
X454010Y189980D01*
Y190313D01*
X453677Y190647D01*
X452677D01*
X453677D01*
X454010Y190980D01*
Y191313D01*
X453677Y191646D01*
X452677D01*
X476299D02*
Y189647D01*
X477299D01*
X477632Y189980D01*
Y190313D01*
X477299Y190647D01*
X476299D01*
X477299D01*
X477632Y190980D01*
Y191313D01*
X477299Y191646D01*
X476299D01*
X484173D02*
Y189647D01*
X485173D01*
X485506Y189980D01*
Y190313D01*
X485173Y190647D01*
X484173D01*
X485173D01*
X485506Y190980D01*
Y191313D01*
X485173Y191646D01*
X484173D01*
X492047D02*
Y189647D01*
X493047D01*
X493380Y189980D01*
Y190313D01*
X493047Y190647D01*
X492047D01*
X493047D01*
X493380Y190980D01*
Y191313D01*
X493047Y191646D01*
X492047D01*
X499921D02*
Y189647D01*
X500921D01*
X501254Y189980D01*
Y190313D01*
X500921Y190647D01*
X499921D01*
X500921D01*
X501254Y190980D01*
Y191313D01*
X500921Y191646D01*
X499921D01*
X507795D02*
Y189647D01*
X508795D01*
X509128Y189980D01*
Y190313D01*
X508795Y190647D01*
X507795D01*
X508795D01*
X509128Y190980D01*
Y191313D01*
X508795Y191646D01*
X507795D01*
X515669D02*
Y189647D01*
X516669D01*
X517002Y189980D01*
Y190313D01*
X516669Y190647D01*
X515669D01*
X516669D01*
X517002Y190980D01*
Y191313D01*
X516669Y191646D01*
X515669D01*
X523543D02*
Y189647D01*
X524543D01*
X524876Y189980D01*
Y190313D01*
X524543Y190647D01*
X523543D01*
X524543D01*
X524876Y190980D01*
Y191313D01*
X524543Y191646D01*
X523543D01*
X531417D02*
Y189647D01*
X532417D01*
X532750Y189980D01*
Y190313D01*
X532417Y190647D01*
X531417D01*
X532417D01*
X532750Y190980D01*
Y191313D01*
X532417Y191646D01*
X531417D01*
X539291D02*
Y189647D01*
X540291D01*
X540624Y189980D01*
Y190313D01*
X540291Y190647D01*
X539291D01*
X540291D01*
X540624Y190980D01*
Y191313D01*
X540291Y191646D01*
X539291D01*
X547165D02*
Y189647D01*
X548165D01*
X548498Y189980D01*
Y190313D01*
X548165Y190647D01*
X547165D01*
X548165D01*
X548498Y190980D01*
Y191313D01*
X548165Y191646D01*
X547165D01*
X586535D02*
Y189647D01*
X587535D01*
X587868Y189980D01*
Y190313D01*
X587535Y190647D01*
X586535D01*
X587535D01*
X587868Y190980D01*
Y191313D01*
X587535Y191646D01*
X586535D01*
X594409D02*
Y189647D01*
X595409D01*
X595742Y189980D01*
Y190313D01*
X595409Y190647D01*
X594409D01*
X595409D01*
X595742Y190980D01*
Y191313D01*
X595409Y191646D01*
X594409D01*
X602283D02*
Y189647D01*
X603283D01*
X603616Y189980D01*
Y190313D01*
X603283Y190647D01*
X602283D01*
X603283D01*
X603616Y190980D01*
Y191313D01*
X603283Y191646D01*
X602283D01*
X610157D02*
Y189647D01*
X611157D01*
X611490Y189980D01*
Y190313D01*
X611157Y190647D01*
X610157D01*
X611157D01*
X611490Y190980D01*
Y191313D01*
X611157Y191646D01*
X610157D01*
X43773Y25565D02*
X43440Y25898D01*
X42774D01*
X42441Y25565D01*
Y24232D01*
X42774Y23899D01*
X43440D01*
X43773Y24232D01*
X342986Y15722D02*
X342653Y16056D01*
X341986D01*
X341653Y15722D01*
Y14390D01*
X341986Y14056D01*
X342653D01*
X342986Y14390D01*
X563459Y15722D02*
X563125Y16056D01*
X562459D01*
X562126Y15722D01*
Y14390D01*
X562459Y14056D01*
X563125D01*
X563459Y14390D01*
X117395Y201746D02*
X117062Y202079D01*
X116396D01*
X116063Y201746D01*
Y200413D01*
X116396Y200080D01*
X117062D01*
X117395Y200413D01*
X125118Y102670D02*
Y100670D01*
Y101670D01*
X126451D01*
Y102670D01*
Y100670D01*
X120939Y15722D02*
X120606Y16056D01*
X119939D01*
X119606Y15722D01*
Y14390D01*
X119939Y14056D01*
X120606D01*
X120939Y14390D01*
M02*
