G04*
G04 #@! TF.GenerationSoftware,Altium Limited,Altium Designer,22.1.2 (22)*
G04*
G04 Layer_Color=2752767*
%FSLAX25Y25*%
%MOIN*%
G70*
G04*
G04 #@! TF.SameCoordinates,DF75A293-B8B3-40F9-85AC-AEAE4A76D7A3*
G04*
G04*
G04 #@! TF.FilePolarity,Positive*
G04*
G01*
G75*
%ADD10C,0.01000*%
%ADD78C,0.01500*%
%ADD79C,0.01600*%
%ADD80C,0.01400*%
%ADD81C,0.00200*%
D10*
X1593202Y171893D02*
X1597201D01*
X1593202Y153894D02*
X1595201D01*
X1594202D01*
Y159892D01*
X1593202Y158893D01*
X1598201Y154894D02*
X1599200Y153894D01*
X1601200D01*
X1602199Y154894D01*
Y158893D01*
X1601200Y159892D01*
X1599200D01*
X1598201Y158893D01*
Y157893D01*
X1599200Y156893D01*
X1602199D01*
X1604199Y153894D02*
Y154894D01*
X1605198D01*
Y153894D01*
X1604199D01*
X1613196Y159892D02*
X1611196Y158893D01*
X1609197Y156893D01*
Y154894D01*
X1610197Y153894D01*
X1612196D01*
X1613196Y154894D01*
Y155894D01*
X1612196Y156893D01*
X1609197D01*
X1615195Y154894D02*
X1616195Y153894D01*
X1618194D01*
X1619194Y154894D01*
Y158893D01*
X1618194Y159892D01*
X1616195D01*
X1615195Y158893D01*
Y157893D01*
X1616195Y156893D01*
X1619194D01*
X1621193Y153894D02*
Y157893D01*
X1622193D01*
X1623192Y156893D01*
Y153894D01*
Y156893D01*
X1624192Y157893D01*
X1625192Y156893D01*
Y153894D01*
X1627191D02*
X1629190D01*
X1628191D01*
Y157893D01*
X1627191D01*
X1632190Y153894D02*
X1634189D01*
X1633189D01*
Y159892D01*
X1632190D01*
X1645185Y153894D02*
X1643186Y155894D01*
Y157893D01*
X1645185Y159892D01*
X1648184Y158893D02*
X1649184Y159892D01*
X1651183D01*
X1652183Y158893D01*
Y154894D01*
X1651183Y153894D01*
X1649184D01*
X1648184Y154894D01*
Y158893D01*
X1654182Y153894D02*
Y154894D01*
X1655182D01*
Y153894D01*
X1654182D01*
X1663180Y159892D02*
X1659181D01*
Y156893D01*
X1661180Y157893D01*
X1662180D01*
X1663180Y156893D01*
Y154894D01*
X1662180Y153894D01*
X1660180D01*
X1659181Y154894D01*
X1665179Y158893D02*
X1666179Y159892D01*
X1668178D01*
X1669178Y158893D01*
Y154894D01*
X1668178Y153894D01*
X1666179D01*
X1665179Y154894D01*
Y158893D01*
X1671177D02*
X1672177Y159892D01*
X1674176D01*
X1675176Y158893D01*
Y154894D01*
X1674176Y153894D01*
X1672177D01*
X1671177Y154894D01*
Y158893D01*
X1677175Y153894D02*
Y157893D01*
X1678175D01*
X1679174Y156893D01*
Y153894D01*
Y156893D01*
X1680174Y157893D01*
X1681174Y156893D01*
Y153894D01*
X1683173D02*
Y157893D01*
X1684173D01*
X1685172Y156893D01*
Y153894D01*
Y156893D01*
X1686172Y157893D01*
X1687172Y156893D01*
Y153894D01*
X1689171D02*
X1691170Y155894D01*
Y157893D01*
X1689171Y159892D01*
X1593202Y141893D02*
X1597201D01*
X1593202Y126893D02*
X1597201D01*
X1593202Y108894D02*
X1595201D01*
X1594202D01*
Y114892D01*
X1593202Y113893D01*
X1602199Y114892D02*
X1598201D01*
Y111893D01*
X1600200Y112893D01*
X1601200D01*
X1602199Y111893D01*
Y109894D01*
X1601200Y108894D01*
X1599200D01*
X1598201Y109894D01*
X1604199Y114892D02*
X1608197D01*
Y113893D01*
X1604199Y109894D01*
Y108894D01*
X1610197D02*
Y109894D01*
X1611196D01*
Y108894D01*
X1610197D01*
X1618194D02*
Y114892D01*
X1615195Y111893D01*
X1619194D01*
X1621193Y113893D02*
X1622193Y114892D01*
X1624192D01*
X1625192Y113893D01*
Y112893D01*
X1624192Y111893D01*
X1625192Y110893D01*
Y109894D01*
X1624192Y108894D01*
X1622193D01*
X1621193Y109894D01*
Y110893D01*
X1622193Y111893D01*
X1621193Y112893D01*
Y113893D01*
X1622193Y111893D02*
X1624192D01*
X1627191Y108894D02*
Y112893D01*
X1628191D01*
X1629190Y111893D01*
Y108894D01*
Y111893D01*
X1630190Y112893D01*
X1631190Y111893D01*
Y108894D01*
X1633189D02*
X1635189D01*
X1634189D01*
Y112893D01*
X1633189D01*
X1638188Y108894D02*
X1640187D01*
X1639187D01*
Y114892D01*
X1638188D01*
X1651183Y108894D02*
X1649184Y110893D01*
Y112893D01*
X1651183Y114892D01*
X1657181Y108894D02*
Y114892D01*
X1654182Y111893D01*
X1658181D01*
X1660180Y108894D02*
Y109894D01*
X1661180D01*
Y108894D01*
X1660180D01*
X1665179Y113893D02*
X1666179Y114892D01*
X1668178D01*
X1669178Y113893D01*
Y109894D01*
X1668178Y108894D01*
X1666179D01*
X1665179Y109894D01*
Y113893D01*
X1671177D02*
X1672177Y114892D01*
X1674176D01*
X1675176Y113893D01*
Y109894D01*
X1674176Y108894D01*
X1672177D01*
X1671177Y109894D01*
Y113893D01*
X1677175D02*
X1678175Y114892D01*
X1680174D01*
X1681174Y113893D01*
Y109894D01*
X1680174Y108894D01*
X1678175D01*
X1677175Y109894D01*
Y113893D01*
X1683173Y108894D02*
Y112893D01*
X1684173D01*
X1685172Y111893D01*
Y108894D01*
Y111893D01*
X1686172Y112893D01*
X1687172Y111893D01*
Y108894D01*
X1689171D02*
Y112893D01*
X1690171D01*
X1691170Y111893D01*
Y108894D01*
Y111893D01*
X1692170Y112893D01*
X1693170Y111893D01*
Y108894D01*
X1695169D02*
X1697169Y110893D01*
Y112893D01*
X1695169Y114892D01*
X1593202Y96893D02*
X1597201D01*
X1593202Y81893D02*
X1597201D01*
X1593202Y66893D02*
X1597201D01*
X1593202Y51893D02*
X1597201D01*
X1478236Y171893D02*
X1482234D01*
X1478236Y153894D02*
X1480235D01*
X1479235D01*
Y159892D01*
X1478236Y158893D01*
X1483234D02*
X1484234Y159892D01*
X1486233D01*
X1487233Y158893D01*
Y157893D01*
X1486233Y156893D01*
X1485233D01*
X1486233D01*
X1487233Y155894D01*
Y154894D01*
X1486233Y153894D01*
X1484234D01*
X1483234Y154894D01*
X1489232Y159892D02*
X1493231D01*
Y158893D01*
X1489232Y154894D01*
Y153894D01*
X1495230D02*
Y154894D01*
X1496230D01*
Y153894D01*
X1495230D01*
X1500229Y159892D02*
X1504227D01*
Y158893D01*
X1500229Y154894D01*
Y153894D01*
X1506227Y154894D02*
X1507226Y153894D01*
X1509226D01*
X1510225Y154894D01*
Y158893D01*
X1509226Y159892D01*
X1507226D01*
X1506227Y158893D01*
Y157893D01*
X1507226Y156893D01*
X1510225D01*
X1512225Y153894D02*
Y157893D01*
X1513225D01*
X1514224Y156893D01*
Y153894D01*
Y156893D01*
X1515224Y157893D01*
X1516224Y156893D01*
Y153894D01*
X1518223D02*
X1520222D01*
X1519223D01*
Y157893D01*
X1518223D01*
X1523221Y153894D02*
X1525221D01*
X1524221D01*
Y159892D01*
X1523221D01*
X1536217Y153894D02*
X1534218Y155894D01*
Y157893D01*
X1536217Y159892D01*
X1539216Y158893D02*
X1540216Y159892D01*
X1542215D01*
X1543215Y158893D01*
Y157893D01*
X1542215Y156893D01*
X1541215D01*
X1542215D01*
X1543215Y155894D01*
Y154894D01*
X1542215Y153894D01*
X1540216D01*
X1539216Y154894D01*
X1545214Y153894D02*
Y154894D01*
X1546214D01*
Y153894D01*
X1545214D01*
X1554211Y159892D02*
X1550212D01*
Y156893D01*
X1552212Y157893D01*
X1553211D01*
X1554211Y156893D01*
Y154894D01*
X1553211Y153894D01*
X1551212D01*
X1550212Y154894D01*
X1556211Y158893D02*
X1557210Y159892D01*
X1559210D01*
X1560209Y158893D01*
Y154894D01*
X1559210Y153894D01*
X1557210D01*
X1556211Y154894D01*
Y158893D01*
X1562209D02*
X1563208Y159892D01*
X1565208D01*
X1566207Y158893D01*
Y154894D01*
X1565208Y153894D01*
X1563208D01*
X1562209Y154894D01*
Y158893D01*
X1568207Y153894D02*
Y157893D01*
X1569206D01*
X1570206Y156893D01*
Y153894D01*
Y156893D01*
X1571206Y157893D01*
X1572205Y156893D01*
Y153894D01*
X1574205D02*
Y157893D01*
X1575204D01*
X1576204Y156893D01*
Y153894D01*
Y156893D01*
X1577204Y157893D01*
X1578203Y156893D01*
Y153894D01*
X1580203D02*
X1582202Y155894D01*
Y157893D01*
X1580203Y159892D01*
X1478236Y141893D02*
X1482234D01*
X1478236Y126893D02*
X1482234D01*
X1478236Y108894D02*
X1480235D01*
X1479235D01*
Y114892D01*
X1478236Y113893D01*
X1483234Y109894D02*
X1484234Y108894D01*
X1486233D01*
X1487233Y109894D01*
Y113893D01*
X1486233Y114892D01*
X1484234D01*
X1483234Y113893D01*
Y112893D01*
X1484234Y111893D01*
X1487233D01*
X1493231Y114892D02*
X1491232Y113893D01*
X1489232Y111893D01*
Y109894D01*
X1490232Y108894D01*
X1492231D01*
X1493231Y109894D01*
Y110893D01*
X1492231Y111893D01*
X1489232D01*
X1495230Y108894D02*
Y109894D01*
X1496230D01*
Y108894D01*
X1495230D01*
X1500229Y113893D02*
X1501228Y114892D01*
X1503228D01*
X1504227Y113893D01*
Y112893D01*
X1503228Y111893D01*
X1504227Y110893D01*
Y109894D01*
X1503228Y108894D01*
X1501228D01*
X1500229Y109894D01*
Y110893D01*
X1501228Y111893D01*
X1500229Y112893D01*
Y113893D01*
X1501228Y111893D02*
X1503228D01*
X1510225Y114892D02*
X1506227D01*
Y111893D01*
X1508226Y112893D01*
X1509226D01*
X1510225Y111893D01*
Y109894D01*
X1509226Y108894D01*
X1507226D01*
X1506227Y109894D01*
X1512225Y108894D02*
Y112893D01*
X1513225D01*
X1514224Y111893D01*
Y108894D01*
Y111893D01*
X1515224Y112893D01*
X1516224Y111893D01*
Y108894D01*
X1518223D02*
X1520222D01*
X1519223D01*
Y112893D01*
X1518223D01*
X1523221Y108894D02*
X1525221D01*
X1524221D01*
Y114892D01*
X1523221D01*
X1536217Y108894D02*
X1534218Y110893D01*
Y112893D01*
X1536217Y114892D01*
X1543215D02*
X1539216D01*
Y111893D01*
X1541215Y112893D01*
X1542215D01*
X1543215Y111893D01*
Y109894D01*
X1542215Y108894D01*
X1540216D01*
X1539216Y109894D01*
X1545214Y108894D02*
Y109894D01*
X1546214D01*
Y108894D01*
X1545214D01*
X1550212Y113893D02*
X1551212Y114892D01*
X1553211D01*
X1554211Y113893D01*
Y109894D01*
X1553211Y108894D01*
X1551212D01*
X1550212Y109894D01*
Y113893D01*
X1556211D02*
X1557210Y114892D01*
X1559210D01*
X1560209Y113893D01*
Y109894D01*
X1559210Y108894D01*
X1557210D01*
X1556211Y109894D01*
Y113893D01*
X1562209D02*
X1563208Y114892D01*
X1565208D01*
X1566207Y113893D01*
Y109894D01*
X1565208Y108894D01*
X1563208D01*
X1562209Y109894D01*
Y113893D01*
X1568207Y108894D02*
Y112893D01*
X1569206D01*
X1570206Y111893D01*
Y108894D01*
Y111893D01*
X1571206Y112893D01*
X1572205Y111893D01*
Y108894D01*
X1574205D02*
Y112893D01*
X1575204D01*
X1576204Y111893D01*
Y108894D01*
Y111893D01*
X1577204Y112893D01*
X1578203Y111893D01*
Y108894D01*
X1580203D02*
X1582202Y110893D01*
Y112893D01*
X1580203Y114892D01*
X1478236Y96893D02*
X1482234D01*
X1478236Y81893D02*
X1482234D01*
X1478236Y66893D02*
X1482234D01*
X1478236Y51893D02*
X1482234D01*
X1348274Y172893D02*
X1345275D01*
X1344276Y171893D01*
Y169894D01*
X1345275Y168894D01*
X1348274D01*
X1350274Y173893D02*
X1351273Y174892D01*
X1353273D01*
X1354272Y173893D01*
Y172893D01*
X1353273Y171893D01*
X1352273D01*
X1353273D01*
X1354272Y170894D01*
Y169894D01*
X1353273Y168894D01*
X1351273D01*
X1350274Y169894D01*
X1356272Y173893D02*
X1357271Y174892D01*
X1359271D01*
X1360270Y173893D01*
Y169894D01*
X1359271Y168894D01*
X1357271D01*
X1356272Y169894D01*
Y173893D01*
X1362270D02*
X1363269Y174892D01*
X1365269D01*
X1366269Y173893D01*
Y169894D01*
X1365269Y168894D01*
X1363269D01*
X1362270Y169894D01*
Y173893D01*
X1368268Y174892D02*
Y168894D01*
Y171893D01*
X1369267Y172893D01*
X1371267D01*
X1372266Y171893D01*
Y168894D01*
X1374266D02*
Y172893D01*
X1377265D01*
X1378265Y171893D01*
Y168894D01*
X1380264Y173893D02*
X1381264Y174892D01*
X1383263D01*
X1384263Y173893D01*
Y172893D01*
X1383263Y171893D01*
X1382263D01*
X1383263D01*
X1384263Y170894D01*
Y169894D01*
X1383263Y168894D01*
X1381264D01*
X1380264Y169894D01*
X1386262Y173893D02*
X1387262Y174892D01*
X1389261D01*
X1390261Y173893D01*
Y169894D01*
X1389261Y168894D01*
X1387262D01*
X1386262Y169894D01*
Y173893D01*
X1392260D02*
X1393260Y174892D01*
X1395259D01*
X1396259Y173893D01*
Y169894D01*
X1395259Y168894D01*
X1393260D01*
X1392260Y169894D01*
Y173893D01*
X1344276Y157893D02*
Y153894D01*
Y155894D01*
X1345275Y156893D01*
X1346275Y157893D01*
X1347275D01*
X1350274Y158893D02*
X1351273Y159892D01*
X1353273D01*
X1354272Y158893D01*
Y157893D01*
X1353273Y156893D01*
X1352273D01*
X1353273D01*
X1354272Y155894D01*
Y154894D01*
X1353273Y153894D01*
X1351273D01*
X1350274Y154894D01*
X1356272Y158893D02*
X1357271Y159892D01*
X1359271D01*
X1360270Y158893D01*
Y154894D01*
X1359271Y153894D01*
X1357271D01*
X1356272Y154894D01*
Y158893D01*
X1362270D02*
X1363269Y159892D01*
X1365269D01*
X1366269Y158893D01*
Y154894D01*
X1365269Y153894D01*
X1363269D01*
X1362270Y154894D01*
Y158893D01*
X1368268Y152894D02*
X1372266D01*
X1374266Y158893D02*
X1375266Y159892D01*
X1377265D01*
X1378265Y158893D01*
Y157893D01*
X1377265Y156893D01*
X1376265D01*
X1377265D01*
X1378265Y155894D01*
Y154894D01*
X1377265Y153894D01*
X1375266D01*
X1374266Y154894D01*
X1384263Y159892D02*
X1380264D01*
Y156893D01*
X1382263Y157893D01*
X1383263D01*
X1384263Y156893D01*
Y154894D01*
X1383263Y153894D01*
X1381264D01*
X1380264Y154894D01*
X1386262Y158893D02*
X1387262Y159892D01*
X1389261D01*
X1390261Y158893D01*
Y154894D01*
X1389261Y153894D01*
X1387262D01*
X1386262Y154894D01*
Y158893D01*
X1392260Y159892D02*
Y153894D01*
Y156893D01*
X1393260Y157893D01*
X1395259D01*
X1396259Y156893D01*
Y153894D01*
X1398258D02*
Y157893D01*
X1401257D01*
X1402257Y156893D01*
Y153894D01*
X1404256Y158893D02*
X1405256Y159892D01*
X1407255D01*
X1408255Y158893D01*
Y157893D01*
X1407255Y156893D01*
X1406256D01*
X1407255D01*
X1408255Y155894D01*
Y154894D01*
X1407255Y153894D01*
X1405256D01*
X1404256Y154894D01*
X1410254Y158893D02*
X1411254Y159892D01*
X1413253D01*
X1414253Y158893D01*
Y154894D01*
X1413253Y153894D01*
X1411254D01*
X1410254Y154894D01*
Y158893D01*
X1416252D02*
X1417252Y159892D01*
X1419251D01*
X1420251Y158893D01*
Y154894D01*
X1419251Y153894D01*
X1417252D01*
X1416252Y154894D01*
Y158893D01*
X1422250Y152894D02*
X1426249D01*
X1428248Y158893D02*
X1429248Y159892D01*
X1431247D01*
X1432247Y158893D01*
Y157893D01*
X1431247Y156893D01*
X1430248D01*
X1431247D01*
X1432247Y155894D01*
Y154894D01*
X1431247Y153894D01*
X1429248D01*
X1428248Y154894D01*
X1438245Y159892D02*
X1434247D01*
Y156893D01*
X1436246Y157893D01*
X1437245D01*
X1438245Y156893D01*
Y154894D01*
X1437245Y153894D01*
X1435246D01*
X1434247Y154894D01*
X1440244Y158893D02*
X1441244Y159892D01*
X1443244D01*
X1444243Y158893D01*
Y154894D01*
X1443244Y153894D01*
X1441244D01*
X1440244Y154894D01*
Y158893D01*
X1446243Y157893D02*
Y153894D01*
Y155894D01*
X1447242Y156893D01*
X1448242Y157893D01*
X1449242D01*
X1452241Y153894D02*
X1454240D01*
X1453240D01*
Y159892D01*
X1452241Y158893D01*
X1457239D02*
X1458239Y159892D01*
X1460238D01*
X1461238Y158893D01*
Y154894D01*
X1460238Y153894D01*
X1458239D01*
X1457239Y154894D01*
Y158893D01*
X1463237D02*
X1464237Y159892D01*
X1466236D01*
X1467236Y158893D01*
Y154894D01*
X1466236Y153894D01*
X1464237D01*
X1463237Y154894D01*
Y158893D01*
X1348274Y142893D02*
X1345275D01*
X1344276Y141893D01*
Y139894D01*
X1345275Y138894D01*
X1348274D01*
X1354272D02*
X1350274D01*
X1354272Y142893D01*
Y143893D01*
X1353273Y144892D01*
X1351273D01*
X1350274Y143893D01*
X1360270Y144892D02*
X1356272D01*
Y141893D01*
X1358271Y142893D01*
X1359271D01*
X1360270Y141893D01*
Y139894D01*
X1359271Y138894D01*
X1357271D01*
X1356272Y139894D01*
X1362270Y143893D02*
X1363269Y144892D01*
X1365269D01*
X1366269Y143893D01*
Y139894D01*
X1365269Y138894D01*
X1363269D01*
X1362270Y139894D01*
Y143893D01*
X1368268Y144892D02*
Y138894D01*
Y141893D01*
X1369267Y142893D01*
X1371267D01*
X1372266Y141893D01*
Y138894D01*
X1374266D02*
Y142893D01*
X1377265D01*
X1378265Y141893D01*
Y138894D01*
X1384263D02*
X1380264D01*
X1384263Y142893D01*
Y143893D01*
X1383263Y144892D01*
X1381264D01*
X1380264Y143893D01*
X1390261Y144892D02*
X1386262D01*
Y141893D01*
X1388261Y142893D01*
X1389261D01*
X1390261Y141893D01*
Y139894D01*
X1389261Y138894D01*
X1387262D01*
X1386262Y139894D01*
X1392260Y143893D02*
X1393260Y144892D01*
X1395259D01*
X1396259Y143893D01*
Y139894D01*
X1395259Y138894D01*
X1393260D01*
X1392260Y139894D01*
Y143893D01*
X1348274Y127893D02*
X1345275D01*
X1344276Y126893D01*
Y124894D01*
X1345275Y123894D01*
X1348274D01*
X1350274Y129892D02*
X1354272D01*
Y128893D01*
X1350274Y124894D01*
Y123894D01*
X1356272Y128893D02*
X1357271Y129892D01*
X1359271D01*
X1360270Y128893D01*
Y124894D01*
X1359271Y123894D01*
X1357271D01*
X1356272Y124894D01*
Y128893D01*
X1362270D02*
X1363269Y129892D01*
X1365269D01*
X1366269Y128893D01*
Y124894D01*
X1365269Y123894D01*
X1363269D01*
X1362270Y124894D01*
Y128893D01*
X1368268Y129892D02*
Y123894D01*
Y126893D01*
X1369267Y127893D01*
X1371267D01*
X1372266Y126893D01*
Y123894D01*
X1374266Y128893D02*
X1375266Y129892D01*
X1377265D01*
X1378265Y128893D01*
Y127893D01*
X1377265Y126893D01*
X1376265D01*
X1377265D01*
X1378265Y125893D01*
Y124894D01*
X1377265Y123894D01*
X1375266D01*
X1374266Y124894D01*
X1384263Y129892D02*
X1380264D01*
Y126893D01*
X1382263Y127893D01*
X1383263D01*
X1384263Y126893D01*
Y124894D01*
X1383263Y123894D01*
X1381264D01*
X1380264Y124894D01*
X1386262Y128893D02*
X1387262Y129892D01*
X1389261D01*
X1390261Y128893D01*
Y124894D01*
X1389261Y123894D01*
X1387262D01*
X1386262Y124894D01*
Y128893D01*
X1344276Y112893D02*
Y108894D01*
Y110893D01*
X1345275Y111893D01*
X1346275Y112893D01*
X1347275D01*
X1350274Y108894D02*
X1352273D01*
X1351273D01*
Y114892D01*
X1350274Y113893D01*
X1355272D02*
X1356272Y114892D01*
X1358271D01*
X1359271Y113893D01*
Y109894D01*
X1358271Y108894D01*
X1356272D01*
X1355272Y109894D01*
Y113893D01*
X1361270D02*
X1362270Y114892D01*
X1364269D01*
X1365269Y113893D01*
Y109894D01*
X1364269Y108894D01*
X1362270D01*
X1361270Y109894D01*
Y113893D01*
X1367268Y107895D02*
X1371267D01*
X1377265Y114892D02*
X1373266D01*
Y111893D01*
X1375266Y112893D01*
X1376265D01*
X1377265Y111893D01*
Y109894D01*
X1376265Y108894D01*
X1374266D01*
X1373266Y109894D01*
X1379264Y113893D02*
X1380264Y114892D01*
X1382263D01*
X1383263Y113893D01*
Y109894D01*
X1382263Y108894D01*
X1380264D01*
X1379264Y109894D01*
Y113893D01*
X1385262D02*
X1386262Y114892D01*
X1388261D01*
X1389261Y113893D01*
Y109894D01*
X1388261Y108894D01*
X1386262D01*
X1385262Y109894D01*
Y113893D01*
X1391260Y114892D02*
Y108894D01*
Y111893D01*
X1392260Y112893D01*
X1394259D01*
X1395259Y111893D01*
Y108894D01*
X1397258D02*
Y112893D01*
X1400257D01*
X1401257Y111893D01*
Y108894D01*
X1403257D02*
X1405256D01*
X1404256D01*
Y114892D01*
X1403257Y113893D01*
X1408255D02*
X1409255Y114892D01*
X1411254D01*
X1412254Y113893D01*
Y109894D01*
X1411254Y108894D01*
X1409255D01*
X1408255Y109894D01*
Y113893D01*
X1414253D02*
X1415253Y114892D01*
X1417252D01*
X1418252Y113893D01*
Y109894D01*
X1417252Y108894D01*
X1415253D01*
X1414253Y109894D01*
Y113893D01*
X1420251Y107895D02*
X1424250D01*
X1430248Y114892D02*
X1426249D01*
Y111893D01*
X1428248Y112893D01*
X1429248D01*
X1430248Y111893D01*
Y109894D01*
X1429248Y108894D01*
X1427249D01*
X1426249Y109894D01*
X1432247Y113893D02*
X1433247Y114892D01*
X1435246D01*
X1436246Y113893D01*
Y109894D01*
X1435246Y108894D01*
X1433247D01*
X1432247Y109894D01*
Y113893D01*
X1438245D02*
X1439245Y114892D01*
X1441244D01*
X1442244Y113893D01*
Y109894D01*
X1441244Y108894D01*
X1439245D01*
X1438245Y109894D01*
Y113893D01*
X1444243Y112893D02*
Y108894D01*
Y110893D01*
X1445243Y111893D01*
X1446243Y112893D01*
X1447242D01*
X1450241Y108894D02*
X1452241D01*
X1451241D01*
Y114892D01*
X1450241Y113893D01*
X1455240D02*
X1456239Y114892D01*
X1458239D01*
X1459238Y113893D01*
Y109894D01*
X1458239Y108894D01*
X1456239D01*
X1455240Y109894D01*
Y113893D01*
X1461238D02*
X1462237Y114892D01*
X1464237D01*
X1465236Y113893D01*
Y109894D01*
X1464237Y108894D01*
X1462237D01*
X1461238Y109894D01*
Y113893D01*
X1346275Y93894D02*
X1344276Y95894D01*
Y97893D01*
X1346275Y99892D01*
X1349274Y93894D02*
Y99892D01*
X1351273Y97893D01*
X1353273Y99892D01*
Y93894D01*
X1355272D02*
X1357271D01*
X1356272D01*
Y97893D01*
X1355272D01*
X1360270D02*
X1364269Y93894D01*
X1362270Y95894D01*
X1364269Y97893D01*
X1360270Y93894D01*
X1369267D02*
X1367268D01*
X1366268Y94894D01*
Y96893D01*
X1367268Y97893D01*
X1369267D01*
X1370267Y96893D01*
Y95894D01*
X1366268D01*
X1376265Y99892D02*
Y93894D01*
X1373266D01*
X1372266Y94894D01*
Y96893D01*
X1373266Y97893D01*
X1376265D01*
X1378265Y93894D02*
X1380264Y95894D01*
Y97893D01*
X1378265Y99892D01*
X1344276Y82893D02*
Y78894D01*
Y80893D01*
X1345275Y81893D01*
X1346275Y82893D01*
X1347275D01*
X1350274Y78894D02*
X1352273D01*
X1351273D01*
Y84892D01*
X1350274Y83893D01*
X1358271Y78894D02*
Y84892D01*
X1355272Y81893D01*
X1359271D01*
X1361270Y79894D02*
X1362270Y78894D01*
X1364269D01*
X1365269Y79894D01*
Y83893D01*
X1364269Y84892D01*
X1362270D01*
X1361270Y83893D01*
Y82893D01*
X1362270Y81893D01*
X1365269D01*
X1367268Y77895D02*
X1371267D01*
X1377265Y78894D02*
X1373266D01*
X1377265Y82893D01*
Y83893D01*
X1376265Y84892D01*
X1374266D01*
X1373266Y83893D01*
X1379264D02*
X1380264Y84892D01*
X1382263D01*
X1383263Y83893D01*
Y79894D01*
X1382263Y78894D01*
X1380264D01*
X1379264Y79894D01*
Y83893D01*
X1385262D02*
X1386262Y84892D01*
X1388261D01*
X1389261Y83893D01*
Y79894D01*
X1388261Y78894D01*
X1386262D01*
X1385262Y79894D01*
Y83893D01*
X1391260Y84892D02*
Y78894D01*
Y81893D01*
X1392260Y82893D01*
X1394259D01*
X1395259Y81893D01*
Y78894D01*
X1397258D02*
X1399258D01*
X1398258D01*
Y84892D01*
X1397258Y83893D01*
X1402257D02*
X1403257Y84892D01*
X1405256D01*
X1406256Y83893D01*
Y79894D01*
X1405256Y78894D01*
X1403257D01*
X1402257Y79894D01*
Y83893D01*
X1408255D02*
X1409255Y84892D01*
X1411254D01*
X1412254Y83893D01*
Y79894D01*
X1411254Y78894D01*
X1409255D01*
X1408255Y79894D01*
Y83893D01*
X1414253Y82893D02*
Y78894D01*
Y80893D01*
X1415253Y81893D01*
X1416252Y82893D01*
X1417252D01*
X1420251Y78894D02*
X1422250D01*
X1421251D01*
Y84892D01*
X1420251Y83893D01*
X1425249D02*
X1426249Y84892D01*
X1428248D01*
X1429248Y83893D01*
Y79894D01*
X1428248Y78894D01*
X1426249D01*
X1425249Y79894D01*
Y83893D01*
X1431247D02*
X1432247Y84892D01*
X1434247D01*
X1435246Y83893D01*
Y79894D01*
X1434247Y78894D01*
X1432247D01*
X1431247Y79894D01*
Y83893D01*
X1344276Y67893D02*
X1346275Y63894D01*
X1348274Y67893D01*
X1350274Y64894D02*
X1351273Y63894D01*
X1353273D01*
X1354272Y64894D01*
Y68893D01*
X1353273Y69892D01*
X1351273D01*
X1350274Y68893D01*
Y67893D01*
X1351273Y66893D01*
X1354272D01*
X1356272Y68893D02*
X1357271Y69892D01*
X1359271D01*
X1360270Y68893D01*
Y64894D01*
X1359271Y63894D01*
X1357271D01*
X1356272Y64894D01*
Y68893D01*
X1362270Y69892D02*
Y63894D01*
Y66893D01*
X1363269Y67893D01*
X1365269D01*
X1366269Y66893D01*
Y63894D01*
X1372266Y69892D02*
X1368268D01*
Y66893D01*
X1370267Y67893D01*
X1371267D01*
X1372266Y66893D01*
Y64894D01*
X1371267Y63894D01*
X1369267D01*
X1368268Y64894D01*
X1374266Y68893D02*
X1375266Y69892D01*
X1377265D01*
X1378265Y68893D01*
Y64894D01*
X1377265Y63894D01*
X1375266D01*
X1374266Y64894D01*
Y68893D01*
X1380264Y63894D02*
Y67893D01*
X1381264D01*
X1382263Y66893D01*
Y63894D01*
Y66893D01*
X1383263Y67893D01*
X1384263Y66893D01*
Y63894D01*
X1386262Y68893D02*
X1387262Y69892D01*
X1389261D01*
X1390261Y68893D01*
Y64894D01*
X1389261Y63894D01*
X1387262D01*
X1386262Y64894D01*
Y68893D01*
X1392260Y63894D02*
Y67893D01*
X1393260D01*
X1394259Y66893D01*
Y63894D01*
Y66893D01*
X1395259Y67893D01*
X1396259Y66893D01*
Y63894D01*
X1398258Y67893D02*
X1402257Y63894D01*
X1400257Y65894D01*
X1402257Y67893D01*
X1398258Y63894D01*
X1404256Y68893D02*
X1405256Y69892D01*
X1407255D01*
X1408255Y68893D01*
Y64894D01*
X1407255Y63894D01*
X1405256D01*
X1404256Y64894D01*
Y68893D01*
X1344276Y52893D02*
X1346275Y48894D01*
X1348274Y52893D01*
X1350274Y48894D02*
X1352273D01*
X1351273D01*
Y54892D01*
X1350274Y53893D01*
X1359271Y48894D02*
X1355272D01*
X1359271Y52893D01*
Y53893D01*
X1358271Y54892D01*
X1356272D01*
X1355272Y53893D01*
X1361270D02*
X1362270Y54892D01*
X1364269D01*
X1365269Y53893D01*
Y49894D01*
X1364269Y48894D01*
X1362270D01*
X1361270Y49894D01*
Y53893D01*
X1367268Y54892D02*
Y48894D01*
Y51893D01*
X1368268Y52893D01*
X1370267D01*
X1371267Y51893D01*
Y48894D01*
X1373266Y54892D02*
X1377265D01*
Y53893D01*
X1373266Y49894D01*
Y48894D01*
X1379264Y53893D02*
X1380264Y54892D01*
X1382263D01*
X1383263Y53893D01*
Y49894D01*
X1382263Y48894D01*
X1380264D01*
X1379264Y49894D01*
Y53893D01*
X1385262Y48894D02*
Y52893D01*
X1386262D01*
X1387262Y51893D01*
Y48894D01*
Y51893D01*
X1388261Y52893D01*
X1389261Y51893D01*
Y48894D01*
X1391260Y53893D02*
X1392260Y54892D01*
X1394259D01*
X1395259Y53893D01*
Y49894D01*
X1394259Y48894D01*
X1392260D01*
X1391260Y49894D01*
Y53893D01*
X1397258Y48894D02*
Y52893D01*
X1398258D01*
X1399258Y51893D01*
Y48894D01*
Y51893D01*
X1400257Y52893D01*
X1401257Y51893D01*
Y48894D01*
X1403257Y52893D02*
X1407255Y48894D01*
X1405256Y50893D01*
X1407255Y52893D01*
X1403257Y48894D01*
X1409255Y53893D02*
X1410254Y54892D01*
X1412254D01*
X1413253Y53893D01*
Y49894D01*
X1412254Y48894D01*
X1410254D01*
X1409255Y49894D01*
Y53893D01*
X1269696Y168894D02*
Y174892D01*
X1272695D01*
X1273695Y173893D01*
Y171893D01*
X1272695Y170894D01*
X1269696D01*
X1271695D02*
X1273695Y168894D01*
X1276694D02*
X1278693D01*
X1279692Y169894D01*
Y171893D01*
X1278693Y172893D01*
X1276694D01*
X1275694Y171893D01*
Y169894D01*
X1276694Y168894D01*
X1281692Y172893D02*
Y169894D01*
X1282692Y168894D01*
X1285691D01*
Y172893D01*
X1287690Y168894D02*
Y172893D01*
X1290689D01*
X1291689Y171893D01*
Y168894D01*
X1297687Y174892D02*
Y168894D01*
X1294688D01*
X1293688Y169894D01*
Y171893D01*
X1294688Y172893D01*
X1297687D01*
X1302685Y168894D02*
X1300686D01*
X1299686Y169894D01*
Y171893D01*
X1300686Y172893D01*
X1302685D01*
X1303685Y171893D01*
Y170894D01*
X1299686D01*
X1309683Y174892D02*
Y168894D01*
X1306684D01*
X1305684Y169894D01*
Y171893D01*
X1306684Y172893D01*
X1309683D01*
X1269696Y153894D02*
Y159892D01*
X1272695D01*
X1273695Y158893D01*
Y156893D01*
X1272695Y155894D01*
X1269696D01*
X1271695D02*
X1273695Y153894D01*
X1276694D02*
X1278693D01*
X1279692Y154894D01*
Y156893D01*
X1278693Y157893D01*
X1276694D01*
X1275694Y156893D01*
Y154894D01*
X1276694Y153894D01*
X1281692Y157893D02*
Y154894D01*
X1282692Y153894D01*
X1285691D01*
Y157893D01*
X1287690Y153894D02*
Y157893D01*
X1290689D01*
X1291689Y156893D01*
Y153894D01*
X1297687Y159892D02*
Y153894D01*
X1294688D01*
X1293688Y154894D01*
Y156893D01*
X1294688Y157893D01*
X1297687D01*
X1302685Y153894D02*
X1300686D01*
X1299686Y154894D01*
Y156893D01*
X1300686Y157893D01*
X1302685D01*
X1303685Y156893D01*
Y155894D01*
X1299686D01*
X1309683Y159892D02*
Y153894D01*
X1306684D01*
X1305684Y154894D01*
Y156893D01*
X1306684Y157893D01*
X1309683D01*
X1269696Y138894D02*
Y144892D01*
X1272695D01*
X1273695Y143893D01*
Y141893D01*
X1272695Y140893D01*
X1269696D01*
X1271695D02*
X1273695Y138894D01*
X1276694D02*
X1278693D01*
X1279692Y139894D01*
Y141893D01*
X1278693Y142893D01*
X1276694D01*
X1275694Y141893D01*
Y139894D01*
X1276694Y138894D01*
X1281692Y142893D02*
Y139894D01*
X1282692Y138894D01*
X1285691D01*
Y142893D01*
X1287690Y138894D02*
Y142893D01*
X1290689D01*
X1291689Y141893D01*
Y138894D01*
X1297687Y144892D02*
Y138894D01*
X1294688D01*
X1293688Y139894D01*
Y141893D01*
X1294688Y142893D01*
X1297687D01*
X1302685Y138894D02*
X1300686D01*
X1299686Y139894D01*
Y141893D01*
X1300686Y142893D01*
X1302685D01*
X1303685Y141893D01*
Y140893D01*
X1299686D01*
X1309683Y144892D02*
Y138894D01*
X1306684D01*
X1305684Y139894D01*
Y141893D01*
X1306684Y142893D01*
X1309683D01*
X1269696Y123894D02*
Y129892D01*
X1272695D01*
X1273695Y128893D01*
Y126893D01*
X1272695Y125893D01*
X1269696D01*
X1271695D02*
X1273695Y123894D01*
X1276694D02*
X1278693D01*
X1279692Y124894D01*
Y126893D01*
X1278693Y127893D01*
X1276694D01*
X1275694Y126893D01*
Y124894D01*
X1276694Y123894D01*
X1281692Y127893D02*
Y124894D01*
X1282692Y123894D01*
X1285691D01*
Y127893D01*
X1287690Y123894D02*
Y127893D01*
X1290689D01*
X1291689Y126893D01*
Y123894D01*
X1297687Y129892D02*
Y123894D01*
X1294688D01*
X1293688Y124894D01*
Y126893D01*
X1294688Y127893D01*
X1297687D01*
X1302685Y123894D02*
X1300686D01*
X1299686Y124894D01*
Y126893D01*
X1300686Y127893D01*
X1302685D01*
X1303685Y126893D01*
Y125893D01*
X1299686D01*
X1309683Y129892D02*
Y123894D01*
X1306684D01*
X1305684Y124894D01*
Y126893D01*
X1306684Y127893D01*
X1309683D01*
X1269696Y108894D02*
Y114892D01*
X1272695D01*
X1273695Y113893D01*
Y111893D01*
X1272695Y110893D01*
X1269696D01*
X1271695D02*
X1273695Y108894D01*
X1276694D02*
X1278693D01*
X1279692Y109894D01*
Y111893D01*
X1278693Y112893D01*
X1276694D01*
X1275694Y111893D01*
Y109894D01*
X1276694Y108894D01*
X1281692Y112893D02*
Y109894D01*
X1282692Y108894D01*
X1285691D01*
Y112893D01*
X1287690Y108894D02*
Y112893D01*
X1290689D01*
X1291689Y111893D01*
Y108894D01*
X1297687Y114892D02*
Y108894D01*
X1294688D01*
X1293688Y109894D01*
Y111893D01*
X1294688Y112893D01*
X1297687D01*
X1302685Y108894D02*
X1300686D01*
X1299686Y109894D01*
Y111893D01*
X1300686Y112893D01*
X1302685D01*
X1303685Y111893D01*
Y110893D01*
X1299686D01*
X1309683Y114892D02*
Y108894D01*
X1306684D01*
X1305684Y109894D01*
Y111893D01*
X1306684Y112893D01*
X1309683D01*
X1271695Y93894D02*
X1269696Y95894D01*
Y97893D01*
X1271695Y99892D01*
X1274694Y93894D02*
Y99892D01*
X1276694Y97893D01*
X1278693Y99892D01*
Y93894D01*
X1280692D02*
X1282691D01*
X1281692D01*
Y97893D01*
X1280692D01*
X1285691D02*
X1289689Y93894D01*
X1287690Y95894D01*
X1289689Y97893D01*
X1285691Y93894D01*
X1294688D02*
X1292688D01*
X1291689Y94894D01*
Y96893D01*
X1292688Y97893D01*
X1294688D01*
X1295687Y96893D01*
Y95894D01*
X1291689D01*
X1301685Y99892D02*
Y93894D01*
X1298686D01*
X1297687Y94894D01*
Y96893D01*
X1298686Y97893D01*
X1301685D01*
X1303685Y93894D02*
X1305684Y95894D01*
Y97893D01*
X1303685Y99892D01*
X1269696Y78894D02*
Y84892D01*
X1272695D01*
X1273695Y83893D01*
Y81893D01*
X1272695Y80893D01*
X1269696D01*
X1271695D02*
X1273695Y78894D01*
X1276694D02*
X1278693D01*
X1279692Y79894D01*
Y81893D01*
X1278693Y82893D01*
X1276694D01*
X1275694Y81893D01*
Y79894D01*
X1276694Y78894D01*
X1281692Y82893D02*
Y79894D01*
X1282692Y78894D01*
X1285691D01*
Y82893D01*
X1287690Y78894D02*
Y82893D01*
X1290689D01*
X1291689Y81893D01*
Y78894D01*
X1297687Y84892D02*
Y78894D01*
X1294688D01*
X1293688Y79894D01*
Y81893D01*
X1294688Y82893D01*
X1297687D01*
X1302685Y78894D02*
X1300686D01*
X1299686Y79894D01*
Y81893D01*
X1300686Y82893D01*
X1302685D01*
X1303685Y81893D01*
Y80893D01*
X1299686D01*
X1309683Y84892D02*
Y78894D01*
X1306684D01*
X1305684Y79894D01*
Y81893D01*
X1306684Y82893D01*
X1309683D01*
X1269696Y63894D02*
Y69892D01*
X1272695D01*
X1273695Y68893D01*
Y66893D01*
X1272695Y65894D01*
X1269696D01*
X1271695D02*
X1273695Y63894D01*
X1276694D02*
X1278693D01*
X1279692Y64894D01*
Y66893D01*
X1278693Y67893D01*
X1276694D01*
X1275694Y66893D01*
Y64894D01*
X1276694Y63894D01*
X1281692Y67893D02*
Y64894D01*
X1282692Y63894D01*
X1285691D01*
Y67893D01*
X1287690Y63894D02*
Y67893D01*
X1290689D01*
X1291689Y66893D01*
Y63894D01*
X1297687Y69892D02*
Y63894D01*
X1294688D01*
X1293688Y64894D01*
Y66893D01*
X1294688Y67893D01*
X1297687D01*
X1302685Y63894D02*
X1300686D01*
X1299686Y64894D01*
Y66893D01*
X1300686Y67893D01*
X1302685D01*
X1303685Y66893D01*
Y65894D01*
X1299686D01*
X1309683Y69892D02*
Y63894D01*
X1306684D01*
X1305684Y64894D01*
Y66893D01*
X1306684Y67893D01*
X1309683D01*
X1269696Y48894D02*
Y54892D01*
X1272695D01*
X1273695Y53893D01*
Y51893D01*
X1272695Y50893D01*
X1269696D01*
X1271695D02*
X1273695Y48894D01*
X1276694D02*
X1278693D01*
X1279692Y49894D01*
Y51893D01*
X1278693Y52893D01*
X1276694D01*
X1275694Y51893D01*
Y49894D01*
X1276694Y48894D01*
X1281692Y52893D02*
Y49894D01*
X1282692Y48894D01*
X1285691D01*
Y52893D01*
X1287690Y48894D02*
Y52893D01*
X1290689D01*
X1291689Y51893D01*
Y48894D01*
X1297687Y54892D02*
Y48894D01*
X1294688D01*
X1293688Y49894D01*
Y51893D01*
X1294688Y52893D01*
X1297687D01*
X1302685Y48894D02*
X1300686D01*
X1299686Y49894D01*
Y51893D01*
X1300686Y52893D01*
X1302685D01*
X1303685Y51893D01*
Y50893D01*
X1299686D01*
X1309683Y54892D02*
Y48894D01*
X1306684D01*
X1305684Y49894D01*
Y51893D01*
X1306684Y52893D01*
X1309683D01*
X1210711Y168894D02*
Y174892D01*
X1213710D01*
X1214710Y173893D01*
Y171893D01*
X1213710Y170894D01*
X1210711D01*
X1217709Y172893D02*
X1219708D01*
X1220708Y171893D01*
Y168894D01*
X1217709D01*
X1216709Y169894D01*
X1217709Y170894D01*
X1220708D01*
X1226706Y174892D02*
Y168894D01*
X1223707D01*
X1222707Y169894D01*
Y171893D01*
X1223707Y172893D01*
X1226706D01*
X1210711Y153894D02*
Y159892D01*
X1213710D01*
X1214710Y158893D01*
Y156893D01*
X1213710Y155894D01*
X1210711D01*
X1217709Y157893D02*
X1219708D01*
X1220708Y156893D01*
Y153894D01*
X1217709D01*
X1216709Y154894D01*
X1217709Y155894D01*
X1220708D01*
X1226706Y159892D02*
Y153894D01*
X1223707D01*
X1222707Y154894D01*
Y156893D01*
X1223707Y157893D01*
X1226706D01*
X1210711Y138894D02*
Y144892D01*
X1213710D01*
X1214710Y143893D01*
Y141893D01*
X1213710Y140893D01*
X1210711D01*
X1217709Y142893D02*
X1219708D01*
X1220708Y141893D01*
Y138894D01*
X1217709D01*
X1216709Y139894D01*
X1217709Y140893D01*
X1220708D01*
X1226706Y144892D02*
Y138894D01*
X1223707D01*
X1222707Y139894D01*
Y141893D01*
X1223707Y142893D01*
X1226706D01*
X1210711Y123894D02*
Y129892D01*
X1213710D01*
X1214710Y128893D01*
Y126893D01*
X1213710Y125893D01*
X1210711D01*
X1217709Y127893D02*
X1219708D01*
X1220708Y126893D01*
Y123894D01*
X1217709D01*
X1216709Y124894D01*
X1217709Y125893D01*
X1220708D01*
X1226706Y129892D02*
Y123894D01*
X1223707D01*
X1222707Y124894D01*
Y126893D01*
X1223707Y127893D01*
X1226706D01*
X1210711Y108894D02*
Y114892D01*
X1213710D01*
X1214710Y113893D01*
Y111893D01*
X1213710Y110893D01*
X1210711D01*
X1217709Y112893D02*
X1219708D01*
X1220708Y111893D01*
Y108894D01*
X1217709D01*
X1216709Y109894D01*
X1217709Y110893D01*
X1220708D01*
X1226706Y114892D02*
Y108894D01*
X1223707D01*
X1222707Y109894D01*
Y111893D01*
X1223707Y112893D01*
X1226706D01*
X1210711Y93894D02*
Y99892D01*
X1213710D01*
X1214710Y98893D01*
Y96893D01*
X1213710Y95894D01*
X1210711D01*
X1217709Y97893D02*
X1219708D01*
X1220708Y96893D01*
Y93894D01*
X1217709D01*
X1216709Y94894D01*
X1217709Y95894D01*
X1220708D01*
X1226706Y99892D02*
Y93894D01*
X1223707D01*
X1222707Y94894D01*
Y96893D01*
X1223707Y97893D01*
X1226706D01*
X1210711Y78894D02*
Y84892D01*
X1213710D01*
X1214710Y83893D01*
Y81893D01*
X1213710Y80893D01*
X1210711D01*
X1217709Y82893D02*
X1219708D01*
X1220708Y81893D01*
Y78894D01*
X1217709D01*
X1216709Y79894D01*
X1217709Y80893D01*
X1220708D01*
X1226706Y84892D02*
Y78894D01*
X1223707D01*
X1222707Y79894D01*
Y81893D01*
X1223707Y82893D01*
X1226706D01*
X1210711Y69892D02*
Y65894D01*
X1212710Y63894D01*
X1214710Y65894D01*
Y69892D01*
X1216709Y63894D02*
X1218708D01*
X1217709D01*
Y67893D01*
X1216709D01*
X1222707D02*
X1224706D01*
X1225706Y66893D01*
Y63894D01*
X1222707D01*
X1221707Y64894D01*
X1222707Y65894D01*
X1225706D01*
X1210711Y54892D02*
Y50893D01*
X1212710Y48894D01*
X1214710Y50893D01*
Y54892D01*
X1216709Y48894D02*
X1218708D01*
X1217709D01*
Y52893D01*
X1216709D01*
X1222707D02*
X1224706D01*
X1225706Y51893D01*
Y48894D01*
X1222707D01*
X1221707Y49894D01*
X1222707Y50893D01*
X1225706D01*
X1060756Y174892D02*
X1064755D01*
X1062755D01*
Y168894D01*
X1067754D02*
X1069753D01*
X1070753Y169894D01*
Y171893D01*
X1069753Y172893D01*
X1067754D01*
X1066754Y171893D01*
Y169894D01*
X1067754Y168894D01*
X1072752Y166895D02*
Y172893D01*
X1075751D01*
X1076751Y171893D01*
Y169894D01*
X1075751Y168894D01*
X1072752D01*
X1084748Y174892D02*
Y168894D01*
X1088747D01*
X1091746Y172893D02*
X1093745D01*
X1094745Y171893D01*
Y168894D01*
X1091746D01*
X1090746Y169894D01*
X1091746Y170894D01*
X1094745D01*
X1096744Y172893D02*
Y169894D01*
X1097744Y168894D01*
X1100743D01*
Y167894D01*
X1099743Y166895D01*
X1098744D01*
X1100743Y168894D02*
Y172893D01*
X1105741Y168894D02*
X1103742D01*
X1102742Y169894D01*
Y171893D01*
X1103742Y172893D01*
X1105741D01*
X1106741Y171893D01*
Y170894D01*
X1102742D01*
X1108740Y172893D02*
Y168894D01*
Y170894D01*
X1109740Y171893D01*
X1110740Y172893D01*
X1111739D01*
X1120736Y171893D02*
X1124735D01*
X1132733Y174892D02*
Y168894D01*
X1135732D01*
X1136731Y169894D01*
Y170894D01*
X1135732Y171893D01*
X1132733D01*
X1135732D01*
X1136731Y172893D01*
Y173893D01*
X1135732Y174892D01*
X1132733D01*
X1139730Y168894D02*
X1141730D01*
X1142729Y169894D01*
Y171893D01*
X1141730Y172893D01*
X1139730D01*
X1138731Y171893D01*
Y169894D01*
X1139730Y168894D01*
X1145728Y173893D02*
Y172893D01*
X1144729D01*
X1146728D01*
X1145728D01*
Y169894D01*
X1146728Y168894D01*
X1150727Y173893D02*
Y172893D01*
X1149727D01*
X1151726D01*
X1150727D01*
Y169894D01*
X1151726Y168894D01*
X1155725D02*
X1157724D01*
X1158724Y169894D01*
Y171893D01*
X1157724Y172893D01*
X1155725D01*
X1154725Y171893D01*
Y169894D01*
X1155725Y168894D01*
X1160723D02*
Y172893D01*
X1161723D01*
X1162723Y171893D01*
Y168894D01*
Y171893D01*
X1163723Y172893D01*
X1164722Y171893D01*
Y168894D01*
X1172720Y174892D02*
Y168894D01*
X1176718D01*
X1179717Y172893D02*
X1181717D01*
X1182716Y171893D01*
Y168894D01*
X1179717D01*
X1178718Y169894D01*
X1179717Y170894D01*
X1182716D01*
X1184716Y172893D02*
Y169894D01*
X1185715Y168894D01*
X1188715D01*
Y167894D01*
X1187715Y166895D01*
X1186715D01*
X1188715Y168894D02*
Y172893D01*
X1193713Y168894D02*
X1191714D01*
X1190714Y169894D01*
Y171893D01*
X1191714Y172893D01*
X1193713D01*
X1194713Y171893D01*
Y170894D01*
X1190714D01*
X1196712Y172893D02*
Y168894D01*
Y170894D01*
X1197711Y171893D01*
X1198711Y172893D01*
X1199711D01*
X1060756Y159892D02*
X1064755D01*
X1062755D01*
Y153894D01*
X1067754D02*
X1069753D01*
X1070753Y154894D01*
Y156893D01*
X1069753Y157893D01*
X1067754D01*
X1066754Y156893D01*
Y154894D01*
X1067754Y153894D01*
X1072752Y151895D02*
Y157893D01*
X1075751D01*
X1076751Y156893D01*
Y154894D01*
X1075751Y153894D01*
X1072752D01*
X1084748Y159892D02*
Y153894D01*
X1088747D01*
X1091746Y157893D02*
X1093745D01*
X1094745Y156893D01*
Y153894D01*
X1091746D01*
X1090746Y154894D01*
X1091746Y155894D01*
X1094745D01*
X1096744Y157893D02*
Y154894D01*
X1097744Y153894D01*
X1100743D01*
Y152894D01*
X1099743Y151895D01*
X1098744D01*
X1100743Y153894D02*
Y157893D01*
X1105741Y153894D02*
X1103742D01*
X1102742Y154894D01*
Y156893D01*
X1103742Y157893D01*
X1105741D01*
X1106741Y156893D01*
Y155894D01*
X1102742D01*
X1108740Y157893D02*
Y153894D01*
Y155894D01*
X1109740Y156893D01*
X1110740Y157893D01*
X1111739D01*
X1120736Y156893D02*
X1124735D01*
X1132733Y159892D02*
Y153894D01*
X1135732D01*
X1136731Y154894D01*
Y155894D01*
X1135732Y156893D01*
X1132733D01*
X1135732D01*
X1136731Y157893D01*
Y158893D01*
X1135732Y159892D01*
X1132733D01*
X1139730Y153894D02*
X1141730D01*
X1142729Y154894D01*
Y156893D01*
X1141730Y157893D01*
X1139730D01*
X1138731Y156893D01*
Y154894D01*
X1139730Y153894D01*
X1145728Y158893D02*
Y157893D01*
X1144729D01*
X1146728D01*
X1145728D01*
Y154894D01*
X1146728Y153894D01*
X1150727Y158893D02*
Y157893D01*
X1149727D01*
X1151726D01*
X1150727D01*
Y154894D01*
X1151726Y153894D01*
X1155725D02*
X1157724D01*
X1158724Y154894D01*
Y156893D01*
X1157724Y157893D01*
X1155725D01*
X1154725Y156893D01*
Y154894D01*
X1155725Y153894D01*
X1160723D02*
Y157893D01*
X1161723D01*
X1162723Y156893D01*
Y153894D01*
Y156893D01*
X1163723Y157893D01*
X1164722Y156893D01*
Y153894D01*
X1172720Y159892D02*
Y153894D01*
X1176718D01*
X1179717Y157893D02*
X1181717D01*
X1182716Y156893D01*
Y153894D01*
X1179717D01*
X1178718Y154894D01*
X1179717Y155894D01*
X1182716D01*
X1184716Y157893D02*
Y154894D01*
X1185715Y153894D01*
X1188715D01*
Y152894D01*
X1187715Y151895D01*
X1186715D01*
X1188715Y153894D02*
Y157893D01*
X1193713Y153894D02*
X1191714D01*
X1190714Y154894D01*
Y156893D01*
X1191714Y157893D01*
X1193713D01*
X1194713Y156893D01*
Y155894D01*
X1190714D01*
X1196712Y157893D02*
Y153894D01*
Y155894D01*
X1197711Y156893D01*
X1198711Y157893D01*
X1199711D01*
X1060756Y144892D02*
X1064755D01*
X1062755D01*
Y138894D01*
X1067754D02*
X1069753D01*
X1070753Y139894D01*
Y141893D01*
X1069753Y142893D01*
X1067754D01*
X1066754Y141893D01*
Y139894D01*
X1067754Y138894D01*
X1072752Y136895D02*
Y142893D01*
X1075751D01*
X1076751Y141893D01*
Y139894D01*
X1075751Y138894D01*
X1072752D01*
X1084748Y144892D02*
Y138894D01*
X1088747D01*
X1091746Y142893D02*
X1093745D01*
X1094745Y141893D01*
Y138894D01*
X1091746D01*
X1090746Y139894D01*
X1091746Y140893D01*
X1094745D01*
X1096744Y142893D02*
Y139894D01*
X1097744Y138894D01*
X1100743D01*
Y137894D01*
X1099743Y136895D01*
X1098744D01*
X1100743Y138894D02*
Y142893D01*
X1105741Y138894D02*
X1103742D01*
X1102742Y139894D01*
Y141893D01*
X1103742Y142893D01*
X1105741D01*
X1106741Y141893D01*
Y140893D01*
X1102742D01*
X1108740Y142893D02*
Y138894D01*
Y140893D01*
X1109740Y141893D01*
X1110740Y142893D01*
X1111739D01*
X1120736Y141893D02*
X1124735D01*
X1132733Y144892D02*
Y138894D01*
X1135732D01*
X1136731Y139894D01*
Y140893D01*
X1135732Y141893D01*
X1132733D01*
X1135732D01*
X1136731Y142893D01*
Y143893D01*
X1135732Y144892D01*
X1132733D01*
X1139730Y138894D02*
X1141730D01*
X1142729Y139894D01*
Y141893D01*
X1141730Y142893D01*
X1139730D01*
X1138731Y141893D01*
Y139894D01*
X1139730Y138894D01*
X1145728Y143893D02*
Y142893D01*
X1144729D01*
X1146728D01*
X1145728D01*
Y139894D01*
X1146728Y138894D01*
X1150727Y143893D02*
Y142893D01*
X1149727D01*
X1151726D01*
X1150727D01*
Y139894D01*
X1151726Y138894D01*
X1155725D02*
X1157724D01*
X1158724Y139894D01*
Y141893D01*
X1157724Y142893D01*
X1155725D01*
X1154725Y141893D01*
Y139894D01*
X1155725Y138894D01*
X1160723D02*
Y142893D01*
X1161723D01*
X1162723Y141893D01*
Y138894D01*
Y141893D01*
X1163723Y142893D01*
X1164722Y141893D01*
Y138894D01*
X1172720Y144892D02*
Y138894D01*
X1176718D01*
X1179717Y142893D02*
X1181717D01*
X1182716Y141893D01*
Y138894D01*
X1179717D01*
X1178718Y139894D01*
X1179717Y140893D01*
X1182716D01*
X1184716Y142893D02*
Y139894D01*
X1185715Y138894D01*
X1188715D01*
Y137894D01*
X1187715Y136895D01*
X1186715D01*
X1188715Y138894D02*
Y142893D01*
X1193713Y138894D02*
X1191714D01*
X1190714Y139894D01*
Y141893D01*
X1191714Y142893D01*
X1193713D01*
X1194713Y141893D01*
Y140893D01*
X1190714D01*
X1196712Y142893D02*
Y138894D01*
Y140893D01*
X1197711Y141893D01*
X1198711Y142893D01*
X1199711D01*
X1060756Y129892D02*
X1064755D01*
X1062755D01*
Y123894D01*
X1067754D02*
X1069753D01*
X1070753Y124894D01*
Y126893D01*
X1069753Y127893D01*
X1067754D01*
X1066754Y126893D01*
Y124894D01*
X1067754Y123894D01*
X1072752Y121895D02*
Y127893D01*
X1075751D01*
X1076751Y126893D01*
Y124894D01*
X1075751Y123894D01*
X1072752D01*
X1084748Y129892D02*
Y123894D01*
X1088747D01*
X1091746Y127893D02*
X1093745D01*
X1094745Y126893D01*
Y123894D01*
X1091746D01*
X1090746Y124894D01*
X1091746Y125893D01*
X1094745D01*
X1096744Y127893D02*
Y124894D01*
X1097744Y123894D01*
X1100743D01*
Y122895D01*
X1099743Y121895D01*
X1098744D01*
X1100743Y123894D02*
Y127893D01*
X1105741Y123894D02*
X1103742D01*
X1102742Y124894D01*
Y126893D01*
X1103742Y127893D01*
X1105741D01*
X1106741Y126893D01*
Y125893D01*
X1102742D01*
X1108740Y127893D02*
Y123894D01*
Y125893D01*
X1109740Y126893D01*
X1110740Y127893D01*
X1111739D01*
X1120736Y126893D02*
X1124735D01*
X1132733Y129892D02*
Y123894D01*
X1135732D01*
X1136731Y124894D01*
Y125893D01*
X1135732Y126893D01*
X1132733D01*
X1135732D01*
X1136731Y127893D01*
Y128893D01*
X1135732Y129892D01*
X1132733D01*
X1139730Y123894D02*
X1141730D01*
X1142729Y124894D01*
Y126893D01*
X1141730Y127893D01*
X1139730D01*
X1138731Y126893D01*
Y124894D01*
X1139730Y123894D01*
X1145728Y128893D02*
Y127893D01*
X1144729D01*
X1146728D01*
X1145728D01*
Y124894D01*
X1146728Y123894D01*
X1150727Y128893D02*
Y127893D01*
X1149727D01*
X1151726D01*
X1150727D01*
Y124894D01*
X1151726Y123894D01*
X1155725D02*
X1157724D01*
X1158724Y124894D01*
Y126893D01*
X1157724Y127893D01*
X1155725D01*
X1154725Y126893D01*
Y124894D01*
X1155725Y123894D01*
X1160723D02*
Y127893D01*
X1161723D01*
X1162723Y126893D01*
Y123894D01*
Y126893D01*
X1163723Y127893D01*
X1164722Y126893D01*
Y123894D01*
X1172720Y129892D02*
Y123894D01*
X1176718D01*
X1179717Y127893D02*
X1181717D01*
X1182716Y126893D01*
Y123894D01*
X1179717D01*
X1178718Y124894D01*
X1179717Y125893D01*
X1182716D01*
X1184716Y127893D02*
Y124894D01*
X1185715Y123894D01*
X1188715D01*
Y122895D01*
X1187715Y121895D01*
X1186715D01*
X1188715Y123894D02*
Y127893D01*
X1193713Y123894D02*
X1191714D01*
X1190714Y124894D01*
Y126893D01*
X1191714Y127893D01*
X1193713D01*
X1194713Y126893D01*
Y125893D01*
X1190714D01*
X1196712Y127893D02*
Y123894D01*
Y125893D01*
X1197711Y126893D01*
X1198711Y127893D01*
X1199711D01*
X1060756Y114892D02*
X1064755D01*
X1062755D01*
Y108894D01*
X1067754D02*
X1069753D01*
X1070753Y109894D01*
Y111893D01*
X1069753Y112893D01*
X1067754D01*
X1066754Y111893D01*
Y109894D01*
X1067754Y108894D01*
X1072752Y106895D02*
Y112893D01*
X1075751D01*
X1076751Y111893D01*
Y109894D01*
X1075751Y108894D01*
X1072752D01*
X1084748Y114892D02*
Y108894D01*
X1088747D01*
X1091746Y112893D02*
X1093745D01*
X1094745Y111893D01*
Y108894D01*
X1091746D01*
X1090746Y109894D01*
X1091746Y110893D01*
X1094745D01*
X1096744Y112893D02*
Y109894D01*
X1097744Y108894D01*
X1100743D01*
Y107895D01*
X1099743Y106895D01*
X1098744D01*
X1100743Y108894D02*
Y112893D01*
X1105741Y108894D02*
X1103742D01*
X1102742Y109894D01*
Y111893D01*
X1103742Y112893D01*
X1105741D01*
X1106741Y111893D01*
Y110893D01*
X1102742D01*
X1108740Y112893D02*
Y108894D01*
Y110893D01*
X1109740Y111893D01*
X1110740Y112893D01*
X1111739D01*
X1120736Y111893D02*
X1124735D01*
X1132733Y114892D02*
Y108894D01*
X1135732D01*
X1136731Y109894D01*
Y110893D01*
X1135732Y111893D01*
X1132733D01*
X1135732D01*
X1136731Y112893D01*
Y113893D01*
X1135732Y114892D01*
X1132733D01*
X1139730Y108894D02*
X1141730D01*
X1142729Y109894D01*
Y111893D01*
X1141730Y112893D01*
X1139730D01*
X1138731Y111893D01*
Y109894D01*
X1139730Y108894D01*
X1145728Y113893D02*
Y112893D01*
X1144729D01*
X1146728D01*
X1145728D01*
Y109894D01*
X1146728Y108894D01*
X1150727Y113893D02*
Y112893D01*
X1149727D01*
X1151726D01*
X1150727D01*
Y109894D01*
X1151726Y108894D01*
X1155725D02*
X1157724D01*
X1158724Y109894D01*
Y111893D01*
X1157724Y112893D01*
X1155725D01*
X1154725Y111893D01*
Y109894D01*
X1155725Y108894D01*
X1160723D02*
Y112893D01*
X1161723D01*
X1162723Y111893D01*
Y108894D01*
Y111893D01*
X1163723Y112893D01*
X1164722Y111893D01*
Y108894D01*
X1172720Y114892D02*
Y108894D01*
X1176718D01*
X1179717Y112893D02*
X1181717D01*
X1182716Y111893D01*
Y108894D01*
X1179717D01*
X1178718Y109894D01*
X1179717Y110893D01*
X1182716D01*
X1184716Y112893D02*
Y109894D01*
X1185715Y108894D01*
X1188715D01*
Y107895D01*
X1187715Y106895D01*
X1186715D01*
X1188715Y108894D02*
Y112893D01*
X1193713Y108894D02*
X1191714D01*
X1190714Y109894D01*
Y111893D01*
X1191714Y112893D01*
X1193713D01*
X1194713Y111893D01*
Y110893D01*
X1190714D01*
X1196712Y112893D02*
Y108894D01*
Y110893D01*
X1197711Y111893D01*
X1198711Y112893D01*
X1199711D01*
X1060756Y99892D02*
X1064755D01*
X1062755D01*
Y93894D01*
X1067754D02*
X1069753D01*
X1070753Y94894D01*
Y96893D01*
X1069753Y97893D01*
X1067754D01*
X1066754Y96893D01*
Y94894D01*
X1067754Y93894D01*
X1072752Y91895D02*
Y97893D01*
X1075751D01*
X1076751Y96893D01*
Y94894D01*
X1075751Y93894D01*
X1072752D01*
X1084748Y99892D02*
Y93894D01*
X1088747D01*
X1091746Y97893D02*
X1093745D01*
X1094745Y96893D01*
Y93894D01*
X1091746D01*
X1090746Y94894D01*
X1091746Y95894D01*
X1094745D01*
X1096744Y97893D02*
Y94894D01*
X1097744Y93894D01*
X1100743D01*
Y92895D01*
X1099743Y91895D01*
X1098744D01*
X1100743Y93894D02*
Y97893D01*
X1105741Y93894D02*
X1103742D01*
X1102742Y94894D01*
Y96893D01*
X1103742Y97893D01*
X1105741D01*
X1106741Y96893D01*
Y95894D01*
X1102742D01*
X1108740Y97893D02*
Y93894D01*
Y95894D01*
X1109740Y96893D01*
X1110740Y97893D01*
X1111739D01*
X1120736Y96893D02*
X1124735D01*
X1132733Y99892D02*
Y93894D01*
X1135732D01*
X1136731Y94894D01*
Y95894D01*
X1135732Y96893D01*
X1132733D01*
X1135732D01*
X1136731Y97893D01*
Y98893D01*
X1135732Y99892D01*
X1132733D01*
X1139730Y93894D02*
X1141730D01*
X1142729Y94894D01*
Y96893D01*
X1141730Y97893D01*
X1139730D01*
X1138731Y96893D01*
Y94894D01*
X1139730Y93894D01*
X1145728Y98893D02*
Y97893D01*
X1144729D01*
X1146728D01*
X1145728D01*
Y94894D01*
X1146728Y93894D01*
X1150727Y98893D02*
Y97893D01*
X1149727D01*
X1151726D01*
X1150727D01*
Y94894D01*
X1151726Y93894D01*
X1155725D02*
X1157724D01*
X1158724Y94894D01*
Y96893D01*
X1157724Y97893D01*
X1155725D01*
X1154725Y96893D01*
Y94894D01*
X1155725Y93894D01*
X1160723D02*
Y97893D01*
X1161723D01*
X1162723Y96893D01*
Y93894D01*
Y96893D01*
X1163723Y97893D01*
X1164722Y96893D01*
Y93894D01*
X1172720Y99892D02*
Y93894D01*
X1176718D01*
X1179717Y97893D02*
X1181717D01*
X1182716Y96893D01*
Y93894D01*
X1179717D01*
X1178718Y94894D01*
X1179717Y95894D01*
X1182716D01*
X1184716Y97893D02*
Y94894D01*
X1185715Y93894D01*
X1188715D01*
Y92895D01*
X1187715Y91895D01*
X1186715D01*
X1188715Y93894D02*
Y97893D01*
X1193713Y93894D02*
X1191714D01*
X1190714Y94894D01*
Y96893D01*
X1191714Y97893D01*
X1193713D01*
X1194713Y96893D01*
Y95894D01*
X1190714D01*
X1196712Y97893D02*
Y93894D01*
Y95894D01*
X1197711Y96893D01*
X1198711Y97893D01*
X1199711D01*
X1060756Y84892D02*
X1064755D01*
X1062755D01*
Y78894D01*
X1067754D02*
X1069753D01*
X1070753Y79894D01*
Y81893D01*
X1069753Y82893D01*
X1067754D01*
X1066754Y81893D01*
Y79894D01*
X1067754Y78894D01*
X1072752Y76895D02*
Y82893D01*
X1075751D01*
X1076751Y81893D01*
Y79894D01*
X1075751Y78894D01*
X1072752D01*
X1084748Y84892D02*
Y78894D01*
X1088747D01*
X1091746Y82893D02*
X1093745D01*
X1094745Y81893D01*
Y78894D01*
X1091746D01*
X1090746Y79894D01*
X1091746Y80893D01*
X1094745D01*
X1096744Y82893D02*
Y79894D01*
X1097744Y78894D01*
X1100743D01*
Y77895D01*
X1099743Y76895D01*
X1098744D01*
X1100743Y78894D02*
Y82893D01*
X1105741Y78894D02*
X1103742D01*
X1102742Y79894D01*
Y81893D01*
X1103742Y82893D01*
X1105741D01*
X1106741Y81893D01*
Y80893D01*
X1102742D01*
X1108740Y82893D02*
Y78894D01*
Y80893D01*
X1109740Y81893D01*
X1110740Y82893D01*
X1111739D01*
X1120736Y81893D02*
X1124735D01*
X1132733Y84892D02*
Y78894D01*
X1135732D01*
X1136731Y79894D01*
Y80893D01*
X1135732Y81893D01*
X1132733D01*
X1135732D01*
X1136731Y82893D01*
Y83893D01*
X1135732Y84892D01*
X1132733D01*
X1139730Y78894D02*
X1141730D01*
X1142729Y79894D01*
Y81893D01*
X1141730Y82893D01*
X1139730D01*
X1138731Y81893D01*
Y79894D01*
X1139730Y78894D01*
X1145728Y83893D02*
Y82893D01*
X1144729D01*
X1146728D01*
X1145728D01*
Y79894D01*
X1146728Y78894D01*
X1150727Y83893D02*
Y82893D01*
X1149727D01*
X1151726D01*
X1150727D01*
Y79894D01*
X1151726Y78894D01*
X1155725D02*
X1157724D01*
X1158724Y79894D01*
Y81893D01*
X1157724Y82893D01*
X1155725D01*
X1154725Y81893D01*
Y79894D01*
X1155725Y78894D01*
X1160723D02*
Y82893D01*
X1161723D01*
X1162723Y81893D01*
Y78894D01*
Y81893D01*
X1163723Y82893D01*
X1164722Y81893D01*
Y78894D01*
X1172720Y84892D02*
Y78894D01*
X1176718D01*
X1179717Y82893D02*
X1181717D01*
X1182716Y81893D01*
Y78894D01*
X1179717D01*
X1178718Y79894D01*
X1179717Y80893D01*
X1182716D01*
X1184716Y82893D02*
Y79894D01*
X1185715Y78894D01*
X1188715D01*
Y77895D01*
X1187715Y76895D01*
X1186715D01*
X1188715Y78894D02*
Y82893D01*
X1193713Y78894D02*
X1191714D01*
X1190714Y79894D01*
Y81893D01*
X1191714Y82893D01*
X1193713D01*
X1194713Y81893D01*
Y80893D01*
X1190714D01*
X1196712Y82893D02*
Y78894D01*
Y80893D01*
X1197711Y81893D01*
X1198711Y82893D01*
X1199711D01*
X1060756Y69892D02*
X1064755D01*
X1062755D01*
Y63894D01*
X1067754D02*
X1069753D01*
X1070753Y64894D01*
Y66893D01*
X1069753Y67893D01*
X1067754D01*
X1066754Y66893D01*
Y64894D01*
X1067754Y63894D01*
X1072752Y61895D02*
Y67893D01*
X1075751D01*
X1076751Y66893D01*
Y64894D01*
X1075751Y63894D01*
X1072752D01*
X1084748Y69892D02*
Y63894D01*
X1088747D01*
X1091746Y67893D02*
X1093745D01*
X1094745Y66893D01*
Y63894D01*
X1091746D01*
X1090746Y64894D01*
X1091746Y65894D01*
X1094745D01*
X1096744Y67893D02*
Y64894D01*
X1097744Y63894D01*
X1100743D01*
Y62894D01*
X1099743Y61895D01*
X1098744D01*
X1100743Y63894D02*
Y67893D01*
X1105741Y63894D02*
X1103742D01*
X1102742Y64894D01*
Y66893D01*
X1103742Y67893D01*
X1105741D01*
X1106741Y66893D01*
Y65894D01*
X1102742D01*
X1108740Y67893D02*
Y63894D01*
Y65894D01*
X1109740Y66893D01*
X1110740Y67893D01*
X1111739D01*
X1120736Y66893D02*
X1124735D01*
X1132733Y69892D02*
Y63894D01*
X1135732D01*
X1136731Y64894D01*
Y65894D01*
X1135732Y66893D01*
X1132733D01*
X1135732D01*
X1136731Y67893D01*
Y68893D01*
X1135732Y69892D01*
X1132733D01*
X1139730Y63894D02*
X1141730D01*
X1142729Y64894D01*
Y66893D01*
X1141730Y67893D01*
X1139730D01*
X1138731Y66893D01*
Y64894D01*
X1139730Y63894D01*
X1145728Y68893D02*
Y67893D01*
X1144729D01*
X1146728D01*
X1145728D01*
Y64894D01*
X1146728Y63894D01*
X1150727Y68893D02*
Y67893D01*
X1149727D01*
X1151726D01*
X1150727D01*
Y64894D01*
X1151726Y63894D01*
X1155725D02*
X1157724D01*
X1158724Y64894D01*
Y66893D01*
X1157724Y67893D01*
X1155725D01*
X1154725Y66893D01*
Y64894D01*
X1155725Y63894D01*
X1160723D02*
Y67893D01*
X1161723D01*
X1162723Y66893D01*
Y63894D01*
Y66893D01*
X1163723Y67893D01*
X1164722Y66893D01*
Y63894D01*
X1172720Y69892D02*
Y63894D01*
X1176718D01*
X1179717Y67893D02*
X1181717D01*
X1182716Y66893D01*
Y63894D01*
X1179717D01*
X1178718Y64894D01*
X1179717Y65894D01*
X1182716D01*
X1184716Y67893D02*
Y64894D01*
X1185715Y63894D01*
X1188715D01*
Y62894D01*
X1187715Y61895D01*
X1186715D01*
X1188715Y63894D02*
Y67893D01*
X1193713Y63894D02*
X1191714D01*
X1190714Y64894D01*
Y66893D01*
X1191714Y67893D01*
X1193713D01*
X1194713Y66893D01*
Y65894D01*
X1190714D01*
X1196712Y67893D02*
Y63894D01*
Y65894D01*
X1197711Y66893D01*
X1198711Y67893D01*
X1199711D01*
X1060756Y54892D02*
X1064755D01*
X1062755D01*
Y48894D01*
X1067754D02*
X1069753D01*
X1070753Y49894D01*
Y51893D01*
X1069753Y52893D01*
X1067754D01*
X1066754Y51893D01*
Y49894D01*
X1067754Y48894D01*
X1072752Y46895D02*
Y52893D01*
X1075751D01*
X1076751Y51893D01*
Y49894D01*
X1075751Y48894D01*
X1072752D01*
X1084748Y54892D02*
Y48894D01*
X1088747D01*
X1091746Y52893D02*
X1093745D01*
X1094745Y51893D01*
Y48894D01*
X1091746D01*
X1090746Y49894D01*
X1091746Y50893D01*
X1094745D01*
X1096744Y52893D02*
Y49894D01*
X1097744Y48894D01*
X1100743D01*
Y47894D01*
X1099743Y46895D01*
X1098744D01*
X1100743Y48894D02*
Y52893D01*
X1105741Y48894D02*
X1103742D01*
X1102742Y49894D01*
Y51893D01*
X1103742Y52893D01*
X1105741D01*
X1106741Y51893D01*
Y50893D01*
X1102742D01*
X1108740Y52893D02*
Y48894D01*
Y50893D01*
X1109740Y51893D01*
X1110740Y52893D01*
X1111739D01*
X1120736Y51893D02*
X1124735D01*
X1132733Y54892D02*
Y48894D01*
X1135732D01*
X1136731Y49894D01*
Y50893D01*
X1135732Y51893D01*
X1132733D01*
X1135732D01*
X1136731Y52893D01*
Y53893D01*
X1135732Y54892D01*
X1132733D01*
X1139730Y48894D02*
X1141730D01*
X1142729Y49894D01*
Y51893D01*
X1141730Y52893D01*
X1139730D01*
X1138731Y51893D01*
Y49894D01*
X1139730Y48894D01*
X1145728Y53893D02*
Y52893D01*
X1144729D01*
X1146728D01*
X1145728D01*
Y49894D01*
X1146728Y48894D01*
X1150727Y53893D02*
Y52893D01*
X1149727D01*
X1151726D01*
X1150727D01*
Y49894D01*
X1151726Y48894D01*
X1155725D02*
X1157724D01*
X1158724Y49894D01*
Y51893D01*
X1157724Y52893D01*
X1155725D01*
X1154725Y51893D01*
Y49894D01*
X1155725Y48894D01*
X1160723D02*
Y52893D01*
X1161723D01*
X1162723Y51893D01*
Y48894D01*
Y51893D01*
X1163723Y52893D01*
X1164722Y51893D01*
Y48894D01*
X1172720Y54892D02*
Y48894D01*
X1176718D01*
X1179717Y52893D02*
X1181717D01*
X1182716Y51893D01*
Y48894D01*
X1179717D01*
X1178718Y49894D01*
X1179717Y50893D01*
X1182716D01*
X1184716Y52893D02*
Y49894D01*
X1185715Y48894D01*
X1188715D01*
Y47894D01*
X1187715Y46895D01*
X1186715D01*
X1188715Y48894D02*
Y52893D01*
X1193713Y48894D02*
X1191714D01*
X1190714Y49894D01*
Y51893D01*
X1191714Y52893D01*
X1193713D01*
X1194713Y51893D01*
Y50893D01*
X1190714D01*
X1196712Y52893D02*
Y48894D01*
Y50893D01*
X1197711Y51893D01*
X1198711Y52893D01*
X1199711D01*
X987376Y168894D02*
Y174892D01*
X990375D01*
X991374Y173893D01*
Y171893D01*
X990375Y170894D01*
X987376D01*
X989375D02*
X991374Y168894D01*
X994373D02*
X996373D01*
X997372Y169894D01*
Y171893D01*
X996373Y172893D01*
X994373D01*
X993374Y171893D01*
Y169894D01*
X994373Y168894D01*
X999372Y172893D02*
Y169894D01*
X1000371Y168894D01*
X1003370D01*
Y172893D01*
X1005370Y168894D02*
Y172893D01*
X1008369D01*
X1009369Y171893D01*
Y168894D01*
X1015367Y174892D02*
Y168894D01*
X1012368D01*
X1011368Y169894D01*
Y171893D01*
X1012368Y172893D01*
X1015367D01*
X991374Y158893D02*
X990375Y159892D01*
X988375D01*
X987376Y158893D01*
Y157893D01*
X988375Y156893D01*
X990375D01*
X991374Y155894D01*
Y154894D01*
X990375Y153894D01*
X988375D01*
X987376Y154894D01*
X993374Y153894D02*
X995373D01*
X994373D01*
Y159892D01*
X993374D01*
X999372Y153894D02*
X1001371D01*
X1002371Y154894D01*
Y156893D01*
X1001371Y157893D01*
X999372D01*
X998372Y156893D01*
Y154894D01*
X999372Y153894D01*
X1005370Y158893D02*
Y157893D01*
X1004370D01*
X1006369D01*
X1005370D01*
Y154894D01*
X1006369Y153894D01*
X987376Y138894D02*
Y144892D01*
X990375D01*
X991374Y143893D01*
Y141893D01*
X990375Y140893D01*
X987376D01*
X989375D02*
X991374Y138894D01*
X994373D02*
X996373D01*
X997372Y139894D01*
Y141893D01*
X996373Y142893D01*
X994373D01*
X993374Y141893D01*
Y139894D01*
X994373Y138894D01*
X999372Y142893D02*
Y139894D01*
X1000371Y138894D01*
X1003370D01*
Y142893D01*
X1005370Y138894D02*
Y142893D01*
X1008369D01*
X1009369Y141893D01*
Y138894D01*
X1015367Y144892D02*
Y138894D01*
X1012368D01*
X1011368Y139894D01*
Y141893D01*
X1012368Y142893D01*
X1015367D01*
X987376Y123894D02*
Y129892D01*
X990375D01*
X991374Y128893D01*
Y126893D01*
X990375Y125893D01*
X987376D01*
X989375D02*
X991374Y123894D01*
X994373D02*
X996373D01*
X997372Y124894D01*
Y126893D01*
X996373Y127893D01*
X994373D01*
X993374Y126893D01*
Y124894D01*
X994373Y123894D01*
X999372Y127893D02*
Y124894D01*
X1000371Y123894D01*
X1003370D01*
Y127893D01*
X1005370Y123894D02*
Y127893D01*
X1008369D01*
X1009369Y126893D01*
Y123894D01*
X1015367Y129892D02*
Y123894D01*
X1012368D01*
X1011368Y124894D01*
Y126893D01*
X1012368Y127893D01*
X1015367D01*
X991374Y113893D02*
X990375Y114892D01*
X988375D01*
X987376Y113893D01*
Y112893D01*
X988375Y111893D01*
X990375D01*
X991374Y110893D01*
Y109894D01*
X990375Y108894D01*
X988375D01*
X987376Y109894D01*
X993374Y108894D02*
X995373D01*
X994373D01*
Y114892D01*
X993374D01*
X999372Y108894D02*
X1001371D01*
X1002371Y109894D01*
Y111893D01*
X1001371Y112893D01*
X999372D01*
X998372Y111893D01*
Y109894D01*
X999372Y108894D01*
X1005370Y113893D02*
Y112893D01*
X1004370D01*
X1006369D01*
X1005370D01*
Y109894D01*
X1006369Y108894D01*
X987376Y93894D02*
Y99892D01*
X990375D01*
X991374Y98893D01*
Y96893D01*
X990375Y95894D01*
X987376D01*
X989375D02*
X991374Y93894D01*
X994373D02*
X996373D01*
X997372Y94894D01*
Y96893D01*
X996373Y97893D01*
X994373D01*
X993374Y96893D01*
Y94894D01*
X994373Y93894D01*
X999372Y97893D02*
Y94894D01*
X1000371Y93894D01*
X1003370D01*
Y97893D01*
X1005370Y93894D02*
Y97893D01*
X1008369D01*
X1009369Y96893D01*
Y93894D01*
X1015367Y99892D02*
Y93894D01*
X1012368D01*
X1011368Y94894D01*
Y96893D01*
X1012368Y97893D01*
X1015367D01*
X987376Y78894D02*
Y84892D01*
X990375D01*
X991374Y83893D01*
Y81893D01*
X990375Y80893D01*
X987376D01*
X989375D02*
X991374Y78894D01*
X994373D02*
X996373D01*
X997372Y79894D01*
Y81893D01*
X996373Y82893D01*
X994373D01*
X993374Y81893D01*
Y79894D01*
X994373Y78894D01*
X999372Y82893D02*
Y79894D01*
X1000371Y78894D01*
X1003370D01*
Y82893D01*
X1005370Y78894D02*
Y82893D01*
X1008369D01*
X1009369Y81893D01*
Y78894D01*
X1015367Y84892D02*
Y78894D01*
X1012368D01*
X1011368Y79894D01*
Y81893D01*
X1012368Y82893D01*
X1015367D01*
X987376Y63894D02*
Y69892D01*
X990375D01*
X991374Y68893D01*
Y66893D01*
X990375Y65894D01*
X987376D01*
X989375D02*
X991374Y63894D01*
X994373D02*
X996373D01*
X997372Y64894D01*
Y66893D01*
X996373Y67893D01*
X994373D01*
X993374Y66893D01*
Y64894D01*
X994373Y63894D01*
X999372Y67893D02*
Y64894D01*
X1000371Y63894D01*
X1003370D01*
Y67893D01*
X1005370Y63894D02*
Y67893D01*
X1008369D01*
X1009369Y66893D01*
Y63894D01*
X1015367Y69892D02*
Y63894D01*
X1012368D01*
X1011368Y64894D01*
Y66893D01*
X1012368Y67893D01*
X1015367D01*
X987376Y48894D02*
Y54892D01*
X990375D01*
X991374Y53893D01*
Y51893D01*
X990375Y50893D01*
X987376D01*
X989375D02*
X991374Y48894D01*
X994373D02*
X996373D01*
X997372Y49894D01*
Y51893D01*
X996373Y52893D01*
X994373D01*
X993374Y51893D01*
Y49894D01*
X994373Y48894D01*
X999372Y52893D02*
Y49894D01*
X1000371Y48894D01*
X1003370D01*
Y52893D01*
X1005370Y48894D02*
Y52893D01*
X1008369D01*
X1009369Y51893D01*
Y48894D01*
X1015367Y54892D02*
Y48894D01*
X1012368D01*
X1011368Y49894D01*
Y51893D01*
X1012368Y52893D01*
X1015367D01*
X936788Y168894D02*
Y174892D01*
X940787Y168894D01*
Y174892D01*
X942786Y168894D02*
Y174892D01*
X945785D01*
X946785Y173893D01*
Y171893D01*
X945785Y170894D01*
X942786D01*
X948784Y174892D02*
X952783D01*
X950784D01*
Y168894D01*
X954782Y174892D02*
Y168894D01*
Y171893D01*
X958781D01*
Y174892D01*
Y168894D01*
X936788Y153894D02*
Y159892D01*
X940787Y153894D01*
Y159892D01*
X942786Y153894D02*
Y159892D01*
X945785D01*
X946785Y158893D01*
Y156893D01*
X945785Y155894D01*
X942786D01*
X948784Y159892D02*
X952783D01*
X950784D01*
Y153894D01*
X954782Y159892D02*
Y153894D01*
Y156893D01*
X958781D01*
Y159892D01*
Y153894D01*
X936788Y138894D02*
Y144892D01*
X940787Y138894D01*
Y144892D01*
X942786Y138894D02*
Y144892D01*
X945785D01*
X946785Y143893D01*
Y141893D01*
X945785Y140893D01*
X942786D01*
X948784Y144892D02*
X952783D01*
X950784D01*
Y138894D01*
X954782Y144892D02*
Y138894D01*
Y141893D01*
X958781D01*
Y144892D01*
Y138894D01*
X936788Y123894D02*
Y129892D01*
X939787D01*
X940787Y128893D01*
Y126893D01*
X939787Y125893D01*
X936788D01*
X942786Y129892D02*
X946785D01*
X944785D01*
Y123894D01*
X948784Y129892D02*
Y123894D01*
Y126893D01*
X952783D01*
Y129892D01*
Y123894D01*
X936788Y108894D02*
Y114892D01*
X940787Y108894D01*
Y114892D01*
X942786Y108894D02*
Y114892D01*
X945785D01*
X946785Y113893D01*
Y111893D01*
X945785Y110893D01*
X942786D01*
X948784Y114892D02*
X952783D01*
X950784D01*
Y108894D01*
X954782Y114892D02*
Y108894D01*
Y111893D01*
X958781D01*
Y114892D01*
Y108894D01*
X936788Y93894D02*
Y99892D01*
X939787D01*
X940787Y98893D01*
Y96893D01*
X939787Y95894D01*
X936788D01*
X942786Y99892D02*
X946785D01*
X944785D01*
Y93894D01*
X948784Y99892D02*
Y93894D01*
Y96893D01*
X952783D01*
Y99892D01*
Y93894D01*
X936788Y78894D02*
Y84892D01*
X939787D01*
X940787Y83893D01*
Y81893D01*
X939787Y80893D01*
X936788D01*
X942786Y84892D02*
X946785D01*
X944785D01*
Y78894D01*
X948784Y84892D02*
Y78894D01*
Y81893D01*
X952783D01*
Y84892D01*
Y78894D01*
X936788Y63894D02*
Y69892D01*
X939787D01*
X940787Y68893D01*
Y66893D01*
X939787Y65894D01*
X936788D01*
X942786Y69892D02*
X946785D01*
X944785D01*
Y63894D01*
X948784Y69892D02*
Y63894D01*
Y66893D01*
X952783D01*
Y69892D01*
Y63894D01*
X936788Y48894D02*
Y54892D01*
X939787D01*
X940787Y53893D01*
Y51893D01*
X939787Y50893D01*
X936788D01*
X942786Y54892D02*
X946785D01*
X944785D01*
Y48894D01*
X948784Y54892D02*
Y48894D01*
Y51893D01*
X952783D01*
Y54892D01*
Y48894D01*
X821822Y168894D02*
X823821D01*
X822821D01*
Y174892D01*
X821822Y173893D01*
X826820Y168894D02*
X828819D01*
X827820D01*
Y174892D01*
X826820Y173893D01*
X831818D02*
X832818Y174892D01*
X834818D01*
X835817Y173893D01*
Y172893D01*
X834818Y171893D01*
X835817Y170894D01*
Y169894D01*
X834818Y168894D01*
X832818D01*
X831818Y169894D01*
Y170894D01*
X832818Y171893D01*
X831818Y172893D01*
Y173893D01*
X832818Y171893D02*
X834818D01*
X837817Y168894D02*
Y169894D01*
X838816D01*
Y168894D01*
X837817D01*
X842815D02*
X844814D01*
X843815D01*
Y174892D01*
X842815Y173893D01*
X847813Y168894D02*
X849813D01*
X848813D01*
Y174892D01*
X847813Y173893D01*
X852812Y168894D02*
Y172893D01*
X853811D01*
X854811Y171893D01*
Y168894D01*
Y171893D01*
X855811Y172893D01*
X856810Y171893D01*
Y168894D01*
X858810D02*
X860809D01*
X859809D01*
Y172893D01*
X858810D01*
X863808Y168894D02*
X865808D01*
X864808D01*
Y174892D01*
X863808D01*
X876804Y168894D02*
X874805Y170894D01*
Y172893D01*
X876804Y174892D01*
X879803Y173893D02*
X880803Y174892D01*
X882802D01*
X883802Y173893D01*
Y172893D01*
X882802Y171893D01*
X881802D01*
X882802D01*
X883802Y170894D01*
Y169894D01*
X882802Y168894D01*
X880803D01*
X879803Y169894D01*
X885801Y168894D02*
Y169894D01*
X886801D01*
Y168894D01*
X885801D01*
X890799Y173893D02*
X891799Y174892D01*
X893798D01*
X894798Y173893D01*
Y169894D01*
X893798Y168894D01*
X891799D01*
X890799Y169894D01*
Y173893D01*
X896797D02*
X897797Y174892D01*
X899796D01*
X900796Y173893D01*
Y169894D01*
X899796Y168894D01*
X897797D01*
X896797Y169894D01*
Y173893D01*
X902796D02*
X903795Y174892D01*
X905795D01*
X906794Y173893D01*
Y169894D01*
X905795Y168894D01*
X903795D01*
X902796Y169894D01*
Y173893D01*
X908794Y168894D02*
Y172893D01*
X909793D01*
X910793Y171893D01*
Y168894D01*
Y171893D01*
X911793Y172893D01*
X912792Y171893D01*
Y168894D01*
X914792D02*
Y172893D01*
X915791D01*
X916791Y171893D01*
Y168894D01*
Y171893D01*
X917791Y172893D01*
X918790Y171893D01*
Y168894D01*
X920790D02*
X922789Y170894D01*
Y172893D01*
X920790Y174892D01*
X821822Y153894D02*
X823821D01*
X822821D01*
Y159892D01*
X821822Y158893D01*
X826820Y153894D02*
X828819D01*
X827820D01*
Y159892D01*
X826820Y158893D01*
X831818D02*
X832818Y159892D01*
X834818D01*
X835817Y158893D01*
Y157893D01*
X834818Y156893D01*
X835817Y155894D01*
Y154894D01*
X834818Y153894D01*
X832818D01*
X831818Y154894D01*
Y155894D01*
X832818Y156893D01*
X831818Y157893D01*
Y158893D01*
X832818Y156893D02*
X834818D01*
X837817Y153894D02*
Y154894D01*
X838816D01*
Y153894D01*
X837817D01*
X842815D02*
X844814D01*
X843815D01*
Y159892D01*
X842815Y158893D01*
X847813Y153894D02*
X849813D01*
X848813D01*
Y159892D01*
X847813Y158893D01*
X852812Y153894D02*
Y157893D01*
X853811D01*
X854811Y156893D01*
Y153894D01*
Y156893D01*
X855811Y157893D01*
X856810Y156893D01*
Y153894D01*
X858810D02*
X860809D01*
X859809D01*
Y157893D01*
X858810D01*
X863808Y153894D02*
X865808D01*
X864808D01*
Y159892D01*
X863808D01*
X876804Y153894D02*
X874805Y155894D01*
Y157893D01*
X876804Y159892D01*
X879803Y158893D02*
X880803Y159892D01*
X882802D01*
X883802Y158893D01*
Y157893D01*
X882802Y156893D01*
X881802D01*
X882802D01*
X883802Y155894D01*
Y154894D01*
X882802Y153894D01*
X880803D01*
X879803Y154894D01*
X885801Y153894D02*
Y154894D01*
X886801D01*
Y153894D01*
X885801D01*
X890799Y158893D02*
X891799Y159892D01*
X893798D01*
X894798Y158893D01*
Y154894D01*
X893798Y153894D01*
X891799D01*
X890799Y154894D01*
Y158893D01*
X896797D02*
X897797Y159892D01*
X899796D01*
X900796Y158893D01*
Y154894D01*
X899796Y153894D01*
X897797D01*
X896797Y154894D01*
Y158893D01*
X902796D02*
X903795Y159892D01*
X905795D01*
X906794Y158893D01*
Y154894D01*
X905795Y153894D01*
X903795D01*
X902796Y154894D01*
Y158893D01*
X908794Y153894D02*
Y157893D01*
X909793D01*
X910793Y156893D01*
Y153894D01*
Y156893D01*
X911793Y157893D01*
X912792Y156893D01*
Y153894D01*
X914792D02*
Y157893D01*
X915791D01*
X916791Y156893D01*
Y153894D01*
Y156893D01*
X917791Y157893D01*
X918790Y156893D01*
Y153894D01*
X920790D02*
X922789Y155894D01*
Y157893D01*
X920790Y159892D01*
X821822Y139894D02*
X822821Y138894D01*
X824821D01*
X825820Y139894D01*
Y143893D01*
X824821Y144892D01*
X822821D01*
X821822Y143893D01*
Y142893D01*
X822821Y141893D01*
X825820D01*
X827820Y143893D02*
X828819Y144892D01*
X830819D01*
X831818Y143893D01*
Y142893D01*
X830819Y141893D01*
X831818Y140893D01*
Y139894D01*
X830819Y138894D01*
X828819D01*
X827820Y139894D01*
Y140893D01*
X828819Y141893D01*
X827820Y142893D01*
Y143893D01*
X828819Y141893D02*
X830819D01*
X833818Y138894D02*
Y139894D01*
X834818D01*
Y138894D01*
X833818D01*
X841815D02*
Y144892D01*
X838816Y141893D01*
X842815D01*
X844814Y143893D02*
X845814Y144892D01*
X847813D01*
X848813Y143893D01*
Y142893D01*
X847813Y141893D01*
X846814D01*
X847813D01*
X848813Y140893D01*
Y139894D01*
X847813Y138894D01*
X845814D01*
X844814Y139894D01*
X850812Y138894D02*
Y142893D01*
X851812D01*
X852812Y141893D01*
Y138894D01*
Y141893D01*
X853811Y142893D01*
X854811Y141893D01*
Y138894D01*
X856810D02*
X858810D01*
X857810D01*
Y142893D01*
X856810D01*
X861809Y138894D02*
X863808D01*
X862809D01*
Y144892D01*
X861809D01*
X874805Y138894D02*
X872805Y140893D01*
Y142893D01*
X874805Y144892D01*
X881802Y138894D02*
X877804D01*
X881802Y142893D01*
Y143893D01*
X880803Y144892D01*
X878803D01*
X877804Y143893D01*
X883802Y138894D02*
Y139894D01*
X884801D01*
Y138894D01*
X883802D01*
X892799Y144892D02*
X888800D01*
Y141893D01*
X890799Y142893D01*
X891799D01*
X892799Y141893D01*
Y139894D01*
X891799Y138894D01*
X889800D01*
X888800Y139894D01*
X894798Y143893D02*
X895798Y144892D01*
X897797D01*
X898797Y143893D01*
Y139894D01*
X897797Y138894D01*
X895798D01*
X894798Y139894D01*
Y143893D01*
X900796D02*
X901796Y144892D01*
X903795D01*
X904795Y143893D01*
Y139894D01*
X903795Y138894D01*
X901796D01*
X900796Y139894D01*
Y143893D01*
X906794Y138894D02*
Y142893D01*
X907794D01*
X908794Y141893D01*
Y138894D01*
Y141893D01*
X909793Y142893D01*
X910793Y141893D01*
Y138894D01*
X912792D02*
Y142893D01*
X913792D01*
X914792Y141893D01*
Y138894D01*
Y141893D01*
X915791Y142893D01*
X916791Y141893D01*
Y138894D01*
X918790D02*
X920790Y140893D01*
Y142893D01*
X918790Y144892D01*
X821822Y123894D02*
X823821D01*
X822821D01*
Y129892D01*
X821822Y128893D01*
X826820D02*
X827820Y129892D01*
X829819D01*
X830819Y128893D01*
Y127893D01*
X829819Y126893D01*
X828819D01*
X829819D01*
X830819Y125893D01*
Y124894D01*
X829819Y123894D01*
X827820D01*
X826820Y124894D01*
X832818Y129892D02*
X836817D01*
Y128893D01*
X832818Y124894D01*
Y123894D01*
X838816D02*
Y124894D01*
X839816D01*
Y123894D01*
X838816D01*
X843815Y129892D02*
X847813D01*
Y128893D01*
X843815Y124894D01*
Y123894D01*
X849813Y124894D02*
X850812Y123894D01*
X852812D01*
X853811Y124894D01*
Y128893D01*
X852812Y129892D01*
X850812D01*
X849813Y128893D01*
Y127893D01*
X850812Y126893D01*
X853811D01*
X855811Y123894D02*
Y127893D01*
X856810D01*
X857810Y126893D01*
Y123894D01*
Y126893D01*
X858810Y127893D01*
X859809Y126893D01*
Y123894D01*
X861809D02*
X863808D01*
X862809D01*
Y127893D01*
X861809D01*
X866807Y123894D02*
X868806D01*
X867807D01*
Y129892D01*
X866807D01*
X879803Y123894D02*
X877804Y125893D01*
Y127893D01*
X879803Y129892D01*
X882802Y128893D02*
X883802Y129892D01*
X885801D01*
X886801Y128893D01*
Y127893D01*
X885801Y126893D01*
X884801D01*
X885801D01*
X886801Y125893D01*
Y124894D01*
X885801Y123894D01*
X883802D01*
X882802Y124894D01*
X888800Y123894D02*
Y124894D01*
X889800D01*
Y123894D01*
X888800D01*
X897797Y129892D02*
X893798D01*
Y126893D01*
X895798Y127893D01*
X896797D01*
X897797Y126893D01*
Y124894D01*
X896797Y123894D01*
X894798D01*
X893798Y124894D01*
X899796Y128893D02*
X900796Y129892D01*
X902796D01*
X903795Y128893D01*
Y124894D01*
X902796Y123894D01*
X900796D01*
X899796Y124894D01*
Y128893D01*
X905795D02*
X906794Y129892D01*
X908794D01*
X909793Y128893D01*
Y124894D01*
X908794Y123894D01*
X906794D01*
X905795Y124894D01*
Y128893D01*
X911793Y123894D02*
Y127893D01*
X912792D01*
X913792Y126893D01*
Y123894D01*
Y126893D01*
X914792Y127893D01*
X915791Y126893D01*
Y123894D01*
X917791D02*
Y127893D01*
X918790D01*
X919790Y126893D01*
Y123894D01*
Y126893D01*
X920790Y127893D01*
X921789Y126893D01*
Y123894D01*
X923789D02*
X925788Y125893D01*
Y127893D01*
X923789Y129892D01*
X821822Y113893D02*
X822821Y114892D01*
X824821D01*
X825820Y113893D01*
Y112893D01*
X824821Y111893D01*
X823821D01*
X824821D01*
X825820Y110893D01*
Y109894D01*
X824821Y108894D01*
X822821D01*
X821822Y109894D01*
X827820D02*
X828819Y108894D01*
X830819D01*
X831818Y109894D01*
Y113893D01*
X830819Y114892D01*
X828819D01*
X827820Y113893D01*
Y112893D01*
X828819Y111893D01*
X831818D01*
X833818Y108894D02*
Y109894D01*
X834818D01*
Y108894D01*
X833818D01*
X838816Y113893D02*
X839816Y114892D01*
X841815D01*
X842815Y113893D01*
Y112893D01*
X841815Y111893D01*
X840816D01*
X841815D01*
X842815Y110893D01*
Y109894D01*
X841815Y108894D01*
X839816D01*
X838816Y109894D01*
X844814Y114892D02*
X848813D01*
Y113893D01*
X844814Y109894D01*
Y108894D01*
X850812D02*
Y112893D01*
X851812D01*
X852812Y111893D01*
Y108894D01*
Y111893D01*
X853811Y112893D01*
X854811Y111893D01*
Y108894D01*
X856810D02*
X858810D01*
X857810D01*
Y112893D01*
X856810D01*
X861809Y108894D02*
X863808D01*
X862809D01*
Y114892D01*
X861809D01*
X874805Y108894D02*
X872805Y110893D01*
Y112893D01*
X874805Y114892D01*
X877804Y108894D02*
X879803D01*
X878803D01*
Y114892D01*
X877804Y113893D01*
X882802Y108894D02*
Y109894D01*
X883802D01*
Y108894D01*
X882802D01*
X887800Y113893D02*
X888800Y114892D01*
X890799D01*
X891799Y113893D01*
Y109894D01*
X890799Y108894D01*
X888800D01*
X887800Y109894D01*
Y113893D01*
X893798D02*
X894798Y114892D01*
X896797D01*
X897797Y113893D01*
Y109894D01*
X896797Y108894D01*
X894798D01*
X893798Y109894D01*
Y113893D01*
X899796D02*
X900796Y114892D01*
X902796D01*
X903795Y113893D01*
Y109894D01*
X902796Y108894D01*
X900796D01*
X899796Y109894D01*
Y113893D01*
X905795Y108894D02*
Y112893D01*
X906794D01*
X907794Y111893D01*
Y108894D01*
Y111893D01*
X908794Y112893D01*
X909793Y111893D01*
Y108894D01*
X911793D02*
Y112893D01*
X912792D01*
X913792Y111893D01*
Y108894D01*
Y111893D01*
X914792Y112893D01*
X915791Y111893D01*
Y108894D01*
X917791D02*
X919790Y110893D01*
Y112893D01*
X917791Y114892D01*
X824821Y93894D02*
Y99892D01*
X821822Y96893D01*
X825820D01*
X827820Y98893D02*
X828819Y99892D01*
X830819D01*
X831818Y98893D01*
Y97893D01*
X830819Y96893D01*
X829819D01*
X830819D01*
X831818Y95894D01*
Y94894D01*
X830819Y93894D01*
X828819D01*
X827820Y94894D01*
X833818Y93894D02*
Y94894D01*
X834818D01*
Y93894D01*
X833818D01*
X838816Y98893D02*
X839816Y99892D01*
X841815D01*
X842815Y98893D01*
Y97893D01*
X841815Y96893D01*
X840816D01*
X841815D01*
X842815Y95894D01*
Y94894D01*
X841815Y93894D01*
X839816D01*
X838816Y94894D01*
X844814Y93894D02*
X846814D01*
X845814D01*
Y99892D01*
X844814Y98893D01*
X849813Y93894D02*
Y97893D01*
X850812D01*
X851812Y96893D01*
Y93894D01*
Y96893D01*
X852812Y97893D01*
X853811Y96893D01*
Y93894D01*
X855811D02*
X857810D01*
X856810D01*
Y97893D01*
X855811D01*
X860809Y93894D02*
X862809D01*
X861809D01*
Y99892D01*
X860809D01*
X873805Y93894D02*
X871805Y95894D01*
Y97893D01*
X873805Y99892D01*
X876804Y93894D02*
X878803D01*
X877804D01*
Y99892D01*
X876804Y98893D01*
X881802Y93894D02*
Y94894D01*
X882802D01*
Y93894D01*
X881802D01*
X886801D02*
X888800D01*
X887800D01*
Y99892D01*
X886801Y98893D01*
X891799D02*
X892799Y99892D01*
X894798D01*
X895798Y98893D01*
Y94894D01*
X894798Y93894D01*
X892799D01*
X891799Y94894D01*
Y98893D01*
X897797D02*
X898797Y99892D01*
X900796D01*
X901796Y98893D01*
Y94894D01*
X900796Y93894D01*
X898797D01*
X897797Y94894D01*
Y98893D01*
X903795Y93894D02*
Y97893D01*
X904795D01*
X905795Y96893D01*
Y93894D01*
Y96893D01*
X906794Y97893D01*
X907794Y96893D01*
Y93894D01*
X909793D02*
Y97893D01*
X910793D01*
X911793Y96893D01*
Y93894D01*
Y96893D01*
X912792Y97893D01*
X913792Y96893D01*
Y93894D01*
X915791D02*
X917791Y95894D01*
Y97893D01*
X915791Y99892D01*
X821822Y83893D02*
X822821Y84892D01*
X824821D01*
X825820Y83893D01*
Y82893D01*
X824821Y81893D01*
X823821D01*
X824821D01*
X825820Y80893D01*
Y79894D01*
X824821Y78894D01*
X822821D01*
X821822Y79894D01*
X827820D02*
X828819Y78894D01*
X830819D01*
X831818Y79894D01*
Y83893D01*
X830819Y84892D01*
X828819D01*
X827820Y83893D01*
Y82893D01*
X828819Y81893D01*
X831818D01*
X833818Y78894D02*
Y79894D01*
X834818D01*
Y78894D01*
X833818D01*
X838816Y83893D02*
X839816Y84892D01*
X841815D01*
X842815Y83893D01*
Y82893D01*
X841815Y81893D01*
X840816D01*
X841815D01*
X842815Y80893D01*
Y79894D01*
X841815Y78894D01*
X839816D01*
X838816Y79894D01*
X844814Y84892D02*
X848813D01*
Y83893D01*
X844814Y79894D01*
Y78894D01*
X850812D02*
Y82893D01*
X851812D01*
X852812Y81893D01*
Y78894D01*
Y81893D01*
X853811Y82893D01*
X854811Y81893D01*
Y78894D01*
X856810D02*
X858810D01*
X857810D01*
Y82893D01*
X856810D01*
X861809Y78894D02*
X863808D01*
X862809D01*
Y84892D01*
X861809D01*
X874805Y78894D02*
X872805Y80893D01*
Y82893D01*
X874805Y84892D01*
X877804Y78894D02*
X879803D01*
X878803D01*
Y84892D01*
X877804Y83893D01*
X882802Y78894D02*
Y79894D01*
X883802D01*
Y78894D01*
X882802D01*
X887800Y83893D02*
X888800Y84892D01*
X890799D01*
X891799Y83893D01*
Y79894D01*
X890799Y78894D01*
X888800D01*
X887800Y79894D01*
Y83893D01*
X893798D02*
X894798Y84892D01*
X896797D01*
X897797Y83893D01*
Y79894D01*
X896797Y78894D01*
X894798D01*
X893798Y79894D01*
Y83893D01*
X899796D02*
X900796Y84892D01*
X902796D01*
X903795Y83893D01*
Y79894D01*
X902796Y78894D01*
X900796D01*
X899796Y79894D01*
Y83893D01*
X905795Y78894D02*
Y82893D01*
X906794D01*
X907794Y81893D01*
Y78894D01*
Y81893D01*
X908794Y82893D01*
X909793Y81893D01*
Y78894D01*
X911793D02*
Y82893D01*
X912792D01*
X913792Y81893D01*
Y78894D01*
Y81893D01*
X914792Y82893D01*
X915791Y81893D01*
Y78894D01*
X917791D02*
X919790Y80893D01*
Y82893D01*
X917791Y84892D01*
X821822Y63894D02*
X823821D01*
X822821D01*
Y69892D01*
X821822Y68893D01*
X826820Y64894D02*
X827820Y63894D01*
X829819D01*
X830819Y64894D01*
Y68893D01*
X829819Y69892D01*
X827820D01*
X826820Y68893D01*
Y67893D01*
X827820Y66893D01*
X830819D01*
X832818Y63894D02*
Y64894D01*
X833818D01*
Y63894D01*
X832818D01*
X841815Y69892D02*
X839816Y68893D01*
X837817Y66893D01*
Y64894D01*
X838816Y63894D01*
X840816D01*
X841815Y64894D01*
Y65894D01*
X840816Y66893D01*
X837817D01*
X843815Y64894D02*
X844814Y63894D01*
X846814D01*
X847813Y64894D01*
Y68893D01*
X846814Y69892D01*
X844814D01*
X843815Y68893D01*
Y67893D01*
X844814Y66893D01*
X847813D01*
X849813Y63894D02*
Y67893D01*
X850812D01*
X851812Y66893D01*
Y63894D01*
Y66893D01*
X852812Y67893D01*
X853811Y66893D01*
Y63894D01*
X855811D02*
X857810D01*
X856810D01*
Y67893D01*
X855811D01*
X860809Y63894D02*
X862809D01*
X861809D01*
Y69892D01*
X860809D01*
X873805Y63894D02*
X871805Y65894D01*
Y67893D01*
X873805Y69892D01*
X876804Y68893D02*
X877804Y69892D01*
X879803D01*
X880803Y68893D01*
Y64894D01*
X879803Y63894D01*
X877804D01*
X876804Y64894D01*
Y68893D01*
X882802Y63894D02*
Y64894D01*
X883802D01*
Y63894D01*
X882802D01*
X891799Y69892D02*
X887800D01*
Y66893D01*
X889800Y67893D01*
X890799D01*
X891799Y66893D01*
Y64894D01*
X890799Y63894D01*
X888800D01*
X887800Y64894D01*
X893798Y68893D02*
X894798Y69892D01*
X896797D01*
X897797Y68893D01*
Y64894D01*
X896797Y63894D01*
X894798D01*
X893798Y64894D01*
Y68893D01*
X899796D02*
X900796Y69892D01*
X902796D01*
X903795Y68893D01*
Y64894D01*
X902796Y63894D01*
X900796D01*
X899796Y64894D01*
Y68893D01*
X905795Y63894D02*
Y67893D01*
X906794D01*
X907794Y66893D01*
Y63894D01*
Y66893D01*
X908794Y67893D01*
X909793Y66893D01*
Y63894D01*
X911793D02*
Y67893D01*
X912792D01*
X913792Y66893D01*
Y63894D01*
Y66893D01*
X914792Y67893D01*
X915791Y66893D01*
Y63894D01*
X917791D02*
X919790Y65894D01*
Y67893D01*
X917791Y69892D01*
X825820Y48894D02*
X821822D01*
X825820Y52893D01*
Y53893D01*
X824821Y54892D01*
X822821D01*
X821822Y53893D01*
X827820Y54892D02*
X831818D01*
Y53893D01*
X827820Y49894D01*
Y48894D01*
X833818D02*
Y49894D01*
X834818D01*
Y48894D01*
X833818D01*
X842815Y54892D02*
X838816D01*
Y51893D01*
X840816Y52893D01*
X841815D01*
X842815Y51893D01*
Y49894D01*
X841815Y48894D01*
X839816D01*
X838816Y49894D01*
X848813Y54892D02*
X846814Y53893D01*
X844814Y51893D01*
Y49894D01*
X845814Y48894D01*
X847813D01*
X848813Y49894D01*
Y50893D01*
X847813Y51893D01*
X844814D01*
X850812Y48894D02*
Y52893D01*
X851812D01*
X852812Y51893D01*
Y48894D01*
Y51893D01*
X853811Y52893D01*
X854811Y51893D01*
Y48894D01*
X856810D02*
X858810D01*
X857810D01*
Y52893D01*
X856810D01*
X861809Y48894D02*
X863808D01*
X862809D01*
Y54892D01*
X861809D01*
X874805Y48894D02*
X872805Y50893D01*
Y52893D01*
X874805Y54892D01*
X877804Y53893D02*
X878803Y54892D01*
X880803D01*
X881802Y53893D01*
Y49894D01*
X880803Y48894D01*
X878803D01*
X877804Y49894D01*
Y53893D01*
X883802Y48894D02*
Y49894D01*
X884801D01*
Y48894D01*
X883802D01*
X888800Y54892D02*
X892799D01*
Y53893D01*
X888800Y49894D01*
Y48894D01*
X894798Y53893D02*
X895798Y54892D01*
X897797D01*
X898797Y53893D01*
Y49894D01*
X897797Y48894D01*
X895798D01*
X894798Y49894D01*
Y53893D01*
X900796D02*
X901796Y54892D01*
X903795D01*
X904795Y53893D01*
Y49894D01*
X903795Y48894D01*
X901796D01*
X900796Y49894D01*
Y53893D01*
X906794Y48894D02*
Y52893D01*
X907794D01*
X908794Y51893D01*
Y48894D01*
Y51893D01*
X909793Y52893D01*
X910793Y51893D01*
Y48894D01*
X912792D02*
Y52893D01*
X913792D01*
X914792Y51893D01*
Y48894D01*
Y51893D01*
X915791Y52893D01*
X916791Y51893D01*
Y48894D01*
X918790D02*
X920790Y50893D01*
Y52893D01*
X918790Y54892D01*
X765836Y33894D02*
X761838D01*
X765836Y37893D01*
Y38892D01*
X764837Y39892D01*
X762837D01*
X761838Y38892D01*
X767836D02*
X768835Y39892D01*
X770835D01*
X771834Y38892D01*
Y37893D01*
X770835Y36893D01*
X771834Y35893D01*
Y34894D01*
X770835Y33894D01*
X768835D01*
X767836Y34894D01*
Y35893D01*
X768835Y36893D01*
X767836Y37893D01*
Y38892D01*
X768835Y36893D02*
X770835D01*
X773834Y34894D02*
X774833Y33894D01*
X776833D01*
X777832Y34894D01*
Y38892D01*
X776833Y39892D01*
X774833D01*
X773834Y38892D01*
Y37893D01*
X774833Y36893D01*
X777832D01*
X785830Y39892D02*
X789828D01*
X787829D01*
Y33894D01*
X792828D02*
X794827D01*
X795827Y34894D01*
Y36893D01*
X794827Y37893D01*
X792828D01*
X791828Y36893D01*
Y34894D01*
X792828Y33894D01*
X798826Y38892D02*
Y37893D01*
X797826D01*
X799825D01*
X798826D01*
Y34894D01*
X799825Y33894D01*
X803824Y37893D02*
X805823D01*
X806823Y36893D01*
Y33894D01*
X803824D01*
X802824Y34894D01*
X803824Y35893D01*
X806823D01*
X808822Y33894D02*
X810822D01*
X809822D01*
Y39892D01*
X808822D01*
X761838Y168894D02*
X763837D01*
X762837D01*
Y174892D01*
X761838Y173893D01*
Y153894D02*
X763837D01*
X762837D01*
Y159892D01*
X761838Y158893D01*
X765836Y138894D02*
X761838D01*
X765836Y142893D01*
Y143893D01*
X764837Y144892D01*
X762837D01*
X761838Y143893D01*
X764837Y123894D02*
Y129892D01*
X761838Y126893D01*
X765836D01*
X761838Y114892D02*
X765836D01*
Y113893D01*
X761838Y109894D01*
Y108894D01*
Y93894D02*
X763837D01*
X762837D01*
Y99892D01*
X761838Y98893D01*
X770835Y99892D02*
X768835Y98893D01*
X766836Y96893D01*
Y94894D01*
X767836Y93894D01*
X769835D01*
X770835Y94894D01*
Y95894D01*
X769835Y96893D01*
X766836D01*
X761838Y83893D02*
X762837Y84892D01*
X764837D01*
X765836Y83893D01*
Y82893D01*
X764837Y81893D01*
X763837D01*
X764837D01*
X765836Y80893D01*
Y79894D01*
X764837Y78894D01*
X762837D01*
X761838Y79894D01*
X767836Y78894D02*
X769835D01*
X768835D01*
Y84892D01*
X767836Y83893D01*
X761838Y63894D02*
X763837D01*
X762837D01*
Y69892D01*
X761838Y68893D01*
X766836D02*
X767836Y69892D01*
X769835D01*
X770835Y68893D01*
Y64894D01*
X769835Y63894D01*
X767836D01*
X766836Y64894D01*
Y68893D01*
X776833Y69892D02*
X772834D01*
Y66893D01*
X774833Y67893D01*
X775833D01*
X776833Y66893D01*
Y64894D01*
X775833Y63894D01*
X773834D01*
X772834Y64894D01*
X761838Y48894D02*
X763837D01*
X762837D01*
Y54892D01*
X761838Y53893D01*
X770835Y48894D02*
X766836D01*
X770835Y52893D01*
Y53893D01*
X769835Y54892D01*
X767836D01*
X766836Y53893D01*
X776833Y48894D02*
X772834D01*
X776833Y52893D01*
Y53893D01*
X775833Y54892D01*
X773834D01*
X772834Y53893D01*
X889797Y11399D02*
X893796D01*
X889797Y13398D02*
X893796D01*
X901793Y9399D02*
Y15397D01*
X904792D01*
X905792Y14398D01*
Y12398D01*
X904792Y11399D01*
X901793D01*
X903792D02*
X905792Y9399D01*
X908791D02*
X910790D01*
X911790Y10399D01*
Y12398D01*
X910790Y13398D01*
X908791D01*
X907791Y12398D01*
Y10399D01*
X908791Y9399D01*
X913789Y13398D02*
Y10399D01*
X914789Y9399D01*
X917788D01*
Y13398D01*
X920787Y14398D02*
Y13398D01*
X919787D01*
X921787D01*
X920787D01*
Y10399D01*
X921787Y9399D01*
X927785D02*
X925785D01*
X924786Y10399D01*
Y12398D01*
X925785Y13398D01*
X927785D01*
X928784Y12398D01*
Y11399D01*
X924786D01*
X934782Y15397D02*
Y9399D01*
X931783D01*
X930784Y10399D01*
Y12398D01*
X931783Y13398D01*
X934782D01*
X942780Y9399D02*
Y15397D01*
X945779D01*
X946778Y14398D01*
Y12398D01*
X945779Y11399D01*
X942780D01*
X949778Y13398D02*
X951777D01*
X952777Y12398D01*
Y9399D01*
X949778D01*
X948778Y10399D01*
X949778Y11399D01*
X952777D01*
X955776Y14398D02*
Y13398D01*
X954776D01*
X956775D01*
X955776D01*
Y10399D01*
X956775Y9399D01*
X959774Y15397D02*
Y9399D01*
Y12398D01*
X960774Y13398D01*
X962773D01*
X963773Y12398D01*
Y9399D01*
X971770Y15397D02*
Y9399D01*
X975769D01*
X980768D02*
X978768D01*
X977769Y10399D01*
Y12398D01*
X978768Y13398D01*
X980768D01*
X981767Y12398D01*
Y11399D01*
X977769D01*
X983766Y9399D02*
Y13398D01*
X986766D01*
X987765Y12398D01*
Y9399D01*
X991764Y7400D02*
X992764D01*
X993763Y8400D01*
Y13398D01*
X990764D01*
X989765Y12398D01*
Y10399D01*
X990764Y9399D01*
X993763D01*
X996762Y14398D02*
Y13398D01*
X995763D01*
X997762D01*
X996762D01*
Y10399D01*
X997762Y9399D01*
X1000761Y15397D02*
Y9399D01*
Y12398D01*
X1001761Y13398D01*
X1003760D01*
X1004760Y12398D01*
Y9399D01*
X1012757Y12398D02*
X1016756D01*
X1014756Y14398D02*
Y10399D01*
X1024753Y15397D02*
X1028752D01*
X1026753D01*
Y9399D01*
X1031751D02*
X1033750D01*
X1034750Y10399D01*
Y12398D01*
X1033750Y13398D01*
X1031751D01*
X1030751Y12398D01*
Y10399D01*
X1031751Y9399D01*
X1037749D02*
X1039748D01*
X1040748Y10399D01*
Y12398D01*
X1039748Y13398D01*
X1037749D01*
X1036749Y12398D01*
Y10399D01*
X1037749Y9399D01*
X1042747D02*
X1044747D01*
X1043747D01*
Y15397D01*
X1042747D01*
X1057743Y14398D02*
X1056743Y15397D01*
X1054744D01*
X1053744Y14398D01*
Y13398D01*
X1054744Y12398D01*
X1056743D01*
X1057743Y11399D01*
Y10399D01*
X1056743Y9399D01*
X1054744D01*
X1053744Y10399D01*
X1059742Y9399D02*
X1061741D01*
X1060742D01*
Y13398D01*
X1059742D01*
X1064740D02*
X1068739D01*
X1064740Y9399D01*
X1068739D01*
X1073737D02*
X1071738D01*
X1070738Y10399D01*
Y12398D01*
X1071738Y13398D01*
X1073737D01*
X1074737Y12398D01*
Y11399D01*
X1070738D01*
X1082734D02*
X1086733D01*
X1082734Y13398D02*
X1086733D01*
X1098729Y14398D02*
X1097730Y15397D01*
X1095730D01*
X1094731Y14398D01*
Y13398D01*
X1095730Y12398D01*
X1097730D01*
X1098729Y11399D01*
Y10399D01*
X1097730Y9399D01*
X1095730D01*
X1094731Y10399D01*
X1100729Y9399D02*
X1102728D01*
X1101728D01*
Y15397D01*
X1100729D01*
X1106727Y9399D02*
X1108726D01*
X1109726Y10399D01*
Y12398D01*
X1108726Y13398D01*
X1106727D01*
X1105727Y12398D01*
Y10399D01*
X1106727Y9399D01*
X1112725Y14398D02*
Y13398D01*
X1111725D01*
X1113725D01*
X1112725D01*
Y10399D01*
X1113725Y9399D01*
X1122722D02*
X1124721D01*
X1123721D01*
Y15397D01*
X1122722D01*
X1130719Y9399D02*
X1128720D01*
X1127720Y10399D01*
Y12398D01*
X1128720Y13398D01*
X1130719D01*
X1131719Y12398D01*
Y11399D01*
X1127720D01*
X1133718Y9399D02*
Y13398D01*
X1136717D01*
X1137717Y12398D01*
Y9399D01*
X1141715Y7400D02*
X1142715D01*
X1143715Y8400D01*
Y13398D01*
X1140716D01*
X1139716Y12398D01*
Y10399D01*
X1140716Y9399D01*
X1143715D01*
X1146714Y14398D02*
Y13398D01*
X1145714D01*
X1147713D01*
X1146714D01*
Y10399D01*
X1147713Y9399D01*
X1150712Y15397D02*
Y9399D01*
Y12398D01*
X1151712Y13398D01*
X1153712D01*
X1154711Y12398D01*
Y9399D01*
X1163708Y13398D02*
X1165708D01*
X1166707Y12398D01*
Y9399D01*
X1163708D01*
X1162709Y10399D01*
X1163708Y11399D01*
X1166707D01*
X1168707Y9399D02*
X1171706D01*
X1172705Y10399D01*
X1171706Y11399D01*
X1169706D01*
X1168707Y12398D01*
X1169706Y13398D01*
X1172705D01*
X1184702Y15397D02*
Y9399D01*
X1181703D01*
X1180703Y10399D01*
Y12398D01*
X1181703Y13398D01*
X1184702D01*
X1189700Y9399D02*
X1187701D01*
X1186701Y10399D01*
Y12398D01*
X1187701Y13398D01*
X1189700D01*
X1190700Y12398D01*
Y11399D01*
X1186701D01*
X1193699Y9399D02*
Y14398D01*
Y12398D01*
X1192699D01*
X1194698D01*
X1193699D01*
Y14398D01*
X1194698Y15397D01*
X1197697Y9399D02*
X1199697D01*
X1198697D01*
Y13398D01*
X1197697D01*
X1202696Y9399D02*
Y13398D01*
X1205695D01*
X1206694Y12398D01*
Y9399D01*
X1211693D02*
X1209693D01*
X1208694Y10399D01*
Y12398D01*
X1209693Y13398D01*
X1211693D01*
X1212693Y12398D01*
Y11399D01*
X1208694D01*
X1218690Y15397D02*
Y9399D01*
X1215691D01*
X1214692Y10399D01*
Y12398D01*
X1215691Y13398D01*
X1218690D01*
X1226688Y9399D02*
X1228687D01*
X1227688D01*
Y13398D01*
X1226688D01*
X1231686Y9399D02*
Y13398D01*
X1234685D01*
X1235685Y12398D01*
Y9399D01*
X1244682Y14398D02*
Y13398D01*
X1243682D01*
X1245682D01*
X1244682D01*
Y10399D01*
X1245682Y9399D01*
X1248681Y15397D02*
Y9399D01*
Y12398D01*
X1249681Y13398D01*
X1251680D01*
X1252680Y12398D01*
Y9399D01*
X1257678D02*
X1255679D01*
X1254679Y10399D01*
Y12398D01*
X1255679Y13398D01*
X1257678D01*
X1258678Y12398D01*
Y11399D01*
X1254679D01*
X1266675Y9399D02*
Y15397D01*
X1269674D01*
X1270674Y14398D01*
Y12398D01*
X1269674Y11399D01*
X1266675D01*
X1276672Y14398D02*
X1275672Y15397D01*
X1273673D01*
X1272673Y14398D01*
Y10399D01*
X1273673Y9399D01*
X1275672D01*
X1276672Y10399D01*
X1278671Y15397D02*
Y9399D01*
X1281670D01*
X1282670Y10399D01*
Y11399D01*
X1281670Y12398D01*
X1278671D01*
X1281670D01*
X1282670Y13398D01*
Y14398D01*
X1281670Y15397D01*
X1278671D01*
X1290667Y9399D02*
X1292667D01*
X1291667D01*
Y15397D01*
X1290667D01*
X1296665Y13398D02*
X1298665D01*
X1299664Y12398D01*
Y9399D01*
X1296665D01*
X1295666Y10399D01*
X1296665Y11399D01*
X1299664D01*
X1301664Y13398D02*
Y10399D01*
X1302663Y9399D01*
X1305662D01*
Y8400D01*
X1304663Y7400D01*
X1303663D01*
X1305662Y9399D02*
Y13398D01*
X1308661Y9399D02*
X1310661D01*
X1311660Y10399D01*
Y12398D01*
X1310661Y13398D01*
X1308661D01*
X1307662Y12398D01*
Y10399D01*
X1308661Y9399D01*
X1313660Y13398D02*
Y10399D01*
X1314660Y9399D01*
X1317659D01*
Y13398D01*
X1320658Y14398D02*
Y13398D01*
X1319658D01*
X1321657D01*
X1320658D01*
Y10399D01*
X1321657Y9399D01*
X924786Y21396D02*
X928784D01*
X924786Y23395D02*
X928784D01*
X940781Y24395D02*
X939781Y25395D01*
X937781D01*
X936782Y24395D01*
Y20396D01*
X937781Y19397D01*
X939781D01*
X940781Y20396D01*
X943779Y23395D02*
X945779D01*
X946778Y22396D01*
Y19397D01*
X943779D01*
X942780Y20396D01*
X943779Y21396D01*
X946778D01*
X948778Y19397D02*
X950777D01*
X949778D01*
Y25395D01*
X948778D01*
X957775Y23395D02*
X954776D01*
X953776Y22396D01*
Y20396D01*
X954776Y19397D01*
X957775D01*
X959774Y23395D02*
Y20396D01*
X960774Y19397D01*
X963773D01*
Y23395D01*
X965772Y19397D02*
X967772D01*
X966772D01*
Y25395D01*
X965772D01*
X971770Y23395D02*
X973770D01*
X974769Y22396D01*
Y19397D01*
X971770D01*
X970771Y20396D01*
X971770Y21396D01*
X974769D01*
X977769Y24395D02*
Y23395D01*
X976769D01*
X978768D01*
X977769D01*
Y20396D01*
X978768Y19397D01*
X984766D02*
X982767D01*
X981767Y20396D01*
Y22396D01*
X982767Y23395D01*
X984766D01*
X985766Y22396D01*
Y21396D01*
X981767D01*
X991764Y25395D02*
Y19397D01*
X988765D01*
X987765Y20396D01*
Y22396D01*
X988765Y23395D01*
X991764D01*
X1000761Y19397D02*
Y24395D01*
Y22396D01*
X999761D01*
X1001761D01*
X1000761D01*
Y24395D01*
X1001761Y25395D01*
X1004760Y23395D02*
Y19397D01*
Y21396D01*
X1005759Y22396D01*
X1006759Y23395D01*
X1007759D01*
X1011757Y19397D02*
X1013757D01*
X1014756Y20396D01*
Y22396D01*
X1013757Y23395D01*
X1011757D01*
X1010758Y22396D01*
Y20396D01*
X1011757Y19397D01*
X1016756D02*
Y23395D01*
X1017756D01*
X1018755Y22396D01*
Y19397D01*
Y22396D01*
X1019755Y23395D01*
X1020755Y22396D01*
Y19397D01*
X1029752Y24395D02*
Y23395D01*
X1028752D01*
X1030751D01*
X1029752D01*
Y20396D01*
X1030751Y19397D01*
X1034750D02*
X1036749D01*
X1037749Y20396D01*
Y22396D01*
X1036749Y23395D01*
X1034750D01*
X1033750Y22396D01*
Y20396D01*
X1034750Y19397D01*
X1040748D02*
X1042747D01*
X1043747Y20396D01*
Y22396D01*
X1042747Y23395D01*
X1040748D01*
X1039748Y22396D01*
Y20396D01*
X1040748Y19397D01*
X1045747D02*
X1047746D01*
X1046746D01*
Y25395D01*
X1045747D01*
X1056743Y19397D02*
X1059742D01*
X1060742Y20396D01*
X1059742Y21396D01*
X1057743D01*
X1056743Y22396D01*
X1057743Y23395D01*
X1060742D01*
X1063741Y24395D02*
Y23395D01*
X1062741D01*
X1064740D01*
X1063741D01*
Y20396D01*
X1064740Y19397D01*
X1068739Y23395D02*
X1070738D01*
X1071738Y22396D01*
Y19397D01*
X1068739D01*
X1067739Y20396D01*
X1068739Y21396D01*
X1071738D01*
X1073737Y23395D02*
Y19397D01*
Y21396D01*
X1074737Y22396D01*
X1075737Y23395D01*
X1076737D01*
X1080735Y24395D02*
Y23395D01*
X1079735D01*
X1081735D01*
X1080735D01*
Y20396D01*
X1081735Y19397D01*
X1094731Y23395D02*
X1091732D01*
X1090732Y22396D01*
Y20396D01*
X1091732Y19397D01*
X1094731D01*
X1099729D02*
X1097730D01*
X1096730Y20396D01*
Y22396D01*
X1097730Y23395D01*
X1099729D01*
X1100729Y22396D01*
Y21396D01*
X1096730D01*
X1102728Y19397D02*
Y23395D01*
X1105727D01*
X1106727Y22396D01*
Y19397D01*
X1109726Y24395D02*
Y23395D01*
X1108726D01*
X1110725D01*
X1109726D01*
Y20396D01*
X1110725Y19397D01*
X1113725Y23395D02*
Y19397D01*
Y21396D01*
X1114724Y22396D01*
X1115724Y23395D01*
X1116724D01*
X1122722Y19397D02*
X1120722D01*
X1119723Y20396D01*
Y22396D01*
X1120722Y23395D01*
X1122722D01*
X1123721Y22396D01*
Y21396D01*
X1119723D01*
X1131719Y17397D02*
Y23395D01*
X1134718D01*
X1135717Y22396D01*
Y20396D01*
X1134718Y19397D01*
X1131719D01*
X1138716D02*
X1140716D01*
X1141715Y20396D01*
Y22396D01*
X1140716Y23395D01*
X1138716D01*
X1137717Y22396D01*
Y20396D01*
X1138716Y19397D01*
X1143715D02*
X1146714D01*
X1147713Y20396D01*
X1146714Y21396D01*
X1144715D01*
X1143715Y22396D01*
X1144715Y23395D01*
X1147713D01*
X1149713Y19397D02*
X1151712D01*
X1150712D01*
Y23395D01*
X1149713D01*
X1155711Y24395D02*
Y23395D01*
X1154711D01*
X1156711D01*
X1155711D01*
Y20396D01*
X1156711Y19397D01*
X1159710D02*
X1161709D01*
X1160709D01*
Y23395D01*
X1159710D01*
X1165708Y19397D02*
X1167707D01*
X1168707Y20396D01*
Y22396D01*
X1167707Y23395D01*
X1165708D01*
X1164708Y22396D01*
Y20396D01*
X1165708Y19397D01*
X1170706D02*
Y23395D01*
X1173705D01*
X1174705Y22396D01*
Y19397D01*
X1183702Y24395D02*
Y23395D01*
X1182702D01*
X1184702D01*
X1183702D01*
Y20396D01*
X1184702Y19397D01*
X1188700D02*
X1190700D01*
X1191699Y20396D01*
Y22396D01*
X1190700Y23395D01*
X1188700D01*
X1187700Y22396D01*
Y20396D01*
X1188700Y19397D01*
X1200696Y24395D02*
Y23395D01*
X1199697D01*
X1201696D01*
X1200696D01*
Y20396D01*
X1201696Y19397D01*
X1205695D02*
X1207694D01*
X1208694Y20396D01*
Y22396D01*
X1207694Y23395D01*
X1205695D01*
X1204695Y22396D01*
Y20396D01*
X1205695Y19397D01*
X1211693D02*
X1213692D01*
X1214692Y20396D01*
Y22396D01*
X1213692Y23395D01*
X1211693D01*
X1210693Y22396D01*
Y20396D01*
X1211693Y19397D01*
X1216691D02*
X1218690D01*
X1217691D01*
Y25395D01*
X1216691D01*
X1230687Y19397D02*
X1228687D01*
X1227688Y20396D01*
Y22396D01*
X1228687Y23395D01*
X1230687D01*
X1231686Y22396D01*
Y21396D01*
X1227688D01*
X1233686Y19397D02*
Y23395D01*
X1236685D01*
X1237684Y22396D01*
Y19397D01*
X1243682Y25395D02*
Y19397D01*
X1240683D01*
X1239684Y20396D01*
Y22396D01*
X1240683Y23395D01*
X1243682D01*
X1255679D02*
X1252680D01*
X1251680Y22396D01*
Y20396D01*
X1252680Y19397D01*
X1255679D01*
X1260677D02*
X1258678D01*
X1257678Y20396D01*
Y22396D01*
X1258678Y23395D01*
X1260677D01*
X1261677Y22396D01*
Y21396D01*
X1257678D01*
X1263676Y19397D02*
Y23395D01*
X1266675D01*
X1267675Y22396D01*
Y19397D01*
X1270674Y24395D02*
Y23395D01*
X1269674D01*
X1271673D01*
X1270674D01*
Y20396D01*
X1271673Y19397D01*
X1274672Y23395D02*
Y19397D01*
Y21396D01*
X1275672Y22396D01*
X1276672Y23395D01*
X1277671D01*
X1283669Y19397D02*
X1281670D01*
X1280671Y20396D01*
Y22396D01*
X1281670Y23395D01*
X1283669D01*
X1284669Y22396D01*
Y21396D01*
X1280671D01*
X1292667Y17397D02*
Y23395D01*
X1295666D01*
X1296665Y22396D01*
Y20396D01*
X1295666Y19397D01*
X1292667D01*
X1299664D02*
X1301664D01*
X1302663Y20396D01*
Y22396D01*
X1301664Y23395D01*
X1299664D01*
X1298665Y22396D01*
Y20396D01*
X1299664Y19397D01*
X1304663D02*
X1307662D01*
X1308661Y20396D01*
X1307662Y21396D01*
X1305662D01*
X1304663Y22396D01*
X1305662Y23395D01*
X1308661D01*
X1310661Y19397D02*
X1312660D01*
X1311660D01*
Y23395D01*
X1310661D01*
X1316659Y24395D02*
Y23395D01*
X1315659D01*
X1317659D01*
X1316659D01*
Y20396D01*
X1317659Y19397D01*
X1320658D02*
X1322657D01*
X1321657D01*
Y23395D01*
X1320658D01*
X1326656Y19397D02*
X1328655D01*
X1329655Y20396D01*
Y22396D01*
X1328655Y23395D01*
X1326656D01*
X1325656Y22396D01*
Y20396D01*
X1326656Y19397D01*
X1331654D02*
Y23395D01*
X1334653D01*
X1335653Y22396D01*
Y19397D01*
X1337652D02*
Y20396D01*
X1338652D01*
Y19397D01*
X1337652D01*
X712784Y173449D02*
X711673Y174560D01*
X709452D01*
X708341Y173449D01*
Y169006D01*
X709452Y167895D01*
X711673D01*
X712784Y169006D01*
Y171228D01*
X710563D01*
X708341Y159560D02*
Y152895D01*
Y156228D01*
X712784D01*
Y159560D01*
Y152895D01*
Y144560D02*
X708341D01*
Y141227D01*
X710563D01*
X708341D01*
Y137895D01*
X709452Y129560D02*
X711673D01*
X710563D01*
Y122895D01*
X709452D01*
X711673D01*
X712784Y113449D02*
X711673Y114560D01*
X709452D01*
X708341Y113449D01*
Y109006D01*
X709452Y107895D01*
X711673D01*
X712784Y109006D01*
X708341Y99560D02*
Y92895D01*
X711673D01*
X712784Y94006D01*
Y98449D01*
X711673Y99560D01*
X708341D01*
Y84560D02*
Y77895D01*
X711673D01*
X712784Y79006D01*
Y80117D01*
X711673Y81227D01*
X708341D01*
X711673D01*
X712784Y82338D01*
Y83449D01*
X711673Y84560D01*
X708341D01*
Y62895D02*
Y67338D01*
X710563Y69560D01*
X712784Y67338D01*
Y62895D01*
Y66228D01*
X708341D01*
X712784Y54560D02*
X708341D01*
Y47895D01*
X712784D01*
X708341Y51227D02*
X710563D01*
D78*
X702250Y179394D02*
X1728962D01*
X702250Y44394D02*
X1728962D01*
X702250Y29394D02*
X1728962D01*
Y194394D01*
X702250D02*
X1728962D01*
X702250Y29394D02*
Y194394D01*
X1588702Y29394D02*
Y194394D01*
X1473736Y29394D02*
Y194394D01*
X1339776Y29394D02*
Y194394D01*
X1265196Y29394D02*
Y194394D01*
X1206211Y29394D02*
Y194394D01*
X1056256Y29394D02*
Y194394D01*
X982876Y29394D02*
Y194394D01*
X932288Y29394D02*
Y194394D01*
X817322Y29394D02*
Y194394D01*
X757338Y29394D02*
Y194394D01*
D79*
X1593202Y183894D02*
Y191092D01*
X1596801D01*
X1598001Y189892D01*
Y187493D01*
X1596801Y186293D01*
X1593202D01*
X1595601D02*
X1598001Y183894D01*
X1601599D02*
X1603999D01*
X1605198Y185094D01*
Y187493D01*
X1603999Y188693D01*
X1601599D01*
X1600400Y187493D01*
Y185094D01*
X1601599Y183894D01*
X1607598Y188693D02*
Y185094D01*
X1608797Y183894D01*
X1612396D01*
Y188693D01*
X1615995Y189892D02*
Y188693D01*
X1614795D01*
X1617194D01*
X1615995D01*
Y185094D01*
X1617194Y183894D01*
X1624392D02*
X1621993D01*
X1620793Y185094D01*
Y187493D01*
X1621993Y188693D01*
X1624392D01*
X1625592Y187493D01*
Y186293D01*
X1620793D01*
X1632789Y191092D02*
Y183894D01*
X1629190D01*
X1627991Y185094D01*
Y187493D01*
X1629190Y188693D01*
X1632789D01*
X1642386Y183894D02*
Y191092D01*
X1645985D01*
X1647185Y189892D01*
Y187493D01*
X1645985Y186293D01*
X1642386D01*
X1650784Y188693D02*
X1653183D01*
X1654382Y187493D01*
Y183894D01*
X1650784D01*
X1649584Y185094D01*
X1650784Y186293D01*
X1654382D01*
X1657981Y189892D02*
Y188693D01*
X1656782D01*
X1659181D01*
X1657981D01*
Y185094D01*
X1659181Y183894D01*
X1662780Y191092D02*
Y183894D01*
Y187493D01*
X1663979Y188693D01*
X1666379D01*
X1667578Y187493D01*
Y183894D01*
X1677175Y191092D02*
Y183894D01*
X1681973D01*
X1687971D02*
X1685572D01*
X1684373Y185094D01*
Y187493D01*
X1685572Y188693D01*
X1687971D01*
X1689171Y187493D01*
Y186293D01*
X1684373D01*
X1691570Y183894D02*
Y188693D01*
X1695169D01*
X1696369Y187493D01*
Y183894D01*
X1701167Y181495D02*
X1702367D01*
X1703566Y182695D01*
Y188693D01*
X1699968D01*
X1698768Y187493D01*
Y185094D01*
X1699968Y183894D01*
X1703566D01*
X1707165Y189892D02*
Y188693D01*
X1705966D01*
X1708365D01*
X1707165D01*
Y185094D01*
X1708365Y183894D01*
X1711964Y191092D02*
Y183894D01*
Y187493D01*
X1713163Y188693D01*
X1715562D01*
X1716762Y187493D01*
Y183894D01*
X1478236Y191092D02*
Y183894D01*
Y187493D01*
X1483034D01*
Y191092D01*
Y183894D01*
X1486633D02*
X1489032D01*
X1490232Y185094D01*
Y187493D01*
X1489032Y188693D01*
X1486633D01*
X1485433Y187493D01*
Y185094D01*
X1486633Y183894D01*
X1492631D02*
X1495030D01*
X1493831D01*
Y191092D01*
X1492631D01*
X1502228Y183894D02*
X1499829D01*
X1498629Y185094D01*
Y187493D01*
X1499829Y188693D01*
X1502228D01*
X1503428Y187493D01*
Y186293D01*
X1498629D01*
X1513025Y191092D02*
Y183894D01*
X1517823D01*
X1523821D02*
X1521422D01*
X1520222Y185094D01*
Y187493D01*
X1521422Y188693D01*
X1523821D01*
X1525021Y187493D01*
Y186293D01*
X1520222D01*
X1527420Y183894D02*
Y188693D01*
X1531019D01*
X1532218Y187493D01*
Y183894D01*
X1537017Y181495D02*
X1538216D01*
X1539416Y182695D01*
Y188693D01*
X1535817D01*
X1534618Y187493D01*
Y185094D01*
X1535817Y183894D01*
X1539416D01*
X1543015Y189892D02*
Y188693D01*
X1541815D01*
X1544214D01*
X1543015D01*
Y185094D01*
X1544214Y183894D01*
X1547813Y191092D02*
Y183894D01*
Y187493D01*
X1549013Y188693D01*
X1551412D01*
X1552612Y187493D01*
Y183894D01*
X1344276Y191092D02*
X1349074D01*
X1346675D01*
Y183894D01*
X1355072D02*
X1352673D01*
X1351473Y185094D01*
Y187493D01*
X1352673Y188693D01*
X1355072D01*
X1356272Y187493D01*
Y186293D01*
X1351473D01*
X1358671Y183894D02*
Y188693D01*
X1359871D01*
X1361070Y187493D01*
Y183894D01*
Y187493D01*
X1362270Y188693D01*
X1363469Y187493D01*
Y183894D01*
X1365869Y181495D02*
Y188693D01*
X1369467D01*
X1370667Y187493D01*
Y185094D01*
X1369467Y183894D01*
X1365869D01*
X1373066D02*
X1375465D01*
X1374266D01*
Y191092D01*
X1373066D01*
X1380264Y188693D02*
X1382663D01*
X1383863Y187493D01*
Y183894D01*
X1380264D01*
X1379064Y185094D01*
X1380264Y186293D01*
X1383863D01*
X1387462Y189892D02*
Y188693D01*
X1386262D01*
X1388661D01*
X1387462D01*
Y185094D01*
X1388661Y183894D01*
X1395859D02*
X1393460D01*
X1392260Y185094D01*
Y187493D01*
X1393460Y188693D01*
X1395859D01*
X1397058Y187493D01*
Y186293D01*
X1392260D01*
X1269696Y183894D02*
Y191092D01*
X1273295D01*
X1274494Y189892D01*
Y187493D01*
X1273295Y186293D01*
X1269696D01*
X1278093Y188693D02*
X1280492D01*
X1281692Y187493D01*
Y183894D01*
X1278093D01*
X1276893Y185094D01*
X1278093Y186293D01*
X1281692D01*
X1288890Y191092D02*
Y183894D01*
X1285291D01*
X1284091Y185094D01*
Y187493D01*
X1285291Y188693D01*
X1288890D01*
X1303285Y189892D02*
X1302085Y191092D01*
X1299686D01*
X1298486Y189892D01*
Y188693D01*
X1299686Y187493D01*
X1302085D01*
X1303285Y186293D01*
Y185094D01*
X1302085Y183894D01*
X1299686D01*
X1298486Y185094D01*
X1305684Y191092D02*
Y183894D01*
Y187493D01*
X1306884Y188693D01*
X1309283D01*
X1310483Y187493D01*
Y183894D01*
X1314081Y188693D02*
X1316481D01*
X1317680Y187493D01*
Y183894D01*
X1314081D01*
X1312882Y185094D01*
X1314081Y186293D01*
X1317680D01*
X1320079Y181495D02*
Y188693D01*
X1323678D01*
X1324878Y187493D01*
Y185094D01*
X1323678Y183894D01*
X1320079D01*
X1330876D02*
X1328477D01*
X1327277Y185094D01*
Y187493D01*
X1328477Y188693D01*
X1330876D01*
X1332076Y187493D01*
Y186293D01*
X1327277D01*
X1210711Y191092D02*
Y186293D01*
X1213110Y183894D01*
X1215509Y186293D01*
Y191092D01*
X1217909Y183894D02*
X1220308D01*
X1219108D01*
Y188693D01*
X1217909D01*
X1225106D02*
X1227505D01*
X1228705Y187493D01*
Y183894D01*
X1225106D01*
X1223907Y185094D01*
X1225106Y186293D01*
X1228705D01*
X1231104Y183894D02*
X1235903Y188693D01*
X1238302Y183894D02*
Y191092D01*
X1241901D01*
X1243100Y189892D01*
Y187493D01*
X1241901Y186293D01*
X1238302D01*
X1246699Y188693D02*
X1249098D01*
X1250298Y187493D01*
Y183894D01*
X1246699D01*
X1245500Y185094D01*
X1246699Y186293D01*
X1250298D01*
X1257496Y191092D02*
Y183894D01*
X1253897D01*
X1252697Y185094D01*
Y187493D01*
X1253897Y188693D01*
X1257496D01*
X1060756Y191092D02*
Y183894D01*
X1064355D01*
X1065554Y185094D01*
Y189892D01*
X1064355Y191092D01*
X1060756D01*
X1067953Y188693D02*
Y183894D01*
Y186293D01*
X1069153Y187493D01*
X1070353Y188693D01*
X1071552D01*
X1075151Y183894D02*
X1077550D01*
X1076351D01*
Y188693D01*
X1075151D01*
X1081149Y183894D02*
X1083549D01*
X1082349D01*
Y191092D01*
X1081149D01*
X1087147Y183894D02*
X1089546D01*
X1088347D01*
Y191092D01*
X1087147D01*
X1100343D02*
Y183894D01*
X1105142D01*
X1108740Y188693D02*
X1111140D01*
X1112339Y187493D01*
Y183894D01*
X1108740D01*
X1107541Y185094D01*
X1108740Y186293D01*
X1112339D01*
X1114738Y188693D02*
Y185094D01*
X1115938Y183894D01*
X1119537D01*
Y182695D01*
X1118337Y181495D01*
X1117138D01*
X1119537Y183894D02*
Y188693D01*
X1125535Y183894D02*
X1123136D01*
X1121936Y185094D01*
Y187493D01*
X1123136Y188693D01*
X1125535D01*
X1126735Y187493D01*
Y186293D01*
X1121936D01*
X1129134Y188693D02*
Y183894D01*
Y186293D01*
X1130333Y187493D01*
X1131533Y188693D01*
X1132733D01*
X1143529Y183894D02*
Y191092D01*
X1147128D01*
X1148328Y189892D01*
Y187493D01*
X1147128Y186293D01*
X1143529D01*
X1151926Y188693D02*
X1154326D01*
X1155525Y187493D01*
Y183894D01*
X1151926D01*
X1150727Y185094D01*
X1151926Y186293D01*
X1155525D01*
X1157924Y183894D02*
X1160324D01*
X1159124D01*
Y188693D01*
X1157924D01*
X1163923D02*
Y183894D01*
Y186293D01*
X1165122Y187493D01*
X1166322Y188693D01*
X1167521D01*
X987376Y191092D02*
Y183894D01*
Y187493D01*
X992174D01*
Y191092D01*
Y183894D01*
X995773D02*
X998172D01*
X999372Y185094D01*
Y187493D01*
X998172Y188693D01*
X995773D01*
X994573Y187493D01*
Y185094D01*
X995773Y183894D01*
X1001771D02*
X1004170D01*
X1002971D01*
Y191092D01*
X1001771D01*
X1011368Y183894D02*
X1008969D01*
X1007769Y185094D01*
Y187493D01*
X1008969Y188693D01*
X1011368D01*
X1012568Y187493D01*
Y186293D01*
X1007769D01*
X1022164Y191092D02*
X1026963D01*
X1024564D01*
Y183894D01*
X1029362Y188693D02*
Y185094D01*
X1030562Y183894D01*
X1034161D01*
Y182695D01*
X1032961Y181495D01*
X1031761D01*
X1034161Y183894D02*
Y188693D01*
X1036560Y181495D02*
Y188693D01*
X1040159D01*
X1041358Y187493D01*
Y185094D01*
X1040159Y183894D01*
X1036560D01*
X1047356D02*
X1044957D01*
X1043757Y185094D01*
Y187493D01*
X1044957Y188693D01*
X1047356D01*
X1048556Y187493D01*
Y186293D01*
X1043757D01*
X936788Y183894D02*
Y191092D01*
X940387D01*
X941586Y189892D01*
Y187493D01*
X940387Y186293D01*
X936788D01*
X943986Y183894D02*
X946385D01*
X945185D01*
Y191092D01*
X943986D01*
X951183Y188693D02*
X953583D01*
X954782Y187493D01*
Y183894D01*
X951183D01*
X949984Y185094D01*
X951183Y186293D01*
X954782D01*
X958381Y189892D02*
Y188693D01*
X957181D01*
X959581D01*
X958381D01*
Y185094D01*
X959581Y183894D01*
X966778D02*
X964379D01*
X963179Y185094D01*
Y187493D01*
X964379Y188693D01*
X966778D01*
X967978Y187493D01*
Y186293D01*
X963179D01*
X975176Y191092D02*
Y183894D01*
X971577D01*
X970377Y185094D01*
Y187493D01*
X971577Y188693D01*
X975176D01*
X821822Y191092D02*
Y183894D01*
Y187493D01*
X826620D01*
Y191092D01*
Y183894D01*
X830219D02*
X832618D01*
X833818Y185094D01*
Y187493D01*
X832618Y188693D01*
X830219D01*
X829019Y187493D01*
Y185094D01*
X830219Y183894D01*
X836217D02*
X838616D01*
X837417D01*
Y191092D01*
X836217D01*
X845814Y183894D02*
X843415D01*
X842215Y185094D01*
Y187493D01*
X843415Y188693D01*
X845814D01*
X847014Y187493D01*
Y186293D01*
X842215D01*
X861409Y189892D02*
X860209Y191092D01*
X857810D01*
X856610Y189892D01*
Y188693D01*
X857810Y187493D01*
X860209D01*
X861409Y186293D01*
Y185094D01*
X860209Y183894D01*
X857810D01*
X856610Y185094D01*
X863808Y183894D02*
X866207D01*
X865008D01*
Y188693D01*
X863808D01*
X869806D02*
X874605D01*
X869806Y183894D01*
X874605D01*
X880603D02*
X878203D01*
X877004Y185094D01*
Y187493D01*
X878203Y188693D01*
X880603D01*
X881802Y187493D01*
Y186293D01*
X877004D01*
X766636Y189892D02*
X765436Y191092D01*
X763037D01*
X761838Y189892D01*
Y185094D01*
X763037Y183894D01*
X765436D01*
X766636Y185094D01*
X770235Y183894D02*
X772634D01*
X773834Y185094D01*
Y187493D01*
X772634Y188693D01*
X770235D01*
X769035Y187493D01*
Y185094D01*
X770235Y183894D01*
X776233Y188693D02*
Y185094D01*
X777432Y183894D01*
X781031D01*
Y188693D01*
X783431Y183894D02*
Y188693D01*
X787029D01*
X788229Y187493D01*
Y183894D01*
X791828Y189892D02*
Y188693D01*
X790628D01*
X793027D01*
X791828D01*
Y185094D01*
X793027Y183894D01*
X716048Y189892D02*
X714849Y191092D01*
X712450D01*
X711250Y189892D01*
Y188693D01*
X712450Y187493D01*
X714849D01*
X716048Y186293D01*
Y185094D01*
X714849Y183894D01*
X712450D01*
X711250Y185094D01*
X718448Y188693D02*
Y185094D01*
X719647Y183894D01*
X723246D01*
Y182695D01*
X722047Y181495D01*
X720847D01*
X723246Y183894D02*
Y188693D01*
X725645Y183894D02*
Y188693D01*
X726845D01*
X728045Y187493D01*
Y183894D01*
Y187493D01*
X729244Y188693D01*
X730444Y187493D01*
Y183894D01*
X732843Y191092D02*
Y183894D01*
X736442D01*
X737641Y185094D01*
Y186293D01*
Y187493D01*
X736442Y188693D01*
X732843D01*
X741240Y183894D02*
X743640D01*
X744839Y185094D01*
Y187493D01*
X743640Y188693D01*
X741240D01*
X740041Y187493D01*
Y185094D01*
X741240Y183894D01*
X747238D02*
X749638D01*
X748438D01*
Y191092D01*
X747238D01*
D80*
X814519Y15397D02*
Y9399D01*
Y12398D01*
X818518D01*
Y15397D01*
Y9399D01*
X821517D02*
X823516D01*
X824516Y10399D01*
Y12398D01*
X823516Y13398D01*
X821517D01*
X820517Y12398D01*
Y10399D01*
X821517Y9399D01*
X826515D02*
X828514D01*
X827515D01*
Y15397D01*
X826515D01*
X834513Y9399D02*
X832513D01*
X831513Y10399D01*
Y12398D01*
X832513Y13398D01*
X834513D01*
X835512Y12398D01*
Y11399D01*
X831513D01*
X843510Y15397D02*
Y9399D01*
X847508D01*
X852507D02*
X850507D01*
X849508Y10399D01*
Y12398D01*
X850507Y13398D01*
X852507D01*
X853506Y12398D01*
Y11399D01*
X849508D01*
X855506Y9399D02*
Y13398D01*
X858505D01*
X859504Y12398D01*
Y9399D01*
X863503Y7400D02*
X864503D01*
X865502Y8400D01*
Y13398D01*
X862503D01*
X861504Y12398D01*
Y10399D01*
X862503Y9399D01*
X865502D01*
X868501Y14398D02*
Y13398D01*
X867502D01*
X869501D01*
X868501D01*
Y10399D01*
X869501Y9399D01*
X872500Y15397D02*
Y9399D01*
Y12398D01*
X873500Y13398D01*
X875499D01*
X876499Y12398D01*
Y9399D01*
X814519Y19397D02*
Y25395D01*
X817518D01*
X818518Y24395D01*
Y22396D01*
X817518Y21396D01*
X814519D01*
X816518D02*
X818518Y19397D01*
X821517D02*
X823516D01*
X824516Y20396D01*
Y22396D01*
X823516Y23395D01*
X821517D01*
X820517Y22396D01*
Y20396D01*
X821517Y19397D01*
X826515Y23395D02*
Y20396D01*
X827515Y19397D01*
X830514D01*
Y23395D01*
X833513Y24395D02*
Y23395D01*
X832513D01*
X834513D01*
X833513D01*
Y20396D01*
X834513Y19397D01*
X840510D02*
X838511D01*
X837512Y20396D01*
Y22396D01*
X838511Y23395D01*
X840510D01*
X841510Y22396D01*
Y21396D01*
X837512D01*
X847508Y25395D02*
Y19397D01*
X844509D01*
X843510Y20396D01*
Y22396D01*
X844509Y23395D01*
X847508D01*
X855506Y19397D02*
Y25395D01*
X858505D01*
X859504Y24395D01*
Y22396D01*
X858505Y21396D01*
X855506D01*
X862503Y23395D02*
X864503D01*
X865502Y22396D01*
Y19397D01*
X862503D01*
X861504Y20396D01*
X862503Y21396D01*
X865502D01*
X868501Y24395D02*
Y23395D01*
X867502D01*
X869501D01*
X868501D01*
Y20396D01*
X869501Y19397D01*
X872500Y25395D02*
Y19397D01*
Y22396D01*
X873500Y23395D01*
X875499D01*
X876499Y22396D01*
Y19397D01*
X884496Y25395D02*
Y19397D01*
X888495D01*
X893493D02*
X891494D01*
X890494Y20396D01*
Y22396D01*
X891494Y23395D01*
X893493D01*
X894493Y22396D01*
Y21396D01*
X890494D01*
X896492Y19397D02*
Y23395D01*
X899492D01*
X900491Y22396D01*
Y19397D01*
X904490Y17397D02*
X905490D01*
X906489Y18397D01*
Y23395D01*
X903490D01*
X902491Y22396D01*
Y20396D01*
X903490Y19397D01*
X906489D01*
X909488Y24395D02*
Y23395D01*
X908488D01*
X910488D01*
X909488D01*
Y20396D01*
X910488Y19397D01*
X913487Y25395D02*
Y19397D01*
Y22396D01*
X914487Y23395D01*
X916486D01*
X917486Y22396D01*
Y19397D01*
X715249Y24395D02*
X714249Y25395D01*
X712250D01*
X711250Y24395D01*
Y23395D01*
X712250Y22396D01*
X714249D01*
X715249Y21396D01*
Y20396D01*
X714249Y19397D01*
X712250D01*
X711250Y20396D01*
X717248Y19397D02*
X719247D01*
X718248D01*
Y25395D01*
X717248D01*
X723246Y19397D02*
X725246D01*
X726245Y20396D01*
Y22396D01*
X725246Y23395D01*
X723246D01*
X722246Y22396D01*
Y20396D01*
X723246Y19397D01*
X729244Y24395D02*
Y23395D01*
X728244D01*
X730244D01*
X729244D01*
Y20396D01*
X730244Y19397D01*
X743240Y25395D02*
Y19397D01*
X740241D01*
X739241Y20396D01*
Y22396D01*
X740241Y23395D01*
X743240D01*
X748238Y19397D02*
X746239D01*
X745239Y20396D01*
Y22396D01*
X746239Y23395D01*
X748238D01*
X749238Y22396D01*
Y21396D01*
X745239D01*
X752237Y19397D02*
Y24395D01*
Y22396D01*
X751237D01*
X753236D01*
X752237D01*
Y24395D01*
X753236Y25395D01*
X756235Y19397D02*
X758235D01*
X757235D01*
Y23395D01*
X756235D01*
X761234Y19397D02*
Y23395D01*
X764233D01*
X765233Y22396D01*
Y19397D01*
X767232D02*
X769231D01*
X768232D01*
Y23395D01*
X767232D01*
X773230Y24395D02*
Y23395D01*
X772230D01*
X774230D01*
X773230D01*
Y20396D01*
X774230Y19397D01*
X777229D02*
X779228D01*
X778228D01*
Y23395D01*
X777229D01*
X783227Y19397D02*
X785226D01*
X786226Y20396D01*
Y22396D01*
X785226Y23395D01*
X783227D01*
X782227Y22396D01*
Y20396D01*
X783227Y19397D01*
X788225D02*
Y23395D01*
X791224D01*
X792224Y22396D01*
Y19397D01*
X794223D02*
X797222D01*
X798222Y20396D01*
X797222Y21396D01*
X795223D01*
X794223Y22396D01*
X795223Y23395D01*
X798222D01*
X806219D02*
X807219D01*
Y22396D01*
X806219D01*
Y23395D01*
Y20396D02*
X807219D01*
Y19397D01*
X806219D01*
Y20396D01*
D81*
X92634Y107300D02*
Y108633D01*
X93300Y109300D01*
X93966Y108633D01*
Y107300D01*
Y108300D01*
X92634D01*
Y103300D02*
Y104633D01*
X93300Y105300D01*
X93966Y104633D01*
Y103300D01*
Y104300D01*
X92634D01*
Y99300D02*
Y100633D01*
X93300Y101300D01*
X93966Y100633D01*
Y99300D01*
Y100300D01*
X92634D01*
X96634Y99300D02*
Y100633D01*
X97300Y101300D01*
X97966Y100633D01*
Y99300D01*
Y100300D01*
X96634D01*
Y103300D02*
Y104633D01*
X97300Y105300D01*
X97966Y104633D01*
Y103300D01*
Y104300D01*
X96634D01*
Y107300D02*
Y108633D01*
X97300Y109300D01*
X97966Y108633D01*
Y107300D01*
Y108300D01*
X96634D01*
X247134Y154800D02*
Y156133D01*
X247800Y156800D01*
X248466Y156133D01*
Y154800D01*
Y155800D01*
X247134D01*
Y150800D02*
Y152133D01*
X247800Y152800D01*
X248466Y152133D01*
Y150800D01*
Y151800D01*
X247134D01*
Y146800D02*
Y148133D01*
X247800Y148800D01*
X248466Y148133D01*
Y146800D01*
Y147800D01*
X247134D01*
X243134Y150800D02*
Y152133D01*
X243800Y152800D01*
X244466Y152133D01*
Y150800D01*
Y151800D01*
X243134D01*
Y154800D02*
Y156133D01*
X243800Y156800D01*
X244466Y156133D01*
Y154800D01*
Y155800D01*
X243134D01*
X315134Y81300D02*
Y82633D01*
X315800Y83300D01*
X316466Y82633D01*
Y81300D01*
Y82300D01*
X315134D01*
X311134Y81300D02*
Y82633D01*
X311800Y83300D01*
X312466Y82633D01*
Y81300D01*
Y82300D01*
X311134D01*
X307134Y81300D02*
Y82633D01*
X307800Y83300D01*
X308466Y82633D01*
Y81300D01*
Y82300D01*
X307134D01*
X452134Y176300D02*
Y177633D01*
X452800Y178300D01*
X453466Y177633D01*
Y176300D01*
Y177300D01*
X452134D01*
X106133Y153300D02*
Y154633D01*
X106800Y155300D01*
X107466Y154633D01*
Y153300D01*
Y154300D01*
X106133D01*
X102134Y153300D02*
Y154633D01*
X102800Y155300D01*
X103466Y154633D01*
Y153300D01*
Y154300D01*
X102134D01*
X94134Y153300D02*
Y154633D01*
X94800Y155300D01*
X95466Y154633D01*
Y153300D01*
Y154300D01*
X94134D01*
X98134Y153300D02*
Y154633D01*
X98800Y155300D01*
X99466Y154633D01*
Y153300D01*
Y154300D01*
X98134D01*
X407634Y197300D02*
Y198633D01*
X408300Y199300D01*
X408966Y198633D01*
Y197300D01*
Y198300D01*
X407634D01*
X411634Y197300D02*
Y198633D01*
X412300Y199300D01*
X412966Y198633D01*
Y197300D01*
Y198300D01*
X411634D01*
X164134Y197300D02*
Y198633D01*
X164800Y199300D01*
X165466Y198633D01*
Y197300D01*
Y198300D01*
X164134D01*
X168133Y197300D02*
Y198633D01*
X168800Y199300D01*
X169466Y198633D01*
Y197300D01*
Y198300D01*
X168133D01*
X172134Y197300D02*
Y198633D01*
X172800Y199300D01*
X173467Y198633D01*
Y197300D01*
Y198300D01*
X172134D01*
X280134Y146300D02*
Y147633D01*
X280800Y148300D01*
X281466Y147633D01*
Y146300D01*
Y147300D01*
X280134D01*
X459134Y181300D02*
Y182633D01*
X459800Y183300D01*
X460466Y182633D01*
Y181300D01*
Y182300D01*
X459134D01*
X527634Y196800D02*
Y198133D01*
X528300Y198800D01*
X528966Y198133D01*
Y196800D01*
Y197800D01*
X527634D01*
X488134Y197300D02*
Y198633D01*
X488800Y199300D01*
X489466Y198633D01*
Y197300D01*
Y198300D01*
X488134D01*
X41779Y205336D02*
Y206669D01*
X42446Y207335D01*
X43112Y206669D01*
Y205336D01*
Y206335D01*
X41779D01*
X9133Y172690D02*
Y174023D01*
X9800Y174689D01*
X10466Y174023D01*
Y172690D01*
Y173690D01*
X9133D01*
X9134Y41446D02*
Y42779D01*
X9800Y43445D01*
X10467Y42779D01*
Y41446D01*
Y42446D01*
X9134D01*
X41779Y8800D02*
Y10133D01*
X42446Y10800D01*
X43112Y10133D01*
Y8800D01*
Y9800D01*
X41779D01*
X645464Y8800D02*
Y10133D01*
X646131Y10800D01*
X646797Y10133D01*
Y8800D01*
Y9800D01*
X645464D01*
Y205336D02*
Y206669D01*
X646131Y207335D01*
X646797Y206669D01*
Y205336D01*
Y206335D01*
X645464D01*
X158133Y140800D02*
Y142133D01*
X158800Y142800D01*
X159467Y142133D01*
Y140800D01*
Y141800D01*
X158133D01*
X154133Y140800D02*
Y142133D01*
X154800Y142800D01*
X155466Y142133D01*
Y140800D01*
Y141800D01*
X154133D01*
X150134Y140800D02*
Y142133D01*
X150800Y142800D01*
X151467Y142133D01*
Y140800D01*
Y141800D01*
X150134D01*
Y144800D02*
Y146133D01*
X150800Y146800D01*
X151467Y146133D01*
Y144800D01*
Y145800D01*
X150134D01*
X154133Y144800D02*
Y146133D01*
X154800Y146800D01*
X155466Y146133D01*
Y144800D01*
Y145800D01*
X154133D01*
X158133Y144800D02*
Y146133D01*
X158800Y146800D01*
X159467Y146133D01*
Y144800D01*
Y145800D01*
X158133D01*
X132633Y125800D02*
Y127133D01*
X133300Y127800D01*
X133967Y127133D01*
Y125800D01*
Y126800D01*
X132633D01*
X130133Y139800D02*
Y141133D01*
X130800Y141800D01*
X131466Y141133D01*
Y139800D01*
Y140800D01*
X130133D01*
X126134Y139800D02*
Y141133D01*
X126800Y141800D01*
X127466Y141133D01*
Y139800D01*
Y140800D01*
X126134D01*
Y135800D02*
Y137133D01*
X126800Y137800D01*
X127466Y137133D01*
Y135800D01*
Y136800D01*
X126134D01*
X130133Y135800D02*
Y137133D01*
X130800Y137800D01*
X131466Y137133D01*
Y135800D01*
Y136800D01*
X130133D01*
X583134Y165300D02*
Y166633D01*
X583800Y167300D01*
X584466Y166633D01*
Y165300D01*
Y166300D01*
X583134D01*
X579634Y167300D02*
Y168633D01*
X580300Y169300D01*
X580966Y168633D01*
Y167300D01*
Y168300D01*
X579634D01*
Y163300D02*
Y164633D01*
X580300Y165300D01*
X580966Y164633D01*
Y163300D01*
Y164300D01*
X579634D01*
X243134Y146800D02*
Y148133D01*
X243800Y148800D01*
X244466Y148133D01*
Y146800D01*
Y147800D01*
X243134D01*
X195133Y151800D02*
Y153133D01*
X195800Y153800D01*
X196467Y153133D01*
Y151800D01*
Y152800D01*
X195133D01*
Y155800D02*
Y157133D01*
X195800Y157800D01*
X196467Y157133D01*
Y155800D01*
Y156800D01*
X195133D01*
X199134Y155800D02*
Y157133D01*
X199800Y157800D01*
X200466Y157133D01*
Y155800D01*
Y156800D01*
X199134D01*
X203134Y151800D02*
Y153133D01*
X203800Y153800D01*
X204467Y153133D01*
Y151800D01*
Y152800D01*
X203134D01*
Y155800D02*
Y157133D01*
X203800Y157800D01*
X204467Y157133D01*
Y155800D01*
Y156800D01*
X203134D01*
X91634Y178800D02*
Y180133D01*
X92300Y180800D01*
X92966Y180133D01*
Y178800D01*
Y179800D01*
X91634D01*
X95634Y178800D02*
Y180133D01*
X96300Y180800D01*
X96966Y180133D01*
Y178800D01*
Y179800D01*
X95634D01*
X99634Y178800D02*
Y180133D01*
X100300Y180800D01*
X100966Y180133D01*
Y178800D01*
Y179800D01*
X99634D01*
X533134Y170300D02*
Y171633D01*
X533800Y172300D01*
X534466Y171633D01*
Y170300D01*
Y171300D01*
X533134D01*
X521634Y170300D02*
Y171633D01*
X522300Y172300D01*
X522966Y171633D01*
Y170300D01*
Y171300D01*
X521634D01*
X614634Y92300D02*
Y93633D01*
X615300Y94300D01*
X615966Y93633D01*
Y92300D01*
Y93300D01*
X614634D01*
X604634Y92300D02*
Y93633D01*
X605300Y94300D01*
X605966Y93633D01*
Y92300D01*
Y93300D01*
X604634D01*
X156792Y51801D02*
Y53134D01*
X157458Y53801D01*
X158124Y53134D01*
Y51801D01*
Y52801D01*
X156792D01*
X160792Y47801D02*
Y49134D01*
X161458Y49801D01*
X162125Y49134D01*
Y47801D01*
Y48801D01*
X160792D01*
X164792Y51801D02*
Y53134D01*
X165458Y53801D01*
X166124Y53134D01*
Y51801D01*
Y52801D01*
X164792D01*
Y47801D02*
Y49134D01*
X165458Y49801D01*
X166124Y49134D01*
Y47801D01*
Y48801D01*
X164792D01*
X160792Y51801D02*
Y53134D01*
X161458Y53801D01*
X162125Y53134D01*
Y51801D01*
Y52801D01*
X160792D01*
X181633Y69300D02*
Y70633D01*
X182300Y71300D01*
X182966Y70633D01*
Y69300D01*
Y70300D01*
X181633D01*
X156792Y47801D02*
Y49134D01*
X157458Y49801D01*
X158124Y49134D01*
Y47801D01*
Y48801D01*
X156792D01*
X275292Y40301D02*
Y41634D01*
X275958Y42301D01*
X276624Y41634D01*
Y40301D01*
Y41301D01*
X275292D01*
X279292Y44301D02*
Y45634D01*
X279958Y46301D01*
X280625Y45634D01*
Y44301D01*
Y45301D01*
X279292D01*
X275292Y44301D02*
Y45634D01*
X275958Y46301D01*
X276624Y45634D01*
Y44301D01*
Y45301D01*
X275292D01*
X279292Y40301D02*
Y41634D01*
X279958Y42301D01*
X280625Y41634D01*
Y40301D01*
Y41301D01*
X279292D01*
X231792Y71801D02*
Y73134D01*
X232458Y73801D01*
X233124Y73134D01*
Y71801D01*
Y72801D01*
X231792D01*
X247292Y71801D02*
Y73134D01*
X247958Y73801D01*
X248624Y73134D01*
Y71801D01*
Y72801D01*
X247292D01*
X239292Y71801D02*
Y73134D01*
X239958Y73801D01*
X240624Y73134D01*
Y71801D01*
Y72801D01*
X239292D01*
X243292Y71801D02*
Y73134D01*
X243958Y73801D01*
X244624Y73134D01*
Y71801D01*
Y72801D01*
X243292D01*
X223792Y56801D02*
Y58134D01*
X224458Y58801D01*
X225125Y58134D01*
Y56801D01*
Y57801D01*
X223792D01*
X279292Y48301D02*
Y49634D01*
X279958Y50301D01*
X280625Y49634D01*
Y48301D01*
Y49301D01*
X279292D01*
X223792Y60801D02*
Y62134D01*
X224458Y62801D01*
X225125Y62134D01*
Y60801D01*
Y61801D01*
X223792D01*
X301634Y55800D02*
Y57133D01*
X302300Y57800D01*
X302966Y57133D01*
Y55800D01*
Y56800D01*
X301634D01*
X115134Y38800D02*
Y40133D01*
X115800Y40800D01*
X116466Y40133D01*
Y38800D01*
Y39800D01*
X115134D01*
X119133Y38800D02*
Y40133D01*
X119800Y40800D01*
X120466Y40133D01*
Y38800D01*
Y39800D01*
X119133D01*
X115134Y34800D02*
Y36133D01*
X115800Y36800D01*
X116466Y36133D01*
Y34800D01*
Y35800D01*
X115134D01*
X119133Y34800D02*
Y36133D01*
X119800Y36800D01*
X120466Y36133D01*
Y34800D01*
Y35800D01*
X119133D01*
X123134Y34800D02*
Y36133D01*
X123800Y36800D01*
X124467Y36133D01*
Y34800D01*
Y35800D01*
X123134D01*
Y38800D02*
Y40133D01*
X123800Y40800D01*
X124467Y40133D01*
Y38800D01*
Y39800D01*
X123134D01*
X77134Y34800D02*
Y36133D01*
X77800Y36800D01*
X78466Y36133D01*
Y34800D01*
Y35800D01*
X77134D01*
X85134Y34800D02*
Y36133D01*
X85800Y36800D01*
X86466Y36133D01*
Y34800D01*
Y35800D01*
X85134D01*
Y38800D02*
Y40133D01*
X85800Y40800D01*
X86466Y40133D01*
Y38800D01*
Y39800D01*
X85134D01*
X81134Y34800D02*
Y36133D01*
X81800Y36800D01*
X82466Y36133D01*
Y34800D01*
Y35800D01*
X81134D01*
Y38800D02*
Y40133D01*
X81800Y40800D01*
X82466Y40133D01*
Y38800D01*
Y39800D01*
X81134D01*
X77134Y38800D02*
Y40133D01*
X77800Y40800D01*
X78466Y40133D01*
Y38800D01*
Y39800D01*
X77134D01*
X254634Y44800D02*
Y46133D01*
X255300Y46800D01*
X255966Y46133D01*
Y44800D01*
Y45800D01*
X254634D01*
X637466Y41835D02*
X636133D01*
Y39836D01*
X637466D01*
X636133Y40835D02*
X636800D01*
X640466Y47835D02*
X639134D01*
Y45836D01*
X640466D01*
X639134Y46835D02*
X639800D01*
X637466Y53835D02*
X636133D01*
Y51836D01*
X637466D01*
X636133Y52835D02*
X636800D01*
X637466Y89835D02*
X636133D01*
Y87836D01*
X637466D01*
X636133Y88835D02*
X636800D01*
X640466Y95835D02*
X639134D01*
Y93836D01*
X640466D01*
X639134Y94835D02*
X639800D01*
X637466Y101835D02*
X636133D01*
Y99836D01*
X637466D01*
X636133Y100835D02*
X636800D01*
X637466Y113835D02*
X636133D01*
Y111836D01*
X637466D01*
X636133Y112835D02*
X636800D01*
X640466Y119835D02*
X639134D01*
Y117836D01*
X640466D01*
X639134Y118835D02*
X639800D01*
X637466Y125835D02*
X636133D01*
Y123836D01*
X637466D01*
X636133Y124835D02*
X636800D01*
X637466Y161835D02*
X636133D01*
Y159836D01*
X637466D01*
X636133Y160835D02*
X636800D01*
X640466Y167835D02*
X639134D01*
Y165836D01*
X640466D01*
X639134Y166835D02*
X639800D01*
X643466Y41835D02*
X642134D01*
Y39836D01*
X643466D01*
X642134Y40835D02*
X642800D01*
X646466Y47835D02*
X645133D01*
Y45836D01*
X646466D01*
X645133Y46835D02*
X645800D01*
X643466Y53835D02*
X642134D01*
Y51836D01*
X643466D01*
X642134Y52835D02*
X642800D01*
X643466Y89835D02*
X642134D01*
Y87836D01*
X643466D01*
X642134Y88835D02*
X642800D01*
X643466Y125835D02*
X642134D01*
Y123836D01*
X643466D01*
X642134Y124835D02*
X642800D01*
X643466Y161835D02*
X642134D01*
Y159836D01*
X643466D01*
X642134Y160835D02*
X642800D01*
X649466Y41835D02*
X648134D01*
Y39836D01*
X649466D01*
X648134Y40835D02*
X648800D01*
X652466Y47835D02*
X651133D01*
Y45836D01*
X652466D01*
X651133Y46835D02*
X651800D01*
X649466Y53835D02*
X648134D01*
Y51836D01*
X649466D01*
X648134Y52835D02*
X648800D01*
X649466Y89835D02*
X648134D01*
Y87836D01*
X649466D01*
X648134Y88835D02*
X648800D01*
X652466Y95835D02*
X651133D01*
Y93836D01*
X652466D01*
X651133Y94835D02*
X651800D01*
X652466Y119835D02*
X651133D01*
Y117836D01*
X652466D01*
X651133Y118835D02*
X651800D01*
X649466Y125835D02*
X648134D01*
Y123836D01*
X649466D01*
X648134Y124835D02*
X648800D01*
X649466Y161835D02*
X648134D01*
Y159836D01*
X649466D01*
X648134Y160835D02*
X648800D01*
X652466Y167835D02*
X651133D01*
Y165836D01*
X652466D01*
X651133Y166835D02*
X651800D01*
X655466Y41835D02*
X654134D01*
Y39836D01*
X655466D01*
X654134Y40835D02*
X654800D01*
X658466Y47835D02*
X657133D01*
Y45836D01*
X658466D01*
X657133Y46835D02*
X657800D01*
X655466Y53835D02*
X654134D01*
Y51836D01*
X655466D01*
X654134Y52835D02*
X654800D01*
X655466Y89835D02*
X654134D01*
Y87836D01*
X655466D01*
X654134Y88835D02*
X654800D01*
X658466Y95835D02*
X657133D01*
Y93836D01*
X658466D01*
X657133Y94835D02*
X657800D01*
X655466Y101835D02*
X654134D01*
Y99836D01*
X655466D01*
X654134Y100835D02*
X654800D01*
X658466Y107835D02*
X657133D01*
Y105836D01*
X658466D01*
X657133Y106835D02*
X657800D01*
X655466Y113835D02*
X654134D01*
Y111836D01*
X655466D01*
X654134Y112835D02*
X654800D01*
X658466Y119835D02*
X657133D01*
Y117836D01*
X658466D01*
X657133Y118835D02*
X657800D01*
X655466Y125835D02*
X654134D01*
Y123836D01*
X655466D01*
X654134Y124835D02*
X654800D01*
X655466Y161835D02*
X654134D01*
Y159836D01*
X655466D01*
X654134Y160835D02*
X654800D01*
X658466Y167835D02*
X657133D01*
Y165836D01*
X658466D01*
X657133Y166835D02*
X657800D01*
X661466Y41835D02*
X660134D01*
Y39836D01*
X661466D01*
X660134Y40835D02*
X660800D01*
X664466Y47835D02*
X663133D01*
Y45836D01*
X664466D01*
X663133Y46835D02*
X663800D01*
X661466Y53835D02*
X660134D01*
Y51836D01*
X661466D01*
X660134Y52835D02*
X660800D01*
X661466Y89835D02*
X660134D01*
Y87836D01*
X661466D01*
X660134Y88835D02*
X660800D01*
X664466Y95835D02*
X663133D01*
Y93836D01*
X664466D01*
X663133Y94835D02*
X663800D01*
X661466Y101835D02*
X660134D01*
Y99836D01*
X661466D01*
X660134Y100835D02*
X660800D01*
X664466Y107835D02*
X663133D01*
Y105836D01*
X664466D01*
X663133Y106835D02*
X663800D01*
X661466Y113835D02*
X660134D01*
Y111836D01*
X661466D01*
X660134Y112835D02*
X660800D01*
X664466Y119835D02*
X663133D01*
Y117836D01*
X664466D01*
X663133Y118835D02*
X663800D01*
X661466Y125835D02*
X660134D01*
Y123836D01*
X661466D01*
X660134Y124835D02*
X660800D01*
X661466Y161835D02*
X660134D01*
Y159836D01*
X661466D01*
X660134Y160835D02*
X660800D01*
X664466Y167835D02*
X663133D01*
Y165836D01*
X664466D01*
X663133Y166835D02*
X663800D01*
X661466Y173835D02*
X660134D01*
Y171836D01*
X661466D01*
X660134Y172835D02*
X660800D01*
X667466Y41835D02*
X666133D01*
Y39836D01*
X667466D01*
X666133Y40835D02*
X666800D01*
X670466Y47835D02*
X669134D01*
Y45836D01*
X670466D01*
X669134Y46835D02*
X669800D01*
X667466Y53835D02*
X666133D01*
Y51836D01*
X667466D01*
X666133Y52835D02*
X666800D01*
X670466Y59835D02*
X669134D01*
Y57836D01*
X670466D01*
X669134Y58835D02*
X669800D01*
X670466Y71835D02*
X669134D01*
Y69836D01*
X670466D01*
X669134Y70835D02*
X669800D01*
X670466Y83835D02*
X669134D01*
Y81836D01*
X670466D01*
X669134Y82835D02*
X669800D01*
X667466Y89835D02*
X666133D01*
Y87836D01*
X667466D01*
X666133Y88835D02*
X666800D01*
X670466Y95835D02*
X669134D01*
Y93836D01*
X670466D01*
X669134Y94835D02*
X669800D01*
X667466Y101835D02*
X666133D01*
Y99836D01*
X667466D01*
X666133Y100835D02*
X666800D01*
X670466Y107835D02*
X669134D01*
Y105836D01*
X670466D01*
X669134Y106835D02*
X669800D01*
X667466Y113835D02*
X666133D01*
Y111836D01*
X667466D01*
X666133Y112835D02*
X666800D01*
X670466Y119835D02*
X669134D01*
Y117836D01*
X670466D01*
X669134Y118835D02*
X669800D01*
X667466Y125835D02*
X666133D01*
Y123836D01*
X667466D01*
X666133Y124835D02*
X666800D01*
X670466Y131835D02*
X669134D01*
Y129836D01*
X670466D01*
X669134Y130835D02*
X669800D01*
X670466Y143835D02*
X669134D01*
Y141836D01*
X670466D01*
X669134Y142835D02*
X669800D01*
X670466Y155835D02*
X669134D01*
Y153836D01*
X670466D01*
X669134Y154835D02*
X669800D01*
X667466Y161835D02*
X666133D01*
Y159836D01*
X667466D01*
X666133Y160835D02*
X666800D01*
X670466Y167835D02*
X669134D01*
Y165836D01*
X670466D01*
X669134Y166835D02*
X669800D01*
X667466Y173835D02*
X666133D01*
Y171836D01*
X667466D01*
X666133Y172835D02*
X666800D01*
X673466Y41835D02*
X672133D01*
Y39836D01*
X673466D01*
X672133Y40835D02*
X672800D01*
X676466Y47835D02*
X675134D01*
Y45836D01*
X676466D01*
X675134Y46835D02*
X675800D01*
X673466Y53835D02*
X672133D01*
Y51836D01*
X673466D01*
X672133Y52835D02*
X672800D01*
X676466Y59835D02*
X675134D01*
Y57836D01*
X676466D01*
X675134Y58835D02*
X675800D01*
X673466Y65835D02*
X672133D01*
Y63836D01*
X673466D01*
X672133Y64835D02*
X672800D01*
X676466Y71835D02*
X675134D01*
Y69836D01*
X676466D01*
X675134Y70835D02*
X675800D01*
X673466Y77835D02*
X672133D01*
Y75836D01*
X673466D01*
X672133Y76835D02*
X672800D01*
X676466Y83835D02*
X675134D01*
Y81836D01*
X676466D01*
X675134Y82835D02*
X675800D01*
X673466Y89835D02*
X672133D01*
Y87836D01*
X673466D01*
X672133Y88835D02*
X672800D01*
X676466Y95835D02*
X675134D01*
Y93836D01*
X676466D01*
X675134Y94835D02*
X675800D01*
X673466Y101835D02*
X672133D01*
Y99836D01*
X673466D01*
X672133Y100835D02*
X672800D01*
X676466Y107835D02*
X675134D01*
Y105836D01*
X676466D01*
X675134Y106835D02*
X675800D01*
X673466Y113835D02*
X672133D01*
Y111836D01*
X673466D01*
X672133Y112835D02*
X672800D01*
X676466Y119835D02*
X675134D01*
Y117836D01*
X676466D01*
X675134Y118835D02*
X675800D01*
X673466Y125835D02*
X672133D01*
Y123836D01*
X673466D01*
X672133Y124835D02*
X672800D01*
X676466Y131835D02*
X675134D01*
Y129836D01*
X676466D01*
X675134Y130835D02*
X675800D01*
X673466Y137835D02*
X672133D01*
Y135836D01*
X673466D01*
X672133Y136835D02*
X672800D01*
X676466Y143835D02*
X675134D01*
Y141836D01*
X676466D01*
X675134Y142835D02*
X675800D01*
X673466Y149835D02*
X672133D01*
Y147836D01*
X673466D01*
X672133Y148835D02*
X672800D01*
X676466Y155835D02*
X675134D01*
Y153836D01*
X676466D01*
X675134Y154835D02*
X675800D01*
X673466Y161835D02*
X672133D01*
Y159836D01*
X673466D01*
X672133Y160835D02*
X672800D01*
X676466Y167835D02*
X675134D01*
Y165836D01*
X676466D01*
X675134Y166835D02*
X675800D01*
X673466Y173835D02*
X672133D01*
Y171836D01*
X673466D01*
X672133Y172835D02*
X672800D01*
X679466Y41835D02*
X678133D01*
Y39836D01*
X679466D01*
X678133Y40835D02*
X678800D01*
X679466Y53835D02*
X678133D01*
Y51836D01*
X679466D01*
X678133Y52835D02*
X678800D01*
X679466Y65835D02*
X678133D01*
Y63836D01*
X679466D01*
X678133Y64835D02*
X678800D01*
X679466Y77835D02*
X678133D01*
Y75836D01*
X679466D01*
X678133Y76835D02*
X678800D01*
X679466Y89835D02*
X678133D01*
Y87836D01*
X679466D01*
X678133Y88835D02*
X678800D01*
X679466Y101835D02*
X678133D01*
Y99836D01*
X679466D01*
X678133Y100835D02*
X678800D01*
X679466Y113835D02*
X678133D01*
Y111836D01*
X679466D01*
X678133Y112835D02*
X678800D01*
X679466Y125835D02*
X678133D01*
Y123836D01*
X679466D01*
X678133Y124835D02*
X678800D01*
X679466Y137835D02*
X678133D01*
Y135836D01*
X679466D01*
X678133Y136835D02*
X678800D01*
X679466Y149835D02*
X678133D01*
Y147836D01*
X679466D01*
X678133Y148835D02*
X678800D01*
X679466Y161835D02*
X678133D01*
Y159836D01*
X679466D01*
X678133Y160835D02*
X678800D01*
X679466Y173835D02*
X678133D01*
Y171836D01*
X679466D01*
X678133Y172835D02*
X678800D01*
X152516Y70235D02*
X151183D01*
Y68236D01*
X152516D01*
X151183Y69235D02*
X151850D01*
X152516Y81235D02*
X151183D01*
Y79236D01*
X152516D01*
X151183Y80235D02*
X151850D01*
X155266Y64735D02*
X153934D01*
Y62736D01*
X155266D01*
X153934Y63735D02*
X154600D01*
X158016Y70235D02*
X156684D01*
Y68236D01*
X158016D01*
X156684Y69235D02*
X157350D01*
X155266Y75735D02*
X153934D01*
Y73736D01*
X155266D01*
X153934Y74735D02*
X154600D01*
X158016Y81235D02*
X156684D01*
Y79236D01*
X158016D01*
X156684Y80235D02*
X157350D01*
X155266Y86735D02*
X153934D01*
Y84736D01*
X155266D01*
X153934Y85735D02*
X154600D01*
X160766Y64735D02*
X159433D01*
Y62736D01*
X160766D01*
X159433Y63735D02*
X160100D01*
X163516Y70235D02*
X162183D01*
Y68236D01*
X163516D01*
X162183Y69235D02*
X162850D01*
X160766Y75735D02*
X159433D01*
Y73736D01*
X160766D01*
X159433Y74735D02*
X160100D01*
X163516Y81235D02*
X162183D01*
Y79236D01*
X163516D01*
X162183Y80235D02*
X162850D01*
X160766Y86735D02*
X159433D01*
Y84736D01*
X160766D01*
X159433Y85735D02*
X160100D01*
X166266Y64735D02*
X164934D01*
Y62736D01*
X166266D01*
X164934Y63735D02*
X165600D01*
X169016Y70235D02*
X167683D01*
Y68236D01*
X169016D01*
X167683Y69235D02*
X168350D01*
X166266Y75735D02*
X164934D01*
Y73736D01*
X166266D01*
X164934Y74735D02*
X165600D01*
X169016Y81235D02*
X167683D01*
Y79236D01*
X169016D01*
X167683Y80235D02*
X168350D01*
X166266Y86735D02*
X164934D01*
Y84736D01*
X166266D01*
X164934Y85735D02*
X165600D01*
X161134Y22300D02*
Y23633D01*
X161800Y24300D01*
X162467Y23633D01*
Y22300D01*
Y23300D01*
X161134D01*
X275292Y48301D02*
Y49634D01*
X275958Y50301D01*
X276624Y49634D01*
Y48301D01*
Y49301D01*
X275292D01*
X323634Y150300D02*
Y151633D01*
X324300Y152300D01*
X324966Y151633D01*
Y150300D01*
Y151300D01*
X323634D01*
X319634Y150300D02*
Y151633D01*
X320300Y152300D01*
X320966Y151633D01*
Y150300D01*
Y151300D01*
X319634D01*
X280134Y150300D02*
Y151633D01*
X280800Y152300D01*
X281466Y151633D01*
Y150300D01*
Y151300D01*
X280134D01*
X175634Y144800D02*
Y146133D01*
X176300Y146800D01*
X176967Y146133D01*
Y144800D01*
Y145800D01*
X175634D01*
X199134Y151800D02*
Y153133D01*
X199800Y153800D01*
X200466Y153133D01*
Y151800D01*
Y152800D01*
X199134D01*
X184634Y134800D02*
Y136133D01*
X185300Y136800D01*
X185967Y136133D01*
Y134800D01*
Y135800D01*
X184634D01*
X215134Y71800D02*
Y73133D01*
X215800Y73800D01*
X216466Y73133D01*
Y71800D01*
Y72800D01*
X215134D01*
X102134Y144300D02*
Y145633D01*
X102800Y146300D01*
X103466Y145633D01*
Y144300D01*
Y145300D01*
X102134D01*
X98134Y144300D02*
Y145633D01*
X98800Y146300D01*
X99466Y145633D01*
Y144300D01*
Y145300D01*
X98134D01*
X94134Y144300D02*
Y145633D01*
X94800Y146300D01*
X95466Y145633D01*
Y144300D01*
Y145300D01*
X94134D01*
X29134Y73800D02*
Y71800D01*
X30133D01*
X30466Y72134D01*
Y73466D01*
X30133Y73800D01*
X29134D01*
X19133D02*
Y71800D01*
X20133D01*
X20467Y72134D01*
Y73466D01*
X20133Y73800D01*
X19133D01*
Y83800D02*
Y81800D01*
X20133D01*
X20467Y82134D01*
Y83467D01*
X20133Y83800D01*
X19133D01*
X29134D02*
Y81800D01*
X30133D01*
X30466Y82134D01*
Y83467D01*
X30133Y83800D01*
X29134D01*
Y93800D02*
Y91800D01*
X30133D01*
X30466Y92134D01*
Y93467D01*
X30133Y93800D01*
X29134D01*
X19133D02*
Y91800D01*
X20133D01*
X20467Y92134D01*
Y93467D01*
X20133Y93800D01*
X19133D01*
Y103800D02*
Y101800D01*
X20133D01*
X20467Y102134D01*
Y103466D01*
X20133Y103800D01*
X19133D01*
X29134D02*
Y101800D01*
X30133D01*
X30466Y102134D01*
Y103466D01*
X30133Y103800D01*
X29134D01*
Y113800D02*
Y111800D01*
X30133D01*
X30466Y112134D01*
Y113467D01*
X30133Y113800D01*
X29134D01*
X19133D02*
Y111800D01*
X20133D01*
X20467Y112134D01*
Y113467D01*
X20133Y113800D01*
X19133D01*
Y123800D02*
Y121800D01*
X20133D01*
X20467Y122134D01*
Y123467D01*
X20133Y123800D01*
X19133D01*
X29134D02*
Y121800D01*
X30133D01*
X30466Y122134D01*
Y123467D01*
X30133Y123800D01*
X29134D01*
Y133800D02*
Y131800D01*
X30133D01*
X30466Y132134D01*
Y133466D01*
X30133Y133800D01*
X29134D01*
X19133D02*
Y131800D01*
X20133D01*
X20467Y132134D01*
Y133466D01*
X20133Y133800D01*
X19133D01*
Y143800D02*
Y141800D01*
X20133D01*
X20467Y142134D01*
Y143466D01*
X20133Y143800D01*
X19133D01*
X29134D02*
Y141800D01*
X30133D01*
X30466Y142134D01*
Y143466D01*
X30133Y143800D01*
X29134D01*
X19152Y197650D02*
X19818D01*
X19485D01*
Y195651D01*
X19152D01*
X19818D01*
X668758Y197650D02*
X669425D01*
X669091D01*
Y195651D01*
X668758D01*
X669425D01*
X668758Y20485D02*
X669425D01*
X669091D01*
Y18485D01*
X668758D01*
X669425D01*
X19152Y20485D02*
X19818D01*
X19485D01*
Y18485D01*
X19152D01*
X19818D01*
X646136Y181410D02*
X644803D01*
Y180410D01*
X645469D01*
X644803D01*
Y179411D01*
X43773Y181410D02*
X42441D01*
Y180410D01*
X43107D01*
X42441D01*
Y179411D01*
X646136Y108242D02*
X645802Y108575D01*
X645136D01*
X644803Y108242D01*
Y106909D01*
X645136Y106576D01*
X645802D01*
X646136Y106909D01*
X555585Y102337D02*
X555251Y102670D01*
X554585D01*
X554252Y102337D01*
Y101004D01*
X554585Y100670D01*
X555251D01*
X555585Y101004D01*
Y101670D01*
X554918D01*
X566411Y201746D02*
X566078Y202079D01*
X565412D01*
X565078Y201746D01*
Y200413D01*
X565412Y200080D01*
X566078D01*
X566411Y200413D01*
X74724Y191646D02*
Y189647D01*
X75724D01*
X76057Y189980D01*
Y190313D01*
X75724Y190647D01*
X74724D01*
X75724D01*
X76057Y190980D01*
Y191313D01*
X75724Y191646D01*
X74724D01*
X90472D02*
Y189647D01*
X91472D01*
X91805Y189980D01*
Y190313D01*
X91472Y190647D01*
X90472D01*
X91472D01*
X91805Y190980D01*
Y191313D01*
X91472Y191646D01*
X90472D01*
X98346D02*
Y189647D01*
X99346D01*
X99679Y189980D01*
Y190313D01*
X99346Y190647D01*
X98346D01*
X99346D01*
X99679Y190980D01*
Y191313D01*
X99346Y191646D01*
X98346D01*
X137716D02*
Y189647D01*
X138716D01*
X139049Y189980D01*
Y190313D01*
X138716Y190647D01*
X137716D01*
X138716D01*
X139049Y190980D01*
Y191313D01*
X138716Y191646D01*
X137716D01*
X145590D02*
Y189647D01*
X146590D01*
X146923Y189980D01*
Y190313D01*
X146590Y190647D01*
X145590D01*
X146590D01*
X146923Y190980D01*
Y191313D01*
X146590Y191646D01*
X145590D01*
X153464D02*
Y189647D01*
X154464D01*
X154797Y189980D01*
Y190313D01*
X154464Y190647D01*
X153464D01*
X154464D01*
X154797Y190980D01*
Y191313D01*
X154464Y191646D01*
X153464D01*
X161338D02*
Y189647D01*
X162338D01*
X162671Y189980D01*
Y190313D01*
X162338Y190647D01*
X161338D01*
X162338D01*
X162671Y190980D01*
Y191313D01*
X162338Y191646D01*
X161338D01*
X169212D02*
Y189647D01*
X170212D01*
X170545Y189980D01*
Y190313D01*
X170212Y190647D01*
X169212D01*
X170212D01*
X170545Y190980D01*
Y191313D01*
X170212Y191646D01*
X169212D01*
X82598D02*
Y189647D01*
X83598D01*
X83931Y189980D01*
Y190313D01*
X83598Y190647D01*
X82598D01*
X83598D01*
X83931Y190980D01*
Y191313D01*
X83598Y191646D01*
X82598D01*
X413307D02*
Y189647D01*
X414307D01*
X414640Y189980D01*
Y190313D01*
X414307Y190647D01*
X413307D01*
X414307D01*
X414640Y190980D01*
Y191313D01*
X414307Y191646D01*
X413307D01*
X421181D02*
Y189647D01*
X422181D01*
X422514Y189980D01*
Y190313D01*
X422181Y190647D01*
X421181D01*
X422181D01*
X422514Y190980D01*
Y191313D01*
X422181Y191646D01*
X421181D01*
X429055D02*
Y189647D01*
X430055D01*
X430388Y189980D01*
Y190313D01*
X430055Y190647D01*
X429055D01*
X430055D01*
X430388Y190980D01*
Y191313D01*
X430055Y191646D01*
X429055D01*
X436929D02*
Y189647D01*
X437929D01*
X438262Y189980D01*
Y190313D01*
X437929Y190647D01*
X436929D01*
X437929D01*
X438262Y190980D01*
Y191313D01*
X437929Y191646D01*
X436929D01*
X444803D02*
Y189647D01*
X445803D01*
X446136Y189980D01*
Y190313D01*
X445803Y190647D01*
X444803D01*
X445803D01*
X446136Y190980D01*
Y191313D01*
X445803Y191646D01*
X444803D01*
X460551D02*
Y189647D01*
X461551D01*
X461884Y189980D01*
Y190313D01*
X461551Y190647D01*
X460551D01*
X461551D01*
X461884Y190980D01*
Y191313D01*
X461551Y191646D01*
X460551D01*
X468425D02*
Y189647D01*
X469425D01*
X469758Y189980D01*
Y190313D01*
X469425Y190647D01*
X468425D01*
X469425D01*
X469758Y190980D01*
Y191313D01*
X469425Y191646D01*
X468425D01*
X452677D02*
Y189647D01*
X453677D01*
X454010Y189980D01*
Y190313D01*
X453677Y190647D01*
X452677D01*
X453677D01*
X454010Y190980D01*
Y191313D01*
X453677Y191646D01*
X452677D01*
X476299D02*
Y189647D01*
X477299D01*
X477632Y189980D01*
Y190313D01*
X477299Y190647D01*
X476299D01*
X477299D01*
X477632Y190980D01*
Y191313D01*
X477299Y191646D01*
X476299D01*
X484173D02*
Y189647D01*
X485173D01*
X485506Y189980D01*
Y190313D01*
X485173Y190647D01*
X484173D01*
X485173D01*
X485506Y190980D01*
Y191313D01*
X485173Y191646D01*
X484173D01*
X492047D02*
Y189647D01*
X493047D01*
X493380Y189980D01*
Y190313D01*
X493047Y190647D01*
X492047D01*
X493047D01*
X493380Y190980D01*
Y191313D01*
X493047Y191646D01*
X492047D01*
X499921D02*
Y189647D01*
X500921D01*
X501254Y189980D01*
Y190313D01*
X500921Y190647D01*
X499921D01*
X500921D01*
X501254Y190980D01*
Y191313D01*
X500921Y191646D01*
X499921D01*
X507795D02*
Y189647D01*
X508795D01*
X509128Y189980D01*
Y190313D01*
X508795Y190647D01*
X507795D01*
X508795D01*
X509128Y190980D01*
Y191313D01*
X508795Y191646D01*
X507795D01*
X515669D02*
Y189647D01*
X516669D01*
X517002Y189980D01*
Y190313D01*
X516669Y190647D01*
X515669D01*
X516669D01*
X517002Y190980D01*
Y191313D01*
X516669Y191646D01*
X515669D01*
X523543D02*
Y189647D01*
X524543D01*
X524876Y189980D01*
Y190313D01*
X524543Y190647D01*
X523543D01*
X524543D01*
X524876Y190980D01*
Y191313D01*
X524543Y191646D01*
X523543D01*
X531417D02*
Y189647D01*
X532417D01*
X532750Y189980D01*
Y190313D01*
X532417Y190647D01*
X531417D01*
X532417D01*
X532750Y190980D01*
Y191313D01*
X532417Y191646D01*
X531417D01*
X539291D02*
Y189647D01*
X540291D01*
X540624Y189980D01*
Y190313D01*
X540291Y190647D01*
X539291D01*
X540291D01*
X540624Y190980D01*
Y191313D01*
X540291Y191646D01*
X539291D01*
X547165D02*
Y189647D01*
X548165D01*
X548498Y189980D01*
Y190313D01*
X548165Y190647D01*
X547165D01*
X548165D01*
X548498Y190980D01*
Y191313D01*
X548165Y191646D01*
X547165D01*
X586535D02*
Y189647D01*
X587535D01*
X587868Y189980D01*
Y190313D01*
X587535Y190647D01*
X586535D01*
X587535D01*
X587868Y190980D01*
Y191313D01*
X587535Y191646D01*
X586535D01*
X594409D02*
Y189647D01*
X595409D01*
X595742Y189980D01*
Y190313D01*
X595409Y190647D01*
X594409D01*
X595409D01*
X595742Y190980D01*
Y191313D01*
X595409Y191646D01*
X594409D01*
X602283D02*
Y189647D01*
X603283D01*
X603616Y189980D01*
Y190313D01*
X603283Y190647D01*
X602283D01*
X603283D01*
X603616Y190980D01*
Y191313D01*
X603283Y191646D01*
X602283D01*
X610157D02*
Y189647D01*
X611157D01*
X611490Y189980D01*
Y190313D01*
X611157Y190647D01*
X610157D01*
X611157D01*
X611490Y190980D01*
Y191313D01*
X611157Y191646D01*
X610157D01*
X43773Y25565D02*
X43440Y25898D01*
X42774D01*
X42441Y25565D01*
Y24232D01*
X42774Y23899D01*
X43440D01*
X43773Y24232D01*
X342986Y15722D02*
X342653Y16056D01*
X341986D01*
X341653Y15722D01*
Y14390D01*
X341986Y14056D01*
X342653D01*
X342986Y14390D01*
X563459Y15722D02*
X563125Y16056D01*
X562459D01*
X562126Y15722D01*
Y14390D01*
X562459Y14056D01*
X563125D01*
X563459Y14390D01*
X117395Y201746D02*
X117062Y202079D01*
X116396D01*
X116063Y201746D01*
Y200413D01*
X116396Y200080D01*
X117062D01*
X117395Y200413D01*
X125118Y102670D02*
Y100670D01*
Y101670D01*
X126451D01*
Y102670D01*
Y100670D01*
X120939Y15722D02*
X120606Y16056D01*
X119939D01*
X119606Y15722D01*
Y14390D01*
X119939Y14056D01*
X120606D01*
X120939Y14390D01*
M02*
