G04*
G04 #@! TF.GenerationSoftware,Altium Limited,Altium Designer,22.1.2 (22)*
G04*
G04 Layer_Color=8388736*
%FSLAX25Y25*%
%MOIN*%
G70*
G04*
G04 #@! TF.SameCoordinates,59E48C8D-FAF2-4F44-849B-A05F376D2ADF*
G04*
G04*
G04 #@! TF.FilePolarity,Negative*
G04*
G01*
G75*
%ADD12O,0.20085X0.04337*%
%ADD13O,0.14179X0.12211*%
%ADD14O,0.04337X0.20085*%
%ADD15O,0.06266X0.08274*%
%ADD16C,0.12211*%
%ADD17C,0.10243*%
%ADD18C,0.27959*%
%ADD19C,0.07093*%
%ADD20R,0.07093X0.07093*%
D12*
X120473Y15256D02*
D03*
X116929Y201279D02*
D03*
X562992Y15256D02*
D03*
X342520D02*
D03*
X565945Y201279D02*
D03*
D13*
X125984Y101870D02*
D03*
D14*
X43307Y25098D02*
D03*
X645669Y107776D02*
D03*
D15*
X611024Y190846D02*
D03*
X603150D02*
D03*
X595276D02*
D03*
X587402D02*
D03*
X548032D02*
D03*
X540158D02*
D03*
X532284D02*
D03*
X524410D02*
D03*
X516536D02*
D03*
X508662D02*
D03*
X500788D02*
D03*
X492914D02*
D03*
X485040D02*
D03*
X477166D02*
D03*
X453544D02*
D03*
X469292D02*
D03*
X461418D02*
D03*
X445670D02*
D03*
X437796D02*
D03*
X429922D02*
D03*
X422048D02*
D03*
X414174D02*
D03*
X83464D02*
D03*
X170079D02*
D03*
X162205D02*
D03*
X154331D02*
D03*
X146457D02*
D03*
X138583D02*
D03*
X99212D02*
D03*
X91338D02*
D03*
X75590D02*
D03*
D16*
X555118Y101870D02*
D03*
D17*
X43307Y180610D02*
D03*
X645669D02*
D03*
D18*
X19685Y19685D02*
D03*
X669291D02*
D03*
Y196850D02*
D03*
X19685D02*
D03*
D19*
X30000Y143000D02*
D03*
X20000D02*
D03*
Y133000D02*
D03*
X30000D02*
D03*
Y123000D02*
D03*
X20000D02*
D03*
Y113000D02*
D03*
X30000D02*
D03*
Y103000D02*
D03*
X20000D02*
D03*
Y93000D02*
D03*
X30000D02*
D03*
Y83000D02*
D03*
X20000D02*
D03*
X30000Y73000D02*
D03*
D20*
X20000D02*
D03*
M02*
