G04*
G04 #@! TF.GenerationSoftware,Altium Limited,Altium Designer,22.1.2 (22)*
G04*
G04 Layer_Color=255*
%FSLAX25Y25*%
%MOIN*%
G70*
G04*
G04 #@! TF.SameCoordinates,FAE6250E-A20C-4BD2-8625-F561C3F0017D*
G04*
G04*
G04 #@! TF.FilePolarity,Positive*
G04*
G01*
G75*
%ADD23O,0.19685X0.03937*%
%ADD24O,0.13780X0.11811*%
%ADD25O,0.03937X0.19685*%
%ADD26O,0.05866X0.07874*%
%ADD27C,0.11811*%
%ADD28C,0.09843*%
%ADD29C,0.27559*%
%ADD30C,0.06693*%
%ADD31R,0.06693X0.06693*%
%ADD35R,0.11417X0.04724*%
%ADD36R,0.04724X0.11417*%
%ADD37R,0.03347X0.03347*%
%ADD38R,0.13780X0.09685*%
%ADD39R,0.03150X0.10236*%
%ADD40R,0.22835X0.26775*%
%ADD41R,0.09843X0.07287*%
%ADD42R,0.05709X0.02362*%
%ADD43R,0.26775X0.22835*%
%ADD44R,0.10236X0.05512*%
%ADD45R,0.06000X0.08000*%
%ADD46R,0.03347X0.03347*%
%ADD47R,0.09685X0.13780*%
%ADD48C,0.03000*%
%ADD49R,0.02362X0.05709*%
%ADD50R,0.08000X0.06000*%
%ADD51R,0.07287X0.09843*%
%ADD52R,0.04500X0.02400*%
D23*
X120473Y15256D02*
D03*
X116929Y201279D02*
D03*
X562992Y15256D02*
D03*
X342520D02*
D03*
X565945Y201279D02*
D03*
D24*
X125984Y101870D02*
D03*
D25*
X43307Y25098D02*
D03*
X645669Y107776D02*
D03*
D26*
X611024Y190846D02*
D03*
X603150D02*
D03*
X595276D02*
D03*
X587402D02*
D03*
X548032D02*
D03*
X540158D02*
D03*
X532284D02*
D03*
X524410D02*
D03*
X516536D02*
D03*
X508662D02*
D03*
X500788D02*
D03*
X492914D02*
D03*
X485040D02*
D03*
X477166D02*
D03*
X453544D02*
D03*
X469292D02*
D03*
X461418D02*
D03*
X445670D02*
D03*
X437796D02*
D03*
X429922D02*
D03*
X422048D02*
D03*
X414174D02*
D03*
X83464D02*
D03*
X170079D02*
D03*
X162205D02*
D03*
X154331D02*
D03*
X146457D02*
D03*
X138583D02*
D03*
X99212D02*
D03*
X91338D02*
D03*
X75590D02*
D03*
D27*
X555118Y101870D02*
D03*
D28*
X43307Y180610D02*
D03*
X645669D02*
D03*
D29*
X19685Y19685D02*
D03*
X669291D02*
D03*
Y196850D02*
D03*
X19685D02*
D03*
D30*
X30000Y143000D02*
D03*
X20000D02*
D03*
Y133000D02*
D03*
X30000D02*
D03*
Y123000D02*
D03*
X20000D02*
D03*
Y113000D02*
D03*
X30000D02*
D03*
Y103000D02*
D03*
X20000D02*
D03*
Y93000D02*
D03*
X30000D02*
D03*
Y83000D02*
D03*
X20000D02*
D03*
X30000Y73000D02*
D03*
D31*
X20000D02*
D03*
D35*
X187961Y146500D02*
D03*
X208039D02*
D03*
X139039D02*
D03*
X118961D02*
D03*
X85039Y46500D02*
D03*
X64961D02*
D03*
X123039D02*
D03*
X102961D02*
D03*
D36*
X294500Y48539D02*
D03*
Y28461D02*
D03*
D37*
X163500Y151000D02*
D03*
Y157102D02*
D03*
X172500D02*
D03*
Y151000D02*
D03*
X154500Y157102D02*
D03*
Y151000D02*
D03*
X602000Y135051D02*
D03*
Y128949D02*
D03*
X593000Y135051D02*
D03*
Y128949D02*
D03*
Y113898D02*
D03*
Y120000D02*
D03*
X477000Y177551D02*
D03*
Y171449D02*
D03*
X64000Y79000D02*
D03*
Y72898D02*
D03*
X207500Y58949D02*
D03*
Y65051D02*
D03*
X593000Y105051D02*
D03*
Y98949D02*
D03*
X507500Y171398D02*
D03*
Y177500D02*
D03*
X73000Y115898D02*
D03*
Y122000D02*
D03*
X64000Y115898D02*
D03*
Y122000D02*
D03*
X73000Y79000D02*
D03*
Y72898D02*
D03*
X64500Y148102D02*
D03*
Y142000D02*
D03*
X216500Y58949D02*
D03*
Y65051D02*
D03*
X516500Y171449D02*
D03*
Y177551D02*
D03*
X540000Y171449D02*
D03*
Y177551D02*
D03*
D38*
X199000Y121429D02*
D03*
Y97571D02*
D03*
D39*
X153500Y133181D02*
D03*
X158500D02*
D03*
X163500D02*
D03*
X168500D02*
D03*
X173500D02*
D03*
D40*
X163500Y104046D02*
D03*
D41*
X226500Y127500D02*
D03*
Y109500D02*
D03*
X284500Y127500D02*
D03*
Y109500D02*
D03*
X270000D02*
D03*
Y127500D02*
D03*
X255500D02*
D03*
Y109500D02*
D03*
X241000D02*
D03*
Y127500D02*
D03*
D42*
X620626Y107500D02*
D03*
X611374Y111240D02*
D03*
Y103760D02*
D03*
D43*
X650500Y145500D02*
D03*
Y71000D02*
D03*
D44*
X621364Y154496D02*
D03*
Y136504D02*
D03*
Y79996D02*
D03*
Y62004D02*
D03*
D45*
X594500Y154500D02*
D03*
X605500D02*
D03*
X594500Y80000D02*
D03*
X605500D02*
D03*
X271500Y140000D02*
D03*
X282500D02*
D03*
X253500D02*
D03*
X242500D02*
D03*
X282500Y97000D02*
D03*
X271500D02*
D03*
X253500D02*
D03*
X242500D02*
D03*
D46*
X139500Y121500D02*
D03*
X133398D02*
D03*
X64551Y195500D02*
D03*
X58449D02*
D03*
X624449D02*
D03*
X630551D02*
D03*
X225949Y57500D02*
D03*
X232051D02*
D03*
X225949Y66500D02*
D03*
X232051D02*
D03*
X75874Y169449D02*
D03*
X81976D02*
D03*
X75772Y160449D02*
D03*
X81874D02*
D03*
X65449Y88000D02*
D03*
X71551D02*
D03*
X70500Y132000D02*
D03*
X64398D02*
D03*
X76602D02*
D03*
X246449Y73000D02*
D03*
X252551D02*
D03*
X155949Y180000D02*
D03*
X162051D02*
D03*
D47*
X211571Y36500D02*
D03*
X235429D02*
D03*
D48*
X653731Y180610D02*
D03*
X51369D02*
D03*
D49*
X85500Y82677D02*
D03*
X81760Y73425D02*
D03*
X89240D02*
D03*
X68500Y97323D02*
D03*
X72240Y106575D02*
D03*
X64760D02*
D03*
X78874Y141823D02*
D03*
X82614Y151075D02*
D03*
X75134D02*
D03*
D50*
X181342Y30999D02*
D03*
Y41999D02*
D03*
X269000Y61500D02*
D03*
Y50500D02*
D03*
X302500Y130000D02*
D03*
Y141000D02*
D03*
X85500Y104500D02*
D03*
Y93500D02*
D03*
X239000Y185500D02*
D03*
Y196500D02*
D03*
X211000D02*
D03*
Y185500D02*
D03*
X225000D02*
D03*
Y196500D02*
D03*
X197000D02*
D03*
Y185500D02*
D03*
X343500D02*
D03*
Y196500D02*
D03*
X385500D02*
D03*
Y185500D02*
D03*
X357500D02*
D03*
Y196500D02*
D03*
X371500D02*
D03*
Y185500D02*
D03*
X195342Y30999D02*
D03*
Y41999D02*
D03*
X302500Y107000D02*
D03*
Y96000D02*
D03*
X226500Y139000D02*
D03*
Y150000D02*
D03*
X96500Y162000D02*
D03*
Y173000D02*
D03*
X183000Y185500D02*
D03*
Y196500D02*
D03*
X399500Y185500D02*
D03*
Y196500D02*
D03*
D51*
X252500Y36500D02*
D03*
X270500D02*
D03*
D52*
X255050Y56260D02*
D03*
Y60000D02*
D03*
Y63740D02*
D03*
X243950D02*
D03*
Y60000D02*
D03*
Y56260D02*
D03*
M02*
