M48
;Layer_Color=9474304
;FILE_FORMAT=2:5
INCH,LZ
;TYPE=PLATED
T1F00S00C0.01968
T2F00S00C0.02756
T3F00S00C0.03937
T4F00S00C0.04331
T5F00S00C0.13780
%
T01
X0646331Y001
X0305Y00415
X0301
X02205Y00365
X0124Y0037
Y0041
X012
Y0037
X0116
Y0041
X0086
Y0037
X0082
Y0041
X0078
Y0037
X0042646Y001
X001Y0042646
X001Y017389
X00925Y018
X00965
X01005
X0099Y01545
X0095
X0103
X0107
X0127Y0141
Y0137
X0131
Y0141
X01335Y01275
X0151Y0142
Y0146
X0155
X0159
Y0142
X0155
X01795Y01345
X01865Y0153
X01905
X01945
Y0157
X01905
X01865
X02345Y0156
Y0152
Y0148
X02075Y00705
X01925Y0053
X01885
X01845
Y0049
X01885
X01925
X00975Y01005
Y01045
Y01085
X00935
Y01045
Y01005
X02415Y0073
X02575
X0265
X0269
X0273
X02495Y0062
Y0058
X0301Y00495
Y00455
X0305
Y00495
X03065Y0089
X03025
X02985
X0319Y0151
X03225
X02715
Y01475
X02385Y0148
Y0152
Y0156
X0453Y01775
X046Y01825
X04685Y0173
X0483Y0171
X05045Y01835
X05225Y01715
X0534
X05805Y01685
Y01645
X0584Y01665
X06055Y00935
X06155
X0646331Y0206535
X05285Y0198
X0489Y01985
X04145Y0198
X04105
X04065
X017
X0166
X0162
X0042646Y0206535
T02
X0637Y0041035
X0643
X0649
X0655
X0661
X0667
X0673
X0679
X01945Y0065035
X01875
X01805
X01735
X01665
X01595
X01525
X0156Y0072035
X0163
X017
X0177
X0184
X0191
X01945Y0079035
X01875
X01805
X01735
X01665
X01595
X01525
X0156Y0086035
X0163
X017
X0177
X0184
X0191
X0637Y0089035
X0643
X0649
X0655
X0661
X0667
X0673
X0679
X0676Y0095035
X067
X0664
X0658
X0652
X0655Y0101035
X0661
X0667
X0673
X0679
X0676Y0107035
X067
X0664
X0658
X0661Y0113035
X0667
X0673
X0679
X0676Y0119035
X067
X0664
X0658
X0652
X0655Y0125035
X0661
X0667
X0673
X0679
X0676Y0131035
X067
X0673Y0137035
X0679
X0676Y0143035
X067
X0673Y0149035
X0679
X0676Y0155035
X067
X0673Y0161035
X0679
X0676Y0167035
X067
X0664
X0658
X0652
X0655Y0161035
X0661
X0667
X0649
X0643
X0637
X064Y0167035
X0643Y0125035
X0649
X0637
X064Y0119035
X0637Y0113035
Y0101035
X064Y0095035
X0655Y0113035
X067Y0083035
X0676
X0679Y0077035
X0673
X0676Y0071035
X067
X0673Y0065035
X0679
X0676Y0059035
X067
X0673Y0053035
X0679
X0676Y0047035
X067
X0664
X0658
X0652
X0646
X064
X0643Y0053035
X0649
X0655
X0661
X0667
X0637
T03
X007559Y0190846
X0083464
X0091338
X0099212
X0138583
X0146457
X0154331
X0162205
X0170079
X0414174
X0422048
X0429922
X0437796
X044567
X0453544
X0461418
X0469292
X0477166
X048504
X0492914
X0500788
X0508662
X0516536
X052441
X0532284
X0540158
X0548032
X0587402
X0595276
X060315
X0611024
T04
X002Y0073
Y0083
Y0093
Y0103
Y0113
Y0123
Y0133
Y0143
X003
Y0133
Y0123
Y0113
Y0103
Y0093
Y0083
Y0073
T05
X0669291Y0019685
X0019685
Y019685
X0669291
M30
